G04 #@! TF.FileFunction,Copper,L1,Top,Signal*
%FSLAX46Y46*%
G04 Gerber Fmt 4.6, Leading zero omitted, Abs format (unit mm)*
G04 Created by KiCad (PCBNEW (2015-12-07 BZR 6352)-product) date Sun 21 Feb 2016 10:09:47 AM EST*
%MOMM*%
G01*
G04 APERTURE LIST*
%ADD10C,0.100000*%
%ADD11R,2.032000X1.720000*%
%ADD12O,2.032000X1.720000*%
%ADD13R,1.727200X1.727200*%
%ADD14O,1.727200X1.727200*%
%ADD15C,1.699260*%
%ADD16R,1.699260X1.699260*%
%ADD17O,2.300000X1.600000*%
%ADD18R,2.032000X1.727200*%
%ADD19O,2.032000X1.727200*%
%ADD20C,4.064000*%
%ADD21R,1.300000X1.300000*%
%ADD22C,1.300000*%
%ADD23C,1.998980*%
%ADD24C,1.600000*%
%ADD25C,1.270000*%
G04 APERTURE END LIST*
D10*
D11*
X48260000Y8890000D03*
D12*
X48260000Y6350000D03*
D13*
X7620000Y21590000D03*
D14*
X10160000Y21590000D03*
X7620000Y19050000D03*
X10160000Y19050000D03*
X7620000Y16510000D03*
X10160000Y16510000D03*
D15*
X33020000Y26670000D03*
D16*
X33020000Y36830000D03*
D15*
X19050000Y26670000D03*
D16*
X19050000Y36830000D03*
D17*
X17780000Y15240000D03*
X17780000Y12700000D03*
X17780000Y10160000D03*
X17780000Y7620000D03*
X25400000Y7620000D03*
X25400000Y10160000D03*
X25400000Y12700000D03*
X25400000Y15240000D03*
D11*
X30480000Y34290000D03*
D12*
X30480000Y31750000D03*
D11*
X16510000Y34290000D03*
D12*
X16510000Y31750000D03*
D11*
X45720000Y34290000D03*
D12*
X45720000Y31750000D03*
D18*
X25400000Y34290000D03*
D19*
X25400000Y31750000D03*
X25400000Y29210000D03*
D18*
X11430000Y34290000D03*
D19*
X11430000Y31750000D03*
X11430000Y29210000D03*
D18*
X40640000Y26670000D03*
D19*
X40640000Y24130000D03*
X40640000Y21590000D03*
D20*
X3810000Y29210000D03*
X58810000Y29210000D03*
D21*
X24130000Y19050000D03*
D22*
X19130000Y19050000D03*
D21*
X38100000Y11430000D03*
D22*
X38100000Y6430000D03*
D18*
X45720000Y21590000D03*
D19*
X45720000Y24130000D03*
X45720000Y26670000D03*
D18*
X40640000Y36830000D03*
D19*
X40640000Y34290000D03*
X40640000Y31750000D03*
D18*
X50800000Y36830000D03*
D19*
X50800000Y34290000D03*
X50800000Y31750000D03*
D18*
X50800000Y26670000D03*
D19*
X50800000Y24130000D03*
X50800000Y21590000D03*
D23*
X35560000Y16588740D03*
X35560000Y21590000D03*
X55880000Y21511260D03*
X55880000Y16510000D03*
D24*
X8890000Y26670000D03*
X30421182Y25708908D03*
X16545760Y24000638D03*
X7620000Y24130000D03*
X12700000Y19050000D03*
X22860000Y25400000D03*
X7620000Y12700000D03*
X45573143Y15835545D03*
X33821017Y5066819D03*
D25*
X8890000Y26670000D02*
X8985249Y26765249D01*
X8985249Y26765249D02*
X8985249Y36296601D01*
X16930370Y36830000D02*
X19050000Y36830000D01*
X8985249Y36296601D02*
X9518648Y36830000D01*
X9518648Y36830000D02*
X16930370Y36830000D01*
X25400000Y15240000D02*
X25400000Y20687726D01*
X25400000Y20687726D02*
X29621183Y24908909D01*
X29621183Y24908909D02*
X30421182Y25708908D01*
X38100000Y11430000D02*
X38100000Y19050000D01*
X38100000Y19050000D02*
X37852360Y19297640D01*
X45720000Y24130000D02*
X43434000Y24130000D01*
X43434000Y24130000D02*
X43084760Y23780760D01*
X43084760Y20640474D02*
X41741926Y19297640D01*
X43084760Y23780760D02*
X43084760Y20640474D01*
X41741926Y19297640D02*
X37852360Y19297640D01*
X37852360Y19297640D02*
X36559489Y20590511D01*
X36559489Y20590511D02*
X35560000Y21590000D01*
X45720000Y24130000D02*
X48006000Y24130000D01*
X48355240Y23780760D02*
X48355240Y20640474D01*
X48006000Y24130000D02*
X48355240Y23780760D01*
X48355240Y20640474D02*
X49698074Y19297640D01*
X49698074Y19297640D02*
X53666380Y19297640D01*
X53666380Y19297640D02*
X54880511Y20511771D01*
X54880511Y20511771D02*
X55880000Y21511260D01*
X13874760Y26671638D02*
X15745761Y24800637D01*
X13874760Y28604689D02*
X13874760Y26671638D01*
X15745761Y24800637D02*
X16545760Y24000638D01*
X7620000Y24130000D02*
X9744286Y24130000D01*
X9744286Y24130000D02*
X13874760Y28260474D01*
X13874760Y28260474D02*
X13874760Y28604689D01*
X13874760Y34131240D02*
X13874760Y28604689D01*
X13716000Y34290000D02*
X13874760Y34131240D01*
X11430000Y34290000D02*
X13716000Y34290000D01*
X22060001Y24600001D02*
X22860000Y25400000D01*
X21737540Y24600001D02*
X22060001Y24600001D01*
X16187539Y19050000D02*
X21737540Y24600001D01*
X12700000Y19050000D02*
X16187539Y19050000D01*
X22860000Y25400000D02*
X22860000Y34036000D01*
X22860000Y34036000D02*
X23114000Y34290000D01*
X23114000Y34290000D02*
X25400000Y34290000D01*
X17780000Y15240000D02*
X12282680Y15240000D01*
X12282680Y15240000D02*
X9742680Y12700000D01*
X9742680Y12700000D02*
X7620000Y12700000D01*
X50704751Y10703937D02*
X46373142Y15035546D01*
X48366299Y2838067D02*
X50704751Y5176519D01*
X26063875Y2838067D02*
X48366299Y2838067D01*
X18741942Y10160000D02*
X26063875Y2838067D01*
X17780000Y10160000D02*
X18741942Y10160000D01*
X46373142Y15035546D02*
X45573143Y15835545D01*
X50704751Y5176519D02*
X50704751Y10703937D01*
X31168751Y9351249D02*
X31168751Y7719085D01*
X31168751Y7719085D02*
X33021018Y5866818D01*
X33021018Y5866818D02*
X33821017Y5066819D01*
X31168751Y9351249D02*
X39468167Y9351249D01*
X43278716Y13161798D02*
X43278716Y16905346D01*
X25400000Y12700000D02*
X27820000Y12700000D01*
X27820000Y12700000D02*
X31168751Y9351249D01*
X39468167Y9351249D02*
X43278716Y13161798D01*
X44437666Y18064296D02*
X46577268Y18064296D01*
X54466508Y16510000D02*
X55880000Y16510000D01*
X46577268Y18064296D02*
X48131564Y16510000D01*
X43278716Y16905346D02*
X44437666Y18064296D01*
X48131564Y16510000D02*
X54466508Y16510000D01*
X55880000Y16510000D02*
X58308241Y18938241D01*
X58308241Y18938241D02*
X58308241Y22676817D01*
X58308241Y22676817D02*
X54315058Y26670000D01*
X54315058Y26670000D02*
X53086000Y26670000D01*
X53086000Y26670000D02*
X50800000Y26670000D01*
X35560000Y16588740D02*
X33131759Y19016981D01*
X33131759Y19016981D02*
X33131759Y22600651D01*
X33131759Y22600651D02*
X36830000Y26298892D01*
X36830000Y26298892D02*
X36830000Y26453798D01*
X25661619Y24391619D02*
X30218381Y28948381D01*
X30218381Y28948381D02*
X36075619Y28948381D01*
X36075619Y28948381D02*
X38354000Y26670000D01*
X38354000Y26670000D02*
X40640000Y26670000D01*
X25599867Y24391619D02*
X25661619Y24391619D01*
X36830000Y26453798D02*
X37046202Y26670000D01*
X22051249Y20843001D02*
X25599867Y24391619D01*
X17780000Y12700000D02*
X20200000Y12700000D01*
X20200000Y12700000D02*
X22051249Y14551249D01*
X22051249Y14551249D02*
X22051249Y20843001D01*
X34767821Y24391619D02*
X36830000Y26453798D01*
X37046202Y26670000D02*
X38354000Y26670000D01*
X40640000Y36830000D02*
X42926000Y36830000D01*
X42926000Y36830000D02*
X43084760Y36671240D01*
X43084760Y36671240D02*
X43084760Y28962360D01*
X43084760Y28962360D02*
X40792400Y26670000D01*
X40792400Y26670000D02*
X40640000Y26670000D01*
X50800000Y31750000D02*
X45720000Y26670000D01*
M02*
