M48
;DRILL file {KiCad (2015-12-07 BZR 6352)-product} date Sun 21 Feb 2016 10:09:48 AM EST
;FORMAT={-:-/ absolute / metric / decimal}
FMAT,2
METRIC,TZ
T1C0.600
T2C0.701
T3C0.800
T4C1.000
T5C1.001
T6C1.016
T7C3.048
%
G90
G05
M71
T1
X7.62Y24.13
X7.62Y12.7
X8.89Y26.67
X12.7Y19.05
X16.546Y24.001
X22.86Y25.4
X30.421Y25.709
X33.821Y5.067
X45.573Y15.836
T2
X19.05Y36.83
X19.05Y26.67
X33.02Y36.83
X33.02Y26.67
T3
X17.78Y15.24
X17.78Y12.7
X17.78Y10.16
X17.78Y7.62
X19.13Y19.05
X24.13Y19.05
X25.4Y15.24
X25.4Y12.7
X25.4Y10.16
X25.4Y7.62
X38.1Y11.43
X38.1Y6.43
T4
X16.51Y34.29
T5
X35.56Y21.59
X35.56Y16.589
X55.88Y21.511
X55.88Y16.51
T6
X7.62Y21.59
X7.62Y19.05
X7.62Y16.51
X10.16Y21.59
X10.16Y19.05
X10.16Y16.51
X11.43Y34.29
X11.43Y31.75
X11.43Y29.21
X16.51Y31.75
X25.4Y34.29
X25.4Y31.75
X25.4Y29.21
X30.48Y34.29
X30.48Y31.75
X40.64Y36.83
X40.64Y34.29
X40.64Y31.75
X40.64Y26.67
X40.64Y24.13
X40.64Y21.59
X45.72Y34.29
X45.72Y31.75
X45.72Y26.67
X45.72Y24.13
X45.72Y21.59
X48.26Y8.89
X48.26Y6.35
X50.8Y36.83
X50.8Y34.29
X50.8Y31.75
X50.8Y26.67
X50.8Y24.13
X50.8Y21.59
T7
X3.81Y29.21
X58.81Y29.21
T0
M30
