M48
;DRILL file {KiCad (2015-12-07 BZR 6352)-product} date Fri 05 Feb 2016 02:03:21 PM EST
;FORMAT={-:-/ absolute / metric / decimal}
FMAT,2
METRIC,TZ
T1C0.800
T2C0.813
T3C1.016
T4C2.301
%
G90
G05
M71
T1
X2.62Y11.43
X7.62Y11.43
X50.8Y11.43
X55.8Y11.43
T2
X12.7Y20.32
X12.7Y18.321
X15.24Y20.32
X15.24Y18.321
T3
X5.08Y7.62
X5.08Y5.08
X5.08Y2.54
X7.62Y7.62
X7.62Y5.08
X7.62Y2.54
X50.8Y7.62
X50.8Y5.08
X50.8Y2.54
X53.34Y7.62
X53.34Y5.08
X53.34Y2.54
T4
X7.971Y23.02
X19.969Y23.02
T0
M30
