G04 #@! TF.FileFunction,Copper,L2,Bot,Signal*
%FSLAX46Y46*%
G04 Gerber Fmt 4.6, Leading zero omitted, Abs format (unit mm)*
G04 Created by KiCad (PCBNEW (2015-12-07 BZR 6352)-product) date Fri 05 Feb 2016 02:03:26 PM EST*
%MOMM*%
G01*
G04 APERTURE LIST*
%ADD10C,0.100000*%
%ADD11R,1.300000X1.300000*%
%ADD12C,1.300000*%
%ADD13C,1.524000*%
%ADD14C,2.700020*%
%ADD15R,2.032000X1.727200*%
%ADD16O,2.032000X1.727200*%
%ADD17C,1.270000*%
%ADD18C,0.254000*%
G04 APERTURE END LIST*
D10*
D11*
X2620000Y11430000D03*
D12*
X7620000Y11430000D03*
D11*
X50800000Y11430000D03*
D12*
X55800000Y11430000D03*
D13*
X15240000Y18321020D03*
X12700000Y18321020D03*
X12700000Y20320000D03*
X15240000Y20320000D03*
D14*
X19969480Y23020020D03*
X7970520Y23020020D03*
D15*
X5080000Y7620000D03*
D16*
X5080000Y5080000D03*
X5080000Y2540000D03*
D15*
X50800000Y7620000D03*
D16*
X50800000Y5080000D03*
X50800000Y2540000D03*
D15*
X7620000Y7620000D03*
D16*
X7620000Y5080000D03*
X7620000Y2540000D03*
D15*
X53340000Y7620000D03*
D16*
X53340000Y5080000D03*
X53340000Y2540000D03*
D17*
X48260000Y16510000D02*
X50800000Y13970000D01*
X50800000Y13970000D02*
X50800000Y11430000D01*
X14511020Y16510000D02*
X48260000Y16510000D01*
X12700000Y18321020D02*
X14511020Y16510000D01*
X50800000Y11430000D02*
X50800000Y7620000D01*
X5080000Y5080000D02*
X5080000Y2540000D01*
X5080000Y7620000D02*
X5080000Y5080000D01*
X2620000Y11430000D02*
X2620000Y10080000D01*
X2620000Y10080000D02*
X5080000Y7620000D01*
X5621020Y18321020D02*
X2620000Y15320000D01*
X2620000Y15320000D02*
X2620000Y11430000D01*
X12700000Y18321020D02*
X5621020Y18321020D01*
X50800000Y5080000D02*
X50800000Y2540000D01*
X50800000Y7620000D02*
X50800000Y5080000D01*
X7620000Y7620000D02*
X7620000Y11430000D01*
X7620000Y5080000D02*
X7620000Y2540000D01*
X7620000Y7620000D02*
X7620000Y5080000D01*
D18*
X12700000Y20320000D02*
X12700000Y22860000D01*
X12700000Y20320000D02*
X10160000Y20320000D01*
G36*
X57710000Y710000D02*
X48970000Y710000D01*
X48970000Y13970000D01*
X48961570Y14012378D01*
X49530000Y13443949D01*
X49530000Y12215503D01*
X49502560Y12080000D01*
X49502560Y10780000D01*
X49530000Y10634169D01*
X49530000Y9074740D01*
X49332559Y8947690D01*
X49187569Y8735490D01*
X49136560Y8483600D01*
X49136560Y6756400D01*
X49180838Y6521083D01*
X49319910Y6304959D01*
X49530000Y6161411D01*
X49530000Y6101379D01*
X49230729Y5653489D01*
X49116655Y5080000D01*
X49230729Y4506511D01*
X49530000Y4058621D01*
X49530000Y3561379D01*
X49230729Y3113489D01*
X49116655Y2540000D01*
X49230729Y1966511D01*
X49555585Y1480330D01*
X50041766Y1155474D01*
X50615255Y1041400D01*
X50984745Y1041400D01*
X51558234Y1155474D01*
X52044415Y1480330D01*
X52089754Y1548184D01*
X52425680Y1248046D01*
X52978087Y1054816D01*
X53213000Y1199076D01*
X53213000Y2413000D01*
X53467000Y2413000D01*
X53467000Y1199076D01*
X53701913Y1054816D01*
X54254320Y1248046D01*
X54690732Y1637964D01*
X54944709Y2165209D01*
X54947358Y2180974D01*
X54826217Y2413000D01*
X53467000Y2413000D01*
X53213000Y2413000D01*
X53193000Y2413000D01*
X53193000Y2667000D01*
X53213000Y2667000D01*
X53213000Y4953000D01*
X53467000Y4953000D01*
X53467000Y2667000D01*
X54826217Y2667000D01*
X54947358Y2899026D01*
X54944709Y2914791D01*
X54690732Y3442036D01*
X54278892Y3810000D01*
X54690732Y4177964D01*
X54944709Y4705209D01*
X54947358Y4720974D01*
X54826217Y4953000D01*
X53467000Y4953000D01*
X53213000Y4953000D01*
X53193000Y4953000D01*
X53193000Y5207000D01*
X53213000Y5207000D01*
X53213000Y7493000D01*
X53467000Y7493000D01*
X53467000Y5207000D01*
X54826217Y5207000D01*
X54947358Y5439026D01*
X54944709Y5454791D01*
X54690732Y5982036D01*
X54518139Y6136241D01*
X54715698Y6218073D01*
X54894327Y6396701D01*
X54991000Y6630090D01*
X54991000Y7334250D01*
X54832250Y7493000D01*
X53467000Y7493000D01*
X53213000Y7493000D01*
X53193000Y7493000D01*
X53193000Y7747000D01*
X53213000Y7747000D01*
X53213000Y8959850D01*
X53467000Y8959850D01*
X53467000Y7747000D01*
X54832250Y7747000D01*
X54991000Y7905750D01*
X54991000Y8609910D01*
X54894327Y8843299D01*
X54715698Y9021927D01*
X54482309Y9118600D01*
X53625750Y9118600D01*
X53467000Y8959850D01*
X53213000Y8959850D01*
X53054250Y9118600D01*
X52197691Y9118600D01*
X52081737Y9070570D01*
X52070000Y9078589D01*
X52070000Y10530984D01*
X55080590Y10530984D01*
X55136271Y10300389D01*
X55619078Y10132378D01*
X56129428Y10161917D01*
X56463729Y10300389D01*
X56519410Y10530984D01*
X55800000Y11250395D01*
X55080590Y10530984D01*
X52070000Y10530984D01*
X52070000Y10644497D01*
X52097440Y10780000D01*
X52097440Y11610922D01*
X54502378Y11610922D01*
X54531917Y11100572D01*
X54670389Y10766271D01*
X54900984Y10710590D01*
X55620395Y11430000D01*
X55979605Y11430000D01*
X56699016Y10710590D01*
X56929611Y10766271D01*
X57097622Y11249078D01*
X57068083Y11759428D01*
X56929611Y12093729D01*
X56699016Y12149410D01*
X55979605Y11430000D01*
X55620395Y11430000D01*
X54900984Y12149410D01*
X54670389Y12093729D01*
X54502378Y11610922D01*
X52097440Y11610922D01*
X52097440Y12080000D01*
X52070000Y12225831D01*
X52070000Y12329016D01*
X55080590Y12329016D01*
X55800000Y11609605D01*
X56519410Y12329016D01*
X56463729Y12559611D01*
X55980922Y12727622D01*
X55470572Y12698083D01*
X55136271Y12559611D01*
X55080590Y12329016D01*
X52070000Y12329016D01*
X52070000Y13970000D01*
X51973327Y14456008D01*
X51698026Y14868026D01*
X51698023Y14868028D01*
X49158026Y17408026D01*
X48746008Y17683327D01*
X48260000Y17780001D01*
X48259995Y17780000D01*
X16527998Y17780000D01*
X16636757Y18041920D01*
X16637242Y18597681D01*
X16425010Y19111323D01*
X16216168Y19320530D01*
X16423629Y19527630D01*
X16636757Y20040900D01*
X16637242Y20596661D01*
X16425010Y21110303D01*
X16032370Y21503629D01*
X15765558Y21614419D01*
X18743484Y21614419D01*
X18884952Y21311230D01*
X19621432Y21026273D01*
X20410900Y21044846D01*
X21054008Y21311230D01*
X21195476Y21614419D01*
X19969480Y22840415D01*
X18743484Y21614419D01*
X15765558Y21614419D01*
X15519100Y21716757D01*
X14963339Y21717242D01*
X14449697Y21505010D01*
X14056371Y21112370D01*
X13976605Y20920273D01*
X13922397Y21051143D01*
X13680213Y21120608D01*
X12879605Y20320000D01*
X13680213Y19519392D01*
X13922397Y19588857D01*
X13972509Y19729318D01*
X14054990Y19529697D01*
X14263832Y19320490D01*
X14056371Y19113390D01*
X13970051Y18905508D01*
X13885010Y19111323D01*
X13492370Y19504649D01*
X13224529Y19615866D01*
X12700000Y20140395D01*
X12685858Y20126253D01*
X12506253Y20305858D01*
X12520395Y20320000D01*
X11719787Y21120608D01*
X11477603Y21051143D01*
X11290856Y20527698D01*
X11318638Y19972632D01*
X11476707Y19591020D01*
X5621020Y19591020D01*
X5135012Y19494347D01*
X4722994Y19219046D01*
X4722992Y19219043D01*
X1721974Y16218026D01*
X1446673Y15806008D01*
X1349999Y15320000D01*
X1350000Y15319995D01*
X1350000Y12215503D01*
X1322560Y12080000D01*
X1322560Y10780000D01*
X1350000Y10634169D01*
X1350000Y10080005D01*
X1349999Y10080000D01*
X1446673Y9593992D01*
X1721974Y9181974D01*
X3416560Y7487389D01*
X3416560Y6756400D01*
X3460838Y6521083D01*
X3599910Y6304959D01*
X3810000Y6161411D01*
X3810000Y6101379D01*
X3510729Y5653489D01*
X3396655Y5080000D01*
X3510729Y4506511D01*
X3810000Y4058621D01*
X3810000Y3561379D01*
X3510729Y3113489D01*
X3396655Y2540000D01*
X3510729Y1966511D01*
X3835585Y1480330D01*
X4321766Y1155474D01*
X4895255Y1041400D01*
X5264745Y1041400D01*
X5838234Y1155474D01*
X6324415Y1480330D01*
X6369754Y1548184D01*
X6705680Y1248046D01*
X7258087Y1054816D01*
X7493000Y1199076D01*
X7493000Y2413000D01*
X7747000Y2413000D01*
X7747000Y1199076D01*
X7981913Y1054816D01*
X8534320Y1248046D01*
X8970732Y1637964D01*
X9224709Y2165209D01*
X9227358Y2180974D01*
X9106217Y2413000D01*
X7747000Y2413000D01*
X7493000Y2413000D01*
X7473000Y2413000D01*
X7473000Y2667000D01*
X7493000Y2667000D01*
X7493000Y4953000D01*
X7747000Y4953000D01*
X7747000Y2667000D01*
X9106217Y2667000D01*
X9227358Y2899026D01*
X9224709Y2914791D01*
X8970732Y3442036D01*
X8558892Y3810000D01*
X8970732Y4177964D01*
X9224709Y4705209D01*
X9227358Y4720974D01*
X9106217Y4953000D01*
X7747000Y4953000D01*
X7493000Y4953000D01*
X7473000Y4953000D01*
X7473000Y5207000D01*
X7493000Y5207000D01*
X7493000Y7493000D01*
X7747000Y7493000D01*
X7747000Y5207000D01*
X9106217Y5207000D01*
X9227358Y5439026D01*
X9224709Y5454791D01*
X8970732Y5982036D01*
X8798139Y6136241D01*
X8995698Y6218073D01*
X9174327Y6396701D01*
X9271000Y6630090D01*
X9271000Y7334250D01*
X9112250Y7493000D01*
X7747000Y7493000D01*
X7493000Y7493000D01*
X7473000Y7493000D01*
X7473000Y7747000D01*
X7493000Y7747000D01*
X7493000Y8959850D01*
X7747000Y8959850D01*
X7747000Y7747000D01*
X9112250Y7747000D01*
X9271000Y7905750D01*
X9271000Y8609910D01*
X9174327Y8843299D01*
X8995698Y9021927D01*
X8762309Y9118600D01*
X7905750Y9118600D01*
X7747000Y8959850D01*
X7493000Y8959850D01*
X7334250Y9118600D01*
X6477691Y9118600D01*
X6361737Y9070570D01*
X6347890Y9080031D01*
X6096000Y9131040D01*
X5365011Y9131040D01*
X3965068Y10530984D01*
X6900590Y10530984D01*
X6956271Y10300389D01*
X7439078Y10132378D01*
X7949428Y10161917D01*
X8283729Y10300389D01*
X8339410Y10530984D01*
X7620000Y11250395D01*
X6900590Y10530984D01*
X3965068Y10530984D01*
X3890000Y10606052D01*
X3890000Y10644497D01*
X3917440Y10780000D01*
X3917440Y11610922D01*
X6322378Y11610922D01*
X6351917Y11100572D01*
X6490389Y10766271D01*
X6720984Y10710590D01*
X7440395Y11430000D01*
X7799605Y11430000D01*
X8519016Y10710590D01*
X8749611Y10766271D01*
X8917622Y11249078D01*
X8888083Y11759428D01*
X8749611Y12093729D01*
X8519016Y12149410D01*
X7799605Y11430000D01*
X7440395Y11430000D01*
X6720984Y12149410D01*
X6490389Y12093729D01*
X6322378Y11610922D01*
X3917440Y11610922D01*
X3917440Y12080000D01*
X3890000Y12225831D01*
X3890000Y12329016D01*
X6900590Y12329016D01*
X7620000Y11609605D01*
X8339410Y12329016D01*
X8283729Y12559611D01*
X7800922Y12727622D01*
X7290572Y12698083D01*
X6956271Y12559611D01*
X6900590Y12329016D01*
X3890000Y12329016D01*
X3890000Y14793948D01*
X6147071Y17051020D01*
X12115635Y17051020D01*
X12215356Y17009612D01*
X13612994Y15611974D01*
X14025012Y15336673D01*
X14511020Y15239999D01*
X14511025Y15240000D01*
X47733948Y15240000D01*
X48302378Y14671570D01*
X48260000Y14680000D01*
X10160000Y14680000D01*
X9888295Y14625954D01*
X9657954Y14472046D01*
X9504046Y14241705D01*
X9450000Y13970000D01*
X9450000Y710000D01*
X710000Y710000D01*
X710000Y21614419D01*
X6744524Y21614419D01*
X6885992Y21311230D01*
X7622472Y21026273D01*
X8411940Y21044846D01*
X9028450Y21300213D01*
X11899392Y21300213D01*
X12700000Y20499605D01*
X13500608Y21300213D01*
X13431143Y21542397D01*
X12907698Y21729144D01*
X12352632Y21701362D01*
X11968857Y21542397D01*
X11899392Y21300213D01*
X9028450Y21300213D01*
X9055048Y21311230D01*
X9196516Y21614419D01*
X7970520Y22840415D01*
X6744524Y21614419D01*
X710000Y21614419D01*
X710000Y23368068D01*
X5976773Y23368068D01*
X5995346Y22578600D01*
X6261730Y21935492D01*
X6564919Y21794024D01*
X7790915Y23020020D01*
X8150125Y23020020D01*
X9376121Y21794024D01*
X9679310Y21935492D01*
X9964267Y22671972D01*
X9947891Y23368068D01*
X17975733Y23368068D01*
X17994306Y22578600D01*
X18260690Y21935492D01*
X18563879Y21794024D01*
X19789875Y23020020D01*
X20149085Y23020020D01*
X21375081Y21794024D01*
X21678270Y21935492D01*
X21963227Y22671972D01*
X21944654Y23461440D01*
X21678270Y24104548D01*
X21375081Y24246016D01*
X20149085Y23020020D01*
X19789875Y23020020D01*
X18563879Y24246016D01*
X18260690Y24104548D01*
X17975733Y23368068D01*
X9947891Y23368068D01*
X9945694Y23461440D01*
X9679310Y24104548D01*
X9376121Y24246016D01*
X8150125Y23020020D01*
X7790915Y23020020D01*
X6564919Y24246016D01*
X6261730Y24104548D01*
X5976773Y23368068D01*
X710000Y23368068D01*
X710000Y24425621D01*
X6744524Y24425621D01*
X7970520Y23199625D01*
X9196516Y24425621D01*
X18743484Y24425621D01*
X19969480Y23199625D01*
X21195476Y24425621D01*
X21054008Y24728810D01*
X20317528Y25013767D01*
X19528060Y24995194D01*
X18884952Y24728810D01*
X18743484Y24425621D01*
X9196516Y24425621D01*
X9055048Y24728810D01*
X8318568Y25013767D01*
X7529100Y24995194D01*
X6885992Y24728810D01*
X6744524Y24425621D01*
X710000Y24425621D01*
X710000Y25960000D01*
X57710000Y25960000D01*
X57710000Y710000D01*
X57710000Y710000D01*
G37*
X57710000Y710000D02*
X48970000Y710000D01*
X48970000Y13970000D01*
X48961570Y14012378D01*
X49530000Y13443949D01*
X49530000Y12215503D01*
X49502560Y12080000D01*
X49502560Y10780000D01*
X49530000Y10634169D01*
X49530000Y9074740D01*
X49332559Y8947690D01*
X49187569Y8735490D01*
X49136560Y8483600D01*
X49136560Y6756400D01*
X49180838Y6521083D01*
X49319910Y6304959D01*
X49530000Y6161411D01*
X49530000Y6101379D01*
X49230729Y5653489D01*
X49116655Y5080000D01*
X49230729Y4506511D01*
X49530000Y4058621D01*
X49530000Y3561379D01*
X49230729Y3113489D01*
X49116655Y2540000D01*
X49230729Y1966511D01*
X49555585Y1480330D01*
X50041766Y1155474D01*
X50615255Y1041400D01*
X50984745Y1041400D01*
X51558234Y1155474D01*
X52044415Y1480330D01*
X52089754Y1548184D01*
X52425680Y1248046D01*
X52978087Y1054816D01*
X53213000Y1199076D01*
X53213000Y2413000D01*
X53467000Y2413000D01*
X53467000Y1199076D01*
X53701913Y1054816D01*
X54254320Y1248046D01*
X54690732Y1637964D01*
X54944709Y2165209D01*
X54947358Y2180974D01*
X54826217Y2413000D01*
X53467000Y2413000D01*
X53213000Y2413000D01*
X53193000Y2413000D01*
X53193000Y2667000D01*
X53213000Y2667000D01*
X53213000Y4953000D01*
X53467000Y4953000D01*
X53467000Y2667000D01*
X54826217Y2667000D01*
X54947358Y2899026D01*
X54944709Y2914791D01*
X54690732Y3442036D01*
X54278892Y3810000D01*
X54690732Y4177964D01*
X54944709Y4705209D01*
X54947358Y4720974D01*
X54826217Y4953000D01*
X53467000Y4953000D01*
X53213000Y4953000D01*
X53193000Y4953000D01*
X53193000Y5207000D01*
X53213000Y5207000D01*
X53213000Y7493000D01*
X53467000Y7493000D01*
X53467000Y5207000D01*
X54826217Y5207000D01*
X54947358Y5439026D01*
X54944709Y5454791D01*
X54690732Y5982036D01*
X54518139Y6136241D01*
X54715698Y6218073D01*
X54894327Y6396701D01*
X54991000Y6630090D01*
X54991000Y7334250D01*
X54832250Y7493000D01*
X53467000Y7493000D01*
X53213000Y7493000D01*
X53193000Y7493000D01*
X53193000Y7747000D01*
X53213000Y7747000D01*
X53213000Y8959850D01*
X53467000Y8959850D01*
X53467000Y7747000D01*
X54832250Y7747000D01*
X54991000Y7905750D01*
X54991000Y8609910D01*
X54894327Y8843299D01*
X54715698Y9021927D01*
X54482309Y9118600D01*
X53625750Y9118600D01*
X53467000Y8959850D01*
X53213000Y8959850D01*
X53054250Y9118600D01*
X52197691Y9118600D01*
X52081737Y9070570D01*
X52070000Y9078589D01*
X52070000Y10530984D01*
X55080590Y10530984D01*
X55136271Y10300389D01*
X55619078Y10132378D01*
X56129428Y10161917D01*
X56463729Y10300389D01*
X56519410Y10530984D01*
X55800000Y11250395D01*
X55080590Y10530984D01*
X52070000Y10530984D01*
X52070000Y10644497D01*
X52097440Y10780000D01*
X52097440Y11610922D01*
X54502378Y11610922D01*
X54531917Y11100572D01*
X54670389Y10766271D01*
X54900984Y10710590D01*
X55620395Y11430000D01*
X55979605Y11430000D01*
X56699016Y10710590D01*
X56929611Y10766271D01*
X57097622Y11249078D01*
X57068083Y11759428D01*
X56929611Y12093729D01*
X56699016Y12149410D01*
X55979605Y11430000D01*
X55620395Y11430000D01*
X54900984Y12149410D01*
X54670389Y12093729D01*
X54502378Y11610922D01*
X52097440Y11610922D01*
X52097440Y12080000D01*
X52070000Y12225831D01*
X52070000Y12329016D01*
X55080590Y12329016D01*
X55800000Y11609605D01*
X56519410Y12329016D01*
X56463729Y12559611D01*
X55980922Y12727622D01*
X55470572Y12698083D01*
X55136271Y12559611D01*
X55080590Y12329016D01*
X52070000Y12329016D01*
X52070000Y13970000D01*
X51973327Y14456008D01*
X51698026Y14868026D01*
X51698023Y14868028D01*
X49158026Y17408026D01*
X48746008Y17683327D01*
X48260000Y17780001D01*
X48259995Y17780000D01*
X16527998Y17780000D01*
X16636757Y18041920D01*
X16637242Y18597681D01*
X16425010Y19111323D01*
X16216168Y19320530D01*
X16423629Y19527630D01*
X16636757Y20040900D01*
X16637242Y20596661D01*
X16425010Y21110303D01*
X16032370Y21503629D01*
X15765558Y21614419D01*
X18743484Y21614419D01*
X18884952Y21311230D01*
X19621432Y21026273D01*
X20410900Y21044846D01*
X21054008Y21311230D01*
X21195476Y21614419D01*
X19969480Y22840415D01*
X18743484Y21614419D01*
X15765558Y21614419D01*
X15519100Y21716757D01*
X14963339Y21717242D01*
X14449697Y21505010D01*
X14056371Y21112370D01*
X13976605Y20920273D01*
X13922397Y21051143D01*
X13680213Y21120608D01*
X12879605Y20320000D01*
X13680213Y19519392D01*
X13922397Y19588857D01*
X13972509Y19729318D01*
X14054990Y19529697D01*
X14263832Y19320490D01*
X14056371Y19113390D01*
X13970051Y18905508D01*
X13885010Y19111323D01*
X13492370Y19504649D01*
X13224529Y19615866D01*
X12700000Y20140395D01*
X12685858Y20126253D01*
X12506253Y20305858D01*
X12520395Y20320000D01*
X11719787Y21120608D01*
X11477603Y21051143D01*
X11290856Y20527698D01*
X11318638Y19972632D01*
X11476707Y19591020D01*
X5621020Y19591020D01*
X5135012Y19494347D01*
X4722994Y19219046D01*
X4722992Y19219043D01*
X1721974Y16218026D01*
X1446673Y15806008D01*
X1349999Y15320000D01*
X1350000Y15319995D01*
X1350000Y12215503D01*
X1322560Y12080000D01*
X1322560Y10780000D01*
X1350000Y10634169D01*
X1350000Y10080005D01*
X1349999Y10080000D01*
X1446673Y9593992D01*
X1721974Y9181974D01*
X3416560Y7487389D01*
X3416560Y6756400D01*
X3460838Y6521083D01*
X3599910Y6304959D01*
X3810000Y6161411D01*
X3810000Y6101379D01*
X3510729Y5653489D01*
X3396655Y5080000D01*
X3510729Y4506511D01*
X3810000Y4058621D01*
X3810000Y3561379D01*
X3510729Y3113489D01*
X3396655Y2540000D01*
X3510729Y1966511D01*
X3835585Y1480330D01*
X4321766Y1155474D01*
X4895255Y1041400D01*
X5264745Y1041400D01*
X5838234Y1155474D01*
X6324415Y1480330D01*
X6369754Y1548184D01*
X6705680Y1248046D01*
X7258087Y1054816D01*
X7493000Y1199076D01*
X7493000Y2413000D01*
X7747000Y2413000D01*
X7747000Y1199076D01*
X7981913Y1054816D01*
X8534320Y1248046D01*
X8970732Y1637964D01*
X9224709Y2165209D01*
X9227358Y2180974D01*
X9106217Y2413000D01*
X7747000Y2413000D01*
X7493000Y2413000D01*
X7473000Y2413000D01*
X7473000Y2667000D01*
X7493000Y2667000D01*
X7493000Y4953000D01*
X7747000Y4953000D01*
X7747000Y2667000D01*
X9106217Y2667000D01*
X9227358Y2899026D01*
X9224709Y2914791D01*
X8970732Y3442036D01*
X8558892Y3810000D01*
X8970732Y4177964D01*
X9224709Y4705209D01*
X9227358Y4720974D01*
X9106217Y4953000D01*
X7747000Y4953000D01*
X7493000Y4953000D01*
X7473000Y4953000D01*
X7473000Y5207000D01*
X7493000Y5207000D01*
X7493000Y7493000D01*
X7747000Y7493000D01*
X7747000Y5207000D01*
X9106217Y5207000D01*
X9227358Y5439026D01*
X9224709Y5454791D01*
X8970732Y5982036D01*
X8798139Y6136241D01*
X8995698Y6218073D01*
X9174327Y6396701D01*
X9271000Y6630090D01*
X9271000Y7334250D01*
X9112250Y7493000D01*
X7747000Y7493000D01*
X7493000Y7493000D01*
X7473000Y7493000D01*
X7473000Y7747000D01*
X7493000Y7747000D01*
X7493000Y8959850D01*
X7747000Y8959850D01*
X7747000Y7747000D01*
X9112250Y7747000D01*
X9271000Y7905750D01*
X9271000Y8609910D01*
X9174327Y8843299D01*
X8995698Y9021927D01*
X8762309Y9118600D01*
X7905750Y9118600D01*
X7747000Y8959850D01*
X7493000Y8959850D01*
X7334250Y9118600D01*
X6477691Y9118600D01*
X6361737Y9070570D01*
X6347890Y9080031D01*
X6096000Y9131040D01*
X5365011Y9131040D01*
X3965068Y10530984D01*
X6900590Y10530984D01*
X6956271Y10300389D01*
X7439078Y10132378D01*
X7949428Y10161917D01*
X8283729Y10300389D01*
X8339410Y10530984D01*
X7620000Y11250395D01*
X6900590Y10530984D01*
X3965068Y10530984D01*
X3890000Y10606052D01*
X3890000Y10644497D01*
X3917440Y10780000D01*
X3917440Y11610922D01*
X6322378Y11610922D01*
X6351917Y11100572D01*
X6490389Y10766271D01*
X6720984Y10710590D01*
X7440395Y11430000D01*
X7799605Y11430000D01*
X8519016Y10710590D01*
X8749611Y10766271D01*
X8917622Y11249078D01*
X8888083Y11759428D01*
X8749611Y12093729D01*
X8519016Y12149410D01*
X7799605Y11430000D01*
X7440395Y11430000D01*
X6720984Y12149410D01*
X6490389Y12093729D01*
X6322378Y11610922D01*
X3917440Y11610922D01*
X3917440Y12080000D01*
X3890000Y12225831D01*
X3890000Y12329016D01*
X6900590Y12329016D01*
X7620000Y11609605D01*
X8339410Y12329016D01*
X8283729Y12559611D01*
X7800922Y12727622D01*
X7290572Y12698083D01*
X6956271Y12559611D01*
X6900590Y12329016D01*
X3890000Y12329016D01*
X3890000Y14793948D01*
X6147071Y17051020D01*
X12115635Y17051020D01*
X12215356Y17009612D01*
X13612994Y15611974D01*
X14025012Y15336673D01*
X14511020Y15239999D01*
X14511025Y15240000D01*
X47733948Y15240000D01*
X48302378Y14671570D01*
X48260000Y14680000D01*
X10160000Y14680000D01*
X9888295Y14625954D01*
X9657954Y14472046D01*
X9504046Y14241705D01*
X9450000Y13970000D01*
X9450000Y710000D01*
X710000Y710000D01*
X710000Y21614419D01*
X6744524Y21614419D01*
X6885992Y21311230D01*
X7622472Y21026273D01*
X8411940Y21044846D01*
X9028450Y21300213D01*
X11899392Y21300213D01*
X12700000Y20499605D01*
X13500608Y21300213D01*
X13431143Y21542397D01*
X12907698Y21729144D01*
X12352632Y21701362D01*
X11968857Y21542397D01*
X11899392Y21300213D01*
X9028450Y21300213D01*
X9055048Y21311230D01*
X9196516Y21614419D01*
X7970520Y22840415D01*
X6744524Y21614419D01*
X710000Y21614419D01*
X710000Y23368068D01*
X5976773Y23368068D01*
X5995346Y22578600D01*
X6261730Y21935492D01*
X6564919Y21794024D01*
X7790915Y23020020D01*
X8150125Y23020020D01*
X9376121Y21794024D01*
X9679310Y21935492D01*
X9964267Y22671972D01*
X9947891Y23368068D01*
X17975733Y23368068D01*
X17994306Y22578600D01*
X18260690Y21935492D01*
X18563879Y21794024D01*
X19789875Y23020020D01*
X20149085Y23020020D01*
X21375081Y21794024D01*
X21678270Y21935492D01*
X21963227Y22671972D01*
X21944654Y23461440D01*
X21678270Y24104548D01*
X21375081Y24246016D01*
X20149085Y23020020D01*
X19789875Y23020020D01*
X18563879Y24246016D01*
X18260690Y24104548D01*
X17975733Y23368068D01*
X9947891Y23368068D01*
X9945694Y23461440D01*
X9679310Y24104548D01*
X9376121Y24246016D01*
X8150125Y23020020D01*
X7790915Y23020020D01*
X6564919Y24246016D01*
X6261730Y24104548D01*
X5976773Y23368068D01*
X710000Y23368068D01*
X710000Y24425621D01*
X6744524Y24425621D01*
X7970520Y23199625D01*
X9196516Y24425621D01*
X18743484Y24425621D01*
X19969480Y23199625D01*
X21195476Y24425621D01*
X21054008Y24728810D01*
X20317528Y25013767D01*
X19528060Y24995194D01*
X18884952Y24728810D01*
X18743484Y24425621D01*
X9196516Y24425621D01*
X9055048Y24728810D01*
X8318568Y25013767D01*
X7529100Y24995194D01*
X6885992Y24728810D01*
X6744524Y24425621D01*
X710000Y24425621D01*
X710000Y25960000D01*
X57710000Y25960000D01*
X57710000Y710000D01*
M02*
