M48
;DRILL file {KiCad (2015-12-07 BZR 6352)-product} date Tue 26 Jan 2016 06:24:17 PM EST
;FORMAT={-:-/ absolute / metric / decimal}
FMAT,2
METRIC,TZ
T1C0.635
T2C0.800
T3C1.001
T4C1.016
T5C1.100
T6C1.270
T7C3.048
T8C3.800
%
G90
G05
M71
T1
X32.873Y28.258
X38.432Y27.158
T2
X7.62Y40.64
X7.62Y35.64
X12.78Y38.1
X17.78Y38.1
X22.86Y30.48
X22.86Y27.94
X22.86Y25.4
X22.86Y22.86
X30.48Y30.48
X30.48Y27.94
X30.48Y25.4
X30.48Y22.86
X33.02Y22.86
X34.37Y33.02
X35.56Y22.86
X38.1Y22.86
X39.37Y33.02
X43.18Y38.1
X48.18Y38.1
T3
X7.62Y33.02
X7.62Y22.86
X16.51Y30.48
X16.51Y27.94
X16.51Y25.4
X20.32Y17.78
X30.48Y17.78
X34.29Y17.78
X34.29Y15.24
X34.29Y12.7
X36.83Y29.21
X40.64Y22.86
X46.99Y29.21
X50.8Y22.86
T4
X3.81Y13.97
X3.81Y5.08
X25.4Y35.56
X30.48Y35.56
T5
X7.62Y10.16
X30.62Y10.16
T6
X10.16Y22.86
X10.16Y15.24
T7
X5.08Y48.26
X53.34Y48.26
X53.34Y5.08
T8
X51.054Y15.24
T0
M30
