G04 #@! TF.FileFunction,Copper,L1,Top,Signal*
%FSLAX46Y46*%
G04 Gerber Fmt 4.6, Leading zero omitted, Abs format (unit mm)*
G04 Created by KiCad (PCBNEW (2015-12-07 BZR 6352)-product) date Tue 26 Jan 2016 06:24:15 PM EST*
%MOMM*%
G01*
G04 APERTURE LIST*
%ADD10C,0.100000*%
%ADD11R,1.600000X1.600000*%
%ADD12C,1.600000*%
%ADD13R,2.235200X2.235200*%
%ADD14O,2.499360X1.501140*%
%ADD15R,1.300000X1.300000*%
%ADD16C,1.300000*%
%ADD17R,2.540000X2.540000*%
%ADD18C,2.540000*%
%ADD19C,1.524000*%
%ADD20C,1.998980*%
%ADD21O,2.300000X1.600000*%
%ADD22C,4.064000*%
%ADD23C,1.397000*%
%ADD24C,1.270000*%
G04 APERTURE END LIST*
D10*
D11*
X7620000Y10160000D03*
D12*
X30620000Y10160000D03*
D13*
X3810000Y5080000D03*
D14*
X34290000Y15240000D03*
X34290000Y17780000D03*
X34290000Y12700000D03*
X16510000Y27940000D03*
X16510000Y25400000D03*
X16510000Y30480000D03*
D15*
X34370000Y33020000D03*
D16*
X39370000Y33020000D03*
D15*
X43180000Y38100000D03*
D16*
X48180000Y38100000D03*
D15*
X7620000Y35640000D03*
D16*
X7620000Y40640000D03*
D17*
X10160000Y22860000D03*
D18*
X10160000Y15240000D03*
D15*
X12780000Y38100000D03*
D16*
X17780000Y38100000D03*
D13*
X25400000Y35560000D03*
X30480000Y35560000D03*
X3810000Y13970000D03*
D19*
X35560000Y22860000D03*
X38100000Y22860000D03*
X33020000Y22860000D03*
D20*
X40640000Y22860000D03*
X50800000Y22860000D03*
X46990000Y29210000D03*
X36830000Y29210000D03*
X7620000Y22860000D03*
X7620000Y33020000D03*
X20320000Y17780000D03*
X30480000Y17780000D03*
D21*
X22860000Y30480000D03*
X22860000Y27940000D03*
X22860000Y25400000D03*
X22860000Y22860000D03*
X30480000Y22860000D03*
X30480000Y25400000D03*
X30480000Y27940000D03*
X30480000Y30480000D03*
D22*
X5080000Y48260000D03*
X53340000Y48260000D03*
X53340000Y5080000D03*
D23*
X32872855Y28257520D03*
X38432479Y27157546D03*
D24*
X30480000Y25400000D02*
X31003163Y25400000D01*
X31003163Y25400000D02*
X32872855Y27269692D01*
X32872855Y27269692D02*
X32872855Y28257520D01*
X30480000Y35560000D02*
X30480000Y37947600D01*
X30480000Y37947600D02*
X27787600Y40640000D01*
X27787600Y40640000D02*
X8539238Y40640000D01*
X8539238Y40640000D02*
X7620000Y40640000D01*
X39640511Y23859489D02*
X40640000Y22860000D01*
X34941509Y28299014D02*
X37670478Y25570045D01*
X34941509Y28438491D02*
X34941509Y28299014D01*
X32900000Y30480000D02*
X34941509Y28438491D01*
X37670478Y25570045D02*
X37929955Y25570045D01*
X30480000Y30480000D02*
X32900000Y30480000D01*
X37929955Y25570045D02*
X39640511Y23859489D01*
X22860000Y22860000D02*
X23210000Y22860000D01*
X23210000Y22860000D02*
X28440990Y28090990D01*
X28440990Y28090990D02*
X28440990Y28639610D01*
X30281380Y30480000D02*
X30480000Y30480000D01*
X28440990Y28639610D02*
X30281380Y30480000D01*
X25400000Y35560000D02*
X30480000Y30480000D01*
X46990000Y29210000D02*
X40484933Y29210000D01*
X40484933Y29210000D02*
X39130978Y27856045D01*
X39130978Y27856045D02*
X38432479Y27157546D01*
M02*
