M48
;DRILL file {KiCad (2015-12-07 BZR 6352)-product} date Sat 06 Feb 2016 04:43:55 PM EST
;FORMAT={-:-/ absolute / metric / decimal}
FMAT,2
METRIC,TZ
T1C0.599
T2C0.800
T3C0.900
T4C1.001
T5C1.016
T6C1.200
T7C3.048
%
G90
G05
M71
T1
X72.39Y40.31
X72.39Y38.811
T2
X39.37Y43.37
X39.37Y40.831
X39.37Y38.291
X39.37Y35.75
X39.37Y33.21
X39.37Y30.67
X39.37Y28.13
X39.37Y25.59
X39.37Y23.05
X39.37Y20.511
X39.37Y17.97
X39.37Y15.43
X39.37Y12.89
X39.37Y10.351
X46.99Y43.37
X46.99Y40.831
X46.99Y38.291
X46.99Y35.75
X46.99Y33.21
X46.99Y30.67
X46.99Y28.13
X46.99Y25.59
X46.99Y23.05
X46.99Y20.511
X46.99Y17.97
X46.99Y15.43
X46.99Y12.89
X46.99Y10.351
X62.23Y45.87
X62.23Y43.331
X62.23Y40.791
X62.23Y38.25
X69.85Y45.87
X69.85Y43.331
X69.85Y40.791
X69.85Y38.25
X69.85Y20.27
X69.85Y17.73
X69.85Y15.191
X69.85Y12.65
X69.85Y10.111
X69.85Y7.571
X69.85Y5.03
X77.47Y20.27
X77.47Y17.73
X77.47Y15.191
X77.47Y12.65
X77.47Y10.111
X77.47Y7.571
X77.47Y5.03
T3
X11.43Y10.351
X11.43Y5.35
X41.99Y48.45
X46.99Y48.45
X62.31Y33.17
X64.77Y27.81
X64.77Y22.81
X64.77Y12.65
X64.77Y7.651
X67.31Y33.17
X72.47Y25.351
X77.47Y25.351
T4
X52.07Y53.53
X52.07Y43.37
X54.61Y53.53
X54.61Y43.37
X57.15Y20.27
X57.15Y15.191
X67.31Y20.27
X67.31Y15.191
T5
X6.35Y23.09
X6.35Y20.55
X6.35Y18.011
X6.35Y15.47
X6.35Y12.93
X6.35Y10.39
X6.35Y7.85
X26.67Y25.59
X26.67Y23.05
X26.67Y20.511
X29.21Y25.59
X29.21Y23.05
X29.21Y20.511
T6
X16.51Y45.95
X19.51Y41.252
X22.509Y45.95
T7
X4.99Y55.17
X94.99Y55.17
X94.99Y4.99
T0
M30
