G04 #@! TF.FileFunction,Copper,L2,Bot,Signal*
%FSLAX46Y46*%
G04 Gerber Fmt 4.6, Leading zero omitted, Abs format (unit mm)*
G04 Created by KiCad (PCBNEW (2015-12-07 BZR 6352)-product) date Sat 06 Feb 2016 08:09:23 PM EST*
%MOMM*%
G01*
G04 APERTURE LIST*
%ADD10C,0.100000*%
%ADD11R,1.676400X1.676400*%
%ADD12C,1.676400*%
%ADD13O,2.300000X1.600000*%
%ADD14R,1.900000X2.000000*%
%ADD15C,1.900000*%
%ADD16R,2.032000X1.727200*%
%ADD17O,2.032000X1.727200*%
%ADD18C,1.998980*%
%ADD19O,1.600000X1.600000*%
%ADD20O,1.600000X2.300000*%
%ADD21C,4.064000*%
%ADD22C,1.400000*%
%ADD23C,1.270000*%
%ADD24C,0.635000*%
%ADD25C,0.431800*%
%ADD26C,0.254000*%
G04 APERTURE END LIST*
D10*
D11*
X68580000Y54610000D03*
D12*
X68580000Y52070000D03*
X68580000Y46990000D03*
X68580000Y41910000D03*
X68580000Y39370000D03*
X76200000Y39370000D03*
X76200000Y41910000D03*
X76200000Y49530000D03*
X76200000Y52070000D03*
X76200000Y54610000D03*
D13*
X20320000Y36830000D03*
X20320000Y39370000D03*
X20320000Y41910000D03*
X20320000Y44450000D03*
X20320000Y46990000D03*
X20320000Y49530000D03*
X20320000Y52070000D03*
X20320000Y54610000D03*
X12700000Y54610000D03*
X12700000Y52070000D03*
X12700000Y49530000D03*
X12700000Y46990000D03*
X12700000Y44450000D03*
X12700000Y41910000D03*
X12700000Y39370000D03*
X12700000Y36830000D03*
D11*
X36830000Y54610000D03*
D12*
X36830000Y52070000D03*
X36830000Y46990000D03*
X36830000Y41910000D03*
X36830000Y39370000D03*
X44450000Y39370000D03*
X44450000Y41910000D03*
X44450000Y49530000D03*
X44450000Y52070000D03*
X44450000Y54610000D03*
D14*
X49530000Y44450000D03*
D15*
X52070000Y44450000D03*
D14*
X49530000Y52070000D03*
D15*
X52070000Y52070000D03*
D16*
X6350000Y22860000D03*
D17*
X6350000Y20320000D03*
X6350000Y17780000D03*
X6350000Y15240000D03*
X6350000Y12700000D03*
X6350000Y10160000D03*
X6350000Y7620000D03*
D18*
X24130000Y34290000D03*
X34290000Y34290000D03*
X46990000Y34290000D03*
X36830000Y34290000D03*
X54610000Y34290000D03*
X64770000Y34290000D03*
X77470000Y34290000D03*
X67310000Y34290000D03*
X49530000Y39370000D03*
X49530000Y29210000D03*
X52070000Y39370000D03*
X52070000Y29210000D03*
X34290000Y3810000D03*
X24130000Y3810000D03*
X72390000Y3810000D03*
X62230000Y3810000D03*
D19*
X26670000Y13970000D03*
X26670000Y8890000D03*
X34290000Y8890000D03*
X34290000Y13970000D03*
X64770000Y13970000D03*
X64770000Y8890000D03*
X72390000Y8890000D03*
X72390000Y13970000D03*
D20*
X44450000Y29210000D03*
X41910000Y29210000D03*
X39370000Y29210000D03*
X36830000Y29210000D03*
X34290000Y29210000D03*
X31750000Y29210000D03*
X29210000Y29210000D03*
X26670000Y29210000D03*
X26670000Y21590000D03*
X29210000Y21590000D03*
X31750000Y21590000D03*
X34290000Y21590000D03*
X36830000Y21590000D03*
X39370000Y21590000D03*
X41910000Y21590000D03*
X44450000Y21590000D03*
X74930000Y29210000D03*
X72390000Y29210000D03*
X69850000Y29210000D03*
X67310000Y29210000D03*
X64770000Y29210000D03*
X62230000Y29210000D03*
X59690000Y29210000D03*
X57150000Y29210000D03*
X57150000Y21590000D03*
X59690000Y21590000D03*
X62230000Y21590000D03*
X64770000Y21590000D03*
X67310000Y21590000D03*
X69850000Y21590000D03*
X72390000Y21590000D03*
X74930000Y21590000D03*
D13*
X81280000Y54610000D03*
X81280000Y52070000D03*
X81280000Y49530000D03*
X81280000Y46990000D03*
X81280000Y44450000D03*
X81280000Y41910000D03*
X81280000Y39370000D03*
X81280000Y36830000D03*
X88900000Y36830000D03*
X88900000Y39370000D03*
X88900000Y41910000D03*
X88900000Y44450000D03*
X88900000Y46990000D03*
X88900000Y49530000D03*
X88900000Y52070000D03*
X88900000Y54610000D03*
D11*
X25400000Y54610000D03*
D12*
X25400000Y52070000D03*
X25400000Y46990000D03*
X25400000Y41910000D03*
X25400000Y39370000D03*
X33020000Y39370000D03*
X33020000Y41910000D03*
X33020000Y49530000D03*
X33020000Y52070000D03*
X33020000Y54610000D03*
D11*
X57150000Y54610000D03*
D12*
X57150000Y52070000D03*
X57150000Y46990000D03*
X57150000Y41910000D03*
X57150000Y39370000D03*
X64770000Y39370000D03*
X64770000Y41910000D03*
X64770000Y49530000D03*
X64770000Y52070000D03*
X64770000Y54610000D03*
D21*
X94990000Y4930000D03*
X94990000Y54930000D03*
X4990000Y54930000D03*
D22*
X15120000Y29210000D03*
X95250000Y44450000D03*
X21590000Y21590000D03*
X13970000Y21590000D03*
X93927680Y41910000D03*
X13970000Y24130000D03*
X27940000Y44450000D03*
X72390000Y45720000D03*
X15240000Y33020000D03*
X19050000Y31750000D03*
X30480000Y54610000D03*
X16510000Y45720000D03*
X46990000Y52070000D03*
X41962320Y39372108D03*
X39265378Y39370000D03*
X36830000Y44450000D03*
X39370000Y54610000D03*
X39370000Y52070000D03*
X30480000Y17780000D03*
X41910000Y54610000D03*
X70254095Y34738139D03*
X66014106Y37943251D03*
X60960000Y39370000D03*
X59932821Y41929150D03*
X59690000Y54610000D03*
X54610000Y52070000D03*
X66230501Y56959499D03*
X72390000Y54610000D03*
X68580000Y49530000D03*
X14035010Y19050000D03*
X13970000Y15240000D03*
D23*
X26670000Y29210000D02*
X15120000Y29210000D01*
X67310000Y34290000D02*
X69249291Y32350709D01*
X69249291Y32350709D02*
X78870709Y32350709D01*
X78870709Y32350709D02*
X81280000Y34760000D01*
X81280000Y34760000D02*
X81280000Y36830000D01*
X49530000Y29210000D02*
X47440190Y27120190D01*
X47440190Y27120190D02*
X31649810Y27120190D01*
X57150000Y29210000D02*
X52070000Y29210000D01*
X57150000Y29210000D02*
X57150000Y29560000D01*
X57150000Y29560000D02*
X61880000Y34290000D01*
X61880000Y34290000D02*
X64770000Y34290000D01*
X64770000Y34290000D02*
X67310000Y34290000D01*
X49530000Y29210000D02*
X52070000Y29210000D01*
X34290000Y34290000D02*
X36830000Y34290000D01*
X26670000Y29210000D02*
X26670000Y29560000D01*
X26670000Y29560000D02*
X31400000Y34290000D01*
X31400000Y34290000D02*
X34290000Y34290000D01*
X26670000Y29210000D02*
X26670000Y28939538D01*
X26670000Y28939538D02*
X28489348Y27120190D01*
X28489348Y27120190D02*
X31649810Y27120190D01*
X31649810Y27120190D02*
X36830000Y21940000D01*
X36830000Y21940000D02*
X36830000Y21590000D01*
X24130000Y3810000D02*
X26069291Y1870709D01*
X26069291Y1870709D02*
X60290709Y1870709D01*
X60290709Y1870709D02*
X62230000Y3810000D01*
X6350000Y7620000D02*
X20320000Y7620000D01*
X20320000Y7620000D02*
X24130000Y3810000D01*
D24*
X82489636Y25400000D02*
X95250000Y38160364D01*
X68230000Y25400000D02*
X82489636Y25400000D01*
X95250000Y38160364D02*
X95250000Y44450000D01*
X64770000Y21590000D02*
X64770000Y21940000D01*
X64770000Y21940000D02*
X68230000Y25400000D01*
X13970000Y21590000D02*
X21590000Y21590000D01*
D23*
X8890000Y45720000D02*
X10160000Y46990000D01*
X10160000Y46990000D02*
X12700000Y46990000D01*
X8890000Y21828758D02*
X8890000Y45720000D01*
X6350000Y20320000D02*
X7381242Y20320000D01*
X7381242Y20320000D02*
X8890000Y21828758D01*
X6350000Y17780000D02*
X8636000Y17780000D01*
X10610190Y40090652D02*
X12429538Y41910000D01*
X8636000Y17780000D02*
X10610190Y19754190D01*
X10610190Y19754190D02*
X10610190Y40090652D01*
X12429538Y41910000D02*
X12700000Y41910000D01*
D24*
X93927680Y38167137D02*
X93927680Y41910000D01*
X66629811Y26339811D02*
X82100354Y26339811D01*
X62230000Y21590000D02*
X62230000Y21940000D01*
X82100354Y26339811D02*
X93927680Y38167137D01*
X62230000Y21940000D02*
X66629811Y26339811D01*
X13970000Y24130000D02*
X30995000Y24130000D01*
X31750000Y23375000D02*
X31750000Y21590000D01*
X30995000Y24130000D02*
X31750000Y23375000D01*
D23*
X6350000Y22860000D02*
X6350000Y45720000D01*
X6350000Y45720000D02*
X10160000Y49530000D01*
X10160000Y49530000D02*
X12700000Y49530000D01*
X88900000Y39370000D02*
X88550000Y39370000D01*
X88550000Y39370000D02*
X86480000Y41440000D01*
X86480000Y41440000D02*
X86480000Y52540000D01*
X86480000Y52540000D02*
X88550000Y54610000D01*
X88550000Y54610000D02*
X88900000Y54610000D01*
X44450000Y21240000D02*
X44450000Y21590000D01*
X31030198Y19419802D02*
X42629802Y19419802D01*
X29210000Y21240000D02*
X31030198Y19419802D01*
X29210000Y21590000D02*
X29210000Y21240000D01*
X42629802Y19419802D02*
X44450000Y21240000D01*
X12700000Y34760000D02*
X12700000Y36830000D01*
X12330199Y34390199D02*
X12700000Y34760000D01*
X8636000Y10160000D02*
X12330199Y13854199D01*
X6350000Y10160000D02*
X8636000Y10160000D01*
X12330199Y13854199D02*
X12330199Y34390199D01*
X13050000Y52070000D02*
X12700000Y52070000D01*
X18149802Y46970198D02*
X13050000Y52070000D01*
X13050000Y36830000D02*
X18149802Y41929802D01*
X12700000Y36830000D02*
X13050000Y36830000D01*
X18149802Y41929802D02*
X18149802Y46970198D01*
X59690000Y21590000D02*
X59690000Y21240000D01*
X74930000Y21240000D02*
X74930000Y21590000D01*
X59690000Y21240000D02*
X61760000Y19170000D01*
X61760000Y19170000D02*
X72860000Y19170000D01*
X72860000Y19170000D02*
X74930000Y21240000D01*
X44450000Y21590000D02*
X46520000Y21590000D01*
X46520000Y21590000D02*
X48940000Y19170000D01*
X48940000Y19170000D02*
X57620000Y19170000D01*
X57620000Y19170000D02*
X59690000Y21240000D01*
X26670000Y8890000D02*
X28409801Y7150199D01*
X28409801Y7150199D02*
X63030199Y7150199D01*
X63030199Y7150199D02*
X64770000Y8890000D01*
X6350000Y10160000D02*
X25400000Y10160000D01*
X25400000Y10160000D02*
X26670000Y8890000D01*
D24*
X27940000Y44450000D02*
X25400000Y46990000D01*
X25400000Y46990000D02*
X30480000Y46990000D01*
X30480000Y46990000D02*
X33020000Y49530000D01*
X44450000Y49530000D02*
X41910000Y46990000D01*
X41910000Y46990000D02*
X36830000Y46990000D01*
X46990000Y34290000D02*
X46990000Y46990000D01*
X46990000Y46990000D02*
X44450000Y49530000D01*
X57150000Y46990000D02*
X62230000Y46990000D01*
X62230000Y46990000D02*
X64770000Y49530000D01*
X54610000Y34290000D02*
X54610000Y44450000D01*
X54610000Y44450000D02*
X57150000Y46990000D01*
X68580000Y46990000D02*
X71120000Y46990000D01*
X71120000Y46990000D02*
X72390000Y45720000D01*
X68580000Y46990000D02*
X73660000Y46990000D01*
X73660000Y46990000D02*
X76200000Y49530000D01*
X34480501Y46288959D02*
X34480501Y50609499D01*
X26101041Y37909499D02*
X34480501Y46288959D01*
X34480501Y50609499D02*
X33020000Y52070000D01*
X23184499Y37909499D02*
X26101041Y37909499D01*
X22105000Y36830000D02*
X23184499Y37909499D01*
X20320000Y36830000D02*
X22105000Y36830000D01*
X22847438Y35407690D02*
X24409436Y36969688D01*
X24409436Y36969688D02*
X30619688Y36969688D01*
X20320000Y39370000D02*
X19970000Y39370000D01*
X18535000Y37935000D02*
X18535000Y36253550D01*
X19970000Y39370000D02*
X18535000Y37935000D01*
X18535000Y36253550D02*
X19380860Y35407690D01*
X19380860Y35407690D02*
X22847438Y35407690D01*
X30619688Y36969688D02*
X33020000Y39370000D01*
X20320000Y41910000D02*
X22860000Y41910000D01*
X22860000Y41910000D02*
X25400000Y39370000D01*
X20320000Y44450000D02*
X22860000Y44450000D01*
X22860000Y44450000D02*
X25400000Y41910000D01*
X20320000Y46990000D02*
X22481542Y46990000D01*
X22481542Y46990000D02*
X26860501Y51368959D01*
X26860501Y51368959D02*
X26860501Y53149499D01*
X26860501Y53149499D02*
X25400000Y54610000D01*
X20320000Y49530000D02*
X22860000Y49530000D01*
X22860000Y49530000D02*
X25400000Y52070000D01*
X19050000Y31750000D02*
X16510000Y31750000D01*
X16510000Y31750000D02*
X15240000Y33020000D01*
X30480000Y54610000D02*
X33020000Y54610000D01*
X12700000Y39370000D02*
X13050000Y39370000D01*
X13050000Y39370000D02*
X16510000Y42830000D01*
X16510000Y42830000D02*
X16510000Y45720000D01*
X46990000Y52070000D02*
X44450000Y52070000D01*
X41964428Y39370000D02*
X41962320Y39372108D01*
X44450000Y39370000D02*
X41964428Y39370000D01*
X36830000Y39370000D02*
X39265378Y39370000D01*
X36830000Y44450000D02*
X36830000Y41910000D01*
X39370000Y54610000D02*
X36830000Y54610000D01*
X39370000Y52070000D02*
X36830000Y52070000D01*
X26670000Y21590000D02*
X30480000Y17780000D01*
X41910000Y54610000D02*
X44450000Y54610000D01*
X68732235Y36259999D02*
X70254095Y34738139D01*
X65718459Y36259999D02*
X68732235Y36259999D01*
X66230501Y48828959D02*
X63309499Y45907957D01*
X66230501Y50609499D02*
X66230501Y48828959D01*
X63309499Y45907957D02*
X63309499Y38668959D01*
X64770000Y52070000D02*
X66230501Y50609499D01*
X63309499Y38668959D02*
X65718459Y36259999D01*
X66014106Y37943251D02*
X66014106Y38125894D01*
X66014106Y38125894D02*
X64770000Y39370000D01*
X60960000Y39370000D02*
X57150000Y39370000D01*
X59932821Y41929150D02*
X57169150Y41929150D01*
X57169150Y41929150D02*
X57150000Y41910000D01*
X59690000Y54610000D02*
X57150000Y54610000D01*
X54610000Y52070000D02*
X57150000Y52070000D01*
X57150000Y21590000D02*
X57150000Y21940000D01*
X57150000Y21940000D02*
X62647690Y27437690D01*
X62647690Y27437690D02*
X81869140Y27437690D01*
X81869140Y27437690D02*
X90685000Y36253550D01*
X90685000Y36253550D02*
X90685000Y48095000D01*
X90685000Y48095000D02*
X89250000Y49530000D01*
X89250000Y49530000D02*
X88900000Y49530000D01*
X66230501Y56959499D02*
X66230501Y56070501D01*
X66230501Y56070501D02*
X64770000Y54610000D01*
X81280000Y54610000D02*
X78740000Y54610000D01*
X78740000Y54610000D02*
X76200000Y52070000D01*
D25*
X82550000Y38100000D02*
X80188550Y38100000D01*
D24*
X77470000Y38100000D02*
X80188550Y38100000D01*
X77470000Y38100000D02*
X76200000Y39370000D01*
X83065000Y38615000D02*
X82550000Y38100000D01*
X81280000Y52070000D02*
X81630000Y52070000D01*
X81630000Y52070000D02*
X83065000Y50635000D01*
X83065000Y50635000D02*
X83065000Y38615000D01*
X75710312Y44310312D02*
X68580000Y44310312D01*
X68580000Y39370000D02*
X67119499Y40830501D01*
X67119499Y42849811D02*
X68580000Y44310312D01*
X67119499Y40830501D02*
X67119499Y42849811D01*
X81280000Y49530000D02*
X80930000Y49530000D01*
X80930000Y49530000D02*
X75710312Y44310312D01*
X74038458Y41910000D02*
X68580000Y41910000D01*
X75498959Y43370501D02*
X74038458Y41910000D01*
X77310501Y43370501D02*
X75498959Y43370501D01*
X81280000Y46990000D02*
X80930000Y46990000D01*
X80930000Y46990000D02*
X77310501Y43370501D01*
X72390000Y54610000D02*
X68580000Y54610000D01*
X68580000Y49530000D02*
X68580000Y52070000D01*
X88900000Y52070000D02*
X89250000Y52070000D01*
X89250000Y52070000D02*
X90672310Y53492310D01*
X90672310Y53492310D02*
X90672310Y55199140D01*
X90672310Y55199140D02*
X89839140Y56032310D01*
X77622310Y56032310D02*
X76200000Y54610000D01*
X89839140Y56032310D02*
X77622310Y56032310D01*
D23*
X26783092Y19050000D02*
X14035010Y19050000D01*
X29692894Y16140198D02*
X26783092Y19050000D01*
X72390000Y13970000D02*
X70219802Y16140198D01*
X70219802Y16140198D02*
X29692894Y16140198D01*
X15075010Y14134990D02*
X13970000Y15240000D01*
X24260084Y14134990D02*
X15075010Y14134990D01*
X29244906Y13970000D02*
X27505105Y15709801D01*
X25834895Y15709801D02*
X24260084Y14134990D01*
X27505105Y15709801D02*
X25834895Y15709801D01*
X34290000Y13970000D02*
X29244906Y13970000D01*
D26*
G36*
X97663000Y56109904D02*
X97467747Y56582452D01*
X96646774Y57404860D01*
X95573572Y57850492D01*
X94411526Y57851506D01*
X93337548Y57407747D01*
X92515140Y56586774D01*
X92069508Y55513572D01*
X92068494Y54351526D01*
X92512253Y53277548D01*
X93333226Y52455140D01*
X94406428Y52009508D01*
X95568474Y52008494D01*
X96642452Y52452253D01*
X97464860Y53273226D01*
X97663000Y53750401D01*
X97663000Y6109904D01*
X97467747Y6582452D01*
X96646774Y7404860D01*
X95573572Y7850492D01*
X94411526Y7851506D01*
X93337548Y7407747D01*
X92515140Y6586774D01*
X92069508Y5513572D01*
X92068494Y4351526D01*
X92512253Y3277548D01*
X93333226Y2455140D01*
X94406428Y2009508D01*
X95568474Y2008494D01*
X96642452Y2452253D01*
X97464860Y3273226D01*
X97663000Y3750401D01*
X97663000Y1397000D01*
X1397000Y1397000D01*
X1397000Y2657837D01*
X23157443Y2657837D01*
X23256042Y2391035D01*
X23865582Y2164599D01*
X24515377Y2188659D01*
X25003958Y2391035D01*
X25102557Y2657837D01*
X24130000Y3630395D01*
X23157443Y2657837D01*
X1397000Y2657837D01*
X1397000Y4074418D01*
X22484599Y4074418D01*
X22508659Y3424623D01*
X22711035Y2936042D01*
X22977837Y2837443D01*
X23950395Y3810000D01*
X24309605Y3810000D01*
X25282163Y2837443D01*
X25548965Y2936042D01*
X25775401Y3545582D01*
X25751341Y4195377D01*
X25548965Y4683958D01*
X25282163Y4782557D01*
X24309605Y3810000D01*
X23950395Y3810000D01*
X22977837Y4782557D01*
X22711035Y4683958D01*
X22484599Y4074418D01*
X1397000Y4074418D01*
X1397000Y4962163D01*
X23157443Y4962163D01*
X24130000Y3989605D01*
X25102557Y4962163D01*
X25003958Y5228965D01*
X24394418Y5455401D01*
X23744623Y5431341D01*
X23256042Y5228965D01*
X23157443Y4962163D01*
X1397000Y4962163D01*
X1397000Y7260974D01*
X4742642Y7260974D01*
X4745291Y7245209D01*
X4999268Y6717964D01*
X5435680Y6328046D01*
X5988087Y6134816D01*
X6223000Y6279076D01*
X6223000Y7493000D01*
X6477000Y7493000D01*
X6477000Y6279076D01*
X6711913Y6134816D01*
X7264320Y6328046D01*
X7700732Y6717964D01*
X7954709Y7245209D01*
X7957358Y7260974D01*
X7836217Y7493000D01*
X6477000Y7493000D01*
X6223000Y7493000D01*
X4863783Y7493000D01*
X4742642Y7260974D01*
X1397000Y7260974D01*
X1397000Y20320000D01*
X4407679Y20320000D01*
X4541088Y19649309D01*
X4921004Y19080725D01*
X4966987Y19050000D01*
X4921004Y19019275D01*
X4541088Y18450691D01*
X4407679Y17780000D01*
X4541088Y17109309D01*
X4921004Y16540725D01*
X4966987Y16510000D01*
X4921004Y16479275D01*
X4541088Y15910691D01*
X4407679Y15240000D01*
X4541088Y14569309D01*
X4921004Y14000725D01*
X4966987Y13970000D01*
X4921004Y13939275D01*
X4541088Y13370691D01*
X4407679Y12700000D01*
X4541088Y12029309D01*
X4921004Y11460725D01*
X4966987Y11430000D01*
X4921004Y11399275D01*
X4541088Y10830691D01*
X4407679Y10160000D01*
X4541088Y9489309D01*
X4921004Y8920725D01*
X5221082Y8720219D01*
X4999268Y8522036D01*
X4745291Y7994791D01*
X4742642Y7979026D01*
X4863783Y7747000D01*
X6223000Y7747000D01*
X6223000Y7767000D01*
X6477000Y7767000D01*
X6477000Y7747000D01*
X7836217Y7747000D01*
X7957358Y7979026D01*
X7954709Y7994791D01*
X7700732Y8522036D01*
X7573179Y8636000D01*
X24768738Y8636000D01*
X25055469Y8349269D01*
X25076478Y8243648D01*
X25442608Y7695697D01*
X25990559Y7329567D01*
X26096180Y7308558D01*
X27332170Y6072568D01*
X27826591Y5742207D01*
X28409801Y5626199D01*
X33740255Y5626199D01*
X33221654Y5411918D01*
X32689949Y4881141D01*
X32401838Y4187292D01*
X32401183Y3436004D01*
X32688082Y2741654D01*
X33218859Y2209949D01*
X33912708Y1921838D01*
X34663996Y1921183D01*
X35358346Y2208082D01*
X35808887Y2657837D01*
X61257443Y2657837D01*
X61356042Y2391035D01*
X61965582Y2164599D01*
X62615377Y2188659D01*
X63103958Y2391035D01*
X63202557Y2657837D01*
X62230000Y3630395D01*
X61257443Y2657837D01*
X35808887Y2657837D01*
X35890051Y2738859D01*
X36178162Y3432708D01*
X36178721Y4074418D01*
X60584599Y4074418D01*
X60608659Y3424623D01*
X60811035Y2936042D01*
X61077837Y2837443D01*
X62050395Y3810000D01*
X62409605Y3810000D01*
X63382163Y2837443D01*
X63648965Y2936042D01*
X63834694Y3436004D01*
X70501183Y3436004D01*
X70788082Y2741654D01*
X71318859Y2209949D01*
X72012708Y1921838D01*
X72763996Y1921183D01*
X73458346Y2208082D01*
X73990051Y2738859D01*
X74278162Y3432708D01*
X74278817Y4183996D01*
X73991918Y4878346D01*
X73461141Y5410051D01*
X72767292Y5698162D01*
X72016004Y5698817D01*
X71321654Y5411918D01*
X70789949Y4881141D01*
X70501838Y4187292D01*
X70501183Y3436004D01*
X63834694Y3436004D01*
X63875401Y3545582D01*
X63851341Y4195377D01*
X63648965Y4683958D01*
X63382163Y4782557D01*
X62409605Y3810000D01*
X62050395Y3810000D01*
X61077837Y4782557D01*
X60811035Y4683958D01*
X60584599Y4074418D01*
X36178721Y4074418D01*
X36178817Y4183996D01*
X35891918Y4878346D01*
X35808248Y4962163D01*
X61257443Y4962163D01*
X62230000Y3989605D01*
X63202557Y4962163D01*
X63103958Y5228965D01*
X62494418Y5455401D01*
X61844623Y5431341D01*
X61356042Y5228965D01*
X61257443Y4962163D01*
X35808248Y4962163D01*
X35361141Y5410051D01*
X34840598Y5626199D01*
X63030199Y5626199D01*
X63613409Y5742207D01*
X64107830Y6072568D01*
X65343820Y7308558D01*
X65449441Y7329567D01*
X65997392Y7695697D01*
X66363522Y8243648D01*
X66492089Y8890000D01*
X70667911Y8890000D01*
X70796478Y8243648D01*
X71162608Y7695697D01*
X71710559Y7329567D01*
X72356911Y7201000D01*
X72423089Y7201000D01*
X73069441Y7329567D01*
X73617392Y7695697D01*
X73983522Y8243648D01*
X74112089Y8890000D01*
X73983522Y9536352D01*
X73617392Y10084303D01*
X73069441Y10450433D01*
X72423089Y10579000D01*
X72356911Y10579000D01*
X71710559Y10450433D01*
X71162608Y10084303D01*
X70796478Y9536352D01*
X70667911Y8890000D01*
X66492089Y8890000D01*
X66363522Y9536352D01*
X65997392Y10084303D01*
X65449441Y10450433D01*
X64803089Y10579000D01*
X64736911Y10579000D01*
X64090559Y10450433D01*
X63542608Y10084303D01*
X63176478Y9536352D01*
X63155469Y9430731D01*
X62398937Y8674199D01*
X35969164Y8674199D01*
X36012089Y8890000D01*
X35883522Y9536352D01*
X35517392Y10084303D01*
X34969441Y10450433D01*
X34323089Y10579000D01*
X34256911Y10579000D01*
X33610559Y10450433D01*
X33062608Y10084303D01*
X32696478Y9536352D01*
X32567911Y8890000D01*
X32610836Y8674199D01*
X29041063Y8674199D01*
X28284531Y9430731D01*
X28263522Y9536352D01*
X27897392Y10084303D01*
X27349441Y10450433D01*
X27243820Y10471442D01*
X26477631Y11237631D01*
X26235713Y11399275D01*
X25983210Y11567992D01*
X25400000Y11684000D01*
X12315262Y11684000D01*
X13407830Y12776568D01*
X13738191Y13270989D01*
X13745750Y13308988D01*
X13997379Y13057359D01*
X14491800Y12726998D01*
X15075010Y12610990D01*
X24260084Y12610990D01*
X24843294Y12726998D01*
X25280121Y13018876D01*
X25442608Y12775697D01*
X25990559Y12409567D01*
X26636911Y12281000D01*
X26703089Y12281000D01*
X27349441Y12409567D01*
X27897392Y12775697D01*
X28052224Y13007420D01*
X28167275Y12892369D01*
X28661696Y12562008D01*
X29244906Y12446000D01*
X33556033Y12446000D01*
X33610559Y12409567D01*
X34256911Y12281000D01*
X34323089Y12281000D01*
X34969441Y12409567D01*
X35517392Y12775697D01*
X35883522Y13323648D01*
X36012089Y13970000D01*
X35883553Y14616198D01*
X63176447Y14616198D01*
X63047911Y13970000D01*
X63176478Y13323648D01*
X63542608Y12775697D01*
X64090559Y12409567D01*
X64736911Y12281000D01*
X64803089Y12281000D01*
X65449441Y12409567D01*
X65997392Y12775697D01*
X66363522Y13323648D01*
X66492089Y13970000D01*
X66363553Y14616198D01*
X69588540Y14616198D01*
X70775468Y13429270D01*
X70796478Y13323648D01*
X71162608Y12775697D01*
X71710559Y12409567D01*
X72356911Y12281000D01*
X72423089Y12281000D01*
X73069441Y12409567D01*
X73617392Y12775697D01*
X73983522Y13323648D01*
X74112089Y13970000D01*
X73983522Y14616352D01*
X73617392Y15164303D01*
X73069441Y15530433D01*
X72963819Y15551443D01*
X71297433Y17217829D01*
X71147079Y17318292D01*
X70803012Y17548190D01*
X70311289Y17646000D01*
X72860000Y17646000D01*
X73443210Y17762008D01*
X73937631Y18092369D01*
X75462171Y19616909D01*
X75576352Y19639621D01*
X76124303Y20005751D01*
X76490433Y20553702D01*
X76619000Y21200054D01*
X76619000Y21979946D01*
X76490433Y22626298D01*
X76124303Y23174249D01*
X75576352Y23540379D01*
X74930000Y23668946D01*
X74283648Y23540379D01*
X73735697Y23174249D01*
X73660000Y23060961D01*
X73584303Y23174249D01*
X73036352Y23540379D01*
X72390000Y23668946D01*
X71743648Y23540379D01*
X71195697Y23174249D01*
X71120000Y23060961D01*
X71044303Y23174249D01*
X70496352Y23540379D01*
X69850000Y23668946D01*
X69203648Y23540379D01*
X68655697Y23174249D01*
X68417385Y22817591D01*
X68234896Y23044500D01*
X67812132Y23275884D01*
X68729748Y24193500D01*
X82489636Y24193500D01*
X82951344Y24285339D01*
X83342760Y24546876D01*
X96103124Y37307240D01*
X96170784Y37408500D01*
X96364661Y37698656D01*
X96456500Y38160364D01*
X96456500Y43409170D01*
X96596303Y43548729D01*
X96838723Y44132542D01*
X96839275Y44764685D01*
X96597874Y45348920D01*
X96151271Y45796303D01*
X95567458Y46038723D01*
X94935315Y46039275D01*
X94351080Y45797874D01*
X93903697Y45351271D01*
X93661277Y44767458D01*
X93660725Y44135315D01*
X93902126Y43551080D01*
X93954138Y43498977D01*
X93612995Y43499275D01*
X93028760Y43257874D01*
X92581377Y42811271D01*
X92338957Y42227458D01*
X92338405Y41595315D01*
X92579806Y41011080D01*
X92721180Y40869459D01*
X92721180Y38666885D01*
X91891500Y37837205D01*
X91891500Y48095000D01*
X91799661Y48556708D01*
X91692624Y48716900D01*
X91538124Y48948125D01*
X90975180Y49511068D01*
X90978946Y49530000D01*
X90850379Y50176352D01*
X90484249Y50724303D01*
X90370961Y50800000D01*
X90484249Y50875697D01*
X90850379Y51423648D01*
X90978946Y52070000D01*
X90975180Y52088932D01*
X91525434Y52639186D01*
X91786971Y53030602D01*
X91797990Y53086000D01*
X91878810Y53492310D01*
X91878810Y55199140D01*
X91786971Y55660848D01*
X91682967Y55816500D01*
X91525434Y56052265D01*
X90692264Y56885434D01*
X90581418Y56959499D01*
X90300848Y57146971D01*
X89839140Y57238810D01*
X77622310Y57238810D01*
X77160602Y57146971D01*
X76769186Y56885434D01*
X76220935Y56337183D01*
X75857946Y56337499D01*
X75222898Y56075103D01*
X74736605Y55589658D01*
X74473100Y54955069D01*
X74472501Y54267946D01*
X74734897Y53632898D01*
X75027369Y53339915D01*
X74736605Y53049658D01*
X74473100Y52415069D01*
X74472501Y51727946D01*
X74734897Y51092898D01*
X75027369Y50799915D01*
X74736605Y50509658D01*
X74473100Y49875069D01*
X74472781Y49509030D01*
X73160252Y48196500D01*
X69816105Y48196500D01*
X69654994Y48357893D01*
X69926303Y48628729D01*
X70168723Y49212542D01*
X70169275Y49844685D01*
X69927874Y50428920D01*
X69786500Y50570541D01*
X69786500Y50833895D01*
X70043395Y51090342D01*
X70306900Y51724931D01*
X70307499Y52412054D01*
X70045103Y53047102D01*
X70001534Y53090747D01*
X70050217Y53122074D01*
X70242508Y53403500D01*
X71349170Y53403500D01*
X71488729Y53263697D01*
X72072542Y53021277D01*
X72704685Y53020725D01*
X73288920Y53262126D01*
X73736303Y53708729D01*
X73978723Y54292542D01*
X73979275Y54924685D01*
X73737874Y55508920D01*
X73291271Y55956303D01*
X72707458Y56198723D01*
X72075315Y56199275D01*
X71491080Y55957874D01*
X71349459Y55816500D01*
X70237624Y55816500D01*
X70067926Y56080217D01*
X69770847Y56283203D01*
X69418200Y56354616D01*
X67741800Y56354616D01*
X67696322Y56346059D01*
X67819224Y56642041D01*
X67819776Y57274184D01*
X67578375Y57858419D01*
X67131772Y58305802D01*
X66547959Y58548222D01*
X65915816Y58548774D01*
X65331581Y58307373D01*
X64884198Y57860770D01*
X64641778Y57276957D01*
X64641226Y56644814D01*
X64768329Y56337202D01*
X64427946Y56337499D01*
X63792898Y56075103D01*
X63306605Y55589658D01*
X63043100Y54955069D01*
X63042501Y54267946D01*
X63304897Y53632898D01*
X63597369Y53339915D01*
X63306605Y53049658D01*
X63043100Y52415069D01*
X63042501Y51727946D01*
X63304897Y51092898D01*
X63597369Y50799915D01*
X63306605Y50509658D01*
X63043100Y49875069D01*
X63042781Y49509030D01*
X61730252Y48196500D01*
X58386105Y48196500D01*
X58129658Y48453395D01*
X57495069Y48716900D01*
X56807946Y48717499D01*
X56172898Y48455103D01*
X55686605Y47969658D01*
X55423100Y47335069D01*
X55422781Y46969030D01*
X53756877Y45303125D01*
X53756876Y45303124D01*
X53726241Y45257276D01*
X53629937Y45490349D01*
X53113070Y46008119D01*
X52437405Y46288680D01*
X51705805Y46289318D01*
X51145347Y46057742D01*
X51129726Y46082017D01*
X50832647Y46285003D01*
X50480000Y46356416D01*
X48580000Y46356416D01*
X48250556Y46294427D01*
X48196500Y46259643D01*
X48196500Y46990000D01*
X48104661Y47451708D01*
X48023476Y47573210D01*
X47843124Y47843125D01*
X46177183Y49509066D01*
X46177499Y49872054D01*
X45915103Y50507102D01*
X45622631Y50800085D01*
X45686157Y50863500D01*
X45949170Y50863500D01*
X46088729Y50723697D01*
X46672542Y50481277D01*
X47304685Y50480725D01*
X47777150Y50675944D01*
X47930274Y50437983D01*
X48227353Y50234997D01*
X48580000Y50163584D01*
X50480000Y50163584D01*
X50809444Y50225573D01*
X51112017Y50420274D01*
X51141970Y50464112D01*
X51702595Y50231320D01*
X52434195Y50230682D01*
X53110349Y50510063D01*
X53516878Y50915883D01*
X53708729Y50723697D01*
X54292542Y50481277D01*
X54924685Y50480725D01*
X55508920Y50722126D01*
X55650541Y50863500D01*
X55913895Y50863500D01*
X56170342Y50606605D01*
X56804931Y50343100D01*
X57492054Y50342501D01*
X58127102Y50604897D01*
X58613395Y51090342D01*
X58876900Y51724931D01*
X58877499Y52412054D01*
X58615103Y53047102D01*
X58571534Y53090747D01*
X58620217Y53122074D01*
X58746137Y53306363D01*
X58788729Y53263697D01*
X59372542Y53021277D01*
X60004685Y53020725D01*
X60588920Y53262126D01*
X61036303Y53708729D01*
X61278723Y54292542D01*
X61279275Y54924685D01*
X61037874Y55508920D01*
X60591271Y55956303D01*
X60007458Y56198723D01*
X59375315Y56199275D01*
X58791080Y55957874D01*
X58745762Y55912635D01*
X58637926Y56080217D01*
X58340847Y56283203D01*
X57988200Y56354616D01*
X56311800Y56354616D01*
X55982356Y56292627D01*
X55679783Y56097926D01*
X55476797Y55800847D01*
X55405384Y55448200D01*
X55405384Y53771800D01*
X55467373Y53442356D01*
X55474244Y53431678D01*
X54927458Y53658723D01*
X54295315Y53659275D01*
X53711080Y53417874D01*
X53516675Y53223808D01*
X53113070Y53628119D01*
X52437405Y53908680D01*
X51705805Y53909318D01*
X51145347Y53677742D01*
X51129726Y53702017D01*
X50832647Y53905003D01*
X50480000Y53976416D01*
X48580000Y53976416D01*
X48250556Y53914427D01*
X47947983Y53719726D01*
X47773949Y53465019D01*
X47307458Y53658723D01*
X46675315Y53659275D01*
X46091080Y53417874D01*
X45949459Y53276500D01*
X45686105Y53276500D01*
X45622631Y53340085D01*
X45913395Y53630342D01*
X46176900Y54264931D01*
X46177499Y54952054D01*
X45915103Y55587102D01*
X45429658Y56073395D01*
X44795069Y56336900D01*
X44107946Y56337499D01*
X43472898Y56075103D01*
X43213843Y55816500D01*
X42950830Y55816500D01*
X42811271Y55956303D01*
X42227458Y56198723D01*
X41595315Y56199275D01*
X41011080Y55957874D01*
X40639745Y55587186D01*
X40271271Y55956303D01*
X39687458Y56198723D01*
X39055315Y56199275D01*
X38471080Y55957874D01*
X38425762Y55912635D01*
X38317926Y56080217D01*
X38020847Y56283203D01*
X37668200Y56354616D01*
X35991800Y56354616D01*
X35662356Y56292627D01*
X35359783Y56097926D01*
X35156797Y55800847D01*
X35085384Y55448200D01*
X35085384Y53771800D01*
X35147373Y53442356D01*
X35342074Y53139783D01*
X35410234Y53093211D01*
X35366605Y53049658D01*
X35103100Y52415069D01*
X35102501Y51727946D01*
X35126581Y51669668D01*
X34747183Y52049066D01*
X34747499Y52412054D01*
X34485103Y53047102D01*
X34192631Y53340085D01*
X34483395Y53630342D01*
X34746900Y54264931D01*
X34747499Y54952054D01*
X34485103Y55587102D01*
X33999658Y56073395D01*
X33365069Y56336900D01*
X32677946Y56337499D01*
X32042898Y56075103D01*
X31783843Y55816500D01*
X31520830Y55816500D01*
X31381271Y55956303D01*
X30797458Y56198723D01*
X30165315Y56199275D01*
X29581080Y55957874D01*
X29133697Y55511271D01*
X28891277Y54927458D01*
X28890725Y54295315D01*
X29132126Y53711080D01*
X29578729Y53263697D01*
X30162542Y53021277D01*
X30794685Y53020725D01*
X31378920Y53262126D01*
X31520541Y53403500D01*
X31783895Y53403500D01*
X31847369Y53339915D01*
X31556605Y53049658D01*
X31293100Y52415069D01*
X31292501Y51727946D01*
X31554897Y51092898D01*
X31847369Y50799915D01*
X31556605Y50509658D01*
X31293100Y49875069D01*
X31292781Y49509030D01*
X29980252Y48196500D01*
X26636105Y48196500D01*
X26379658Y48453395D01*
X25864922Y48667132D01*
X27713625Y50515835D01*
X27975162Y50907251D01*
X27996793Y51016000D01*
X28067001Y51368959D01*
X28067001Y53149499D01*
X27975162Y53611207D01*
X27962316Y53630433D01*
X27713625Y54002624D01*
X27144616Y54571633D01*
X27144616Y55448200D01*
X27082627Y55777644D01*
X26887926Y56080217D01*
X26590847Y56283203D01*
X26238200Y56354616D01*
X24561800Y56354616D01*
X24232356Y56292627D01*
X23929783Y56097926D01*
X23726797Y55800847D01*
X23655384Y55448200D01*
X23655384Y53771800D01*
X23717373Y53442356D01*
X23912074Y53139783D01*
X23980234Y53093211D01*
X23936605Y53049658D01*
X23673100Y52415069D01*
X23672781Y52049030D01*
X22360252Y50736500D01*
X21885995Y50736500D01*
X21790961Y50800000D01*
X21904249Y50875697D01*
X22270379Y51423648D01*
X22398946Y52070000D01*
X22270379Y52716352D01*
X21904249Y53264303D01*
X21547591Y53502615D01*
X21774500Y53685104D01*
X22044367Y54178181D01*
X22061904Y54260961D01*
X21939915Y54483000D01*
X20447000Y54483000D01*
X20447000Y54463000D01*
X20193000Y54463000D01*
X20193000Y54483000D01*
X18700085Y54483000D01*
X18578096Y54260961D01*
X18595633Y54178181D01*
X18865500Y53685104D01*
X19092409Y53502615D01*
X18735751Y53264303D01*
X18369621Y52716352D01*
X18241054Y52070000D01*
X18369621Y51423648D01*
X18735751Y50875697D01*
X18849039Y50800000D01*
X18735751Y50724303D01*
X18369621Y50176352D01*
X18241054Y49530000D01*
X18364160Y48911102D01*
X14673091Y52602171D01*
X14650379Y52716352D01*
X14284249Y53264303D01*
X14170961Y53340000D01*
X14284249Y53415697D01*
X14650379Y53963648D01*
X14778946Y54610000D01*
X14709519Y54959039D01*
X18578096Y54959039D01*
X18700085Y54737000D01*
X20193000Y54737000D01*
X20193000Y56045000D01*
X20447000Y56045000D01*
X20447000Y54737000D01*
X21939915Y54737000D01*
X22061904Y54959039D01*
X22044367Y55041819D01*
X21774500Y55534896D01*
X21336483Y55887166D01*
X20797000Y56045000D01*
X20447000Y56045000D01*
X20193000Y56045000D01*
X19843000Y56045000D01*
X19303517Y55887166D01*
X18865500Y55534896D01*
X18595633Y55041819D01*
X18578096Y54959039D01*
X14709519Y54959039D01*
X14650379Y55256352D01*
X14284249Y55804303D01*
X13736298Y56170433D01*
X13089946Y56299000D01*
X12310054Y56299000D01*
X11663702Y56170433D01*
X11115751Y55804303D01*
X10749621Y55256352D01*
X10621054Y54610000D01*
X10749621Y53963648D01*
X11115751Y53415697D01*
X11229039Y53340000D01*
X11115751Y53264303D01*
X10749621Y52716352D01*
X10621054Y52070000D01*
X10749621Y51423648D01*
X10996612Y51054000D01*
X10160005Y51054000D01*
X10160000Y51054001D01*
X9576791Y50937993D01*
X9082369Y50607631D01*
X5272369Y46797631D01*
X4942008Y46303210D01*
X4826000Y45720000D01*
X4826000Y24453129D01*
X4701983Y24373326D01*
X4498997Y24076247D01*
X4427584Y23723600D01*
X4427584Y21996400D01*
X4489573Y21666956D01*
X4684274Y21364383D01*
X4757397Y21314420D01*
X4541088Y20990691D01*
X4407679Y20320000D01*
X1397000Y20320000D01*
X1397000Y54351526D01*
X2068494Y54351526D01*
X2512253Y53277548D01*
X3333226Y52455140D01*
X4406428Y52009508D01*
X5568474Y52008494D01*
X6642452Y52452253D01*
X7464860Y53273226D01*
X7910492Y54346428D01*
X7911506Y55508474D01*
X7467747Y56582452D01*
X6646774Y57404860D01*
X5573572Y57850492D01*
X4411526Y57851506D01*
X3337548Y57407747D01*
X2515140Y56586774D01*
X2069508Y55513572D01*
X2068494Y54351526D01*
X1397000Y54351526D01*
X1397000Y58966000D01*
X97663000Y58966000D01*
X97663000Y56109904D01*
X97663000Y56109904D01*
G37*
X97663000Y56109904D02*
X97467747Y56582452D01*
X96646774Y57404860D01*
X95573572Y57850492D01*
X94411526Y57851506D01*
X93337548Y57407747D01*
X92515140Y56586774D01*
X92069508Y55513572D01*
X92068494Y54351526D01*
X92512253Y53277548D01*
X93333226Y52455140D01*
X94406428Y52009508D01*
X95568474Y52008494D01*
X96642452Y52452253D01*
X97464860Y53273226D01*
X97663000Y53750401D01*
X97663000Y6109904D01*
X97467747Y6582452D01*
X96646774Y7404860D01*
X95573572Y7850492D01*
X94411526Y7851506D01*
X93337548Y7407747D01*
X92515140Y6586774D01*
X92069508Y5513572D01*
X92068494Y4351526D01*
X92512253Y3277548D01*
X93333226Y2455140D01*
X94406428Y2009508D01*
X95568474Y2008494D01*
X96642452Y2452253D01*
X97464860Y3273226D01*
X97663000Y3750401D01*
X97663000Y1397000D01*
X1397000Y1397000D01*
X1397000Y2657837D01*
X23157443Y2657837D01*
X23256042Y2391035D01*
X23865582Y2164599D01*
X24515377Y2188659D01*
X25003958Y2391035D01*
X25102557Y2657837D01*
X24130000Y3630395D01*
X23157443Y2657837D01*
X1397000Y2657837D01*
X1397000Y4074418D01*
X22484599Y4074418D01*
X22508659Y3424623D01*
X22711035Y2936042D01*
X22977837Y2837443D01*
X23950395Y3810000D01*
X24309605Y3810000D01*
X25282163Y2837443D01*
X25548965Y2936042D01*
X25775401Y3545582D01*
X25751341Y4195377D01*
X25548965Y4683958D01*
X25282163Y4782557D01*
X24309605Y3810000D01*
X23950395Y3810000D01*
X22977837Y4782557D01*
X22711035Y4683958D01*
X22484599Y4074418D01*
X1397000Y4074418D01*
X1397000Y4962163D01*
X23157443Y4962163D01*
X24130000Y3989605D01*
X25102557Y4962163D01*
X25003958Y5228965D01*
X24394418Y5455401D01*
X23744623Y5431341D01*
X23256042Y5228965D01*
X23157443Y4962163D01*
X1397000Y4962163D01*
X1397000Y7260974D01*
X4742642Y7260974D01*
X4745291Y7245209D01*
X4999268Y6717964D01*
X5435680Y6328046D01*
X5988087Y6134816D01*
X6223000Y6279076D01*
X6223000Y7493000D01*
X6477000Y7493000D01*
X6477000Y6279076D01*
X6711913Y6134816D01*
X7264320Y6328046D01*
X7700732Y6717964D01*
X7954709Y7245209D01*
X7957358Y7260974D01*
X7836217Y7493000D01*
X6477000Y7493000D01*
X6223000Y7493000D01*
X4863783Y7493000D01*
X4742642Y7260974D01*
X1397000Y7260974D01*
X1397000Y20320000D01*
X4407679Y20320000D01*
X4541088Y19649309D01*
X4921004Y19080725D01*
X4966987Y19050000D01*
X4921004Y19019275D01*
X4541088Y18450691D01*
X4407679Y17780000D01*
X4541088Y17109309D01*
X4921004Y16540725D01*
X4966987Y16510000D01*
X4921004Y16479275D01*
X4541088Y15910691D01*
X4407679Y15240000D01*
X4541088Y14569309D01*
X4921004Y14000725D01*
X4966987Y13970000D01*
X4921004Y13939275D01*
X4541088Y13370691D01*
X4407679Y12700000D01*
X4541088Y12029309D01*
X4921004Y11460725D01*
X4966987Y11430000D01*
X4921004Y11399275D01*
X4541088Y10830691D01*
X4407679Y10160000D01*
X4541088Y9489309D01*
X4921004Y8920725D01*
X5221082Y8720219D01*
X4999268Y8522036D01*
X4745291Y7994791D01*
X4742642Y7979026D01*
X4863783Y7747000D01*
X6223000Y7747000D01*
X6223000Y7767000D01*
X6477000Y7767000D01*
X6477000Y7747000D01*
X7836217Y7747000D01*
X7957358Y7979026D01*
X7954709Y7994791D01*
X7700732Y8522036D01*
X7573179Y8636000D01*
X24768738Y8636000D01*
X25055469Y8349269D01*
X25076478Y8243648D01*
X25442608Y7695697D01*
X25990559Y7329567D01*
X26096180Y7308558D01*
X27332170Y6072568D01*
X27826591Y5742207D01*
X28409801Y5626199D01*
X33740255Y5626199D01*
X33221654Y5411918D01*
X32689949Y4881141D01*
X32401838Y4187292D01*
X32401183Y3436004D01*
X32688082Y2741654D01*
X33218859Y2209949D01*
X33912708Y1921838D01*
X34663996Y1921183D01*
X35358346Y2208082D01*
X35808887Y2657837D01*
X61257443Y2657837D01*
X61356042Y2391035D01*
X61965582Y2164599D01*
X62615377Y2188659D01*
X63103958Y2391035D01*
X63202557Y2657837D01*
X62230000Y3630395D01*
X61257443Y2657837D01*
X35808887Y2657837D01*
X35890051Y2738859D01*
X36178162Y3432708D01*
X36178721Y4074418D01*
X60584599Y4074418D01*
X60608659Y3424623D01*
X60811035Y2936042D01*
X61077837Y2837443D01*
X62050395Y3810000D01*
X62409605Y3810000D01*
X63382163Y2837443D01*
X63648965Y2936042D01*
X63834694Y3436004D01*
X70501183Y3436004D01*
X70788082Y2741654D01*
X71318859Y2209949D01*
X72012708Y1921838D01*
X72763996Y1921183D01*
X73458346Y2208082D01*
X73990051Y2738859D01*
X74278162Y3432708D01*
X74278817Y4183996D01*
X73991918Y4878346D01*
X73461141Y5410051D01*
X72767292Y5698162D01*
X72016004Y5698817D01*
X71321654Y5411918D01*
X70789949Y4881141D01*
X70501838Y4187292D01*
X70501183Y3436004D01*
X63834694Y3436004D01*
X63875401Y3545582D01*
X63851341Y4195377D01*
X63648965Y4683958D01*
X63382163Y4782557D01*
X62409605Y3810000D01*
X62050395Y3810000D01*
X61077837Y4782557D01*
X60811035Y4683958D01*
X60584599Y4074418D01*
X36178721Y4074418D01*
X36178817Y4183996D01*
X35891918Y4878346D01*
X35808248Y4962163D01*
X61257443Y4962163D01*
X62230000Y3989605D01*
X63202557Y4962163D01*
X63103958Y5228965D01*
X62494418Y5455401D01*
X61844623Y5431341D01*
X61356042Y5228965D01*
X61257443Y4962163D01*
X35808248Y4962163D01*
X35361141Y5410051D01*
X34840598Y5626199D01*
X63030199Y5626199D01*
X63613409Y5742207D01*
X64107830Y6072568D01*
X65343820Y7308558D01*
X65449441Y7329567D01*
X65997392Y7695697D01*
X66363522Y8243648D01*
X66492089Y8890000D01*
X70667911Y8890000D01*
X70796478Y8243648D01*
X71162608Y7695697D01*
X71710559Y7329567D01*
X72356911Y7201000D01*
X72423089Y7201000D01*
X73069441Y7329567D01*
X73617392Y7695697D01*
X73983522Y8243648D01*
X74112089Y8890000D01*
X73983522Y9536352D01*
X73617392Y10084303D01*
X73069441Y10450433D01*
X72423089Y10579000D01*
X72356911Y10579000D01*
X71710559Y10450433D01*
X71162608Y10084303D01*
X70796478Y9536352D01*
X70667911Y8890000D01*
X66492089Y8890000D01*
X66363522Y9536352D01*
X65997392Y10084303D01*
X65449441Y10450433D01*
X64803089Y10579000D01*
X64736911Y10579000D01*
X64090559Y10450433D01*
X63542608Y10084303D01*
X63176478Y9536352D01*
X63155469Y9430731D01*
X62398937Y8674199D01*
X35969164Y8674199D01*
X36012089Y8890000D01*
X35883522Y9536352D01*
X35517392Y10084303D01*
X34969441Y10450433D01*
X34323089Y10579000D01*
X34256911Y10579000D01*
X33610559Y10450433D01*
X33062608Y10084303D01*
X32696478Y9536352D01*
X32567911Y8890000D01*
X32610836Y8674199D01*
X29041063Y8674199D01*
X28284531Y9430731D01*
X28263522Y9536352D01*
X27897392Y10084303D01*
X27349441Y10450433D01*
X27243820Y10471442D01*
X26477631Y11237631D01*
X26235713Y11399275D01*
X25983210Y11567992D01*
X25400000Y11684000D01*
X12315262Y11684000D01*
X13407830Y12776568D01*
X13738191Y13270989D01*
X13745750Y13308988D01*
X13997379Y13057359D01*
X14491800Y12726998D01*
X15075010Y12610990D01*
X24260084Y12610990D01*
X24843294Y12726998D01*
X25280121Y13018876D01*
X25442608Y12775697D01*
X25990559Y12409567D01*
X26636911Y12281000D01*
X26703089Y12281000D01*
X27349441Y12409567D01*
X27897392Y12775697D01*
X28052224Y13007420D01*
X28167275Y12892369D01*
X28661696Y12562008D01*
X29244906Y12446000D01*
X33556033Y12446000D01*
X33610559Y12409567D01*
X34256911Y12281000D01*
X34323089Y12281000D01*
X34969441Y12409567D01*
X35517392Y12775697D01*
X35883522Y13323648D01*
X36012089Y13970000D01*
X35883553Y14616198D01*
X63176447Y14616198D01*
X63047911Y13970000D01*
X63176478Y13323648D01*
X63542608Y12775697D01*
X64090559Y12409567D01*
X64736911Y12281000D01*
X64803089Y12281000D01*
X65449441Y12409567D01*
X65997392Y12775697D01*
X66363522Y13323648D01*
X66492089Y13970000D01*
X66363553Y14616198D01*
X69588540Y14616198D01*
X70775468Y13429270D01*
X70796478Y13323648D01*
X71162608Y12775697D01*
X71710559Y12409567D01*
X72356911Y12281000D01*
X72423089Y12281000D01*
X73069441Y12409567D01*
X73617392Y12775697D01*
X73983522Y13323648D01*
X74112089Y13970000D01*
X73983522Y14616352D01*
X73617392Y15164303D01*
X73069441Y15530433D01*
X72963819Y15551443D01*
X71297433Y17217829D01*
X71147079Y17318292D01*
X70803012Y17548190D01*
X70311289Y17646000D01*
X72860000Y17646000D01*
X73443210Y17762008D01*
X73937631Y18092369D01*
X75462171Y19616909D01*
X75576352Y19639621D01*
X76124303Y20005751D01*
X76490433Y20553702D01*
X76619000Y21200054D01*
X76619000Y21979946D01*
X76490433Y22626298D01*
X76124303Y23174249D01*
X75576352Y23540379D01*
X74930000Y23668946D01*
X74283648Y23540379D01*
X73735697Y23174249D01*
X73660000Y23060961D01*
X73584303Y23174249D01*
X73036352Y23540379D01*
X72390000Y23668946D01*
X71743648Y23540379D01*
X71195697Y23174249D01*
X71120000Y23060961D01*
X71044303Y23174249D01*
X70496352Y23540379D01*
X69850000Y23668946D01*
X69203648Y23540379D01*
X68655697Y23174249D01*
X68417385Y22817591D01*
X68234896Y23044500D01*
X67812132Y23275884D01*
X68729748Y24193500D01*
X82489636Y24193500D01*
X82951344Y24285339D01*
X83342760Y24546876D01*
X96103124Y37307240D01*
X96170784Y37408500D01*
X96364661Y37698656D01*
X96456500Y38160364D01*
X96456500Y43409170D01*
X96596303Y43548729D01*
X96838723Y44132542D01*
X96839275Y44764685D01*
X96597874Y45348920D01*
X96151271Y45796303D01*
X95567458Y46038723D01*
X94935315Y46039275D01*
X94351080Y45797874D01*
X93903697Y45351271D01*
X93661277Y44767458D01*
X93660725Y44135315D01*
X93902126Y43551080D01*
X93954138Y43498977D01*
X93612995Y43499275D01*
X93028760Y43257874D01*
X92581377Y42811271D01*
X92338957Y42227458D01*
X92338405Y41595315D01*
X92579806Y41011080D01*
X92721180Y40869459D01*
X92721180Y38666885D01*
X91891500Y37837205D01*
X91891500Y48095000D01*
X91799661Y48556708D01*
X91692624Y48716900D01*
X91538124Y48948125D01*
X90975180Y49511068D01*
X90978946Y49530000D01*
X90850379Y50176352D01*
X90484249Y50724303D01*
X90370961Y50800000D01*
X90484249Y50875697D01*
X90850379Y51423648D01*
X90978946Y52070000D01*
X90975180Y52088932D01*
X91525434Y52639186D01*
X91786971Y53030602D01*
X91797990Y53086000D01*
X91878810Y53492310D01*
X91878810Y55199140D01*
X91786971Y55660848D01*
X91682967Y55816500D01*
X91525434Y56052265D01*
X90692264Y56885434D01*
X90581418Y56959499D01*
X90300848Y57146971D01*
X89839140Y57238810D01*
X77622310Y57238810D01*
X77160602Y57146971D01*
X76769186Y56885434D01*
X76220935Y56337183D01*
X75857946Y56337499D01*
X75222898Y56075103D01*
X74736605Y55589658D01*
X74473100Y54955069D01*
X74472501Y54267946D01*
X74734897Y53632898D01*
X75027369Y53339915D01*
X74736605Y53049658D01*
X74473100Y52415069D01*
X74472501Y51727946D01*
X74734897Y51092898D01*
X75027369Y50799915D01*
X74736605Y50509658D01*
X74473100Y49875069D01*
X74472781Y49509030D01*
X73160252Y48196500D01*
X69816105Y48196500D01*
X69654994Y48357893D01*
X69926303Y48628729D01*
X70168723Y49212542D01*
X70169275Y49844685D01*
X69927874Y50428920D01*
X69786500Y50570541D01*
X69786500Y50833895D01*
X70043395Y51090342D01*
X70306900Y51724931D01*
X70307499Y52412054D01*
X70045103Y53047102D01*
X70001534Y53090747D01*
X70050217Y53122074D01*
X70242508Y53403500D01*
X71349170Y53403500D01*
X71488729Y53263697D01*
X72072542Y53021277D01*
X72704685Y53020725D01*
X73288920Y53262126D01*
X73736303Y53708729D01*
X73978723Y54292542D01*
X73979275Y54924685D01*
X73737874Y55508920D01*
X73291271Y55956303D01*
X72707458Y56198723D01*
X72075315Y56199275D01*
X71491080Y55957874D01*
X71349459Y55816500D01*
X70237624Y55816500D01*
X70067926Y56080217D01*
X69770847Y56283203D01*
X69418200Y56354616D01*
X67741800Y56354616D01*
X67696322Y56346059D01*
X67819224Y56642041D01*
X67819776Y57274184D01*
X67578375Y57858419D01*
X67131772Y58305802D01*
X66547959Y58548222D01*
X65915816Y58548774D01*
X65331581Y58307373D01*
X64884198Y57860770D01*
X64641778Y57276957D01*
X64641226Y56644814D01*
X64768329Y56337202D01*
X64427946Y56337499D01*
X63792898Y56075103D01*
X63306605Y55589658D01*
X63043100Y54955069D01*
X63042501Y54267946D01*
X63304897Y53632898D01*
X63597369Y53339915D01*
X63306605Y53049658D01*
X63043100Y52415069D01*
X63042501Y51727946D01*
X63304897Y51092898D01*
X63597369Y50799915D01*
X63306605Y50509658D01*
X63043100Y49875069D01*
X63042781Y49509030D01*
X61730252Y48196500D01*
X58386105Y48196500D01*
X58129658Y48453395D01*
X57495069Y48716900D01*
X56807946Y48717499D01*
X56172898Y48455103D01*
X55686605Y47969658D01*
X55423100Y47335069D01*
X55422781Y46969030D01*
X53756877Y45303125D01*
X53756876Y45303124D01*
X53726241Y45257276D01*
X53629937Y45490349D01*
X53113070Y46008119D01*
X52437405Y46288680D01*
X51705805Y46289318D01*
X51145347Y46057742D01*
X51129726Y46082017D01*
X50832647Y46285003D01*
X50480000Y46356416D01*
X48580000Y46356416D01*
X48250556Y46294427D01*
X48196500Y46259643D01*
X48196500Y46990000D01*
X48104661Y47451708D01*
X48023476Y47573210D01*
X47843124Y47843125D01*
X46177183Y49509066D01*
X46177499Y49872054D01*
X45915103Y50507102D01*
X45622631Y50800085D01*
X45686157Y50863500D01*
X45949170Y50863500D01*
X46088729Y50723697D01*
X46672542Y50481277D01*
X47304685Y50480725D01*
X47777150Y50675944D01*
X47930274Y50437983D01*
X48227353Y50234997D01*
X48580000Y50163584D01*
X50480000Y50163584D01*
X50809444Y50225573D01*
X51112017Y50420274D01*
X51141970Y50464112D01*
X51702595Y50231320D01*
X52434195Y50230682D01*
X53110349Y50510063D01*
X53516878Y50915883D01*
X53708729Y50723697D01*
X54292542Y50481277D01*
X54924685Y50480725D01*
X55508920Y50722126D01*
X55650541Y50863500D01*
X55913895Y50863500D01*
X56170342Y50606605D01*
X56804931Y50343100D01*
X57492054Y50342501D01*
X58127102Y50604897D01*
X58613395Y51090342D01*
X58876900Y51724931D01*
X58877499Y52412054D01*
X58615103Y53047102D01*
X58571534Y53090747D01*
X58620217Y53122074D01*
X58746137Y53306363D01*
X58788729Y53263697D01*
X59372542Y53021277D01*
X60004685Y53020725D01*
X60588920Y53262126D01*
X61036303Y53708729D01*
X61278723Y54292542D01*
X61279275Y54924685D01*
X61037874Y55508920D01*
X60591271Y55956303D01*
X60007458Y56198723D01*
X59375315Y56199275D01*
X58791080Y55957874D01*
X58745762Y55912635D01*
X58637926Y56080217D01*
X58340847Y56283203D01*
X57988200Y56354616D01*
X56311800Y56354616D01*
X55982356Y56292627D01*
X55679783Y56097926D01*
X55476797Y55800847D01*
X55405384Y55448200D01*
X55405384Y53771800D01*
X55467373Y53442356D01*
X55474244Y53431678D01*
X54927458Y53658723D01*
X54295315Y53659275D01*
X53711080Y53417874D01*
X53516675Y53223808D01*
X53113070Y53628119D01*
X52437405Y53908680D01*
X51705805Y53909318D01*
X51145347Y53677742D01*
X51129726Y53702017D01*
X50832647Y53905003D01*
X50480000Y53976416D01*
X48580000Y53976416D01*
X48250556Y53914427D01*
X47947983Y53719726D01*
X47773949Y53465019D01*
X47307458Y53658723D01*
X46675315Y53659275D01*
X46091080Y53417874D01*
X45949459Y53276500D01*
X45686105Y53276500D01*
X45622631Y53340085D01*
X45913395Y53630342D01*
X46176900Y54264931D01*
X46177499Y54952054D01*
X45915103Y55587102D01*
X45429658Y56073395D01*
X44795069Y56336900D01*
X44107946Y56337499D01*
X43472898Y56075103D01*
X43213843Y55816500D01*
X42950830Y55816500D01*
X42811271Y55956303D01*
X42227458Y56198723D01*
X41595315Y56199275D01*
X41011080Y55957874D01*
X40639745Y55587186D01*
X40271271Y55956303D01*
X39687458Y56198723D01*
X39055315Y56199275D01*
X38471080Y55957874D01*
X38425762Y55912635D01*
X38317926Y56080217D01*
X38020847Y56283203D01*
X37668200Y56354616D01*
X35991800Y56354616D01*
X35662356Y56292627D01*
X35359783Y56097926D01*
X35156797Y55800847D01*
X35085384Y55448200D01*
X35085384Y53771800D01*
X35147373Y53442356D01*
X35342074Y53139783D01*
X35410234Y53093211D01*
X35366605Y53049658D01*
X35103100Y52415069D01*
X35102501Y51727946D01*
X35126581Y51669668D01*
X34747183Y52049066D01*
X34747499Y52412054D01*
X34485103Y53047102D01*
X34192631Y53340085D01*
X34483395Y53630342D01*
X34746900Y54264931D01*
X34747499Y54952054D01*
X34485103Y55587102D01*
X33999658Y56073395D01*
X33365069Y56336900D01*
X32677946Y56337499D01*
X32042898Y56075103D01*
X31783843Y55816500D01*
X31520830Y55816500D01*
X31381271Y55956303D01*
X30797458Y56198723D01*
X30165315Y56199275D01*
X29581080Y55957874D01*
X29133697Y55511271D01*
X28891277Y54927458D01*
X28890725Y54295315D01*
X29132126Y53711080D01*
X29578729Y53263697D01*
X30162542Y53021277D01*
X30794685Y53020725D01*
X31378920Y53262126D01*
X31520541Y53403500D01*
X31783895Y53403500D01*
X31847369Y53339915D01*
X31556605Y53049658D01*
X31293100Y52415069D01*
X31292501Y51727946D01*
X31554897Y51092898D01*
X31847369Y50799915D01*
X31556605Y50509658D01*
X31293100Y49875069D01*
X31292781Y49509030D01*
X29980252Y48196500D01*
X26636105Y48196500D01*
X26379658Y48453395D01*
X25864922Y48667132D01*
X27713625Y50515835D01*
X27975162Y50907251D01*
X27996793Y51016000D01*
X28067001Y51368959D01*
X28067001Y53149499D01*
X27975162Y53611207D01*
X27962316Y53630433D01*
X27713625Y54002624D01*
X27144616Y54571633D01*
X27144616Y55448200D01*
X27082627Y55777644D01*
X26887926Y56080217D01*
X26590847Y56283203D01*
X26238200Y56354616D01*
X24561800Y56354616D01*
X24232356Y56292627D01*
X23929783Y56097926D01*
X23726797Y55800847D01*
X23655384Y55448200D01*
X23655384Y53771800D01*
X23717373Y53442356D01*
X23912074Y53139783D01*
X23980234Y53093211D01*
X23936605Y53049658D01*
X23673100Y52415069D01*
X23672781Y52049030D01*
X22360252Y50736500D01*
X21885995Y50736500D01*
X21790961Y50800000D01*
X21904249Y50875697D01*
X22270379Y51423648D01*
X22398946Y52070000D01*
X22270379Y52716352D01*
X21904249Y53264303D01*
X21547591Y53502615D01*
X21774500Y53685104D01*
X22044367Y54178181D01*
X22061904Y54260961D01*
X21939915Y54483000D01*
X20447000Y54483000D01*
X20447000Y54463000D01*
X20193000Y54463000D01*
X20193000Y54483000D01*
X18700085Y54483000D01*
X18578096Y54260961D01*
X18595633Y54178181D01*
X18865500Y53685104D01*
X19092409Y53502615D01*
X18735751Y53264303D01*
X18369621Y52716352D01*
X18241054Y52070000D01*
X18369621Y51423648D01*
X18735751Y50875697D01*
X18849039Y50800000D01*
X18735751Y50724303D01*
X18369621Y50176352D01*
X18241054Y49530000D01*
X18364160Y48911102D01*
X14673091Y52602171D01*
X14650379Y52716352D01*
X14284249Y53264303D01*
X14170961Y53340000D01*
X14284249Y53415697D01*
X14650379Y53963648D01*
X14778946Y54610000D01*
X14709519Y54959039D01*
X18578096Y54959039D01*
X18700085Y54737000D01*
X20193000Y54737000D01*
X20193000Y56045000D01*
X20447000Y56045000D01*
X20447000Y54737000D01*
X21939915Y54737000D01*
X22061904Y54959039D01*
X22044367Y55041819D01*
X21774500Y55534896D01*
X21336483Y55887166D01*
X20797000Y56045000D01*
X20447000Y56045000D01*
X20193000Y56045000D01*
X19843000Y56045000D01*
X19303517Y55887166D01*
X18865500Y55534896D01*
X18595633Y55041819D01*
X18578096Y54959039D01*
X14709519Y54959039D01*
X14650379Y55256352D01*
X14284249Y55804303D01*
X13736298Y56170433D01*
X13089946Y56299000D01*
X12310054Y56299000D01*
X11663702Y56170433D01*
X11115751Y55804303D01*
X10749621Y55256352D01*
X10621054Y54610000D01*
X10749621Y53963648D01*
X11115751Y53415697D01*
X11229039Y53340000D01*
X11115751Y53264303D01*
X10749621Y52716352D01*
X10621054Y52070000D01*
X10749621Y51423648D01*
X10996612Y51054000D01*
X10160005Y51054000D01*
X10160000Y51054001D01*
X9576791Y50937993D01*
X9082369Y50607631D01*
X5272369Y46797631D01*
X4942008Y46303210D01*
X4826000Y45720000D01*
X4826000Y24453129D01*
X4701983Y24373326D01*
X4498997Y24076247D01*
X4427584Y23723600D01*
X4427584Y21996400D01*
X4489573Y21666956D01*
X4684274Y21364383D01*
X4757397Y21314420D01*
X4541088Y20990691D01*
X4407679Y20320000D01*
X1397000Y20320000D01*
X1397000Y54351526D01*
X2068494Y54351526D01*
X2512253Y53277548D01*
X3333226Y52455140D01*
X4406428Y52009508D01*
X5568474Y52008494D01*
X6642452Y52452253D01*
X7464860Y53273226D01*
X7910492Y54346428D01*
X7911506Y55508474D01*
X7467747Y56582452D01*
X6646774Y57404860D01*
X5573572Y57850492D01*
X4411526Y57851506D01*
X3337548Y57407747D01*
X2515140Y56586774D01*
X2069508Y55513572D01*
X2068494Y54351526D01*
X1397000Y54351526D01*
X1397000Y58966000D01*
X97663000Y58966000D01*
X97663000Y56109904D01*
G36*
X85402369Y53617631D02*
X85072008Y53123210D01*
X84956000Y52540000D01*
X84956000Y41440000D01*
X85072008Y40856790D01*
X85347226Y40444897D01*
X85402369Y40362369D01*
X86926909Y38837829D01*
X86949621Y38723648D01*
X87315751Y38175697D01*
X87429039Y38100000D01*
X87315751Y38024303D01*
X86949621Y37476352D01*
X86821054Y36830000D01*
X86949621Y36183648D01*
X87315751Y35635697D01*
X87863702Y35269567D01*
X87973024Y35247822D01*
X81369392Y28644190D01*
X76584019Y28644190D01*
X76619000Y28820054D01*
X76619000Y29599946D01*
X76490433Y30246298D01*
X76124303Y30794249D01*
X75576352Y31160379D01*
X74930000Y31288946D01*
X74283648Y31160379D01*
X73735697Y30794249D01*
X73660000Y30680961D01*
X73584303Y30794249D01*
X73036352Y31160379D01*
X72390000Y31288946D01*
X71743648Y31160379D01*
X71195697Y30794249D01*
X71120000Y30680961D01*
X71044303Y30794249D01*
X70496352Y31160379D01*
X69850000Y31288946D01*
X69203648Y31160379D01*
X68655697Y30794249D01*
X68580000Y30680961D01*
X68504303Y30794249D01*
X67956352Y31160379D01*
X67310000Y31288946D01*
X66663648Y31160379D01*
X66115697Y30794249D01*
X66040000Y30680961D01*
X65964303Y30794249D01*
X65416352Y31160379D01*
X64770000Y31288946D01*
X64123648Y31160379D01*
X63575697Y30794249D01*
X63500000Y30680961D01*
X63424303Y30794249D01*
X62876352Y31160379D01*
X62230000Y31288946D01*
X61583648Y31160379D01*
X61035697Y30794249D01*
X60960000Y30680961D01*
X60884303Y30794249D01*
X60336352Y31160379D01*
X59690000Y31288946D01*
X59043648Y31160379D01*
X58495697Y30794249D01*
X58257385Y30437591D01*
X58074896Y30664500D01*
X57581819Y30934367D01*
X57499039Y30951904D01*
X57277000Y30829915D01*
X57277000Y29337000D01*
X57297000Y29337000D01*
X57297000Y29083000D01*
X57277000Y29083000D01*
X57277000Y27590085D01*
X57499039Y27468096D01*
X57581819Y27485633D01*
X58074896Y27755500D01*
X58257385Y27982409D01*
X58495697Y27625751D01*
X59043648Y27259621D01*
X59690000Y27131054D01*
X60336352Y27259621D01*
X60884303Y27625751D01*
X60960000Y27739039D01*
X61035697Y27625751D01*
X61091929Y27588178D01*
X57168932Y23665180D01*
X57150000Y23668946D01*
X56503648Y23540379D01*
X55955697Y23174249D01*
X55589567Y22626298D01*
X55461000Y21979946D01*
X55461000Y21200054D01*
X55561660Y20694000D01*
X49571262Y20694000D01*
X47597631Y22667631D01*
X47103210Y22997992D01*
X46520000Y23114000D01*
X45684560Y23114000D01*
X45644303Y23174249D01*
X45096352Y23540379D01*
X44450000Y23668946D01*
X43803648Y23540379D01*
X43255697Y23174249D01*
X43180000Y23060961D01*
X43104303Y23174249D01*
X42556352Y23540379D01*
X41910000Y23668946D01*
X41263648Y23540379D01*
X40715697Y23174249D01*
X40640000Y23060961D01*
X40564303Y23174249D01*
X40016352Y23540379D01*
X39370000Y23668946D01*
X38723648Y23540379D01*
X38175697Y23174249D01*
X37937385Y22817591D01*
X37754896Y23044500D01*
X37261819Y23314367D01*
X37179039Y23331904D01*
X36957000Y23209915D01*
X36957000Y21717000D01*
X36977000Y21717000D01*
X36977000Y21463000D01*
X36957000Y21463000D01*
X36957000Y21443000D01*
X36703000Y21443000D01*
X36703000Y21463000D01*
X36683000Y21463000D01*
X36683000Y21717000D01*
X36703000Y21717000D01*
X36703000Y23209915D01*
X36480961Y23331904D01*
X36398181Y23314367D01*
X35905104Y23044500D01*
X35722615Y22817591D01*
X35484303Y23174249D01*
X34936352Y23540379D01*
X34290000Y23668946D01*
X33643648Y23540379D01*
X33095697Y23174249D01*
X33020000Y23060961D01*
X32956500Y23155995D01*
X32956500Y23375000D01*
X32864661Y23836708D01*
X32603124Y24228125D01*
X31848124Y24983124D01*
X31623354Y25133311D01*
X31456708Y25244661D01*
X30995000Y25336500D01*
X15010830Y25336500D01*
X14871271Y25476303D01*
X14287458Y25718723D01*
X13854199Y25719101D01*
X13854199Y29083000D01*
X25235000Y29083000D01*
X25235000Y28733000D01*
X25392834Y28193517D01*
X25745104Y27755500D01*
X26238181Y27485633D01*
X26320961Y27468096D01*
X26543000Y27590085D01*
X26543000Y29083000D01*
X25235000Y29083000D01*
X13854199Y29083000D01*
X13854199Y29687000D01*
X25235000Y29687000D01*
X25235000Y29337000D01*
X26543000Y29337000D01*
X26543000Y30829915D01*
X26797000Y30829915D01*
X26797000Y29337000D01*
X26817000Y29337000D01*
X26817000Y29083000D01*
X26797000Y29083000D01*
X26797000Y27590085D01*
X27019039Y27468096D01*
X27101819Y27485633D01*
X27594896Y27755500D01*
X27777385Y27982409D01*
X28015697Y27625751D01*
X28563648Y27259621D01*
X29210000Y27131054D01*
X29856352Y27259621D01*
X30404303Y27625751D01*
X30480000Y27739039D01*
X30555697Y27625751D01*
X31103648Y27259621D01*
X31750000Y27131054D01*
X32396352Y27259621D01*
X32944303Y27625751D01*
X33020000Y27739039D01*
X33095697Y27625751D01*
X33643648Y27259621D01*
X34290000Y27131054D01*
X34936352Y27259621D01*
X35484303Y27625751D01*
X35560000Y27739039D01*
X35635697Y27625751D01*
X36183648Y27259621D01*
X36830000Y27131054D01*
X37476352Y27259621D01*
X38024303Y27625751D01*
X38100000Y27739039D01*
X38175697Y27625751D01*
X38723648Y27259621D01*
X39370000Y27131054D01*
X40016352Y27259621D01*
X40564303Y27625751D01*
X40640000Y27739039D01*
X40715697Y27625751D01*
X41263648Y27259621D01*
X41910000Y27131054D01*
X42556352Y27259621D01*
X43104303Y27625751D01*
X43180000Y27739039D01*
X43255697Y27625751D01*
X43803648Y27259621D01*
X44450000Y27131054D01*
X45096352Y27259621D01*
X45644303Y27625751D01*
X45933014Y28057837D01*
X48557443Y28057837D01*
X48656042Y27791035D01*
X49265582Y27564599D01*
X49915377Y27588659D01*
X50403958Y27791035D01*
X50502557Y28057837D01*
X51097443Y28057837D01*
X51196042Y27791035D01*
X51805582Y27564599D01*
X52455377Y27588659D01*
X52943958Y27791035D01*
X53042557Y28057837D01*
X52070000Y29030395D01*
X51097443Y28057837D01*
X50502557Y28057837D01*
X49530000Y29030395D01*
X48557443Y28057837D01*
X45933014Y28057837D01*
X46010433Y28173702D01*
X46139000Y28820054D01*
X46139000Y29474418D01*
X47884599Y29474418D01*
X47908659Y28824623D01*
X48111035Y28336042D01*
X48377837Y28237443D01*
X49350395Y29210000D01*
X49709605Y29210000D01*
X50682163Y28237443D01*
X50800000Y28280991D01*
X50917837Y28237443D01*
X51890395Y29210000D01*
X52249605Y29210000D01*
X53222163Y28237443D01*
X53488965Y28336042D01*
X53715401Y28945582D01*
X53710313Y29083000D01*
X55715000Y29083000D01*
X55715000Y28733000D01*
X55872834Y28193517D01*
X56225104Y27755500D01*
X56718181Y27485633D01*
X56800961Y27468096D01*
X57023000Y27590085D01*
X57023000Y29083000D01*
X55715000Y29083000D01*
X53710313Y29083000D01*
X53691341Y29595377D01*
X53653390Y29687000D01*
X55715000Y29687000D01*
X55715000Y29337000D01*
X57023000Y29337000D01*
X57023000Y30829915D01*
X56800961Y30951904D01*
X56718181Y30934367D01*
X56225104Y30664500D01*
X55872834Y30226483D01*
X55715000Y29687000D01*
X53653390Y29687000D01*
X53488965Y30083958D01*
X53222163Y30182557D01*
X52249605Y29210000D01*
X51890395Y29210000D01*
X50917837Y30182557D01*
X50800000Y30139009D01*
X50682163Y30182557D01*
X49709605Y29210000D01*
X49350395Y29210000D01*
X48377837Y30182557D01*
X48111035Y30083958D01*
X47884599Y29474418D01*
X46139000Y29474418D01*
X46139000Y29599946D01*
X46010433Y30246298D01*
X45933015Y30362163D01*
X48557443Y30362163D01*
X49530000Y29389605D01*
X50502557Y30362163D01*
X51097443Y30362163D01*
X52070000Y29389605D01*
X53042557Y30362163D01*
X52943958Y30628965D01*
X52334418Y30855401D01*
X51684623Y30831341D01*
X51196042Y30628965D01*
X51097443Y30362163D01*
X50502557Y30362163D01*
X50403958Y30628965D01*
X49794418Y30855401D01*
X49144623Y30831341D01*
X48656042Y30628965D01*
X48557443Y30362163D01*
X45933015Y30362163D01*
X45644303Y30794249D01*
X45096352Y31160379D01*
X44450000Y31288946D01*
X43803648Y31160379D01*
X43255697Y30794249D01*
X43180000Y30680961D01*
X43104303Y30794249D01*
X42556352Y31160379D01*
X41910000Y31288946D01*
X41263648Y31160379D01*
X40715697Y30794249D01*
X40640000Y30680961D01*
X40564303Y30794249D01*
X40016352Y31160379D01*
X39370000Y31288946D01*
X38723648Y31160379D01*
X38175697Y30794249D01*
X38100000Y30680961D01*
X38024303Y30794249D01*
X37476352Y31160379D01*
X36830000Y31288946D01*
X36183648Y31160379D01*
X35635697Y30794249D01*
X35560000Y30680961D01*
X35484303Y30794249D01*
X34936352Y31160379D01*
X34290000Y31288946D01*
X33643648Y31160379D01*
X33095697Y30794249D01*
X33020000Y30680961D01*
X32944303Y30794249D01*
X32396352Y31160379D01*
X31750000Y31288946D01*
X31103648Y31160379D01*
X30555697Y30794249D01*
X30480000Y30680961D01*
X30404303Y30794249D01*
X29856352Y31160379D01*
X29210000Y31288946D01*
X28563648Y31160379D01*
X28015697Y30794249D01*
X27777385Y30437591D01*
X27594896Y30664500D01*
X27101819Y30934367D01*
X27019039Y30951904D01*
X26797000Y30829915D01*
X26543000Y30829915D01*
X26320961Y30951904D01*
X26238181Y30934367D01*
X25745104Y30664500D01*
X25392834Y30226483D01*
X25235000Y29687000D01*
X13854199Y29687000D01*
X13854199Y32212870D01*
X13892126Y32121080D01*
X14338729Y31673697D01*
X14922542Y31431277D01*
X15122650Y31431102D01*
X15656876Y30896876D01*
X16048292Y30635339D01*
X16510000Y30543500D01*
X18009170Y30543500D01*
X18148729Y30403697D01*
X18732542Y30161277D01*
X19364685Y30160725D01*
X19948920Y30402126D01*
X20396303Y30848729D01*
X20638723Y31432542D01*
X20639275Y32064685D01*
X20397874Y32648920D01*
X19951271Y33096303D01*
X19367458Y33338723D01*
X18735315Y33339275D01*
X18151080Y33097874D01*
X18009459Y32956500D01*
X17009748Y32956500D01*
X16829103Y33137145D01*
X16829275Y33334685D01*
X16587874Y33918920D01*
X16141271Y34366303D01*
X15557458Y34608723D01*
X14925315Y34609275D01*
X14341080Y34367874D01*
X14024522Y34051868D01*
X14107993Y34176791D01*
X14224001Y34760000D01*
X14224000Y34760005D01*
X14224000Y35595440D01*
X14284249Y35635697D01*
X14650379Y36183648D01*
X14673091Y36297829D01*
X18364160Y39988898D01*
X18241054Y39370000D01*
X18244820Y39351068D01*
X17681876Y38788124D01*
X17420339Y38396708D01*
X17328500Y37935000D01*
X17328500Y36253550D01*
X17420339Y35791842D01*
X17580040Y35552834D01*
X17681876Y35400426D01*
X18527736Y34554565D01*
X18723958Y34423454D01*
X18919152Y34293029D01*
X19380860Y34201190D01*
X22241432Y34201190D01*
X22241183Y33916004D01*
X22528082Y33221654D01*
X23058859Y32689949D01*
X23752708Y32401838D01*
X24503996Y32401183D01*
X25198346Y32688082D01*
X25648887Y33137837D01*
X33317443Y33137837D01*
X33416042Y32871035D01*
X34025582Y32644599D01*
X34675377Y32668659D01*
X35163958Y32871035D01*
X35262557Y33137837D01*
X35857443Y33137837D01*
X35956042Y32871035D01*
X36565582Y32644599D01*
X37215377Y32668659D01*
X37703958Y32871035D01*
X37802557Y33137837D01*
X36830000Y34110395D01*
X35857443Y33137837D01*
X35262557Y33137837D01*
X34290000Y34110395D01*
X33317443Y33137837D01*
X25648887Y33137837D01*
X25730051Y33218859D01*
X26018162Y33912708D01*
X26018721Y34554418D01*
X32644599Y34554418D01*
X32668659Y33904623D01*
X32871035Y33416042D01*
X33137837Y33317443D01*
X34110395Y34290000D01*
X34469605Y34290000D01*
X35442163Y33317443D01*
X35560000Y33360991D01*
X35677837Y33317443D01*
X36650395Y34290000D01*
X37009605Y34290000D01*
X37982163Y33317443D01*
X38248965Y33416042D01*
X38475401Y34025582D01*
X38451341Y34675377D01*
X38248965Y35163958D01*
X37982163Y35262557D01*
X37009605Y34290000D01*
X36650395Y34290000D01*
X35677837Y35262557D01*
X35560000Y35219009D01*
X35442163Y35262557D01*
X34469605Y34290000D01*
X34110395Y34290000D01*
X33137837Y35262557D01*
X32871035Y35163958D01*
X32644599Y34554418D01*
X26018721Y34554418D01*
X26018817Y34663996D01*
X25731918Y35358346D01*
X25648248Y35442163D01*
X33317443Y35442163D01*
X34290000Y34469605D01*
X35262557Y35442163D01*
X35857443Y35442163D01*
X36830000Y34469605D01*
X37802557Y35442163D01*
X37703958Y35708965D01*
X37094418Y35935401D01*
X36444623Y35911341D01*
X35956042Y35708965D01*
X35857443Y35442163D01*
X35262557Y35442163D01*
X35163958Y35708965D01*
X34554418Y35935401D01*
X33904623Y35911341D01*
X33416042Y35708965D01*
X33317443Y35442163D01*
X25648248Y35442163D01*
X25327783Y35763188D01*
X30619688Y35763188D01*
X31081396Y35855027D01*
X31472812Y36116564D01*
X32999065Y37642817D01*
X33362054Y37642501D01*
X33997102Y37904897D01*
X34483395Y38390342D01*
X34746900Y39024931D01*
X34747499Y39712054D01*
X34485103Y40347102D01*
X34192631Y40640085D01*
X34483395Y40930342D01*
X34746900Y41564931D01*
X34747499Y42252054D01*
X34485103Y42887102D01*
X33999658Y43373395D01*
X33484922Y43587132D01*
X35333625Y45435835D01*
X35387732Y45516812D01*
X35577142Y45800282D01*
X35755006Y45622107D01*
X35483697Y45351271D01*
X35241277Y44767458D01*
X35240725Y44135315D01*
X35482126Y43551080D01*
X35623500Y43409459D01*
X35623500Y43146105D01*
X35366605Y42889658D01*
X35103100Y42255069D01*
X35102501Y41567946D01*
X35364897Y40932898D01*
X35657369Y40639915D01*
X35366605Y40349658D01*
X35103100Y39715069D01*
X35102501Y39027946D01*
X35364897Y38392898D01*
X35850342Y37906605D01*
X36484931Y37643100D01*
X37172054Y37642501D01*
X37807102Y37904897D01*
X38066157Y38163500D01*
X38224548Y38163500D01*
X38364107Y38023697D01*
X38947920Y37781277D01*
X39580063Y37780725D01*
X40164298Y38022126D01*
X40611681Y38468729D01*
X40613990Y38474291D01*
X40614446Y38473188D01*
X41061049Y38025805D01*
X41644862Y37783385D01*
X42277005Y37782833D01*
X42861240Y38024234D01*
X43000749Y38163500D01*
X43213895Y38163500D01*
X43470342Y37906605D01*
X44104931Y37643100D01*
X44792054Y37642501D01*
X45427102Y37904897D01*
X45783500Y38260674D01*
X45783500Y35754005D01*
X45389949Y35361141D01*
X45101838Y34667292D01*
X45101183Y33916004D01*
X45388082Y33221654D01*
X45918859Y32689949D01*
X46612708Y32401838D01*
X47363996Y32401183D01*
X48058346Y32688082D01*
X48590051Y33218859D01*
X48878162Y33912708D01*
X48878817Y34663996D01*
X48591918Y35358346D01*
X48196500Y35754455D01*
X48196500Y38032767D01*
X48458859Y37769949D01*
X49152708Y37481838D01*
X49903996Y37481183D01*
X50598346Y37768082D01*
X50799886Y37969270D01*
X50998859Y37769949D01*
X51692708Y37481838D01*
X52443996Y37481183D01*
X53138346Y37768082D01*
X53403500Y38032773D01*
X53403500Y35754005D01*
X53009949Y35361141D01*
X52721838Y34667292D01*
X52721183Y33916004D01*
X53008082Y33221654D01*
X53538859Y32689949D01*
X54232708Y32401838D01*
X54983996Y32401183D01*
X55678346Y32688082D01*
X56128887Y33137837D01*
X63797443Y33137837D01*
X63896042Y32871035D01*
X64505582Y32644599D01*
X65155377Y32668659D01*
X65643958Y32871035D01*
X65742557Y33137837D01*
X66337443Y33137837D01*
X66436042Y32871035D01*
X67045582Y32644599D01*
X67695377Y32668659D01*
X68183958Y32871035D01*
X68282557Y33137837D01*
X67310000Y34110395D01*
X66337443Y33137837D01*
X65742557Y33137837D01*
X64770000Y34110395D01*
X63797443Y33137837D01*
X56128887Y33137837D01*
X56210051Y33218859D01*
X56498162Y33912708D01*
X56498721Y34554418D01*
X63124599Y34554418D01*
X63148659Y33904623D01*
X63351035Y33416042D01*
X63617837Y33317443D01*
X64590395Y34290000D01*
X63617837Y35262557D01*
X63351035Y35163958D01*
X63124599Y34554418D01*
X56498721Y34554418D01*
X56498817Y34663996D01*
X56211918Y35358346D01*
X55816500Y35754455D01*
X55816500Y38261065D01*
X56170342Y37906605D01*
X56804931Y37643100D01*
X57492054Y37642501D01*
X58127102Y37904897D01*
X58386157Y38163500D01*
X59919170Y38163500D01*
X60058729Y38023697D01*
X60642542Y37781277D01*
X61274685Y37780725D01*
X61858920Y38022126D01*
X62169910Y38332574D01*
X62194838Y38207251D01*
X62436219Y37846000D01*
X62456375Y37815835D01*
X64367826Y35904384D01*
X63896042Y35708965D01*
X63797443Y35442163D01*
X64770000Y34469605D01*
X64784142Y34483748D01*
X64963748Y34304142D01*
X64949605Y34290000D01*
X65922163Y33317443D01*
X66040000Y33360991D01*
X66157837Y33317443D01*
X67130395Y34290000D01*
X67116252Y34304142D01*
X67295858Y34483748D01*
X67310000Y34469605D01*
X67324142Y34483748D01*
X67503748Y34304142D01*
X67489605Y34290000D01*
X68462163Y33317443D01*
X68728965Y33416042D01*
X68895662Y33864773D01*
X68906221Y33839219D01*
X69352824Y33391836D01*
X69936637Y33149416D01*
X70568780Y33148864D01*
X71153015Y33390265D01*
X71600398Y33836868D01*
X71633258Y33916004D01*
X75581183Y33916004D01*
X75868082Y33221654D01*
X76398859Y32689949D01*
X77092708Y32401838D01*
X77843996Y32401183D01*
X78538346Y32688082D01*
X79070051Y33218859D01*
X79358162Y33912708D01*
X79358817Y34663996D01*
X79071918Y35358346D01*
X78541141Y35890051D01*
X77847292Y36178162D01*
X77096004Y36178817D01*
X76401654Y35891918D01*
X75869949Y35361141D01*
X75581838Y34667292D01*
X75581183Y33916004D01*
X71633258Y33916004D01*
X71842818Y34420681D01*
X71843370Y35052824D01*
X71601969Y35637059D01*
X71155366Y36084442D01*
X70571553Y36326862D01*
X70371445Y36327037D01*
X70217521Y36480961D01*
X79538096Y36480961D01*
X79555633Y36398181D01*
X79825500Y35905104D01*
X80263517Y35552834D01*
X80803000Y35395000D01*
X81153000Y35395000D01*
X81153000Y36703000D01*
X81407000Y36703000D01*
X81407000Y35395000D01*
X81757000Y35395000D01*
X82296483Y35552834D01*
X82734500Y35905104D01*
X83004367Y36398181D01*
X83021904Y36480961D01*
X82899915Y36703000D01*
X81407000Y36703000D01*
X81153000Y36703000D01*
X79660085Y36703000D01*
X79538096Y36480961D01*
X70217521Y36480961D01*
X69585359Y37113123D01*
X69385184Y37246876D01*
X69193943Y37374660D01*
X68732235Y37466499D01*
X67536684Y37466499D01*
X67602829Y37625793D01*
X67603073Y37905471D01*
X68234931Y37643100D01*
X68922054Y37642501D01*
X69557102Y37904897D01*
X70043395Y38390342D01*
X70306900Y39024931D01*
X70307499Y39712054D01*
X70045103Y40347102D01*
X69752631Y40640085D01*
X69816157Y40703500D01*
X74038458Y40703500D01*
X74500166Y40795339D01*
X74728653Y40948010D01*
X74734897Y40932898D01*
X75027369Y40639915D01*
X74736605Y40349658D01*
X74473100Y39715069D01*
X74472501Y39027946D01*
X74734897Y38392898D01*
X75220342Y37906605D01*
X75854931Y37643100D01*
X76220971Y37642781D01*
X76616876Y37246876D01*
X77008292Y36985339D01*
X77470000Y36893500D01*
X80188550Y36893500D01*
X80507788Y36957000D01*
X81153000Y36957000D01*
X81153000Y36977000D01*
X81407000Y36977000D01*
X81407000Y36957000D01*
X82230763Y36957000D01*
X82550000Y36893500D01*
X82869237Y36957000D01*
X82899915Y36957000D01*
X82903679Y36963851D01*
X83011707Y36985339D01*
X83403124Y37246876D01*
X83918124Y37761876D01*
X84039315Y37943251D01*
X84179661Y38153292D01*
X84271500Y38615000D01*
X84271500Y50635000D01*
X84179661Y51096708D01*
X84072624Y51256900D01*
X83918124Y51488125D01*
X83355180Y52051068D01*
X83358946Y52070000D01*
X83230379Y52716352D01*
X82864249Y53264303D01*
X82750961Y53340000D01*
X82864249Y53415697D01*
X83230379Y53963648D01*
X83358946Y54610000D01*
X83316019Y54825810D01*
X86610548Y54825810D01*
X85402369Y53617631D01*
X85402369Y53617631D01*
G37*
X85402369Y53617631D02*
X85072008Y53123210D01*
X84956000Y52540000D01*
X84956000Y41440000D01*
X85072008Y40856790D01*
X85347226Y40444897D01*
X85402369Y40362369D01*
X86926909Y38837829D01*
X86949621Y38723648D01*
X87315751Y38175697D01*
X87429039Y38100000D01*
X87315751Y38024303D01*
X86949621Y37476352D01*
X86821054Y36830000D01*
X86949621Y36183648D01*
X87315751Y35635697D01*
X87863702Y35269567D01*
X87973024Y35247822D01*
X81369392Y28644190D01*
X76584019Y28644190D01*
X76619000Y28820054D01*
X76619000Y29599946D01*
X76490433Y30246298D01*
X76124303Y30794249D01*
X75576352Y31160379D01*
X74930000Y31288946D01*
X74283648Y31160379D01*
X73735697Y30794249D01*
X73660000Y30680961D01*
X73584303Y30794249D01*
X73036352Y31160379D01*
X72390000Y31288946D01*
X71743648Y31160379D01*
X71195697Y30794249D01*
X71120000Y30680961D01*
X71044303Y30794249D01*
X70496352Y31160379D01*
X69850000Y31288946D01*
X69203648Y31160379D01*
X68655697Y30794249D01*
X68580000Y30680961D01*
X68504303Y30794249D01*
X67956352Y31160379D01*
X67310000Y31288946D01*
X66663648Y31160379D01*
X66115697Y30794249D01*
X66040000Y30680961D01*
X65964303Y30794249D01*
X65416352Y31160379D01*
X64770000Y31288946D01*
X64123648Y31160379D01*
X63575697Y30794249D01*
X63500000Y30680961D01*
X63424303Y30794249D01*
X62876352Y31160379D01*
X62230000Y31288946D01*
X61583648Y31160379D01*
X61035697Y30794249D01*
X60960000Y30680961D01*
X60884303Y30794249D01*
X60336352Y31160379D01*
X59690000Y31288946D01*
X59043648Y31160379D01*
X58495697Y30794249D01*
X58257385Y30437591D01*
X58074896Y30664500D01*
X57581819Y30934367D01*
X57499039Y30951904D01*
X57277000Y30829915D01*
X57277000Y29337000D01*
X57297000Y29337000D01*
X57297000Y29083000D01*
X57277000Y29083000D01*
X57277000Y27590085D01*
X57499039Y27468096D01*
X57581819Y27485633D01*
X58074896Y27755500D01*
X58257385Y27982409D01*
X58495697Y27625751D01*
X59043648Y27259621D01*
X59690000Y27131054D01*
X60336352Y27259621D01*
X60884303Y27625751D01*
X60960000Y27739039D01*
X61035697Y27625751D01*
X61091929Y27588178D01*
X57168932Y23665180D01*
X57150000Y23668946D01*
X56503648Y23540379D01*
X55955697Y23174249D01*
X55589567Y22626298D01*
X55461000Y21979946D01*
X55461000Y21200054D01*
X55561660Y20694000D01*
X49571262Y20694000D01*
X47597631Y22667631D01*
X47103210Y22997992D01*
X46520000Y23114000D01*
X45684560Y23114000D01*
X45644303Y23174249D01*
X45096352Y23540379D01*
X44450000Y23668946D01*
X43803648Y23540379D01*
X43255697Y23174249D01*
X43180000Y23060961D01*
X43104303Y23174249D01*
X42556352Y23540379D01*
X41910000Y23668946D01*
X41263648Y23540379D01*
X40715697Y23174249D01*
X40640000Y23060961D01*
X40564303Y23174249D01*
X40016352Y23540379D01*
X39370000Y23668946D01*
X38723648Y23540379D01*
X38175697Y23174249D01*
X37937385Y22817591D01*
X37754896Y23044500D01*
X37261819Y23314367D01*
X37179039Y23331904D01*
X36957000Y23209915D01*
X36957000Y21717000D01*
X36977000Y21717000D01*
X36977000Y21463000D01*
X36957000Y21463000D01*
X36957000Y21443000D01*
X36703000Y21443000D01*
X36703000Y21463000D01*
X36683000Y21463000D01*
X36683000Y21717000D01*
X36703000Y21717000D01*
X36703000Y23209915D01*
X36480961Y23331904D01*
X36398181Y23314367D01*
X35905104Y23044500D01*
X35722615Y22817591D01*
X35484303Y23174249D01*
X34936352Y23540379D01*
X34290000Y23668946D01*
X33643648Y23540379D01*
X33095697Y23174249D01*
X33020000Y23060961D01*
X32956500Y23155995D01*
X32956500Y23375000D01*
X32864661Y23836708D01*
X32603124Y24228125D01*
X31848124Y24983124D01*
X31623354Y25133311D01*
X31456708Y25244661D01*
X30995000Y25336500D01*
X15010830Y25336500D01*
X14871271Y25476303D01*
X14287458Y25718723D01*
X13854199Y25719101D01*
X13854199Y29083000D01*
X25235000Y29083000D01*
X25235000Y28733000D01*
X25392834Y28193517D01*
X25745104Y27755500D01*
X26238181Y27485633D01*
X26320961Y27468096D01*
X26543000Y27590085D01*
X26543000Y29083000D01*
X25235000Y29083000D01*
X13854199Y29083000D01*
X13854199Y29687000D01*
X25235000Y29687000D01*
X25235000Y29337000D01*
X26543000Y29337000D01*
X26543000Y30829915D01*
X26797000Y30829915D01*
X26797000Y29337000D01*
X26817000Y29337000D01*
X26817000Y29083000D01*
X26797000Y29083000D01*
X26797000Y27590085D01*
X27019039Y27468096D01*
X27101819Y27485633D01*
X27594896Y27755500D01*
X27777385Y27982409D01*
X28015697Y27625751D01*
X28563648Y27259621D01*
X29210000Y27131054D01*
X29856352Y27259621D01*
X30404303Y27625751D01*
X30480000Y27739039D01*
X30555697Y27625751D01*
X31103648Y27259621D01*
X31750000Y27131054D01*
X32396352Y27259621D01*
X32944303Y27625751D01*
X33020000Y27739039D01*
X33095697Y27625751D01*
X33643648Y27259621D01*
X34290000Y27131054D01*
X34936352Y27259621D01*
X35484303Y27625751D01*
X35560000Y27739039D01*
X35635697Y27625751D01*
X36183648Y27259621D01*
X36830000Y27131054D01*
X37476352Y27259621D01*
X38024303Y27625751D01*
X38100000Y27739039D01*
X38175697Y27625751D01*
X38723648Y27259621D01*
X39370000Y27131054D01*
X40016352Y27259621D01*
X40564303Y27625751D01*
X40640000Y27739039D01*
X40715697Y27625751D01*
X41263648Y27259621D01*
X41910000Y27131054D01*
X42556352Y27259621D01*
X43104303Y27625751D01*
X43180000Y27739039D01*
X43255697Y27625751D01*
X43803648Y27259621D01*
X44450000Y27131054D01*
X45096352Y27259621D01*
X45644303Y27625751D01*
X45933014Y28057837D01*
X48557443Y28057837D01*
X48656042Y27791035D01*
X49265582Y27564599D01*
X49915377Y27588659D01*
X50403958Y27791035D01*
X50502557Y28057837D01*
X51097443Y28057837D01*
X51196042Y27791035D01*
X51805582Y27564599D01*
X52455377Y27588659D01*
X52943958Y27791035D01*
X53042557Y28057837D01*
X52070000Y29030395D01*
X51097443Y28057837D01*
X50502557Y28057837D01*
X49530000Y29030395D01*
X48557443Y28057837D01*
X45933014Y28057837D01*
X46010433Y28173702D01*
X46139000Y28820054D01*
X46139000Y29474418D01*
X47884599Y29474418D01*
X47908659Y28824623D01*
X48111035Y28336042D01*
X48377837Y28237443D01*
X49350395Y29210000D01*
X49709605Y29210000D01*
X50682163Y28237443D01*
X50800000Y28280991D01*
X50917837Y28237443D01*
X51890395Y29210000D01*
X52249605Y29210000D01*
X53222163Y28237443D01*
X53488965Y28336042D01*
X53715401Y28945582D01*
X53710313Y29083000D01*
X55715000Y29083000D01*
X55715000Y28733000D01*
X55872834Y28193517D01*
X56225104Y27755500D01*
X56718181Y27485633D01*
X56800961Y27468096D01*
X57023000Y27590085D01*
X57023000Y29083000D01*
X55715000Y29083000D01*
X53710313Y29083000D01*
X53691341Y29595377D01*
X53653390Y29687000D01*
X55715000Y29687000D01*
X55715000Y29337000D01*
X57023000Y29337000D01*
X57023000Y30829915D01*
X56800961Y30951904D01*
X56718181Y30934367D01*
X56225104Y30664500D01*
X55872834Y30226483D01*
X55715000Y29687000D01*
X53653390Y29687000D01*
X53488965Y30083958D01*
X53222163Y30182557D01*
X52249605Y29210000D01*
X51890395Y29210000D01*
X50917837Y30182557D01*
X50800000Y30139009D01*
X50682163Y30182557D01*
X49709605Y29210000D01*
X49350395Y29210000D01*
X48377837Y30182557D01*
X48111035Y30083958D01*
X47884599Y29474418D01*
X46139000Y29474418D01*
X46139000Y29599946D01*
X46010433Y30246298D01*
X45933015Y30362163D01*
X48557443Y30362163D01*
X49530000Y29389605D01*
X50502557Y30362163D01*
X51097443Y30362163D01*
X52070000Y29389605D01*
X53042557Y30362163D01*
X52943958Y30628965D01*
X52334418Y30855401D01*
X51684623Y30831341D01*
X51196042Y30628965D01*
X51097443Y30362163D01*
X50502557Y30362163D01*
X50403958Y30628965D01*
X49794418Y30855401D01*
X49144623Y30831341D01*
X48656042Y30628965D01*
X48557443Y30362163D01*
X45933015Y30362163D01*
X45644303Y30794249D01*
X45096352Y31160379D01*
X44450000Y31288946D01*
X43803648Y31160379D01*
X43255697Y30794249D01*
X43180000Y30680961D01*
X43104303Y30794249D01*
X42556352Y31160379D01*
X41910000Y31288946D01*
X41263648Y31160379D01*
X40715697Y30794249D01*
X40640000Y30680961D01*
X40564303Y30794249D01*
X40016352Y31160379D01*
X39370000Y31288946D01*
X38723648Y31160379D01*
X38175697Y30794249D01*
X38100000Y30680961D01*
X38024303Y30794249D01*
X37476352Y31160379D01*
X36830000Y31288946D01*
X36183648Y31160379D01*
X35635697Y30794249D01*
X35560000Y30680961D01*
X35484303Y30794249D01*
X34936352Y31160379D01*
X34290000Y31288946D01*
X33643648Y31160379D01*
X33095697Y30794249D01*
X33020000Y30680961D01*
X32944303Y30794249D01*
X32396352Y31160379D01*
X31750000Y31288946D01*
X31103648Y31160379D01*
X30555697Y30794249D01*
X30480000Y30680961D01*
X30404303Y30794249D01*
X29856352Y31160379D01*
X29210000Y31288946D01*
X28563648Y31160379D01*
X28015697Y30794249D01*
X27777385Y30437591D01*
X27594896Y30664500D01*
X27101819Y30934367D01*
X27019039Y30951904D01*
X26797000Y30829915D01*
X26543000Y30829915D01*
X26320961Y30951904D01*
X26238181Y30934367D01*
X25745104Y30664500D01*
X25392834Y30226483D01*
X25235000Y29687000D01*
X13854199Y29687000D01*
X13854199Y32212870D01*
X13892126Y32121080D01*
X14338729Y31673697D01*
X14922542Y31431277D01*
X15122650Y31431102D01*
X15656876Y30896876D01*
X16048292Y30635339D01*
X16510000Y30543500D01*
X18009170Y30543500D01*
X18148729Y30403697D01*
X18732542Y30161277D01*
X19364685Y30160725D01*
X19948920Y30402126D01*
X20396303Y30848729D01*
X20638723Y31432542D01*
X20639275Y32064685D01*
X20397874Y32648920D01*
X19951271Y33096303D01*
X19367458Y33338723D01*
X18735315Y33339275D01*
X18151080Y33097874D01*
X18009459Y32956500D01*
X17009748Y32956500D01*
X16829103Y33137145D01*
X16829275Y33334685D01*
X16587874Y33918920D01*
X16141271Y34366303D01*
X15557458Y34608723D01*
X14925315Y34609275D01*
X14341080Y34367874D01*
X14024522Y34051868D01*
X14107993Y34176791D01*
X14224001Y34760000D01*
X14224000Y34760005D01*
X14224000Y35595440D01*
X14284249Y35635697D01*
X14650379Y36183648D01*
X14673091Y36297829D01*
X18364160Y39988898D01*
X18241054Y39370000D01*
X18244820Y39351068D01*
X17681876Y38788124D01*
X17420339Y38396708D01*
X17328500Y37935000D01*
X17328500Y36253550D01*
X17420339Y35791842D01*
X17580040Y35552834D01*
X17681876Y35400426D01*
X18527736Y34554565D01*
X18723958Y34423454D01*
X18919152Y34293029D01*
X19380860Y34201190D01*
X22241432Y34201190D01*
X22241183Y33916004D01*
X22528082Y33221654D01*
X23058859Y32689949D01*
X23752708Y32401838D01*
X24503996Y32401183D01*
X25198346Y32688082D01*
X25648887Y33137837D01*
X33317443Y33137837D01*
X33416042Y32871035D01*
X34025582Y32644599D01*
X34675377Y32668659D01*
X35163958Y32871035D01*
X35262557Y33137837D01*
X35857443Y33137837D01*
X35956042Y32871035D01*
X36565582Y32644599D01*
X37215377Y32668659D01*
X37703958Y32871035D01*
X37802557Y33137837D01*
X36830000Y34110395D01*
X35857443Y33137837D01*
X35262557Y33137837D01*
X34290000Y34110395D01*
X33317443Y33137837D01*
X25648887Y33137837D01*
X25730051Y33218859D01*
X26018162Y33912708D01*
X26018721Y34554418D01*
X32644599Y34554418D01*
X32668659Y33904623D01*
X32871035Y33416042D01*
X33137837Y33317443D01*
X34110395Y34290000D01*
X34469605Y34290000D01*
X35442163Y33317443D01*
X35560000Y33360991D01*
X35677837Y33317443D01*
X36650395Y34290000D01*
X37009605Y34290000D01*
X37982163Y33317443D01*
X38248965Y33416042D01*
X38475401Y34025582D01*
X38451341Y34675377D01*
X38248965Y35163958D01*
X37982163Y35262557D01*
X37009605Y34290000D01*
X36650395Y34290000D01*
X35677837Y35262557D01*
X35560000Y35219009D01*
X35442163Y35262557D01*
X34469605Y34290000D01*
X34110395Y34290000D01*
X33137837Y35262557D01*
X32871035Y35163958D01*
X32644599Y34554418D01*
X26018721Y34554418D01*
X26018817Y34663996D01*
X25731918Y35358346D01*
X25648248Y35442163D01*
X33317443Y35442163D01*
X34290000Y34469605D01*
X35262557Y35442163D01*
X35857443Y35442163D01*
X36830000Y34469605D01*
X37802557Y35442163D01*
X37703958Y35708965D01*
X37094418Y35935401D01*
X36444623Y35911341D01*
X35956042Y35708965D01*
X35857443Y35442163D01*
X35262557Y35442163D01*
X35163958Y35708965D01*
X34554418Y35935401D01*
X33904623Y35911341D01*
X33416042Y35708965D01*
X33317443Y35442163D01*
X25648248Y35442163D01*
X25327783Y35763188D01*
X30619688Y35763188D01*
X31081396Y35855027D01*
X31472812Y36116564D01*
X32999065Y37642817D01*
X33362054Y37642501D01*
X33997102Y37904897D01*
X34483395Y38390342D01*
X34746900Y39024931D01*
X34747499Y39712054D01*
X34485103Y40347102D01*
X34192631Y40640085D01*
X34483395Y40930342D01*
X34746900Y41564931D01*
X34747499Y42252054D01*
X34485103Y42887102D01*
X33999658Y43373395D01*
X33484922Y43587132D01*
X35333625Y45435835D01*
X35387732Y45516812D01*
X35577142Y45800282D01*
X35755006Y45622107D01*
X35483697Y45351271D01*
X35241277Y44767458D01*
X35240725Y44135315D01*
X35482126Y43551080D01*
X35623500Y43409459D01*
X35623500Y43146105D01*
X35366605Y42889658D01*
X35103100Y42255069D01*
X35102501Y41567946D01*
X35364897Y40932898D01*
X35657369Y40639915D01*
X35366605Y40349658D01*
X35103100Y39715069D01*
X35102501Y39027946D01*
X35364897Y38392898D01*
X35850342Y37906605D01*
X36484931Y37643100D01*
X37172054Y37642501D01*
X37807102Y37904897D01*
X38066157Y38163500D01*
X38224548Y38163500D01*
X38364107Y38023697D01*
X38947920Y37781277D01*
X39580063Y37780725D01*
X40164298Y38022126D01*
X40611681Y38468729D01*
X40613990Y38474291D01*
X40614446Y38473188D01*
X41061049Y38025805D01*
X41644862Y37783385D01*
X42277005Y37782833D01*
X42861240Y38024234D01*
X43000749Y38163500D01*
X43213895Y38163500D01*
X43470342Y37906605D01*
X44104931Y37643100D01*
X44792054Y37642501D01*
X45427102Y37904897D01*
X45783500Y38260674D01*
X45783500Y35754005D01*
X45389949Y35361141D01*
X45101838Y34667292D01*
X45101183Y33916004D01*
X45388082Y33221654D01*
X45918859Y32689949D01*
X46612708Y32401838D01*
X47363996Y32401183D01*
X48058346Y32688082D01*
X48590051Y33218859D01*
X48878162Y33912708D01*
X48878817Y34663996D01*
X48591918Y35358346D01*
X48196500Y35754455D01*
X48196500Y38032767D01*
X48458859Y37769949D01*
X49152708Y37481838D01*
X49903996Y37481183D01*
X50598346Y37768082D01*
X50799886Y37969270D01*
X50998859Y37769949D01*
X51692708Y37481838D01*
X52443996Y37481183D01*
X53138346Y37768082D01*
X53403500Y38032773D01*
X53403500Y35754005D01*
X53009949Y35361141D01*
X52721838Y34667292D01*
X52721183Y33916004D01*
X53008082Y33221654D01*
X53538859Y32689949D01*
X54232708Y32401838D01*
X54983996Y32401183D01*
X55678346Y32688082D01*
X56128887Y33137837D01*
X63797443Y33137837D01*
X63896042Y32871035D01*
X64505582Y32644599D01*
X65155377Y32668659D01*
X65643958Y32871035D01*
X65742557Y33137837D01*
X66337443Y33137837D01*
X66436042Y32871035D01*
X67045582Y32644599D01*
X67695377Y32668659D01*
X68183958Y32871035D01*
X68282557Y33137837D01*
X67310000Y34110395D01*
X66337443Y33137837D01*
X65742557Y33137837D01*
X64770000Y34110395D01*
X63797443Y33137837D01*
X56128887Y33137837D01*
X56210051Y33218859D01*
X56498162Y33912708D01*
X56498721Y34554418D01*
X63124599Y34554418D01*
X63148659Y33904623D01*
X63351035Y33416042D01*
X63617837Y33317443D01*
X64590395Y34290000D01*
X63617837Y35262557D01*
X63351035Y35163958D01*
X63124599Y34554418D01*
X56498721Y34554418D01*
X56498817Y34663996D01*
X56211918Y35358346D01*
X55816500Y35754455D01*
X55816500Y38261065D01*
X56170342Y37906605D01*
X56804931Y37643100D01*
X57492054Y37642501D01*
X58127102Y37904897D01*
X58386157Y38163500D01*
X59919170Y38163500D01*
X60058729Y38023697D01*
X60642542Y37781277D01*
X61274685Y37780725D01*
X61858920Y38022126D01*
X62169910Y38332574D01*
X62194838Y38207251D01*
X62436219Y37846000D01*
X62456375Y37815835D01*
X64367826Y35904384D01*
X63896042Y35708965D01*
X63797443Y35442163D01*
X64770000Y34469605D01*
X64784142Y34483748D01*
X64963748Y34304142D01*
X64949605Y34290000D01*
X65922163Y33317443D01*
X66040000Y33360991D01*
X66157837Y33317443D01*
X67130395Y34290000D01*
X67116252Y34304142D01*
X67295858Y34483748D01*
X67310000Y34469605D01*
X67324142Y34483748D01*
X67503748Y34304142D01*
X67489605Y34290000D01*
X68462163Y33317443D01*
X68728965Y33416042D01*
X68895662Y33864773D01*
X68906221Y33839219D01*
X69352824Y33391836D01*
X69936637Y33149416D01*
X70568780Y33148864D01*
X71153015Y33390265D01*
X71600398Y33836868D01*
X71633258Y33916004D01*
X75581183Y33916004D01*
X75868082Y33221654D01*
X76398859Y32689949D01*
X77092708Y32401838D01*
X77843996Y32401183D01*
X78538346Y32688082D01*
X79070051Y33218859D01*
X79358162Y33912708D01*
X79358817Y34663996D01*
X79071918Y35358346D01*
X78541141Y35890051D01*
X77847292Y36178162D01*
X77096004Y36178817D01*
X76401654Y35891918D01*
X75869949Y35361141D01*
X75581838Y34667292D01*
X75581183Y33916004D01*
X71633258Y33916004D01*
X71842818Y34420681D01*
X71843370Y35052824D01*
X71601969Y35637059D01*
X71155366Y36084442D01*
X70571553Y36326862D01*
X70371445Y36327037D01*
X70217521Y36480961D01*
X79538096Y36480961D01*
X79555633Y36398181D01*
X79825500Y35905104D01*
X80263517Y35552834D01*
X80803000Y35395000D01*
X81153000Y35395000D01*
X81153000Y36703000D01*
X81407000Y36703000D01*
X81407000Y35395000D01*
X81757000Y35395000D01*
X82296483Y35552834D01*
X82734500Y35905104D01*
X83004367Y36398181D01*
X83021904Y36480961D01*
X82899915Y36703000D01*
X81407000Y36703000D01*
X81153000Y36703000D01*
X79660085Y36703000D01*
X79538096Y36480961D01*
X70217521Y36480961D01*
X69585359Y37113123D01*
X69385184Y37246876D01*
X69193943Y37374660D01*
X68732235Y37466499D01*
X67536684Y37466499D01*
X67602829Y37625793D01*
X67603073Y37905471D01*
X68234931Y37643100D01*
X68922054Y37642501D01*
X69557102Y37904897D01*
X70043395Y38390342D01*
X70306900Y39024931D01*
X70307499Y39712054D01*
X70045103Y40347102D01*
X69752631Y40640085D01*
X69816157Y40703500D01*
X74038458Y40703500D01*
X74500166Y40795339D01*
X74728653Y40948010D01*
X74734897Y40932898D01*
X75027369Y40639915D01*
X74736605Y40349658D01*
X74473100Y39715069D01*
X74472501Y39027946D01*
X74734897Y38392898D01*
X75220342Y37906605D01*
X75854931Y37643100D01*
X76220971Y37642781D01*
X76616876Y37246876D01*
X77008292Y36985339D01*
X77470000Y36893500D01*
X80188550Y36893500D01*
X80507788Y36957000D01*
X81153000Y36957000D01*
X81153000Y36977000D01*
X81407000Y36977000D01*
X81407000Y36957000D01*
X82230763Y36957000D01*
X82550000Y36893500D01*
X82869237Y36957000D01*
X82899915Y36957000D01*
X82903679Y36963851D01*
X83011707Y36985339D01*
X83403124Y37246876D01*
X83918124Y37761876D01*
X84039315Y37943251D01*
X84179661Y38153292D01*
X84271500Y38615000D01*
X84271500Y50635000D01*
X84179661Y51096708D01*
X84072624Y51256900D01*
X83918124Y51488125D01*
X83355180Y52051068D01*
X83358946Y52070000D01*
X83230379Y52716352D01*
X82864249Y53264303D01*
X82750961Y53340000D01*
X82864249Y53415697D01*
X83230379Y53963648D01*
X83358946Y54610000D01*
X83316019Y54825810D01*
X86610548Y54825810D01*
X85402369Y53617631D01*
G36*
X67437000Y21717000D02*
X67457000Y21717000D01*
X67457000Y21463000D01*
X67437000Y21463000D01*
X67437000Y21443000D01*
X67183000Y21443000D01*
X67183000Y21463000D01*
X67163000Y21463000D01*
X67163000Y21717000D01*
X67183000Y21717000D01*
X67183000Y21737000D01*
X67437000Y21737000D01*
X67437000Y21717000D01*
X67437000Y21717000D01*
G37*
X67437000Y21717000D02*
X67457000Y21717000D01*
X67457000Y21463000D01*
X67437000Y21463000D01*
X67437000Y21443000D01*
X67183000Y21443000D01*
X67183000Y21463000D01*
X67163000Y21463000D01*
X67163000Y21717000D01*
X67183000Y21717000D01*
X67183000Y21737000D01*
X67437000Y21737000D01*
X67437000Y21717000D01*
G36*
X15813306Y47151432D02*
X15611080Y47067874D01*
X15163697Y46621271D01*
X14921277Y46037458D01*
X14920725Y45405315D01*
X15162126Y44821080D01*
X15303500Y44679459D01*
X15303500Y43329748D01*
X14602204Y42628452D01*
X14284249Y43104303D01*
X13927591Y43342615D01*
X14154500Y43525104D01*
X14424367Y44018181D01*
X14441904Y44100961D01*
X14319915Y44323000D01*
X12827000Y44323000D01*
X12827000Y44303000D01*
X12573000Y44303000D01*
X12573000Y44323000D01*
X11080085Y44323000D01*
X10958096Y44100961D01*
X10975633Y44018181D01*
X11245500Y43525104D01*
X11472409Y43342615D01*
X11115751Y43104303D01*
X10749621Y42556352D01*
X10707159Y42342883D01*
X10414000Y42049724D01*
X10414000Y45088738D01*
X10791262Y45466000D01*
X11358780Y45466000D01*
X11245500Y45374896D01*
X10975633Y44881819D01*
X10958096Y44799039D01*
X11080085Y44577000D01*
X12573000Y44577000D01*
X12573000Y44597000D01*
X12827000Y44597000D01*
X12827000Y44577000D01*
X14319915Y44577000D01*
X14441904Y44799039D01*
X14424367Y44881819D01*
X14154500Y45374896D01*
X13927591Y45557385D01*
X14284249Y45795697D01*
X14650379Y46343648D01*
X14778946Y46990000D01*
X14650379Y47636352D01*
X14284249Y48184303D01*
X14170961Y48260000D01*
X14284249Y48335697D01*
X14422353Y48542385D01*
X15813306Y47151432D01*
X15813306Y47151432D01*
G37*
X15813306Y47151432D02*
X15611080Y47067874D01*
X15163697Y46621271D01*
X14921277Y46037458D01*
X14920725Y45405315D01*
X15162126Y44821080D01*
X15303500Y44679459D01*
X15303500Y43329748D01*
X14602204Y42628452D01*
X14284249Y43104303D01*
X13927591Y43342615D01*
X14154500Y43525104D01*
X14424367Y44018181D01*
X14441904Y44100961D01*
X14319915Y44323000D01*
X12827000Y44323000D01*
X12827000Y44303000D01*
X12573000Y44303000D01*
X12573000Y44323000D01*
X11080085Y44323000D01*
X10958096Y44100961D01*
X10975633Y44018181D01*
X11245500Y43525104D01*
X11472409Y43342615D01*
X11115751Y43104303D01*
X10749621Y42556352D01*
X10707159Y42342883D01*
X10414000Y42049724D01*
X10414000Y45088738D01*
X10791262Y45466000D01*
X11358780Y45466000D01*
X11245500Y45374896D01*
X10975633Y44881819D01*
X10958096Y44799039D01*
X11080085Y44577000D01*
X12573000Y44577000D01*
X12573000Y44597000D01*
X12827000Y44597000D01*
X12827000Y44577000D01*
X14319915Y44577000D01*
X14441904Y44799039D01*
X14424367Y44881819D01*
X14154500Y45374896D01*
X13927591Y45557385D01*
X14284249Y45795697D01*
X14650379Y46343648D01*
X14778946Y46990000D01*
X14650379Y47636352D01*
X14284249Y48184303D01*
X14170961Y48260000D01*
X14284249Y48335697D01*
X14422353Y48542385D01*
X15813306Y47151432D01*
G36*
X89027000Y47117000D02*
X89047000Y47117000D01*
X89047000Y46863000D01*
X89027000Y46863000D01*
X89027000Y46843000D01*
X88773000Y46843000D01*
X88773000Y46863000D01*
X88753000Y46863000D01*
X88753000Y47117000D01*
X88773000Y47117000D01*
X88773000Y47137000D01*
X89027000Y47137000D01*
X89027000Y47117000D01*
X89027000Y47117000D01*
G37*
X89027000Y47117000D02*
X89047000Y47117000D01*
X89047000Y46863000D01*
X89027000Y46863000D01*
X89027000Y46843000D01*
X88773000Y46843000D01*
X88773000Y46863000D01*
X88753000Y46863000D01*
X88753000Y47117000D01*
X88773000Y47117000D01*
X88773000Y47137000D01*
X89027000Y47137000D01*
X89027000Y47117000D01*
M02*
