G04 #@! TF.FileFunction,Copper,L1,Top,Signal*
%FSLAX46Y46*%
G04 Gerber Fmt 4.6, Leading zero omitted, Abs format (unit mm)*
G04 Created by KiCad (PCBNEW (2015-12-07 BZR 6352)-product) date Sun 07 Feb 2016 06:25:34 PM EST*
%MOMM*%
G01*
G04 APERTURE LIST*
%ADD10C,0.100000*%
%ADD11R,1.676400X1.676400*%
%ADD12C,1.676400*%
%ADD13R,3.500120X3.500120*%
%ADD14O,2.300000X1.600000*%
%ADD15R,1.400000X1.400000*%
%ADD16C,1.400000*%
%ADD17R,1.900000X2.000000*%
%ADD18C,1.900000*%
%ADD19O,1.600000X2.300000*%
%ADD20C,1.998980*%
%ADD21O,1.600000X1.600000*%
%ADD22R,2.032000X2.032000*%
%ADD23O,2.032000X2.032000*%
%ADD24C,4.064000*%
%ADD25C,1.270000*%
%ADD26C,0.508000*%
%ADD27C,0.431800*%
%ADD28C,0.254000*%
G04 APERTURE END LIST*
D10*
D11*
X49530000Y81280000D03*
D12*
X49530000Y78740000D03*
X49530000Y73660000D03*
X49530000Y68580000D03*
X49530000Y66040000D03*
X57150000Y66040000D03*
X57150000Y68580000D03*
X57150000Y76200000D03*
X57150000Y78740000D03*
X57150000Y81280000D03*
D13*
X11430000Y31399480D03*
X11430000Y25400000D03*
X16129000Y28399740D03*
D14*
X82550000Y21350000D03*
X82550000Y18810000D03*
X82550000Y16270000D03*
X82550000Y13730000D03*
X82550000Y11190000D03*
X82550000Y8650000D03*
X82550000Y6110000D03*
X90170000Y6110000D03*
X90170000Y8650000D03*
X90170000Y11190000D03*
X90170000Y13730000D03*
X90170000Y16270000D03*
X90170000Y18810000D03*
X90170000Y21350000D03*
D11*
X80010000Y81280000D03*
D12*
X80010000Y78740000D03*
X80010000Y73660000D03*
X80010000Y68580000D03*
X80010000Y66040000D03*
X87630000Y66040000D03*
X87630000Y68580000D03*
X87630000Y76200000D03*
X87630000Y78740000D03*
X87630000Y81280000D03*
D14*
X31750000Y57150000D03*
X31750000Y54610000D03*
X31750000Y52070000D03*
X31750000Y49530000D03*
X31750000Y46990000D03*
X31750000Y44450000D03*
X31750000Y41910000D03*
X31750000Y39370000D03*
X39370000Y39370000D03*
X39370000Y41910000D03*
X39370000Y44450000D03*
X39370000Y46990000D03*
X39370000Y49530000D03*
X39370000Y52070000D03*
X39370000Y54610000D03*
X39370000Y57150000D03*
D15*
X77470000Y13730000D03*
D16*
X77470000Y8730000D03*
D15*
X77470000Y23890000D03*
D16*
X77470000Y28890000D03*
D15*
X38060000Y18970000D03*
D16*
X38060000Y13970000D03*
D15*
X60960000Y25400000D03*
D16*
X60960000Y30400000D03*
D15*
X90170000Y26430000D03*
D16*
X85170000Y26430000D03*
D17*
X62230000Y68580000D03*
D18*
X64770000Y68580000D03*
D17*
X62230000Y78740000D03*
D18*
X64770000Y78740000D03*
D19*
X55880000Y31750000D03*
X53340000Y31750000D03*
X50800000Y31750000D03*
X48260000Y31750000D03*
X45720000Y31750000D03*
X43180000Y31750000D03*
X40640000Y31750000D03*
X38100000Y31750000D03*
X35560000Y31750000D03*
X33020000Y31750000D03*
X30480000Y31750000D03*
X27940000Y31750000D03*
X25400000Y31750000D03*
X22860000Y31750000D03*
X22860000Y24130000D03*
X25400000Y24130000D03*
X27940000Y24130000D03*
X30480000Y24130000D03*
X33020000Y24130000D03*
X35560000Y24130000D03*
X38100000Y24130000D03*
X40640000Y24130000D03*
X43180000Y24130000D03*
X45720000Y24130000D03*
X48260000Y24130000D03*
X50800000Y24130000D03*
X53340000Y24130000D03*
X55880000Y24130000D03*
D20*
X80010000Y16270000D03*
X69850000Y16270000D03*
X80010000Y21350000D03*
X69850000Y21350000D03*
X36830000Y85090000D03*
X46990000Y85090000D03*
X59690000Y85090000D03*
X49530000Y85090000D03*
X67310000Y85090000D03*
X77470000Y85090000D03*
X90170000Y85090000D03*
X80010000Y85090000D03*
X62230000Y59690000D03*
X62230000Y49530000D03*
X64770000Y59690000D03*
X64770000Y49530000D03*
X104140000Y11430000D03*
X93980000Y11430000D03*
X120650000Y11430000D03*
X110490000Y11430000D03*
D21*
X96520000Y21590000D03*
X96520000Y16510000D03*
X104140000Y16510000D03*
X104140000Y21590000D03*
X113030000Y21590000D03*
X113030000Y16510000D03*
X120650000Y16510000D03*
X120650000Y21590000D03*
D19*
X43140000Y11430000D03*
X45680000Y11430000D03*
X48220000Y11430000D03*
X50760000Y11430000D03*
X50760000Y19050000D03*
X48220000Y19050000D03*
X45680000Y19050000D03*
X43140000Y19050000D03*
D14*
X49530000Y57150000D03*
X49530000Y54610000D03*
X49530000Y52070000D03*
X49530000Y49530000D03*
X49530000Y46990000D03*
X49530000Y44450000D03*
X49530000Y41910000D03*
X49530000Y39370000D03*
X57150000Y39370000D03*
X57150000Y41910000D03*
X57150000Y44450000D03*
X57150000Y46990000D03*
X57150000Y49530000D03*
X57150000Y52070000D03*
X57150000Y54610000D03*
X57150000Y57150000D03*
X69850000Y57150000D03*
X69850000Y54610000D03*
X69850000Y52070000D03*
X69850000Y49530000D03*
X69850000Y46990000D03*
X69850000Y44450000D03*
X69850000Y41910000D03*
X69850000Y39370000D03*
X77470000Y39370000D03*
X77470000Y41910000D03*
X77470000Y44450000D03*
X77470000Y46990000D03*
X77470000Y49530000D03*
X77470000Y52070000D03*
X77470000Y54610000D03*
X77470000Y57150000D03*
X87630000Y57150000D03*
X87630000Y54610000D03*
X87630000Y52070000D03*
X87630000Y49530000D03*
X87630000Y46990000D03*
X87630000Y44450000D03*
X87630000Y41910000D03*
X87630000Y39370000D03*
X95250000Y39370000D03*
X95250000Y41910000D03*
X95250000Y44450000D03*
X95250000Y46990000D03*
X95250000Y49530000D03*
X95250000Y52070000D03*
X95250000Y54610000D03*
X95250000Y57150000D03*
D11*
X39370000Y81280000D03*
D12*
X39370000Y78740000D03*
X39370000Y73660000D03*
X39370000Y68580000D03*
X39370000Y66040000D03*
X46990000Y66040000D03*
X46990000Y68580000D03*
X46990000Y76200000D03*
X46990000Y78740000D03*
X46990000Y81280000D03*
D11*
X69850000Y81280000D03*
D12*
X69850000Y78740000D03*
X69850000Y73660000D03*
X69850000Y68580000D03*
X69850000Y66040000D03*
X77470000Y66040000D03*
X77470000Y68580000D03*
X77470000Y76200000D03*
X77470000Y78740000D03*
X77470000Y81280000D03*
D20*
X58420000Y17780000D03*
X58420000Y7620000D03*
X55880000Y17780000D03*
X55880000Y7620000D03*
D22*
X45720000Y8890000D03*
D23*
X43180000Y8890000D03*
D24*
X121920000Y83820000D03*
X121920000Y5080000D03*
X5080000Y5080000D03*
X5080000Y83820000D03*
X5080000Y50800000D03*
X121920000Y50800000D03*
D16*
X36830000Y71120000D03*
X34290000Y67310000D03*
X43180000Y80010000D03*
X51519825Y68216546D03*
X52070000Y81280000D03*
X53340000Y78105000D03*
X67945000Y75565000D03*
X83820000Y39370000D03*
X74930000Y81280000D03*
X83820000Y81280000D03*
X82550000Y78740000D03*
X44450000Y20955000D03*
X41910000Y22225000D03*
D25*
X51569010Y44299010D02*
X56800000Y49530000D01*
X51569010Y41059010D02*
X51569010Y44299010D01*
X56800000Y49530000D02*
X57150000Y49530000D01*
X49880000Y39370000D02*
X51569010Y41059010D01*
X49530000Y39370000D02*
X49880000Y39370000D01*
X87630000Y39370000D02*
X87980000Y39370000D01*
X87980000Y39370000D02*
X93210990Y44600990D01*
X93210990Y44600990D02*
X93210990Y47689610D01*
X93210990Y47689610D02*
X95051380Y49530000D01*
X95051380Y49530000D02*
X95250000Y49530000D01*
X69850000Y39370000D02*
X70200000Y39370000D01*
X70200000Y39370000D02*
X75430990Y44600990D01*
X75430990Y44600990D02*
X75430990Y47689610D01*
X75430990Y47689610D02*
X77271380Y49530000D01*
X77271380Y49530000D02*
X77470000Y49530000D01*
D26*
X40640000Y53340000D02*
X41275000Y53340000D01*
X41275000Y53340000D02*
X45085000Y49530000D01*
X45085000Y49530000D02*
X45085000Y41615195D01*
X45085000Y41615195D02*
X48638205Y38061990D01*
X48638205Y38061990D02*
X50421795Y38061990D01*
X50421795Y38061990D02*
X52712021Y40352216D01*
X52712021Y40352216D02*
X52712021Y42902021D01*
X52712021Y42902021D02*
X56800000Y46990000D01*
X56800000Y46990000D02*
X57150000Y46990000D01*
D27*
X38100000Y53340000D02*
X40640000Y53340000D01*
D26*
X37711990Y52951990D02*
X38100000Y53340000D01*
X38100000Y50800000D02*
X37711990Y51188010D01*
X37711990Y51188010D02*
X37711990Y52951990D01*
D27*
X40640000Y50800000D02*
X38100000Y50800000D01*
X41028010Y50411990D02*
X40640000Y50800000D01*
D26*
X39370000Y46990000D02*
X41028010Y48648010D01*
X41028010Y48648010D02*
X41028010Y50411990D01*
X43052989Y43657011D02*
X39720000Y46990000D01*
X39720000Y46990000D02*
X39370000Y46990000D01*
X43052989Y34767011D02*
X43052989Y43657011D01*
X45720000Y32100000D02*
X43052989Y34767011D01*
X45720000Y31750000D02*
X45720000Y32100000D01*
X43815000Y49283000D02*
X41028000Y52070000D01*
X46990000Y34290000D02*
X43815000Y37465000D01*
X41028000Y52070000D02*
X39370000Y52070000D01*
X46990000Y32679805D02*
X46990000Y34290000D01*
X43815000Y37465000D02*
X43815000Y49283000D01*
D27*
X46990000Y30820195D02*
X46990000Y32679805D01*
D26*
X46990000Y30480000D02*
X46990000Y30820195D01*
X46601990Y30091990D02*
X46990000Y30480000D01*
X43180000Y31750000D02*
X43180000Y31400000D01*
X43180000Y31400000D02*
X44488010Y30091990D01*
X44488010Y30091990D02*
X46601990Y30091990D01*
X48260000Y31750000D02*
X48260000Y33408000D01*
X48260000Y33408000D02*
X49777000Y34925000D01*
X49777000Y34925000D02*
X53975000Y34925000D01*
X55245000Y36195000D02*
X55245000Y42895000D01*
X53975000Y34925000D02*
X55245000Y36195000D01*
X55245000Y42895000D02*
X56800000Y44450000D01*
X56800000Y44450000D02*
X57150000Y44450000D01*
X47497979Y29329979D02*
X43060021Y29329979D01*
X43060021Y29329979D02*
X41910000Y30480000D01*
X48260000Y31750000D02*
X48260000Y30092000D01*
X48260000Y30092000D02*
X47497979Y29329979D01*
X41910000Y33020000D02*
X41910000Y42260000D01*
X41910000Y42260000D02*
X39720000Y44450000D01*
X39720000Y44450000D02*
X39370000Y44450000D01*
D27*
X41910000Y30480000D02*
X41910000Y33020000D01*
D25*
X60960000Y25400000D02*
X60960000Y27370000D01*
X60960000Y27370000D02*
X75500000Y41910000D01*
X75500000Y41910000D02*
X77470000Y41910000D01*
X57150000Y57150000D02*
X57150000Y59220000D01*
X57150000Y59220000D02*
X64770000Y66840000D01*
X64770000Y66840000D02*
X64770000Y68580000D01*
X40640000Y31750000D02*
X40640000Y34170000D01*
X39020000Y41910000D02*
X39370000Y41910000D01*
X40640000Y34170000D02*
X36950000Y37860000D01*
X36950000Y37860000D02*
X36950000Y39840000D01*
X36950000Y39840000D02*
X39020000Y41910000D01*
X57150000Y41910000D02*
X57500000Y41910000D01*
X59570000Y55080000D02*
X57500000Y57150000D01*
X57500000Y41910000D02*
X59570000Y43980000D01*
X59570000Y43980000D02*
X59570000Y55080000D01*
X57500000Y57150000D02*
X57150000Y57150000D01*
X77470000Y41910000D02*
X77820000Y41910000D01*
X77820000Y41910000D02*
X79890000Y43980000D01*
X79890000Y43980000D02*
X79890000Y55080000D01*
X79890000Y55080000D02*
X77820000Y57150000D01*
X77820000Y57150000D02*
X77470000Y57150000D01*
X90170000Y26430000D02*
X90170000Y29560000D01*
X90170000Y29560000D02*
X77820000Y41910000D01*
X54610000Y15240000D02*
X54610000Y8890000D01*
X54610000Y8890000D02*
X55880000Y7620000D01*
X53340000Y16510000D02*
X54610000Y15240000D01*
X45330000Y16510000D02*
X53340000Y16510000D01*
X43140000Y19050000D02*
X43140000Y18700000D01*
X43140000Y18700000D02*
X45330000Y16510000D01*
X43140000Y19050000D02*
X41070000Y19050000D01*
X41070000Y19050000D02*
X38100000Y22020000D01*
X38100000Y22020000D02*
X38100000Y24130000D01*
X11430000Y31399480D02*
X18229582Y31399480D01*
X18229582Y31399480D02*
X23460052Y26169010D01*
X23460052Y26169010D02*
X33719610Y26169010D01*
X33719610Y26169010D02*
X35560000Y24328620D01*
X35560000Y24328620D02*
X35560000Y24130000D01*
X38100000Y24130000D02*
X35560000Y24130000D01*
X40170000Y26550000D02*
X40640000Y27020000D01*
X40640000Y27020000D02*
X40640000Y31750000D01*
X60960000Y25400000D02*
X58990000Y25400000D01*
X38100000Y24480000D02*
X38100000Y24130000D01*
X58990000Y25400000D02*
X57840000Y26550000D01*
X57840000Y26550000D02*
X40170000Y26550000D01*
X40170000Y26550000D02*
X38100000Y24480000D01*
X64770000Y59690000D02*
X66609001Y61529001D01*
X62230000Y76470000D02*
X62230000Y78740000D01*
X66609001Y61529001D02*
X66609001Y72090999D01*
X66609001Y72090999D02*
X62230000Y76470000D01*
D26*
X36830000Y71120000D02*
X36830000Y85090000D01*
X32100000Y49530000D02*
X34290000Y51720000D01*
X34290000Y51720000D02*
X34290000Y67310000D01*
X31750000Y49530000D02*
X32100000Y49530000D01*
X41910000Y55492000D02*
X41910000Y78740000D01*
X41910000Y78740000D02*
X43180000Y80010000D01*
X39370000Y54610000D02*
X41028000Y54610000D01*
X41028000Y54610000D02*
X41910000Y55492000D01*
X39370000Y54610000D02*
X39720000Y54610000D01*
X49880000Y49530000D02*
X51519825Y51169825D01*
X49530000Y49530000D02*
X49880000Y49530000D01*
X51519825Y51169825D02*
X51519825Y68216546D01*
X52070000Y69841991D02*
X52070000Y81280000D01*
X53357963Y68554028D02*
X52070000Y69841991D01*
X49880000Y46990000D02*
X53357963Y50467963D01*
X49530000Y46990000D02*
X49880000Y46990000D01*
X53357963Y50467963D02*
X53357963Y68554028D01*
X49530000Y44450000D02*
X49880000Y44450000D01*
X54119973Y48689973D02*
X54119973Y77325027D01*
X54119973Y77325027D02*
X53340000Y78105000D01*
X49880000Y44450000D02*
X54119973Y48689973D01*
D27*
X68920195Y43180000D02*
X70779805Y43180000D01*
D26*
X71120000Y43180000D02*
X70779805Y43180000D01*
X73660000Y45720000D02*
X73660000Y48610000D01*
X73660000Y48610000D02*
X77120000Y52070000D01*
X77120000Y52070000D02*
X77470000Y52070000D01*
X71120000Y43180000D02*
X73660000Y45720000D01*
X67945000Y43180000D02*
X68920195Y43180000D01*
X64135000Y39370000D02*
X67945000Y43180000D01*
X57150000Y39370000D02*
X64135000Y39370000D01*
X69850000Y44450000D02*
X69500000Y44450000D01*
X69500000Y44450000D02*
X67945000Y46005000D01*
X67945000Y46005000D02*
X67945000Y75565000D01*
D27*
X86700195Y43180000D02*
X88559805Y43180000D01*
D26*
X88900000Y43180000D02*
X88559805Y43180000D01*
X95250000Y52070000D02*
X93592000Y52070000D01*
X93592000Y52070000D02*
X92067979Y50545979D01*
X92067979Y50545979D02*
X92067979Y46347979D01*
X92067979Y46347979D02*
X88900000Y43180000D01*
X86360000Y43180000D02*
X86700195Y43180000D01*
X84519999Y41339999D02*
X86360000Y43180000D01*
X83820000Y39370000D02*
X84519999Y40069999D01*
X84519999Y40069999D02*
X84519999Y41339999D01*
X77470000Y54610000D02*
X77120000Y54610000D01*
X74930000Y56800000D02*
X74930000Y81280000D01*
X77120000Y54610000D02*
X74930000Y56800000D01*
X87630000Y46990000D02*
X87280000Y46990000D01*
X87280000Y46990000D02*
X83820000Y50450000D01*
X83820000Y50450000D02*
X83820000Y81280000D01*
X82550000Y47872000D02*
X82550000Y78740000D01*
X87630000Y44450000D02*
X85972000Y44450000D01*
X85972000Y44450000D02*
X82550000Y47872000D01*
D27*
X83479895Y12459910D02*
X81620105Y12459910D01*
D26*
X90170000Y11190000D02*
X88512000Y11190000D01*
X88512000Y11190000D02*
X87242090Y12459910D01*
X87242090Y12459910D02*
X83479895Y12459910D01*
X76425688Y12459910D02*
X81620105Y12459910D01*
X76425688Y12459910D02*
X70485000Y18400598D01*
X59690000Y20955000D02*
X44450000Y20955000D01*
X70485000Y18400598D02*
X62244402Y18400598D01*
X62244402Y18400598D02*
X59690000Y20955000D01*
X81620105Y17539910D02*
X81520090Y17539910D01*
X81520090Y17539910D02*
X79217491Y19842509D01*
X79217491Y19842509D02*
X63342491Y19842509D01*
X63342491Y19842509D02*
X60960000Y22225000D01*
X60960000Y22225000D02*
X41910000Y22225000D01*
D27*
X83479895Y17539910D02*
X81620105Y17539910D01*
D26*
X90170000Y16270000D02*
X88512000Y16270000D01*
X87242090Y17539910D02*
X83479895Y17539910D01*
X88512000Y16270000D02*
X87242090Y17539910D01*
X104140000Y21590000D02*
X100631999Y25098001D01*
X100631999Y25098001D02*
X73598001Y25098001D01*
X73598001Y25098001D02*
X69850000Y21350000D01*
D25*
X104140000Y11430000D02*
X104140000Y16510000D01*
X82550000Y18810000D02*
X90170000Y18810000D01*
X82550000Y13730000D02*
X90170000Y13730000D01*
D28*
G36*
X126036000Y964000D02*
X56007000Y964000D01*
X56007000Y5731398D01*
X56253996Y5731183D01*
X56948346Y6018082D01*
X57149886Y6219270D01*
X57348859Y6019949D01*
X58042708Y5731838D01*
X58793996Y5731183D01*
X58866064Y5760961D01*
X80808096Y5760961D01*
X80825633Y5678181D01*
X81095500Y5185104D01*
X81533517Y4832834D01*
X82073000Y4675000D01*
X82423000Y4675000D01*
X82423000Y5983000D01*
X82677000Y5983000D01*
X82677000Y4675000D01*
X83027000Y4675000D01*
X83566483Y4832834D01*
X84004500Y5185104D01*
X84274367Y5678181D01*
X84291904Y5760961D01*
X84169915Y5983000D01*
X82677000Y5983000D01*
X82423000Y5983000D01*
X80930085Y5983000D01*
X80808096Y5760961D01*
X58866064Y5760961D01*
X59488346Y6018082D01*
X60020051Y6548859D01*
X60308162Y7242708D01*
X60308643Y7794725D01*
X76714331Y7794725D01*
X76776169Y7558958D01*
X77277122Y7382581D01*
X77807440Y7411336D01*
X78163831Y7558958D01*
X78225669Y7794725D01*
X77470000Y8550395D01*
X76714331Y7794725D01*
X60308643Y7794725D01*
X60308817Y7993996D01*
X60021918Y8688346D01*
X59787796Y8922878D01*
X76122581Y8922878D01*
X76151336Y8392560D01*
X76298958Y8036169D01*
X76534725Y7974331D01*
X77290395Y8730000D01*
X77649605Y8730000D01*
X78405275Y7974331D01*
X78641042Y8036169D01*
X78817419Y8537122D01*
X78788664Y9067440D01*
X78641042Y9423831D01*
X78405275Y9485669D01*
X77649605Y8730000D01*
X77290395Y8730000D01*
X76534725Y9485669D01*
X76298958Y9423831D01*
X76122581Y8922878D01*
X59787796Y8922878D01*
X59491141Y9220051D01*
X58797292Y9508162D01*
X58046004Y9508817D01*
X57351654Y9221918D01*
X57150114Y9020730D01*
X56951141Y9220051D01*
X56257292Y9508162D01*
X56147004Y9508258D01*
X56134000Y9521262D01*
X56134000Y9665275D01*
X76714331Y9665275D01*
X77470000Y8909605D01*
X78225669Y9665275D01*
X78163831Y9901042D01*
X77662878Y10077419D01*
X77132560Y10048664D01*
X76776169Y9901042D01*
X76714331Y9665275D01*
X56134000Y9665275D01*
X56134000Y15240000D01*
X56017992Y15823210D01*
X56007000Y15839661D01*
X56007000Y15891398D01*
X56253996Y15891183D01*
X56948346Y16178082D01*
X57149886Y16379270D01*
X57348859Y16179949D01*
X58042708Y15891838D01*
X58793996Y15891183D01*
X59488346Y16178082D01*
X60020051Y16708859D01*
X60308162Y17402708D01*
X60308817Y18153996D01*
X60021918Y18848346D01*
X59491141Y19380051D01*
X58797292Y19668162D01*
X58046004Y19668817D01*
X57351654Y19381918D01*
X57150114Y19180730D01*
X56951141Y19380051D01*
X56257292Y19668162D01*
X55506004Y19668817D01*
X54811654Y19381918D01*
X54279949Y18851141D01*
X53991838Y18157292D01*
X53991620Y17907000D01*
X53939661Y17907000D01*
X53923210Y17917992D01*
X53340000Y18034000D01*
X52324471Y18034000D01*
X52449000Y18660054D01*
X52449000Y19439946D01*
X52374994Y19812000D01*
X59216554Y19812000D01*
X61436179Y17592375D01*
X61806995Y17344604D01*
X62244402Y17257598D01*
X68215259Y17257598D01*
X67961838Y16647292D01*
X67961183Y15896004D01*
X68248082Y15201654D01*
X68778859Y14669949D01*
X69472708Y14381838D01*
X70223996Y14381183D01*
X70918346Y14668082D01*
X71450051Y15198859D01*
X71632032Y15637120D01*
X75617465Y11651687D01*
X75988281Y11403916D01*
X76425688Y11316910D01*
X80496298Y11316910D01*
X80471054Y11190000D01*
X80599621Y10543648D01*
X80965751Y9995697D01*
X81079039Y9920000D01*
X80965751Y9844303D01*
X80599621Y9296352D01*
X80471054Y8650000D01*
X80599621Y8003648D01*
X80965751Y7455697D01*
X81322409Y7217385D01*
X81095500Y7034896D01*
X80825633Y6541819D01*
X80808096Y6459039D01*
X80930085Y6237000D01*
X82423000Y6237000D01*
X82423000Y6257000D01*
X82677000Y6257000D01*
X82677000Y6237000D01*
X84169915Y6237000D01*
X84291904Y6459039D01*
X84274367Y6541819D01*
X84004500Y7034896D01*
X83777591Y7217385D01*
X84134249Y7455697D01*
X84500379Y8003648D01*
X84628946Y8650000D01*
X84500379Y9296352D01*
X84134249Y9844303D01*
X84020961Y9920000D01*
X84134249Y9995697D01*
X84500379Y10543648D01*
X84628946Y11190000D01*
X84603702Y11316910D01*
X86768644Y11316910D01*
X87703777Y10381777D01*
X88074593Y10134006D01*
X88512000Y10047000D01*
X88551471Y10047000D01*
X88585751Y9995697D01*
X88699039Y9920000D01*
X88585751Y9844303D01*
X88219621Y9296352D01*
X88091054Y8650000D01*
X88219621Y8003648D01*
X88585751Y7455697D01*
X88699039Y7380000D01*
X88585751Y7304303D01*
X88219621Y6756352D01*
X88091054Y6110000D01*
X88219621Y5463648D01*
X88585751Y4915697D01*
X89133702Y4549567D01*
X89780054Y4421000D01*
X90559946Y4421000D01*
X90964778Y4501526D01*
X118998494Y4501526D01*
X119442253Y3427548D01*
X120263226Y2605140D01*
X121336428Y2159508D01*
X122498474Y2158494D01*
X123572452Y2602253D01*
X124394860Y3423226D01*
X124840492Y4496428D01*
X124841506Y5658474D01*
X124397747Y6732452D01*
X123576774Y7554860D01*
X122503572Y8000492D01*
X121341526Y8001506D01*
X120267548Y7557747D01*
X119445140Y6736774D01*
X118999508Y5663572D01*
X118998494Y4501526D01*
X90964778Y4501526D01*
X91206298Y4549567D01*
X91754249Y4915697D01*
X92120379Y5463648D01*
X92248946Y6110000D01*
X92120379Y6756352D01*
X91754249Y7304303D01*
X91640961Y7380000D01*
X91754249Y7455697D01*
X92120379Y8003648D01*
X92248946Y8650000D01*
X92120379Y9296352D01*
X91754249Y9844303D01*
X91640961Y9920000D01*
X91754249Y9995697D01*
X91942769Y10277837D01*
X93007443Y10277837D01*
X93106042Y10011035D01*
X93715582Y9784599D01*
X94365377Y9808659D01*
X94853958Y10011035D01*
X94952557Y10277837D01*
X93980000Y11250395D01*
X93007443Y10277837D01*
X91942769Y10277837D01*
X92120379Y10543648D01*
X92248946Y11190000D01*
X92148612Y11694418D01*
X92334599Y11694418D01*
X92358659Y11044623D01*
X92561035Y10556042D01*
X92827837Y10457443D01*
X93800395Y11430000D01*
X94159605Y11430000D01*
X95132163Y10457443D01*
X95398965Y10556042D01*
X95584694Y11056004D01*
X102251183Y11056004D01*
X102538082Y10361654D01*
X103068859Y9829949D01*
X103762708Y9541838D01*
X104513996Y9541183D01*
X105208346Y9828082D01*
X105658887Y10277837D01*
X109517443Y10277837D01*
X109616042Y10011035D01*
X110225582Y9784599D01*
X110875377Y9808659D01*
X111363958Y10011035D01*
X111462557Y10277837D01*
X110490000Y11250395D01*
X109517443Y10277837D01*
X105658887Y10277837D01*
X105740051Y10358859D01*
X106028162Y11052708D01*
X106028721Y11694418D01*
X108844599Y11694418D01*
X108868659Y11044623D01*
X109071035Y10556042D01*
X109337837Y10457443D01*
X110310395Y11430000D01*
X110669605Y11430000D01*
X111642163Y10457443D01*
X111908965Y10556042D01*
X112094694Y11056004D01*
X118761183Y11056004D01*
X119048082Y10361654D01*
X119578859Y9829949D01*
X120272708Y9541838D01*
X121023996Y9541183D01*
X121718346Y9828082D01*
X122250051Y10358859D01*
X122538162Y11052708D01*
X122538817Y11803996D01*
X122251918Y12498346D01*
X121721141Y13030051D01*
X121027292Y13318162D01*
X120276004Y13318817D01*
X119581654Y13031918D01*
X119049949Y12501141D01*
X118761838Y11807292D01*
X118761183Y11056004D01*
X112094694Y11056004D01*
X112135401Y11165582D01*
X112111341Y11815377D01*
X111908965Y12303958D01*
X111642163Y12402557D01*
X110669605Y11430000D01*
X110310395Y11430000D01*
X109337837Y12402557D01*
X109071035Y12303958D01*
X108844599Y11694418D01*
X106028721Y11694418D01*
X106028817Y11803996D01*
X105741918Y12498346D01*
X105664000Y12576400D01*
X105664000Y12582163D01*
X109517443Y12582163D01*
X110490000Y11609605D01*
X111462557Y12582163D01*
X111363958Y12848965D01*
X110754418Y13075401D01*
X110104623Y13051341D01*
X109616042Y12848965D01*
X109517443Y12582163D01*
X105664000Y12582163D01*
X105664000Y15759601D01*
X105733522Y15863648D01*
X105862089Y16510000D01*
X111307911Y16510000D01*
X111436478Y15863648D01*
X111802608Y15315697D01*
X112350559Y14949567D01*
X112996911Y14821000D01*
X113063089Y14821000D01*
X113709441Y14949567D01*
X114257392Y15315697D01*
X114623522Y15863648D01*
X114752089Y16510000D01*
X118927911Y16510000D01*
X119056478Y15863648D01*
X119422608Y15315697D01*
X119970559Y14949567D01*
X120616911Y14821000D01*
X120683089Y14821000D01*
X121329441Y14949567D01*
X121877392Y15315697D01*
X122243522Y15863648D01*
X122372089Y16510000D01*
X122243522Y17156352D01*
X121877392Y17704303D01*
X121329441Y18070433D01*
X120683089Y18199000D01*
X120616911Y18199000D01*
X119970559Y18070433D01*
X119422608Y17704303D01*
X119056478Y17156352D01*
X118927911Y16510000D01*
X114752089Y16510000D01*
X114623522Y17156352D01*
X114257392Y17704303D01*
X113709441Y18070433D01*
X113063089Y18199000D01*
X112996911Y18199000D01*
X112350559Y18070433D01*
X111802608Y17704303D01*
X111436478Y17156352D01*
X111307911Y16510000D01*
X105862089Y16510000D01*
X105733522Y17156352D01*
X105367392Y17704303D01*
X104819441Y18070433D01*
X104173089Y18199000D01*
X104106911Y18199000D01*
X103460559Y18070433D01*
X102912608Y17704303D01*
X102546478Y17156352D01*
X102417911Y16510000D01*
X102546478Y15863648D01*
X102616000Y15759601D01*
X102616000Y12577059D01*
X102539949Y12501141D01*
X102251838Y11807292D01*
X102251183Y11056004D01*
X95584694Y11056004D01*
X95625401Y11165582D01*
X95601341Y11815377D01*
X95398965Y12303958D01*
X95132163Y12402557D01*
X94159605Y11430000D01*
X93800395Y11430000D01*
X92827837Y12402557D01*
X92561035Y12303958D01*
X92334599Y11694418D01*
X92148612Y11694418D01*
X92120379Y11836352D01*
X91754249Y12384303D01*
X91640961Y12460000D01*
X91754249Y12535697D01*
X91785296Y12582163D01*
X93007443Y12582163D01*
X93980000Y11609605D01*
X94952557Y12582163D01*
X94853958Y12848965D01*
X94244418Y13075401D01*
X93594623Y13051341D01*
X93106042Y12848965D01*
X93007443Y12582163D01*
X91785296Y12582163D01*
X92120379Y13083648D01*
X92248946Y13730000D01*
X92120379Y14376352D01*
X91754249Y14924303D01*
X91640961Y15000000D01*
X91754249Y15075697D01*
X92120379Y15623648D01*
X92248946Y16270000D01*
X92201208Y16510000D01*
X94797911Y16510000D01*
X94926478Y15863648D01*
X95292608Y15315697D01*
X95840559Y14949567D01*
X96486911Y14821000D01*
X96553089Y14821000D01*
X97199441Y14949567D01*
X97747392Y15315697D01*
X98113522Y15863648D01*
X98242089Y16510000D01*
X98113522Y17156352D01*
X97747392Y17704303D01*
X97199441Y18070433D01*
X96553089Y18199000D01*
X96486911Y18199000D01*
X95840559Y18070433D01*
X95292608Y17704303D01*
X94926478Y17156352D01*
X94797911Y16510000D01*
X92201208Y16510000D01*
X92120379Y16916352D01*
X91754249Y17464303D01*
X91640961Y17540000D01*
X91754249Y17615697D01*
X92120379Y18163648D01*
X92248946Y18810000D01*
X92120379Y19456352D01*
X91754249Y20004303D01*
X91640961Y20080000D01*
X91754249Y20155697D01*
X92120379Y20703648D01*
X92248946Y21350000D01*
X92201208Y21590000D01*
X94797911Y21590000D01*
X94926478Y20943648D01*
X95292608Y20395697D01*
X95840559Y20029567D01*
X96486911Y19901000D01*
X96553089Y19901000D01*
X97199441Y20029567D01*
X97747392Y20395697D01*
X98113522Y20943648D01*
X98242089Y21590000D01*
X98113522Y22236352D01*
X97747392Y22784303D01*
X97199441Y23150433D01*
X96553089Y23279000D01*
X96486911Y23279000D01*
X95840559Y23150433D01*
X95292608Y22784303D01*
X94926478Y22236352D01*
X94797911Y21590000D01*
X92201208Y21590000D01*
X92120379Y21996352D01*
X91754249Y22544303D01*
X91206298Y22910433D01*
X90559946Y23039000D01*
X89780054Y23039000D01*
X89133702Y22910433D01*
X88585751Y22544303D01*
X88219621Y21996352D01*
X88091054Y21350000D01*
X88219621Y20703648D01*
X88466612Y20334000D01*
X84253388Y20334000D01*
X84500379Y20703648D01*
X84628946Y21350000D01*
X84500379Y21996352D01*
X84134249Y22544303D01*
X83586298Y22910433D01*
X82939946Y23039000D01*
X82160054Y23039000D01*
X81513702Y22910433D01*
X81277944Y22752904D01*
X81081141Y22950051D01*
X80387292Y23238162D01*
X79636004Y23238817D01*
X79036106Y22990945D01*
X79076416Y23190000D01*
X79076416Y23955001D01*
X100158553Y23955001D01*
X102435438Y21678116D01*
X102417911Y21590000D01*
X102546478Y20943648D01*
X102912608Y20395697D01*
X103460559Y20029567D01*
X104106911Y19901000D01*
X104173089Y19901000D01*
X104819441Y20029567D01*
X105367392Y20395697D01*
X105733522Y20943648D01*
X105862089Y21590000D01*
X111307911Y21590000D01*
X111436478Y20943648D01*
X111802608Y20395697D01*
X112350559Y20029567D01*
X112996911Y19901000D01*
X113063089Y19901000D01*
X113709441Y20029567D01*
X114257392Y20395697D01*
X114623522Y20943648D01*
X114752089Y21590000D01*
X118927911Y21590000D01*
X119056478Y20943648D01*
X119422608Y20395697D01*
X119970559Y20029567D01*
X120616911Y19901000D01*
X120683089Y19901000D01*
X121329441Y20029567D01*
X121877392Y20395697D01*
X122243522Y20943648D01*
X122372089Y21590000D01*
X122243522Y22236352D01*
X121877392Y22784303D01*
X121329441Y23150433D01*
X120683089Y23279000D01*
X120616911Y23279000D01*
X119970559Y23150433D01*
X119422608Y22784303D01*
X119056478Y22236352D01*
X118927911Y21590000D01*
X114752089Y21590000D01*
X114623522Y22236352D01*
X114257392Y22784303D01*
X113709441Y23150433D01*
X113063089Y23279000D01*
X112996911Y23279000D01*
X112350559Y23150433D01*
X111802608Y22784303D01*
X111436478Y22236352D01*
X111307911Y21590000D01*
X105862089Y21590000D01*
X105733522Y22236352D01*
X105367392Y22784303D01*
X104819441Y23150433D01*
X104173089Y23279000D01*
X104106911Y23279000D01*
X104073994Y23272452D01*
X101440222Y25906224D01*
X101069406Y26153995D01*
X100631999Y26241001D01*
X91776416Y26241001D01*
X91776416Y27130000D01*
X91714427Y27459444D01*
X91694000Y27491188D01*
X91694000Y29560000D01*
X91577992Y30143210D01*
X91247631Y30637631D01*
X91247628Y30637633D01*
X84104510Y37780751D01*
X84134685Y37780725D01*
X84718920Y38022126D01*
X85166303Y38468729D01*
X85395609Y39020961D01*
X85888096Y39020961D01*
X85905633Y38938181D01*
X86175500Y38445104D01*
X86613517Y38092834D01*
X87153000Y37935000D01*
X87503000Y37935000D01*
X87503000Y39243000D01*
X87757000Y39243000D01*
X87757000Y37935000D01*
X88107000Y37935000D01*
X88646483Y38092834D01*
X89084500Y38445104D01*
X89354367Y38938181D01*
X89371904Y39020961D01*
X89249915Y39243000D01*
X87757000Y39243000D01*
X87503000Y39243000D01*
X86010085Y39243000D01*
X85888096Y39020961D01*
X85395609Y39020961D01*
X85408723Y39052542D01*
X85409011Y39382686D01*
X85575993Y39632592D01*
X85662999Y40069999D01*
X85662999Y40866553D01*
X85832017Y41035571D01*
X86045751Y40715697D01*
X86402409Y40477385D01*
X86175500Y40294896D01*
X85905633Y39801819D01*
X85888096Y39719039D01*
X86010085Y39497000D01*
X87503000Y39497000D01*
X87503000Y39517000D01*
X87757000Y39517000D01*
X87757000Y39497000D01*
X89249915Y39497000D01*
X89371904Y39719039D01*
X89354367Y39801819D01*
X89084500Y40294896D01*
X88857591Y40477385D01*
X89214249Y40715697D01*
X89580379Y41263648D01*
X89708946Y41910000D01*
X89627784Y42318030D01*
X89708223Y42371777D01*
X92876202Y45539756D01*
X93123973Y45910572D01*
X93210979Y46347979D01*
X93210979Y46789283D01*
X93299621Y46343648D01*
X93665751Y45795697D01*
X93779039Y45720000D01*
X93665751Y45644303D01*
X93299621Y45096352D01*
X93171054Y44450000D01*
X93299621Y43803648D01*
X93665751Y43255697D01*
X93779039Y43180000D01*
X93665751Y43104303D01*
X93299621Y42556352D01*
X93171054Y41910000D01*
X93299621Y41263648D01*
X93665751Y40715697D01*
X93779039Y40640000D01*
X93665751Y40564303D01*
X93299621Y40016352D01*
X93171054Y39370000D01*
X93299621Y38723648D01*
X93665751Y38175697D01*
X94213702Y37809567D01*
X94860054Y37681000D01*
X95639946Y37681000D01*
X96286298Y37809567D01*
X96834249Y38175697D01*
X97200379Y38723648D01*
X97328946Y39370000D01*
X97200379Y40016352D01*
X96834249Y40564303D01*
X96720961Y40640000D01*
X96834249Y40715697D01*
X97200379Y41263648D01*
X97328946Y41910000D01*
X97200379Y42556352D01*
X96834249Y43104303D01*
X96720961Y43180000D01*
X96834249Y43255697D01*
X97200379Y43803648D01*
X97328946Y44450000D01*
X97200379Y45096352D01*
X96834249Y45644303D01*
X96720961Y45720000D01*
X96834249Y45795697D01*
X97200379Y46343648D01*
X97328946Y46990000D01*
X97200379Y47636352D01*
X96834249Y48184303D01*
X96477591Y48422615D01*
X96704500Y48605104D01*
X96974367Y49098181D01*
X96991904Y49180961D01*
X96869915Y49403000D01*
X95377000Y49403000D01*
X95377000Y49383000D01*
X95123000Y49383000D01*
X95123000Y49403000D01*
X93630085Y49403000D01*
X93508096Y49180961D01*
X93525633Y49098181D01*
X93795500Y48605104D01*
X94022409Y48422615D01*
X93665751Y48184303D01*
X93299621Y47636352D01*
X93210979Y47190717D01*
X93210979Y50072533D01*
X93874597Y50736151D01*
X94022409Y50637385D01*
X93795500Y50454896D01*
X93525633Y49961819D01*
X93508096Y49879039D01*
X93630085Y49657000D01*
X95123000Y49657000D01*
X95123000Y49677000D01*
X95377000Y49677000D01*
X95377000Y49657000D01*
X96869915Y49657000D01*
X96991904Y49879039D01*
X96974367Y49961819D01*
X96832227Y50221526D01*
X118998494Y50221526D01*
X119442253Y49147548D01*
X120263226Y48325140D01*
X121336428Y47879508D01*
X122498474Y47878494D01*
X123572452Y48322253D01*
X124394860Y49143226D01*
X124840492Y50216428D01*
X124841506Y51378474D01*
X124397747Y52452452D01*
X123576774Y53274860D01*
X122503572Y53720492D01*
X121341526Y53721506D01*
X120267548Y53277747D01*
X119445140Y52456774D01*
X118999508Y51383572D01*
X118998494Y50221526D01*
X96832227Y50221526D01*
X96704500Y50454896D01*
X96477591Y50637385D01*
X96834249Y50875697D01*
X97200379Y51423648D01*
X97328946Y52070000D01*
X97200379Y52716352D01*
X96834249Y53264303D01*
X96720961Y53340000D01*
X96834249Y53415697D01*
X97200379Y53963648D01*
X97328946Y54610000D01*
X97200379Y55256352D01*
X96834249Y55804303D01*
X96720961Y55880000D01*
X96834249Y55955697D01*
X97200379Y56503648D01*
X97328946Y57150000D01*
X97200379Y57796352D01*
X96834249Y58344303D01*
X96286298Y58710433D01*
X95639946Y58839000D01*
X94860054Y58839000D01*
X94213702Y58710433D01*
X93665751Y58344303D01*
X93299621Y57796352D01*
X93171054Y57150000D01*
X93299621Y56503648D01*
X93665751Y55955697D01*
X93779039Y55880000D01*
X93665751Y55804303D01*
X93299621Y55256352D01*
X93171054Y54610000D01*
X93299621Y53963648D01*
X93665751Y53415697D01*
X93779039Y53340000D01*
X93665751Y53264303D01*
X93631471Y53213000D01*
X93592000Y53213000D01*
X93154593Y53125994D01*
X92783777Y52878223D01*
X91259756Y51354202D01*
X91011985Y50983386D01*
X90924979Y50545979D01*
X90924979Y46821425D01*
X89427983Y45324429D01*
X89214249Y45644303D01*
X89100961Y45720000D01*
X89214249Y45795697D01*
X89580379Y46343648D01*
X89708946Y46990000D01*
X89580379Y47636352D01*
X89214249Y48184303D01*
X89100961Y48260000D01*
X89214249Y48335697D01*
X89580379Y48883648D01*
X89708946Y49530000D01*
X89580379Y50176352D01*
X89214249Y50724303D01*
X89100961Y50800000D01*
X89214249Y50875697D01*
X89580379Y51423648D01*
X89708946Y52070000D01*
X89580379Y52716352D01*
X89214249Y53264303D01*
X89100961Y53340000D01*
X89214249Y53415697D01*
X89580379Y53963648D01*
X89708946Y54610000D01*
X89580379Y55256352D01*
X89214249Y55804303D01*
X89100961Y55880000D01*
X89214249Y55955697D01*
X89580379Y56503648D01*
X89708946Y57150000D01*
X89580379Y57796352D01*
X89214249Y58344303D01*
X88666298Y58710433D01*
X88019946Y58839000D01*
X87240054Y58839000D01*
X86593702Y58710433D01*
X86045751Y58344303D01*
X85679621Y57796352D01*
X85551054Y57150000D01*
X85679621Y56503648D01*
X86045751Y55955697D01*
X86159039Y55880000D01*
X86045751Y55804303D01*
X85679621Y55256352D01*
X85551054Y54610000D01*
X85679621Y53963648D01*
X86045751Y53415697D01*
X86159039Y53340000D01*
X86045751Y53264303D01*
X85679621Y52716352D01*
X85551054Y52070000D01*
X85679621Y51423648D01*
X86045751Y50875697D01*
X86159039Y50800000D01*
X86045751Y50724303D01*
X85691827Y50194619D01*
X84963000Y50923446D01*
X84963000Y68237946D01*
X85902501Y68237946D01*
X86164897Y67602898D01*
X86457369Y67309915D01*
X86166605Y67019658D01*
X85903100Y66385069D01*
X85902501Y65697946D01*
X86164897Y65062898D01*
X86650342Y64576605D01*
X87284931Y64313100D01*
X87972054Y64312501D01*
X88607102Y64574897D01*
X89093395Y65060342D01*
X89356900Y65694931D01*
X89357499Y66382054D01*
X89095103Y67017102D01*
X88802631Y67310085D01*
X89093395Y67600342D01*
X89356900Y68234931D01*
X89357499Y68922054D01*
X89095103Y69557102D01*
X88609658Y70043395D01*
X87975069Y70306900D01*
X87287946Y70307499D01*
X86652898Y70045103D01*
X86166605Y69559658D01*
X85903100Y68925069D01*
X85902501Y68237946D01*
X84963000Y68237946D01*
X84963000Y80175780D01*
X85166303Y80378729D01*
X85398509Y80937946D01*
X85902501Y80937946D01*
X86164897Y80302898D01*
X86457369Y80009915D01*
X86166605Y79719658D01*
X85903100Y79085069D01*
X85902501Y78397946D01*
X86164897Y77762898D01*
X86457369Y77469915D01*
X86166605Y77179658D01*
X85903100Y76545069D01*
X85902501Y75857946D01*
X86164897Y75222898D01*
X86650342Y74736605D01*
X87284931Y74473100D01*
X87972054Y74472501D01*
X88607102Y74734897D01*
X89093395Y75220342D01*
X89356900Y75854931D01*
X89357499Y76542054D01*
X89095103Y77177102D01*
X88802631Y77470085D01*
X89093395Y77760342D01*
X89356900Y78394931D01*
X89357499Y79082054D01*
X89095103Y79717102D01*
X88802631Y80010085D01*
X89093395Y80300342D01*
X89356900Y80934931D01*
X89357499Y81622054D01*
X89095103Y82257102D01*
X88609658Y82743395D01*
X87975069Y83006900D01*
X87287946Y83007499D01*
X86652898Y82745103D01*
X86166605Y82259658D01*
X85903100Y81625069D01*
X85902501Y80937946D01*
X85398509Y80937946D01*
X85408723Y80962542D01*
X85409275Y81594685D01*
X85167874Y82178920D01*
X84721271Y82626303D01*
X84137458Y82868723D01*
X83505315Y82869275D01*
X82921080Y82627874D01*
X82473697Y82181271D01*
X82231277Y81597458D01*
X82230725Y80965315D01*
X82472126Y80381080D01*
X82524092Y80329023D01*
X82235315Y80329275D01*
X81685854Y80102242D01*
X81754616Y80441800D01*
X81754616Y82118200D01*
X81692627Y82447644D01*
X81497926Y82750217D01*
X81200847Y82953203D01*
X80848200Y83024616D01*
X79171800Y83024616D01*
X78842356Y82962627D01*
X78539783Y82767926D01*
X78493211Y82699766D01*
X78449658Y82743395D01*
X77815069Y83006900D01*
X77127946Y83007499D01*
X76492898Y82745103D01*
X76102107Y82354994D01*
X75831271Y82626303D01*
X75247458Y82868723D01*
X74615315Y82869275D01*
X74031080Y82627874D01*
X73583697Y82181271D01*
X73341277Y81597458D01*
X73340725Y80965315D01*
X73582126Y80381080D01*
X73787000Y80175848D01*
X73787000Y56800000D01*
X73874006Y56362593D01*
X74121777Y55991777D01*
X75409719Y54703835D01*
X75391054Y54610000D01*
X75519621Y53963648D01*
X75885751Y53415697D01*
X75999039Y53340000D01*
X75885751Y53264303D01*
X75519621Y52716352D01*
X75391054Y52070000D01*
X75409719Y51976165D01*
X72851777Y49418223D01*
X72604006Y49047407D01*
X72517000Y48610000D01*
X72517000Y46193446D01*
X71647983Y45324429D01*
X71434249Y45644303D01*
X71320961Y45720000D01*
X71434249Y45795697D01*
X71800379Y46343648D01*
X71928946Y46990000D01*
X71800379Y47636352D01*
X71434249Y48184303D01*
X71320961Y48260000D01*
X71434249Y48335697D01*
X71800379Y48883648D01*
X71928946Y49530000D01*
X71800379Y50176352D01*
X71434249Y50724303D01*
X71320961Y50800000D01*
X71434249Y50875697D01*
X71800379Y51423648D01*
X71928946Y52070000D01*
X71800379Y52716352D01*
X71434249Y53264303D01*
X71320961Y53340000D01*
X71434249Y53415697D01*
X71800379Y53963648D01*
X71928946Y54610000D01*
X71800379Y55256352D01*
X71434249Y55804303D01*
X71320961Y55880000D01*
X71434249Y55955697D01*
X71800379Y56503648D01*
X71928946Y57150000D01*
X71800379Y57796352D01*
X71434249Y58344303D01*
X70886298Y58710433D01*
X70239946Y58839000D01*
X69460054Y58839000D01*
X69088000Y58764994D01*
X69088000Y64486225D01*
X69504931Y64313100D01*
X70192054Y64312501D01*
X70827102Y64574897D01*
X71313395Y65060342D01*
X71576900Y65694931D01*
X71577499Y66382054D01*
X71315103Y67017102D01*
X71022631Y67310085D01*
X71313395Y67600342D01*
X71576900Y68234931D01*
X71577499Y68922054D01*
X71315103Y69557102D01*
X70829658Y70043395D01*
X70195069Y70306900D01*
X69507946Y70307499D01*
X69088000Y70133981D01*
X69088000Y72106225D01*
X69504931Y71933100D01*
X70192054Y71932501D01*
X70827102Y72194897D01*
X71313395Y72680342D01*
X71576900Y73314931D01*
X71577499Y74002054D01*
X71315103Y74637102D01*
X70829658Y75123395D01*
X70195069Y75386900D01*
X69533845Y75387476D01*
X69534275Y75879685D01*
X69292874Y76463920D01*
X68846271Y76911303D01*
X68262458Y77153723D01*
X67630315Y77154275D01*
X67046080Y76912874D01*
X66598697Y76466271D01*
X66356277Y75882458D01*
X66355725Y75250315D01*
X66597126Y74666080D01*
X66802000Y74460848D01*
X66802000Y74053261D01*
X63783402Y77071860D01*
X63812017Y77090274D01*
X63841970Y77134112D01*
X64402595Y76901320D01*
X65134195Y76900682D01*
X65810349Y77180063D01*
X66328119Y77696930D01*
X66608680Y78372595D01*
X66609318Y79104195D01*
X66329937Y79780349D01*
X65813070Y80298119D01*
X65137405Y80578680D01*
X64405805Y80579318D01*
X63845347Y80347742D01*
X63829726Y80372017D01*
X63532647Y80575003D01*
X63180000Y80646416D01*
X61280000Y80646416D01*
X60950556Y80584427D01*
X60647983Y80389726D01*
X60444997Y80092647D01*
X60373584Y79740000D01*
X60373584Y77740000D01*
X60435573Y77410556D01*
X60630274Y77107983D01*
X60706000Y77056241D01*
X60706000Y76470000D01*
X60822008Y75886790D01*
X61037021Y75565000D01*
X61152369Y75392369D01*
X65085001Y71459738D01*
X65085001Y70418726D01*
X64405805Y70419318D01*
X63845347Y70187742D01*
X63829726Y70212017D01*
X63532647Y70415003D01*
X63180000Y70486416D01*
X61280000Y70486416D01*
X60950556Y70424427D01*
X60647983Y70229726D01*
X60444997Y69932647D01*
X60373584Y69580000D01*
X60373584Y67580000D01*
X60435573Y67250556D01*
X60630274Y66947983D01*
X60927353Y66744997D01*
X61280000Y66673584D01*
X62448323Y66673584D01*
X56072369Y60297631D01*
X55742008Y59803210D01*
X55626000Y59220000D01*
X55626000Y58384560D01*
X55565751Y58344303D01*
X55262973Y57891165D01*
X55262973Y68237946D01*
X55422501Y68237946D01*
X55684897Y67602898D01*
X55977369Y67309915D01*
X55686605Y67019658D01*
X55423100Y66385069D01*
X55422501Y65697946D01*
X55684897Y65062898D01*
X56170342Y64576605D01*
X56804931Y64313100D01*
X57492054Y64312501D01*
X58127102Y64574897D01*
X58613395Y65060342D01*
X58876900Y65694931D01*
X58877499Y66382054D01*
X58615103Y67017102D01*
X58322631Y67310085D01*
X58613395Y67600342D01*
X58876900Y68234931D01*
X58877499Y68922054D01*
X58615103Y69557102D01*
X58129658Y70043395D01*
X57495069Y70306900D01*
X56807946Y70307499D01*
X56172898Y70045103D01*
X55686605Y69559658D01*
X55423100Y68925069D01*
X55422501Y68237946D01*
X55262973Y68237946D01*
X55262973Y77325027D01*
X55175967Y77762434D01*
X54929024Y78132011D01*
X54929275Y78419685D01*
X54687874Y79003920D01*
X54241271Y79451303D01*
X53657458Y79693723D01*
X53213000Y79694111D01*
X53213000Y80175780D01*
X53416303Y80378729D01*
X53648509Y80937946D01*
X55422501Y80937946D01*
X55684897Y80302898D01*
X55977369Y80009915D01*
X55686605Y79719658D01*
X55423100Y79085069D01*
X55422501Y78397946D01*
X55684897Y77762898D01*
X55977369Y77469915D01*
X55686605Y77179658D01*
X55423100Y76545069D01*
X55422501Y75857946D01*
X55684897Y75222898D01*
X56170342Y74736605D01*
X56804931Y74473100D01*
X57492054Y74472501D01*
X58127102Y74734897D01*
X58613395Y75220342D01*
X58876900Y75854931D01*
X58877499Y76542054D01*
X58615103Y77177102D01*
X58322631Y77470085D01*
X58613395Y77760342D01*
X58876900Y78394931D01*
X58877499Y79082054D01*
X58615103Y79717102D01*
X58322631Y80010085D01*
X58613395Y80300342D01*
X58876900Y80934931D01*
X58877499Y81622054D01*
X58672497Y82118200D01*
X68105384Y82118200D01*
X68105384Y80441800D01*
X68167373Y80112356D01*
X68362074Y79809783D01*
X68430234Y79763211D01*
X68386605Y79719658D01*
X68123100Y79085069D01*
X68122501Y78397946D01*
X68384897Y77762898D01*
X68870342Y77276605D01*
X69504931Y77013100D01*
X70192054Y77012501D01*
X70827102Y77274897D01*
X71313395Y77760342D01*
X71576900Y78394931D01*
X71577499Y79082054D01*
X71315103Y79717102D01*
X71271534Y79760747D01*
X71320217Y79792074D01*
X71523203Y80089153D01*
X71594616Y80441800D01*
X71594616Y82118200D01*
X71532627Y82447644D01*
X71337926Y82750217D01*
X71040847Y82953203D01*
X70688200Y83024616D01*
X69011800Y83024616D01*
X68682356Y82962627D01*
X68379783Y82767926D01*
X68176797Y82470847D01*
X68105384Y82118200D01*
X58672497Y82118200D01*
X58615103Y82257102D01*
X58129658Y82743395D01*
X57495069Y83006900D01*
X56807946Y83007499D01*
X56172898Y82745103D01*
X55686605Y82259658D01*
X55423100Y81625069D01*
X55422501Y80937946D01*
X53648509Y80937946D01*
X53658723Y80962542D01*
X53659275Y81594685D01*
X53417874Y82178920D01*
X52971271Y82626303D01*
X52387458Y82868723D01*
X51755315Y82869275D01*
X51171080Y82627874D01*
X51125762Y82582635D01*
X51017926Y82750217D01*
X50720847Y82953203D01*
X50368200Y83024616D01*
X48691800Y83024616D01*
X48362356Y82962627D01*
X48059783Y82767926D01*
X48013211Y82699766D01*
X47969658Y82743395D01*
X47335069Y83006900D01*
X46647946Y83007499D01*
X46012898Y82745103D01*
X45526605Y82259658D01*
X45263100Y81625069D01*
X45262501Y80937946D01*
X45524897Y80302898D01*
X45817369Y80009915D01*
X45526605Y79719658D01*
X45263100Y79085069D01*
X45262501Y78397946D01*
X45524897Y77762898D01*
X45817369Y77469915D01*
X45526605Y77179658D01*
X45263100Y76545069D01*
X45262501Y75857946D01*
X45524897Y75222898D01*
X46010342Y74736605D01*
X46644931Y74473100D01*
X47332054Y74472501D01*
X47967102Y74734897D01*
X48453395Y75220342D01*
X48716900Y75854931D01*
X48717499Y76542054D01*
X48455103Y77177102D01*
X48162631Y77470085D01*
X48260085Y77567369D01*
X48550342Y77276605D01*
X49184931Y77013100D01*
X49872054Y77012501D01*
X50507102Y77274897D01*
X50927000Y77694063D01*
X50927000Y74705324D01*
X50509658Y75123395D01*
X49875069Y75386900D01*
X49187946Y75387499D01*
X48552898Y75125103D01*
X48066605Y74639658D01*
X47803100Y74005069D01*
X47802501Y73317946D01*
X48064897Y72682898D01*
X48550342Y72196605D01*
X49184931Y71933100D01*
X49872054Y71932501D01*
X50507102Y72194897D01*
X50927000Y72614063D01*
X50927000Y69841991D01*
X50954772Y69702371D01*
X50880657Y69671748D01*
X50509658Y70043395D01*
X49875069Y70306900D01*
X49187946Y70307499D01*
X48552898Y70045103D01*
X48259915Y69752631D01*
X47969658Y70043395D01*
X47335069Y70306900D01*
X46647946Y70307499D01*
X46012898Y70045103D01*
X45526605Y69559658D01*
X45263100Y68925069D01*
X45262501Y68237946D01*
X45524897Y67602898D01*
X45817369Y67309915D01*
X45526605Y67019658D01*
X45263100Y66385069D01*
X45262501Y65697946D01*
X45524897Y65062898D01*
X46010342Y64576605D01*
X46644931Y64313100D01*
X47332054Y64312501D01*
X47967102Y64574897D01*
X48260085Y64867369D01*
X48550342Y64576605D01*
X49184931Y64313100D01*
X49872054Y64312501D01*
X50376825Y64521068D01*
X50376825Y58748121D01*
X49919946Y58839000D01*
X49140054Y58839000D01*
X48493702Y58710433D01*
X47945751Y58344303D01*
X47579621Y57796352D01*
X47451054Y57150000D01*
X47579621Y56503648D01*
X47945751Y55955697D01*
X48059039Y55880000D01*
X47945751Y55804303D01*
X47579621Y55256352D01*
X47451054Y54610000D01*
X47579621Y53963648D01*
X47945751Y53415697D01*
X48059039Y53340000D01*
X47945751Y53264303D01*
X47579621Y52716352D01*
X47451054Y52070000D01*
X47579621Y51423648D01*
X47945751Y50875697D01*
X48059039Y50800000D01*
X47945751Y50724303D01*
X47579621Y50176352D01*
X47451054Y49530000D01*
X47579621Y48883648D01*
X47945751Y48335697D01*
X48059039Y48260000D01*
X47945751Y48184303D01*
X47579621Y47636352D01*
X47451054Y46990000D01*
X47579621Y46343648D01*
X47945751Y45795697D01*
X48059039Y45720000D01*
X47945751Y45644303D01*
X47579621Y45096352D01*
X47451054Y44450000D01*
X47579621Y43803648D01*
X47945751Y43255697D01*
X48059039Y43180000D01*
X47945751Y43104303D01*
X47579621Y42556352D01*
X47451054Y41910000D01*
X47579621Y41263648D01*
X47945751Y40715697D01*
X48302409Y40477385D01*
X48075500Y40294896D01*
X48056486Y40260155D01*
X46228000Y42088641D01*
X46228000Y49530000D01*
X46140994Y49967407D01*
X45893223Y50338223D01*
X42132946Y54098500D01*
X42718223Y54683777D01*
X42965994Y55054593D01*
X43053000Y55492000D01*
X43053000Y78266554D01*
X43207422Y78420976D01*
X43494685Y78420725D01*
X44078920Y78662126D01*
X44526303Y79108729D01*
X44768723Y79692542D01*
X44769275Y80324685D01*
X44527874Y80908920D01*
X44081271Y81356303D01*
X43497458Y81598723D01*
X42865315Y81599275D01*
X42281080Y81357874D01*
X41833697Y80911271D01*
X41591277Y80327458D01*
X41591024Y80037470D01*
X41101777Y79548223D01*
X40980116Y79366144D01*
X40835103Y79717102D01*
X40791534Y79760747D01*
X40840217Y79792074D01*
X41043203Y80089153D01*
X41114616Y80441800D01*
X41114616Y82118200D01*
X41052627Y82447644D01*
X40857926Y82750217D01*
X40560847Y82953203D01*
X40208200Y83024616D01*
X38531800Y83024616D01*
X38202356Y82962627D01*
X37973000Y82815040D01*
X37973000Y83562606D01*
X38348887Y83937837D01*
X46017443Y83937837D01*
X46116042Y83671035D01*
X46725582Y83444599D01*
X47375377Y83468659D01*
X47863958Y83671035D01*
X47962557Y83937837D01*
X48557443Y83937837D01*
X48656042Y83671035D01*
X49265582Y83444599D01*
X49915377Y83468659D01*
X50403958Y83671035D01*
X50502557Y83937837D01*
X49530000Y84910395D01*
X48557443Y83937837D01*
X47962557Y83937837D01*
X46990000Y84910395D01*
X46017443Y83937837D01*
X38348887Y83937837D01*
X38430051Y84018859D01*
X38718162Y84712708D01*
X38718721Y85354418D01*
X45344599Y85354418D01*
X45368659Y84704623D01*
X45571035Y84216042D01*
X45837837Y84117443D01*
X46810395Y85090000D01*
X47169605Y85090000D01*
X48142163Y84117443D01*
X48260000Y84160991D01*
X48377837Y84117443D01*
X49350395Y85090000D01*
X49709605Y85090000D01*
X50682163Y84117443D01*
X50948965Y84216042D01*
X51134694Y84716004D01*
X57801183Y84716004D01*
X58088082Y84021654D01*
X58618859Y83489949D01*
X59312708Y83201838D01*
X60063996Y83201183D01*
X60758346Y83488082D01*
X61290051Y84018859D01*
X61578162Y84712708D01*
X61578164Y84716004D01*
X65421183Y84716004D01*
X65708082Y84021654D01*
X66238859Y83489949D01*
X66932708Y83201838D01*
X67683996Y83201183D01*
X68378346Y83488082D01*
X68828887Y83937837D01*
X76497443Y83937837D01*
X76596042Y83671035D01*
X77205582Y83444599D01*
X77855377Y83468659D01*
X78343958Y83671035D01*
X78442557Y83937837D01*
X79037443Y83937837D01*
X79136042Y83671035D01*
X79745582Y83444599D01*
X80395377Y83468659D01*
X80883958Y83671035D01*
X80982557Y83937837D01*
X80010000Y84910395D01*
X79037443Y83937837D01*
X78442557Y83937837D01*
X77470000Y84910395D01*
X76497443Y83937837D01*
X68828887Y83937837D01*
X68910051Y84018859D01*
X69198162Y84712708D01*
X69198721Y85354418D01*
X75824599Y85354418D01*
X75848659Y84704623D01*
X76051035Y84216042D01*
X76317837Y84117443D01*
X77290395Y85090000D01*
X77649605Y85090000D01*
X78622163Y84117443D01*
X78740000Y84160991D01*
X78857837Y84117443D01*
X79830395Y85090000D01*
X80189605Y85090000D01*
X81162163Y84117443D01*
X81428965Y84216042D01*
X81614694Y84716004D01*
X88281183Y84716004D01*
X88568082Y84021654D01*
X89098859Y83489949D01*
X89792708Y83201838D01*
X90543996Y83201183D01*
X90641633Y83241526D01*
X118998494Y83241526D01*
X119442253Y82167548D01*
X120263226Y81345140D01*
X121336428Y80899508D01*
X122498474Y80898494D01*
X123572452Y81342253D01*
X124394860Y82163226D01*
X124840492Y83236428D01*
X124841506Y84398474D01*
X124397747Y85472452D01*
X123576774Y86294860D01*
X122503572Y86740492D01*
X121341526Y86741506D01*
X120267548Y86297747D01*
X119445140Y85476774D01*
X118999508Y84403572D01*
X118998494Y83241526D01*
X90641633Y83241526D01*
X91238346Y83488082D01*
X91770051Y84018859D01*
X92058162Y84712708D01*
X92058817Y85463996D01*
X91771918Y86158346D01*
X91241141Y86690051D01*
X90547292Y86978162D01*
X89796004Y86978817D01*
X89101654Y86691918D01*
X88569949Y86161141D01*
X88281838Y85467292D01*
X88281183Y84716004D01*
X81614694Y84716004D01*
X81655401Y84825582D01*
X81631341Y85475377D01*
X81428965Y85963958D01*
X81162163Y86062557D01*
X80189605Y85090000D01*
X79830395Y85090000D01*
X78857837Y86062557D01*
X78740000Y86019009D01*
X78622163Y86062557D01*
X77649605Y85090000D01*
X77290395Y85090000D01*
X76317837Y86062557D01*
X76051035Y85963958D01*
X75824599Y85354418D01*
X69198721Y85354418D01*
X69198817Y85463996D01*
X68911918Y86158346D01*
X68828248Y86242163D01*
X76497443Y86242163D01*
X77470000Y85269605D01*
X78442557Y86242163D01*
X79037443Y86242163D01*
X80010000Y85269605D01*
X80982557Y86242163D01*
X80883958Y86508965D01*
X80274418Y86735401D01*
X79624623Y86711341D01*
X79136042Y86508965D01*
X79037443Y86242163D01*
X78442557Y86242163D01*
X78343958Y86508965D01*
X77734418Y86735401D01*
X77084623Y86711341D01*
X76596042Y86508965D01*
X76497443Y86242163D01*
X68828248Y86242163D01*
X68381141Y86690051D01*
X67687292Y86978162D01*
X66936004Y86978817D01*
X66241654Y86691918D01*
X65709949Y86161141D01*
X65421838Y85467292D01*
X65421183Y84716004D01*
X61578164Y84716004D01*
X61578817Y85463996D01*
X61291918Y86158346D01*
X60761141Y86690051D01*
X60067292Y86978162D01*
X59316004Y86978817D01*
X58621654Y86691918D01*
X58089949Y86161141D01*
X57801838Y85467292D01*
X57801183Y84716004D01*
X51134694Y84716004D01*
X51175401Y84825582D01*
X51151341Y85475377D01*
X50948965Y85963958D01*
X50682163Y86062557D01*
X49709605Y85090000D01*
X49350395Y85090000D01*
X48377837Y86062557D01*
X48260000Y86019009D01*
X48142163Y86062557D01*
X47169605Y85090000D01*
X46810395Y85090000D01*
X45837837Y86062557D01*
X45571035Y85963958D01*
X45344599Y85354418D01*
X38718721Y85354418D01*
X38718817Y85463996D01*
X38431918Y86158346D01*
X38348248Y86242163D01*
X46017443Y86242163D01*
X46990000Y85269605D01*
X47962557Y86242163D01*
X48557443Y86242163D01*
X49530000Y85269605D01*
X50502557Y86242163D01*
X50403958Y86508965D01*
X49794418Y86735401D01*
X49144623Y86711341D01*
X48656042Y86508965D01*
X48557443Y86242163D01*
X47962557Y86242163D01*
X47863958Y86508965D01*
X47254418Y86735401D01*
X46604623Y86711341D01*
X46116042Y86508965D01*
X46017443Y86242163D01*
X38348248Y86242163D01*
X37901141Y86690051D01*
X37207292Y86978162D01*
X36456004Y86978817D01*
X35761654Y86691918D01*
X35229949Y86161141D01*
X34941838Y85467292D01*
X34941183Y84716004D01*
X35228082Y84021654D01*
X35687000Y83561934D01*
X35687000Y72224220D01*
X35483697Y72021271D01*
X35241277Y71437458D01*
X35240725Y70805315D01*
X35482126Y70221080D01*
X35928729Y69773697D01*
X36512542Y69531277D01*
X37144685Y69530725D01*
X37728920Y69772126D01*
X38176303Y70218729D01*
X38418723Y70802542D01*
X38419275Y71434685D01*
X38177874Y72018920D01*
X37973000Y72224152D01*
X37973000Y72614676D01*
X38390342Y72196605D01*
X39024931Y71933100D01*
X39712054Y71932501D01*
X40347102Y72194897D01*
X40767000Y72614063D01*
X40767000Y69625324D01*
X40349658Y70043395D01*
X39715069Y70306900D01*
X39027946Y70307499D01*
X38392898Y70045103D01*
X37906605Y69559658D01*
X37643100Y68925069D01*
X37642501Y68237946D01*
X37904897Y67602898D01*
X38197369Y67309915D01*
X37906605Y67019658D01*
X37643100Y66385069D01*
X37642501Y65697946D01*
X37904897Y65062898D01*
X38390342Y64576605D01*
X39024931Y64313100D01*
X39712054Y64312501D01*
X40347102Y64574897D01*
X40767000Y64994063D01*
X40767000Y58469419D01*
X40406298Y58710433D01*
X39759946Y58839000D01*
X38980054Y58839000D01*
X38333702Y58710433D01*
X37785751Y58344303D01*
X37419621Y57796352D01*
X37291054Y57150000D01*
X37419621Y56503648D01*
X37785751Y55955697D01*
X37899039Y55880000D01*
X37785751Y55804303D01*
X37419621Y55256352D01*
X37291054Y54610000D01*
X37372216Y54201970D01*
X37291777Y54148223D01*
X36903767Y53760213D01*
X36655996Y53389397D01*
X36568990Y52951990D01*
X36568990Y51188010D01*
X36655996Y50750603D01*
X36903767Y50379787D01*
X37291777Y49991777D01*
X37662593Y49744006D01*
X37707153Y49735142D01*
X37750085Y49657000D01*
X39243000Y49657000D01*
X39243000Y49677000D01*
X39497000Y49677000D01*
X39497000Y49657000D01*
X39517000Y49657000D01*
X39517000Y49403000D01*
X39497000Y49403000D01*
X39497000Y49383000D01*
X39243000Y49383000D01*
X39243000Y49403000D01*
X37750085Y49403000D01*
X37628096Y49180961D01*
X37645633Y49098181D01*
X37915500Y48605104D01*
X38142409Y48422615D01*
X37785751Y48184303D01*
X37419621Y47636352D01*
X37291054Y46990000D01*
X37419621Y46343648D01*
X37785751Y45795697D01*
X37899039Y45720000D01*
X37785751Y45644303D01*
X37419621Y45096352D01*
X37291054Y44450000D01*
X37419621Y43803648D01*
X37785751Y43255697D01*
X37899039Y43180000D01*
X37785751Y43104303D01*
X37419621Y42556352D01*
X37396909Y42442171D01*
X35872369Y40917631D01*
X35542008Y40423210D01*
X35426000Y39840000D01*
X35426000Y37860000D01*
X35542008Y37276790D01*
X35781082Y36918990D01*
X35872369Y36782369D01*
X39116000Y33538738D01*
X39116000Y33091220D01*
X39024896Y33204500D01*
X38531819Y33474367D01*
X38449039Y33491904D01*
X38227000Y33369915D01*
X38227000Y31877000D01*
X38247000Y31877000D01*
X38247000Y31623000D01*
X38227000Y31623000D01*
X38227000Y30130085D01*
X38449039Y30008096D01*
X38531819Y30025633D01*
X39024896Y30295500D01*
X39116000Y30408780D01*
X39116000Y27651262D01*
X37567829Y26103091D01*
X37453648Y26080379D01*
X36905697Y25714249D01*
X36865440Y25654000D01*
X36794560Y25654000D01*
X36754303Y25714249D01*
X36206352Y26080379D01*
X35903202Y26140679D01*
X34797241Y27246641D01*
X34444032Y27482647D01*
X34302820Y27577002D01*
X33719610Y27693010D01*
X24091313Y27693010D01*
X19644378Y32139946D01*
X21171000Y32139946D01*
X21171000Y31360054D01*
X21299567Y30713702D01*
X21665697Y30165751D01*
X22213648Y29799621D01*
X22860000Y29671054D01*
X23506352Y29799621D01*
X24054303Y30165751D01*
X24130000Y30279039D01*
X24205697Y30165751D01*
X24753648Y29799621D01*
X25400000Y29671054D01*
X26046352Y29799621D01*
X26594303Y30165751D01*
X26670000Y30279039D01*
X26745697Y30165751D01*
X27293648Y29799621D01*
X27940000Y29671054D01*
X28586352Y29799621D01*
X29134303Y30165751D01*
X29210000Y30279039D01*
X29285697Y30165751D01*
X29833648Y29799621D01*
X30480000Y29671054D01*
X31126352Y29799621D01*
X31674303Y30165751D01*
X31750000Y30279039D01*
X31825697Y30165751D01*
X32373648Y29799621D01*
X33020000Y29671054D01*
X33666352Y29799621D01*
X34214303Y30165751D01*
X34290000Y30279039D01*
X34365697Y30165751D01*
X34913648Y29799621D01*
X35560000Y29671054D01*
X36206352Y29799621D01*
X36754303Y30165751D01*
X36992615Y30522409D01*
X37175104Y30295500D01*
X37668181Y30025633D01*
X37750961Y30008096D01*
X37973000Y30130085D01*
X37973000Y31623000D01*
X37953000Y31623000D01*
X37953000Y31877000D01*
X37973000Y31877000D01*
X37973000Y33369915D01*
X37750961Y33491904D01*
X37668181Y33474367D01*
X37175104Y33204500D01*
X36992615Y32977591D01*
X36754303Y33334249D01*
X36206352Y33700379D01*
X35560000Y33828946D01*
X34913648Y33700379D01*
X34365697Y33334249D01*
X34290000Y33220961D01*
X34214303Y33334249D01*
X33666352Y33700379D01*
X33020000Y33828946D01*
X32373648Y33700379D01*
X31825697Y33334249D01*
X31750000Y33220961D01*
X31674303Y33334249D01*
X31126352Y33700379D01*
X30480000Y33828946D01*
X29833648Y33700379D01*
X29285697Y33334249D01*
X29210000Y33220961D01*
X29134303Y33334249D01*
X28586352Y33700379D01*
X27940000Y33828946D01*
X27293648Y33700379D01*
X26745697Y33334249D01*
X26670000Y33220961D01*
X26594303Y33334249D01*
X26046352Y33700379D01*
X25400000Y33828946D01*
X24753648Y33700379D01*
X24205697Y33334249D01*
X24130000Y33220961D01*
X24054303Y33334249D01*
X23506352Y33700379D01*
X22860000Y33828946D01*
X22213648Y33700379D01*
X21665697Y33334249D01*
X21299567Y32786298D01*
X21171000Y32139946D01*
X19644378Y32139946D01*
X19307213Y32477111D01*
X18812792Y32807472D01*
X18229582Y32923480D01*
X14086476Y32923480D01*
X14086476Y33149540D01*
X14024487Y33478984D01*
X13829786Y33781557D01*
X13532707Y33984543D01*
X13180060Y34055956D01*
X9679940Y34055956D01*
X9350496Y33993967D01*
X9047923Y33799266D01*
X8844937Y33502187D01*
X8773524Y33149540D01*
X8773524Y29649420D01*
X8835513Y29319976D01*
X9030214Y29017403D01*
X9327293Y28814417D01*
X9679940Y28743004D01*
X13180060Y28743004D01*
X13509504Y28804993D01*
X13743940Y28955849D01*
X13743940Y28685490D01*
X13902690Y28526740D01*
X16002000Y28526740D01*
X16002000Y28546740D01*
X16256000Y28546740D01*
X16256000Y28526740D01*
X18355310Y28526740D01*
X18514060Y28685490D01*
X18514060Y28959740D01*
X21721959Y25751842D01*
X21665697Y25714249D01*
X21299567Y25166298D01*
X21171000Y24519946D01*
X21171000Y23740054D01*
X21299567Y23093702D01*
X21665697Y22545751D01*
X22213648Y22179621D01*
X22860000Y22051054D01*
X23506352Y22179621D01*
X24054303Y22545751D01*
X24130000Y22659039D01*
X24205697Y22545751D01*
X24753648Y22179621D01*
X25400000Y22051054D01*
X26046352Y22179621D01*
X26594303Y22545751D01*
X26670000Y22659039D01*
X26745697Y22545751D01*
X27293648Y22179621D01*
X27940000Y22051054D01*
X28586352Y22179621D01*
X29134303Y22545751D01*
X29210000Y22659039D01*
X29285697Y22545751D01*
X29833648Y22179621D01*
X30480000Y22051054D01*
X31126352Y22179621D01*
X31674303Y22545751D01*
X31750000Y22659039D01*
X31825697Y22545751D01*
X32373648Y22179621D01*
X33020000Y22051054D01*
X33666352Y22179621D01*
X34214303Y22545751D01*
X34290000Y22659039D01*
X34365697Y22545751D01*
X34913648Y22179621D01*
X35560000Y22051054D01*
X36206352Y22179621D01*
X36576000Y22426612D01*
X36576000Y22020000D01*
X36692008Y21436790D01*
X36929071Y21082000D01*
X37022369Y20942369D01*
X37388322Y20576416D01*
X37360000Y20576416D01*
X37030556Y20514427D01*
X36727983Y20319726D01*
X36524997Y20022647D01*
X36453584Y19670000D01*
X36453584Y18270000D01*
X36515573Y17940556D01*
X36710274Y17637983D01*
X37007353Y17434997D01*
X37360000Y17363584D01*
X37973000Y17363584D01*
X37973000Y15302243D01*
X37722560Y15288664D01*
X37366169Y15141042D01*
X37304331Y14905275D01*
X37973000Y14236605D01*
X37973000Y13703395D01*
X37304331Y13034725D01*
X37366169Y12798958D01*
X37867122Y12622581D01*
X37973000Y12628322D01*
X37973000Y964000D01*
X964000Y964000D01*
X964000Y4501526D01*
X2158494Y4501526D01*
X2602253Y3427548D01*
X3423226Y2605140D01*
X4496428Y2159508D01*
X5658474Y2158494D01*
X6732452Y2602253D01*
X7554860Y3423226D01*
X8000492Y4496428D01*
X8001506Y5658474D01*
X7557747Y6732452D01*
X6736774Y7554860D01*
X5663572Y8000492D01*
X4501526Y8001506D01*
X3427548Y7557747D01*
X2605140Y6736774D01*
X2159508Y5663572D01*
X2158494Y4501526D01*
X964000Y4501526D01*
X964000Y14162878D01*
X36712581Y14162878D01*
X36741336Y13632560D01*
X36888958Y13276169D01*
X37124725Y13214331D01*
X37880395Y13970000D01*
X37124725Y14725669D01*
X36888958Y14663831D01*
X36712581Y14162878D01*
X964000Y14162878D01*
X964000Y25114250D01*
X9044940Y25114250D01*
X9044940Y23523631D01*
X9141613Y23290242D01*
X9320241Y23111613D01*
X9553630Y23014940D01*
X11144250Y23014940D01*
X11303000Y23173690D01*
X11303000Y25273000D01*
X11557000Y25273000D01*
X11557000Y23173690D01*
X11715750Y23014940D01*
X13306370Y23014940D01*
X13539759Y23111613D01*
X13718387Y23290242D01*
X13815060Y23523631D01*
X13815060Y25114250D01*
X13656310Y25273000D01*
X11557000Y25273000D01*
X11303000Y25273000D01*
X9203690Y25273000D01*
X9044940Y25114250D01*
X964000Y25114250D01*
X964000Y27276369D01*
X9044940Y27276369D01*
X9044940Y25685750D01*
X9203690Y25527000D01*
X11303000Y25527000D01*
X11303000Y27626310D01*
X11557000Y27626310D01*
X11557000Y25527000D01*
X13656310Y25527000D01*
X13815060Y25685750D01*
X13815060Y26351672D01*
X13840613Y26289982D01*
X14019241Y26111353D01*
X14252630Y26014680D01*
X15843250Y26014680D01*
X16002000Y26173430D01*
X16002000Y28272740D01*
X16256000Y28272740D01*
X16256000Y26173430D01*
X16414750Y26014680D01*
X18005370Y26014680D01*
X18238759Y26111353D01*
X18417387Y26289982D01*
X18514060Y26523371D01*
X18514060Y28113990D01*
X18355310Y28272740D01*
X16256000Y28272740D01*
X16002000Y28272740D01*
X13902690Y28272740D01*
X13743940Y28113990D01*
X13743940Y27448068D01*
X13718387Y27509758D01*
X13539759Y27688387D01*
X13306370Y27785060D01*
X11715750Y27785060D01*
X11557000Y27626310D01*
X11303000Y27626310D01*
X11144250Y27785060D01*
X9553630Y27785060D01*
X9320241Y27688387D01*
X9141613Y27509758D01*
X9044940Y27276369D01*
X964000Y27276369D01*
X964000Y39020961D01*
X30008096Y39020961D01*
X30025633Y38938181D01*
X30295500Y38445104D01*
X30733517Y38092834D01*
X31273000Y37935000D01*
X31623000Y37935000D01*
X31623000Y39243000D01*
X31877000Y39243000D01*
X31877000Y37935000D01*
X32227000Y37935000D01*
X32766483Y38092834D01*
X33204500Y38445104D01*
X33474367Y38938181D01*
X33491904Y39020961D01*
X33369915Y39243000D01*
X31877000Y39243000D01*
X31623000Y39243000D01*
X30130085Y39243000D01*
X30008096Y39020961D01*
X964000Y39020961D01*
X964000Y50221526D01*
X2158494Y50221526D01*
X2602253Y49147548D01*
X3423226Y48325140D01*
X4496428Y47879508D01*
X5658474Y47878494D01*
X6732452Y48322253D01*
X7554860Y49143226D01*
X8000492Y50216428D01*
X8001506Y51378474D01*
X7557747Y52452452D01*
X6736774Y53274860D01*
X5663572Y53720492D01*
X4501526Y53721506D01*
X3427548Y53277747D01*
X2605140Y52456774D01*
X2159508Y51383572D01*
X2158494Y50221526D01*
X964000Y50221526D01*
X964000Y57150000D01*
X29671054Y57150000D01*
X29799621Y56503648D01*
X30165751Y55955697D01*
X30279039Y55880000D01*
X30165751Y55804303D01*
X29799621Y55256352D01*
X29671054Y54610000D01*
X29799621Y53963648D01*
X30165751Y53415697D01*
X30279039Y53340000D01*
X30165751Y53264303D01*
X29799621Y52716352D01*
X29671054Y52070000D01*
X29799621Y51423648D01*
X30165751Y50875697D01*
X30279039Y50800000D01*
X30165751Y50724303D01*
X29799621Y50176352D01*
X29671054Y49530000D01*
X29799621Y48883648D01*
X30165751Y48335697D01*
X30279039Y48260000D01*
X30165751Y48184303D01*
X29799621Y47636352D01*
X29671054Y46990000D01*
X29799621Y46343648D01*
X30165751Y45795697D01*
X30279039Y45720000D01*
X30165751Y45644303D01*
X29799621Y45096352D01*
X29671054Y44450000D01*
X29799621Y43803648D01*
X30165751Y43255697D01*
X30279039Y43180000D01*
X30165751Y43104303D01*
X29799621Y42556352D01*
X29671054Y41910000D01*
X29799621Y41263648D01*
X30165751Y40715697D01*
X30522409Y40477385D01*
X30295500Y40294896D01*
X30025633Y39801819D01*
X30008096Y39719039D01*
X30130085Y39497000D01*
X31623000Y39497000D01*
X31623000Y39517000D01*
X31877000Y39517000D01*
X31877000Y39497000D01*
X33369915Y39497000D01*
X33491904Y39719039D01*
X33474367Y39801819D01*
X33204500Y40294896D01*
X32977591Y40477385D01*
X33334249Y40715697D01*
X33700379Y41263648D01*
X33828946Y41910000D01*
X33700379Y42556352D01*
X33334249Y43104303D01*
X33220961Y43180000D01*
X33334249Y43255697D01*
X33700379Y43803648D01*
X33828946Y44450000D01*
X33700379Y45096352D01*
X33334249Y45644303D01*
X33220961Y45720000D01*
X33334249Y45795697D01*
X33700379Y46343648D01*
X33828946Y46990000D01*
X33700379Y47636352D01*
X33334249Y48184303D01*
X33220961Y48260000D01*
X33334249Y48335697D01*
X33700379Y48883648D01*
X33828946Y49530000D01*
X33810281Y49623835D01*
X35098223Y50911777D01*
X35345994Y51282593D01*
X35433000Y51720000D01*
X35433000Y66205780D01*
X35636303Y66408729D01*
X35878723Y66992542D01*
X35879275Y67624685D01*
X35637874Y68208920D01*
X35191271Y68656303D01*
X34607458Y68898723D01*
X33975315Y68899275D01*
X33391080Y68657874D01*
X32943697Y68211271D01*
X32701277Y67627458D01*
X32700725Y66995315D01*
X32942126Y66411080D01*
X33147000Y66205848D01*
X33147000Y58469419D01*
X32786298Y58710433D01*
X32139946Y58839000D01*
X31360054Y58839000D01*
X30713702Y58710433D01*
X30165751Y58344303D01*
X29799621Y57796352D01*
X29671054Y57150000D01*
X964000Y57150000D01*
X964000Y83241526D01*
X2158494Y83241526D01*
X2602253Y82167548D01*
X3423226Y81345140D01*
X4496428Y80899508D01*
X5658474Y80898494D01*
X6732452Y81342253D01*
X7554860Y82163226D01*
X8000492Y83236428D01*
X8001506Y84398474D01*
X7557747Y85472452D01*
X6736774Y86294860D01*
X5663572Y86740492D01*
X4501526Y86741506D01*
X3427548Y86297747D01*
X2605140Y85476774D01*
X2159508Y84403572D01*
X2158494Y83241526D01*
X964000Y83241526D01*
X964000Y87936000D01*
X126036000Y87936000D01*
X126036000Y964000D01*
X126036000Y964000D01*
G37*
X126036000Y964000D02*
X56007000Y964000D01*
X56007000Y5731398D01*
X56253996Y5731183D01*
X56948346Y6018082D01*
X57149886Y6219270D01*
X57348859Y6019949D01*
X58042708Y5731838D01*
X58793996Y5731183D01*
X58866064Y5760961D01*
X80808096Y5760961D01*
X80825633Y5678181D01*
X81095500Y5185104D01*
X81533517Y4832834D01*
X82073000Y4675000D01*
X82423000Y4675000D01*
X82423000Y5983000D01*
X82677000Y5983000D01*
X82677000Y4675000D01*
X83027000Y4675000D01*
X83566483Y4832834D01*
X84004500Y5185104D01*
X84274367Y5678181D01*
X84291904Y5760961D01*
X84169915Y5983000D01*
X82677000Y5983000D01*
X82423000Y5983000D01*
X80930085Y5983000D01*
X80808096Y5760961D01*
X58866064Y5760961D01*
X59488346Y6018082D01*
X60020051Y6548859D01*
X60308162Y7242708D01*
X60308643Y7794725D01*
X76714331Y7794725D01*
X76776169Y7558958D01*
X77277122Y7382581D01*
X77807440Y7411336D01*
X78163831Y7558958D01*
X78225669Y7794725D01*
X77470000Y8550395D01*
X76714331Y7794725D01*
X60308643Y7794725D01*
X60308817Y7993996D01*
X60021918Y8688346D01*
X59787796Y8922878D01*
X76122581Y8922878D01*
X76151336Y8392560D01*
X76298958Y8036169D01*
X76534725Y7974331D01*
X77290395Y8730000D01*
X77649605Y8730000D01*
X78405275Y7974331D01*
X78641042Y8036169D01*
X78817419Y8537122D01*
X78788664Y9067440D01*
X78641042Y9423831D01*
X78405275Y9485669D01*
X77649605Y8730000D01*
X77290395Y8730000D01*
X76534725Y9485669D01*
X76298958Y9423831D01*
X76122581Y8922878D01*
X59787796Y8922878D01*
X59491141Y9220051D01*
X58797292Y9508162D01*
X58046004Y9508817D01*
X57351654Y9221918D01*
X57150114Y9020730D01*
X56951141Y9220051D01*
X56257292Y9508162D01*
X56147004Y9508258D01*
X56134000Y9521262D01*
X56134000Y9665275D01*
X76714331Y9665275D01*
X77470000Y8909605D01*
X78225669Y9665275D01*
X78163831Y9901042D01*
X77662878Y10077419D01*
X77132560Y10048664D01*
X76776169Y9901042D01*
X76714331Y9665275D01*
X56134000Y9665275D01*
X56134000Y15240000D01*
X56017992Y15823210D01*
X56007000Y15839661D01*
X56007000Y15891398D01*
X56253996Y15891183D01*
X56948346Y16178082D01*
X57149886Y16379270D01*
X57348859Y16179949D01*
X58042708Y15891838D01*
X58793996Y15891183D01*
X59488346Y16178082D01*
X60020051Y16708859D01*
X60308162Y17402708D01*
X60308817Y18153996D01*
X60021918Y18848346D01*
X59491141Y19380051D01*
X58797292Y19668162D01*
X58046004Y19668817D01*
X57351654Y19381918D01*
X57150114Y19180730D01*
X56951141Y19380051D01*
X56257292Y19668162D01*
X55506004Y19668817D01*
X54811654Y19381918D01*
X54279949Y18851141D01*
X53991838Y18157292D01*
X53991620Y17907000D01*
X53939661Y17907000D01*
X53923210Y17917992D01*
X53340000Y18034000D01*
X52324471Y18034000D01*
X52449000Y18660054D01*
X52449000Y19439946D01*
X52374994Y19812000D01*
X59216554Y19812000D01*
X61436179Y17592375D01*
X61806995Y17344604D01*
X62244402Y17257598D01*
X68215259Y17257598D01*
X67961838Y16647292D01*
X67961183Y15896004D01*
X68248082Y15201654D01*
X68778859Y14669949D01*
X69472708Y14381838D01*
X70223996Y14381183D01*
X70918346Y14668082D01*
X71450051Y15198859D01*
X71632032Y15637120D01*
X75617465Y11651687D01*
X75988281Y11403916D01*
X76425688Y11316910D01*
X80496298Y11316910D01*
X80471054Y11190000D01*
X80599621Y10543648D01*
X80965751Y9995697D01*
X81079039Y9920000D01*
X80965751Y9844303D01*
X80599621Y9296352D01*
X80471054Y8650000D01*
X80599621Y8003648D01*
X80965751Y7455697D01*
X81322409Y7217385D01*
X81095500Y7034896D01*
X80825633Y6541819D01*
X80808096Y6459039D01*
X80930085Y6237000D01*
X82423000Y6237000D01*
X82423000Y6257000D01*
X82677000Y6257000D01*
X82677000Y6237000D01*
X84169915Y6237000D01*
X84291904Y6459039D01*
X84274367Y6541819D01*
X84004500Y7034896D01*
X83777591Y7217385D01*
X84134249Y7455697D01*
X84500379Y8003648D01*
X84628946Y8650000D01*
X84500379Y9296352D01*
X84134249Y9844303D01*
X84020961Y9920000D01*
X84134249Y9995697D01*
X84500379Y10543648D01*
X84628946Y11190000D01*
X84603702Y11316910D01*
X86768644Y11316910D01*
X87703777Y10381777D01*
X88074593Y10134006D01*
X88512000Y10047000D01*
X88551471Y10047000D01*
X88585751Y9995697D01*
X88699039Y9920000D01*
X88585751Y9844303D01*
X88219621Y9296352D01*
X88091054Y8650000D01*
X88219621Y8003648D01*
X88585751Y7455697D01*
X88699039Y7380000D01*
X88585751Y7304303D01*
X88219621Y6756352D01*
X88091054Y6110000D01*
X88219621Y5463648D01*
X88585751Y4915697D01*
X89133702Y4549567D01*
X89780054Y4421000D01*
X90559946Y4421000D01*
X90964778Y4501526D01*
X118998494Y4501526D01*
X119442253Y3427548D01*
X120263226Y2605140D01*
X121336428Y2159508D01*
X122498474Y2158494D01*
X123572452Y2602253D01*
X124394860Y3423226D01*
X124840492Y4496428D01*
X124841506Y5658474D01*
X124397747Y6732452D01*
X123576774Y7554860D01*
X122503572Y8000492D01*
X121341526Y8001506D01*
X120267548Y7557747D01*
X119445140Y6736774D01*
X118999508Y5663572D01*
X118998494Y4501526D01*
X90964778Y4501526D01*
X91206298Y4549567D01*
X91754249Y4915697D01*
X92120379Y5463648D01*
X92248946Y6110000D01*
X92120379Y6756352D01*
X91754249Y7304303D01*
X91640961Y7380000D01*
X91754249Y7455697D01*
X92120379Y8003648D01*
X92248946Y8650000D01*
X92120379Y9296352D01*
X91754249Y9844303D01*
X91640961Y9920000D01*
X91754249Y9995697D01*
X91942769Y10277837D01*
X93007443Y10277837D01*
X93106042Y10011035D01*
X93715582Y9784599D01*
X94365377Y9808659D01*
X94853958Y10011035D01*
X94952557Y10277837D01*
X93980000Y11250395D01*
X93007443Y10277837D01*
X91942769Y10277837D01*
X92120379Y10543648D01*
X92248946Y11190000D01*
X92148612Y11694418D01*
X92334599Y11694418D01*
X92358659Y11044623D01*
X92561035Y10556042D01*
X92827837Y10457443D01*
X93800395Y11430000D01*
X94159605Y11430000D01*
X95132163Y10457443D01*
X95398965Y10556042D01*
X95584694Y11056004D01*
X102251183Y11056004D01*
X102538082Y10361654D01*
X103068859Y9829949D01*
X103762708Y9541838D01*
X104513996Y9541183D01*
X105208346Y9828082D01*
X105658887Y10277837D01*
X109517443Y10277837D01*
X109616042Y10011035D01*
X110225582Y9784599D01*
X110875377Y9808659D01*
X111363958Y10011035D01*
X111462557Y10277837D01*
X110490000Y11250395D01*
X109517443Y10277837D01*
X105658887Y10277837D01*
X105740051Y10358859D01*
X106028162Y11052708D01*
X106028721Y11694418D01*
X108844599Y11694418D01*
X108868659Y11044623D01*
X109071035Y10556042D01*
X109337837Y10457443D01*
X110310395Y11430000D01*
X110669605Y11430000D01*
X111642163Y10457443D01*
X111908965Y10556042D01*
X112094694Y11056004D01*
X118761183Y11056004D01*
X119048082Y10361654D01*
X119578859Y9829949D01*
X120272708Y9541838D01*
X121023996Y9541183D01*
X121718346Y9828082D01*
X122250051Y10358859D01*
X122538162Y11052708D01*
X122538817Y11803996D01*
X122251918Y12498346D01*
X121721141Y13030051D01*
X121027292Y13318162D01*
X120276004Y13318817D01*
X119581654Y13031918D01*
X119049949Y12501141D01*
X118761838Y11807292D01*
X118761183Y11056004D01*
X112094694Y11056004D01*
X112135401Y11165582D01*
X112111341Y11815377D01*
X111908965Y12303958D01*
X111642163Y12402557D01*
X110669605Y11430000D01*
X110310395Y11430000D01*
X109337837Y12402557D01*
X109071035Y12303958D01*
X108844599Y11694418D01*
X106028721Y11694418D01*
X106028817Y11803996D01*
X105741918Y12498346D01*
X105664000Y12576400D01*
X105664000Y12582163D01*
X109517443Y12582163D01*
X110490000Y11609605D01*
X111462557Y12582163D01*
X111363958Y12848965D01*
X110754418Y13075401D01*
X110104623Y13051341D01*
X109616042Y12848965D01*
X109517443Y12582163D01*
X105664000Y12582163D01*
X105664000Y15759601D01*
X105733522Y15863648D01*
X105862089Y16510000D01*
X111307911Y16510000D01*
X111436478Y15863648D01*
X111802608Y15315697D01*
X112350559Y14949567D01*
X112996911Y14821000D01*
X113063089Y14821000D01*
X113709441Y14949567D01*
X114257392Y15315697D01*
X114623522Y15863648D01*
X114752089Y16510000D01*
X118927911Y16510000D01*
X119056478Y15863648D01*
X119422608Y15315697D01*
X119970559Y14949567D01*
X120616911Y14821000D01*
X120683089Y14821000D01*
X121329441Y14949567D01*
X121877392Y15315697D01*
X122243522Y15863648D01*
X122372089Y16510000D01*
X122243522Y17156352D01*
X121877392Y17704303D01*
X121329441Y18070433D01*
X120683089Y18199000D01*
X120616911Y18199000D01*
X119970559Y18070433D01*
X119422608Y17704303D01*
X119056478Y17156352D01*
X118927911Y16510000D01*
X114752089Y16510000D01*
X114623522Y17156352D01*
X114257392Y17704303D01*
X113709441Y18070433D01*
X113063089Y18199000D01*
X112996911Y18199000D01*
X112350559Y18070433D01*
X111802608Y17704303D01*
X111436478Y17156352D01*
X111307911Y16510000D01*
X105862089Y16510000D01*
X105733522Y17156352D01*
X105367392Y17704303D01*
X104819441Y18070433D01*
X104173089Y18199000D01*
X104106911Y18199000D01*
X103460559Y18070433D01*
X102912608Y17704303D01*
X102546478Y17156352D01*
X102417911Y16510000D01*
X102546478Y15863648D01*
X102616000Y15759601D01*
X102616000Y12577059D01*
X102539949Y12501141D01*
X102251838Y11807292D01*
X102251183Y11056004D01*
X95584694Y11056004D01*
X95625401Y11165582D01*
X95601341Y11815377D01*
X95398965Y12303958D01*
X95132163Y12402557D01*
X94159605Y11430000D01*
X93800395Y11430000D01*
X92827837Y12402557D01*
X92561035Y12303958D01*
X92334599Y11694418D01*
X92148612Y11694418D01*
X92120379Y11836352D01*
X91754249Y12384303D01*
X91640961Y12460000D01*
X91754249Y12535697D01*
X91785296Y12582163D01*
X93007443Y12582163D01*
X93980000Y11609605D01*
X94952557Y12582163D01*
X94853958Y12848965D01*
X94244418Y13075401D01*
X93594623Y13051341D01*
X93106042Y12848965D01*
X93007443Y12582163D01*
X91785296Y12582163D01*
X92120379Y13083648D01*
X92248946Y13730000D01*
X92120379Y14376352D01*
X91754249Y14924303D01*
X91640961Y15000000D01*
X91754249Y15075697D01*
X92120379Y15623648D01*
X92248946Y16270000D01*
X92201208Y16510000D01*
X94797911Y16510000D01*
X94926478Y15863648D01*
X95292608Y15315697D01*
X95840559Y14949567D01*
X96486911Y14821000D01*
X96553089Y14821000D01*
X97199441Y14949567D01*
X97747392Y15315697D01*
X98113522Y15863648D01*
X98242089Y16510000D01*
X98113522Y17156352D01*
X97747392Y17704303D01*
X97199441Y18070433D01*
X96553089Y18199000D01*
X96486911Y18199000D01*
X95840559Y18070433D01*
X95292608Y17704303D01*
X94926478Y17156352D01*
X94797911Y16510000D01*
X92201208Y16510000D01*
X92120379Y16916352D01*
X91754249Y17464303D01*
X91640961Y17540000D01*
X91754249Y17615697D01*
X92120379Y18163648D01*
X92248946Y18810000D01*
X92120379Y19456352D01*
X91754249Y20004303D01*
X91640961Y20080000D01*
X91754249Y20155697D01*
X92120379Y20703648D01*
X92248946Y21350000D01*
X92201208Y21590000D01*
X94797911Y21590000D01*
X94926478Y20943648D01*
X95292608Y20395697D01*
X95840559Y20029567D01*
X96486911Y19901000D01*
X96553089Y19901000D01*
X97199441Y20029567D01*
X97747392Y20395697D01*
X98113522Y20943648D01*
X98242089Y21590000D01*
X98113522Y22236352D01*
X97747392Y22784303D01*
X97199441Y23150433D01*
X96553089Y23279000D01*
X96486911Y23279000D01*
X95840559Y23150433D01*
X95292608Y22784303D01*
X94926478Y22236352D01*
X94797911Y21590000D01*
X92201208Y21590000D01*
X92120379Y21996352D01*
X91754249Y22544303D01*
X91206298Y22910433D01*
X90559946Y23039000D01*
X89780054Y23039000D01*
X89133702Y22910433D01*
X88585751Y22544303D01*
X88219621Y21996352D01*
X88091054Y21350000D01*
X88219621Y20703648D01*
X88466612Y20334000D01*
X84253388Y20334000D01*
X84500379Y20703648D01*
X84628946Y21350000D01*
X84500379Y21996352D01*
X84134249Y22544303D01*
X83586298Y22910433D01*
X82939946Y23039000D01*
X82160054Y23039000D01*
X81513702Y22910433D01*
X81277944Y22752904D01*
X81081141Y22950051D01*
X80387292Y23238162D01*
X79636004Y23238817D01*
X79036106Y22990945D01*
X79076416Y23190000D01*
X79076416Y23955001D01*
X100158553Y23955001D01*
X102435438Y21678116D01*
X102417911Y21590000D01*
X102546478Y20943648D01*
X102912608Y20395697D01*
X103460559Y20029567D01*
X104106911Y19901000D01*
X104173089Y19901000D01*
X104819441Y20029567D01*
X105367392Y20395697D01*
X105733522Y20943648D01*
X105862089Y21590000D01*
X111307911Y21590000D01*
X111436478Y20943648D01*
X111802608Y20395697D01*
X112350559Y20029567D01*
X112996911Y19901000D01*
X113063089Y19901000D01*
X113709441Y20029567D01*
X114257392Y20395697D01*
X114623522Y20943648D01*
X114752089Y21590000D01*
X118927911Y21590000D01*
X119056478Y20943648D01*
X119422608Y20395697D01*
X119970559Y20029567D01*
X120616911Y19901000D01*
X120683089Y19901000D01*
X121329441Y20029567D01*
X121877392Y20395697D01*
X122243522Y20943648D01*
X122372089Y21590000D01*
X122243522Y22236352D01*
X121877392Y22784303D01*
X121329441Y23150433D01*
X120683089Y23279000D01*
X120616911Y23279000D01*
X119970559Y23150433D01*
X119422608Y22784303D01*
X119056478Y22236352D01*
X118927911Y21590000D01*
X114752089Y21590000D01*
X114623522Y22236352D01*
X114257392Y22784303D01*
X113709441Y23150433D01*
X113063089Y23279000D01*
X112996911Y23279000D01*
X112350559Y23150433D01*
X111802608Y22784303D01*
X111436478Y22236352D01*
X111307911Y21590000D01*
X105862089Y21590000D01*
X105733522Y22236352D01*
X105367392Y22784303D01*
X104819441Y23150433D01*
X104173089Y23279000D01*
X104106911Y23279000D01*
X104073994Y23272452D01*
X101440222Y25906224D01*
X101069406Y26153995D01*
X100631999Y26241001D01*
X91776416Y26241001D01*
X91776416Y27130000D01*
X91714427Y27459444D01*
X91694000Y27491188D01*
X91694000Y29560000D01*
X91577992Y30143210D01*
X91247631Y30637631D01*
X91247628Y30637633D01*
X84104510Y37780751D01*
X84134685Y37780725D01*
X84718920Y38022126D01*
X85166303Y38468729D01*
X85395609Y39020961D01*
X85888096Y39020961D01*
X85905633Y38938181D01*
X86175500Y38445104D01*
X86613517Y38092834D01*
X87153000Y37935000D01*
X87503000Y37935000D01*
X87503000Y39243000D01*
X87757000Y39243000D01*
X87757000Y37935000D01*
X88107000Y37935000D01*
X88646483Y38092834D01*
X89084500Y38445104D01*
X89354367Y38938181D01*
X89371904Y39020961D01*
X89249915Y39243000D01*
X87757000Y39243000D01*
X87503000Y39243000D01*
X86010085Y39243000D01*
X85888096Y39020961D01*
X85395609Y39020961D01*
X85408723Y39052542D01*
X85409011Y39382686D01*
X85575993Y39632592D01*
X85662999Y40069999D01*
X85662999Y40866553D01*
X85832017Y41035571D01*
X86045751Y40715697D01*
X86402409Y40477385D01*
X86175500Y40294896D01*
X85905633Y39801819D01*
X85888096Y39719039D01*
X86010085Y39497000D01*
X87503000Y39497000D01*
X87503000Y39517000D01*
X87757000Y39517000D01*
X87757000Y39497000D01*
X89249915Y39497000D01*
X89371904Y39719039D01*
X89354367Y39801819D01*
X89084500Y40294896D01*
X88857591Y40477385D01*
X89214249Y40715697D01*
X89580379Y41263648D01*
X89708946Y41910000D01*
X89627784Y42318030D01*
X89708223Y42371777D01*
X92876202Y45539756D01*
X93123973Y45910572D01*
X93210979Y46347979D01*
X93210979Y46789283D01*
X93299621Y46343648D01*
X93665751Y45795697D01*
X93779039Y45720000D01*
X93665751Y45644303D01*
X93299621Y45096352D01*
X93171054Y44450000D01*
X93299621Y43803648D01*
X93665751Y43255697D01*
X93779039Y43180000D01*
X93665751Y43104303D01*
X93299621Y42556352D01*
X93171054Y41910000D01*
X93299621Y41263648D01*
X93665751Y40715697D01*
X93779039Y40640000D01*
X93665751Y40564303D01*
X93299621Y40016352D01*
X93171054Y39370000D01*
X93299621Y38723648D01*
X93665751Y38175697D01*
X94213702Y37809567D01*
X94860054Y37681000D01*
X95639946Y37681000D01*
X96286298Y37809567D01*
X96834249Y38175697D01*
X97200379Y38723648D01*
X97328946Y39370000D01*
X97200379Y40016352D01*
X96834249Y40564303D01*
X96720961Y40640000D01*
X96834249Y40715697D01*
X97200379Y41263648D01*
X97328946Y41910000D01*
X97200379Y42556352D01*
X96834249Y43104303D01*
X96720961Y43180000D01*
X96834249Y43255697D01*
X97200379Y43803648D01*
X97328946Y44450000D01*
X97200379Y45096352D01*
X96834249Y45644303D01*
X96720961Y45720000D01*
X96834249Y45795697D01*
X97200379Y46343648D01*
X97328946Y46990000D01*
X97200379Y47636352D01*
X96834249Y48184303D01*
X96477591Y48422615D01*
X96704500Y48605104D01*
X96974367Y49098181D01*
X96991904Y49180961D01*
X96869915Y49403000D01*
X95377000Y49403000D01*
X95377000Y49383000D01*
X95123000Y49383000D01*
X95123000Y49403000D01*
X93630085Y49403000D01*
X93508096Y49180961D01*
X93525633Y49098181D01*
X93795500Y48605104D01*
X94022409Y48422615D01*
X93665751Y48184303D01*
X93299621Y47636352D01*
X93210979Y47190717D01*
X93210979Y50072533D01*
X93874597Y50736151D01*
X94022409Y50637385D01*
X93795500Y50454896D01*
X93525633Y49961819D01*
X93508096Y49879039D01*
X93630085Y49657000D01*
X95123000Y49657000D01*
X95123000Y49677000D01*
X95377000Y49677000D01*
X95377000Y49657000D01*
X96869915Y49657000D01*
X96991904Y49879039D01*
X96974367Y49961819D01*
X96832227Y50221526D01*
X118998494Y50221526D01*
X119442253Y49147548D01*
X120263226Y48325140D01*
X121336428Y47879508D01*
X122498474Y47878494D01*
X123572452Y48322253D01*
X124394860Y49143226D01*
X124840492Y50216428D01*
X124841506Y51378474D01*
X124397747Y52452452D01*
X123576774Y53274860D01*
X122503572Y53720492D01*
X121341526Y53721506D01*
X120267548Y53277747D01*
X119445140Y52456774D01*
X118999508Y51383572D01*
X118998494Y50221526D01*
X96832227Y50221526D01*
X96704500Y50454896D01*
X96477591Y50637385D01*
X96834249Y50875697D01*
X97200379Y51423648D01*
X97328946Y52070000D01*
X97200379Y52716352D01*
X96834249Y53264303D01*
X96720961Y53340000D01*
X96834249Y53415697D01*
X97200379Y53963648D01*
X97328946Y54610000D01*
X97200379Y55256352D01*
X96834249Y55804303D01*
X96720961Y55880000D01*
X96834249Y55955697D01*
X97200379Y56503648D01*
X97328946Y57150000D01*
X97200379Y57796352D01*
X96834249Y58344303D01*
X96286298Y58710433D01*
X95639946Y58839000D01*
X94860054Y58839000D01*
X94213702Y58710433D01*
X93665751Y58344303D01*
X93299621Y57796352D01*
X93171054Y57150000D01*
X93299621Y56503648D01*
X93665751Y55955697D01*
X93779039Y55880000D01*
X93665751Y55804303D01*
X93299621Y55256352D01*
X93171054Y54610000D01*
X93299621Y53963648D01*
X93665751Y53415697D01*
X93779039Y53340000D01*
X93665751Y53264303D01*
X93631471Y53213000D01*
X93592000Y53213000D01*
X93154593Y53125994D01*
X92783777Y52878223D01*
X91259756Y51354202D01*
X91011985Y50983386D01*
X90924979Y50545979D01*
X90924979Y46821425D01*
X89427983Y45324429D01*
X89214249Y45644303D01*
X89100961Y45720000D01*
X89214249Y45795697D01*
X89580379Y46343648D01*
X89708946Y46990000D01*
X89580379Y47636352D01*
X89214249Y48184303D01*
X89100961Y48260000D01*
X89214249Y48335697D01*
X89580379Y48883648D01*
X89708946Y49530000D01*
X89580379Y50176352D01*
X89214249Y50724303D01*
X89100961Y50800000D01*
X89214249Y50875697D01*
X89580379Y51423648D01*
X89708946Y52070000D01*
X89580379Y52716352D01*
X89214249Y53264303D01*
X89100961Y53340000D01*
X89214249Y53415697D01*
X89580379Y53963648D01*
X89708946Y54610000D01*
X89580379Y55256352D01*
X89214249Y55804303D01*
X89100961Y55880000D01*
X89214249Y55955697D01*
X89580379Y56503648D01*
X89708946Y57150000D01*
X89580379Y57796352D01*
X89214249Y58344303D01*
X88666298Y58710433D01*
X88019946Y58839000D01*
X87240054Y58839000D01*
X86593702Y58710433D01*
X86045751Y58344303D01*
X85679621Y57796352D01*
X85551054Y57150000D01*
X85679621Y56503648D01*
X86045751Y55955697D01*
X86159039Y55880000D01*
X86045751Y55804303D01*
X85679621Y55256352D01*
X85551054Y54610000D01*
X85679621Y53963648D01*
X86045751Y53415697D01*
X86159039Y53340000D01*
X86045751Y53264303D01*
X85679621Y52716352D01*
X85551054Y52070000D01*
X85679621Y51423648D01*
X86045751Y50875697D01*
X86159039Y50800000D01*
X86045751Y50724303D01*
X85691827Y50194619D01*
X84963000Y50923446D01*
X84963000Y68237946D01*
X85902501Y68237946D01*
X86164897Y67602898D01*
X86457369Y67309915D01*
X86166605Y67019658D01*
X85903100Y66385069D01*
X85902501Y65697946D01*
X86164897Y65062898D01*
X86650342Y64576605D01*
X87284931Y64313100D01*
X87972054Y64312501D01*
X88607102Y64574897D01*
X89093395Y65060342D01*
X89356900Y65694931D01*
X89357499Y66382054D01*
X89095103Y67017102D01*
X88802631Y67310085D01*
X89093395Y67600342D01*
X89356900Y68234931D01*
X89357499Y68922054D01*
X89095103Y69557102D01*
X88609658Y70043395D01*
X87975069Y70306900D01*
X87287946Y70307499D01*
X86652898Y70045103D01*
X86166605Y69559658D01*
X85903100Y68925069D01*
X85902501Y68237946D01*
X84963000Y68237946D01*
X84963000Y80175780D01*
X85166303Y80378729D01*
X85398509Y80937946D01*
X85902501Y80937946D01*
X86164897Y80302898D01*
X86457369Y80009915D01*
X86166605Y79719658D01*
X85903100Y79085069D01*
X85902501Y78397946D01*
X86164897Y77762898D01*
X86457369Y77469915D01*
X86166605Y77179658D01*
X85903100Y76545069D01*
X85902501Y75857946D01*
X86164897Y75222898D01*
X86650342Y74736605D01*
X87284931Y74473100D01*
X87972054Y74472501D01*
X88607102Y74734897D01*
X89093395Y75220342D01*
X89356900Y75854931D01*
X89357499Y76542054D01*
X89095103Y77177102D01*
X88802631Y77470085D01*
X89093395Y77760342D01*
X89356900Y78394931D01*
X89357499Y79082054D01*
X89095103Y79717102D01*
X88802631Y80010085D01*
X89093395Y80300342D01*
X89356900Y80934931D01*
X89357499Y81622054D01*
X89095103Y82257102D01*
X88609658Y82743395D01*
X87975069Y83006900D01*
X87287946Y83007499D01*
X86652898Y82745103D01*
X86166605Y82259658D01*
X85903100Y81625069D01*
X85902501Y80937946D01*
X85398509Y80937946D01*
X85408723Y80962542D01*
X85409275Y81594685D01*
X85167874Y82178920D01*
X84721271Y82626303D01*
X84137458Y82868723D01*
X83505315Y82869275D01*
X82921080Y82627874D01*
X82473697Y82181271D01*
X82231277Y81597458D01*
X82230725Y80965315D01*
X82472126Y80381080D01*
X82524092Y80329023D01*
X82235315Y80329275D01*
X81685854Y80102242D01*
X81754616Y80441800D01*
X81754616Y82118200D01*
X81692627Y82447644D01*
X81497926Y82750217D01*
X81200847Y82953203D01*
X80848200Y83024616D01*
X79171800Y83024616D01*
X78842356Y82962627D01*
X78539783Y82767926D01*
X78493211Y82699766D01*
X78449658Y82743395D01*
X77815069Y83006900D01*
X77127946Y83007499D01*
X76492898Y82745103D01*
X76102107Y82354994D01*
X75831271Y82626303D01*
X75247458Y82868723D01*
X74615315Y82869275D01*
X74031080Y82627874D01*
X73583697Y82181271D01*
X73341277Y81597458D01*
X73340725Y80965315D01*
X73582126Y80381080D01*
X73787000Y80175848D01*
X73787000Y56800000D01*
X73874006Y56362593D01*
X74121777Y55991777D01*
X75409719Y54703835D01*
X75391054Y54610000D01*
X75519621Y53963648D01*
X75885751Y53415697D01*
X75999039Y53340000D01*
X75885751Y53264303D01*
X75519621Y52716352D01*
X75391054Y52070000D01*
X75409719Y51976165D01*
X72851777Y49418223D01*
X72604006Y49047407D01*
X72517000Y48610000D01*
X72517000Y46193446D01*
X71647983Y45324429D01*
X71434249Y45644303D01*
X71320961Y45720000D01*
X71434249Y45795697D01*
X71800379Y46343648D01*
X71928946Y46990000D01*
X71800379Y47636352D01*
X71434249Y48184303D01*
X71320961Y48260000D01*
X71434249Y48335697D01*
X71800379Y48883648D01*
X71928946Y49530000D01*
X71800379Y50176352D01*
X71434249Y50724303D01*
X71320961Y50800000D01*
X71434249Y50875697D01*
X71800379Y51423648D01*
X71928946Y52070000D01*
X71800379Y52716352D01*
X71434249Y53264303D01*
X71320961Y53340000D01*
X71434249Y53415697D01*
X71800379Y53963648D01*
X71928946Y54610000D01*
X71800379Y55256352D01*
X71434249Y55804303D01*
X71320961Y55880000D01*
X71434249Y55955697D01*
X71800379Y56503648D01*
X71928946Y57150000D01*
X71800379Y57796352D01*
X71434249Y58344303D01*
X70886298Y58710433D01*
X70239946Y58839000D01*
X69460054Y58839000D01*
X69088000Y58764994D01*
X69088000Y64486225D01*
X69504931Y64313100D01*
X70192054Y64312501D01*
X70827102Y64574897D01*
X71313395Y65060342D01*
X71576900Y65694931D01*
X71577499Y66382054D01*
X71315103Y67017102D01*
X71022631Y67310085D01*
X71313395Y67600342D01*
X71576900Y68234931D01*
X71577499Y68922054D01*
X71315103Y69557102D01*
X70829658Y70043395D01*
X70195069Y70306900D01*
X69507946Y70307499D01*
X69088000Y70133981D01*
X69088000Y72106225D01*
X69504931Y71933100D01*
X70192054Y71932501D01*
X70827102Y72194897D01*
X71313395Y72680342D01*
X71576900Y73314931D01*
X71577499Y74002054D01*
X71315103Y74637102D01*
X70829658Y75123395D01*
X70195069Y75386900D01*
X69533845Y75387476D01*
X69534275Y75879685D01*
X69292874Y76463920D01*
X68846271Y76911303D01*
X68262458Y77153723D01*
X67630315Y77154275D01*
X67046080Y76912874D01*
X66598697Y76466271D01*
X66356277Y75882458D01*
X66355725Y75250315D01*
X66597126Y74666080D01*
X66802000Y74460848D01*
X66802000Y74053261D01*
X63783402Y77071860D01*
X63812017Y77090274D01*
X63841970Y77134112D01*
X64402595Y76901320D01*
X65134195Y76900682D01*
X65810349Y77180063D01*
X66328119Y77696930D01*
X66608680Y78372595D01*
X66609318Y79104195D01*
X66329937Y79780349D01*
X65813070Y80298119D01*
X65137405Y80578680D01*
X64405805Y80579318D01*
X63845347Y80347742D01*
X63829726Y80372017D01*
X63532647Y80575003D01*
X63180000Y80646416D01*
X61280000Y80646416D01*
X60950556Y80584427D01*
X60647983Y80389726D01*
X60444997Y80092647D01*
X60373584Y79740000D01*
X60373584Y77740000D01*
X60435573Y77410556D01*
X60630274Y77107983D01*
X60706000Y77056241D01*
X60706000Y76470000D01*
X60822008Y75886790D01*
X61037021Y75565000D01*
X61152369Y75392369D01*
X65085001Y71459738D01*
X65085001Y70418726D01*
X64405805Y70419318D01*
X63845347Y70187742D01*
X63829726Y70212017D01*
X63532647Y70415003D01*
X63180000Y70486416D01*
X61280000Y70486416D01*
X60950556Y70424427D01*
X60647983Y70229726D01*
X60444997Y69932647D01*
X60373584Y69580000D01*
X60373584Y67580000D01*
X60435573Y67250556D01*
X60630274Y66947983D01*
X60927353Y66744997D01*
X61280000Y66673584D01*
X62448323Y66673584D01*
X56072369Y60297631D01*
X55742008Y59803210D01*
X55626000Y59220000D01*
X55626000Y58384560D01*
X55565751Y58344303D01*
X55262973Y57891165D01*
X55262973Y68237946D01*
X55422501Y68237946D01*
X55684897Y67602898D01*
X55977369Y67309915D01*
X55686605Y67019658D01*
X55423100Y66385069D01*
X55422501Y65697946D01*
X55684897Y65062898D01*
X56170342Y64576605D01*
X56804931Y64313100D01*
X57492054Y64312501D01*
X58127102Y64574897D01*
X58613395Y65060342D01*
X58876900Y65694931D01*
X58877499Y66382054D01*
X58615103Y67017102D01*
X58322631Y67310085D01*
X58613395Y67600342D01*
X58876900Y68234931D01*
X58877499Y68922054D01*
X58615103Y69557102D01*
X58129658Y70043395D01*
X57495069Y70306900D01*
X56807946Y70307499D01*
X56172898Y70045103D01*
X55686605Y69559658D01*
X55423100Y68925069D01*
X55422501Y68237946D01*
X55262973Y68237946D01*
X55262973Y77325027D01*
X55175967Y77762434D01*
X54929024Y78132011D01*
X54929275Y78419685D01*
X54687874Y79003920D01*
X54241271Y79451303D01*
X53657458Y79693723D01*
X53213000Y79694111D01*
X53213000Y80175780D01*
X53416303Y80378729D01*
X53648509Y80937946D01*
X55422501Y80937946D01*
X55684897Y80302898D01*
X55977369Y80009915D01*
X55686605Y79719658D01*
X55423100Y79085069D01*
X55422501Y78397946D01*
X55684897Y77762898D01*
X55977369Y77469915D01*
X55686605Y77179658D01*
X55423100Y76545069D01*
X55422501Y75857946D01*
X55684897Y75222898D01*
X56170342Y74736605D01*
X56804931Y74473100D01*
X57492054Y74472501D01*
X58127102Y74734897D01*
X58613395Y75220342D01*
X58876900Y75854931D01*
X58877499Y76542054D01*
X58615103Y77177102D01*
X58322631Y77470085D01*
X58613395Y77760342D01*
X58876900Y78394931D01*
X58877499Y79082054D01*
X58615103Y79717102D01*
X58322631Y80010085D01*
X58613395Y80300342D01*
X58876900Y80934931D01*
X58877499Y81622054D01*
X58672497Y82118200D01*
X68105384Y82118200D01*
X68105384Y80441800D01*
X68167373Y80112356D01*
X68362074Y79809783D01*
X68430234Y79763211D01*
X68386605Y79719658D01*
X68123100Y79085069D01*
X68122501Y78397946D01*
X68384897Y77762898D01*
X68870342Y77276605D01*
X69504931Y77013100D01*
X70192054Y77012501D01*
X70827102Y77274897D01*
X71313395Y77760342D01*
X71576900Y78394931D01*
X71577499Y79082054D01*
X71315103Y79717102D01*
X71271534Y79760747D01*
X71320217Y79792074D01*
X71523203Y80089153D01*
X71594616Y80441800D01*
X71594616Y82118200D01*
X71532627Y82447644D01*
X71337926Y82750217D01*
X71040847Y82953203D01*
X70688200Y83024616D01*
X69011800Y83024616D01*
X68682356Y82962627D01*
X68379783Y82767926D01*
X68176797Y82470847D01*
X68105384Y82118200D01*
X58672497Y82118200D01*
X58615103Y82257102D01*
X58129658Y82743395D01*
X57495069Y83006900D01*
X56807946Y83007499D01*
X56172898Y82745103D01*
X55686605Y82259658D01*
X55423100Y81625069D01*
X55422501Y80937946D01*
X53648509Y80937946D01*
X53658723Y80962542D01*
X53659275Y81594685D01*
X53417874Y82178920D01*
X52971271Y82626303D01*
X52387458Y82868723D01*
X51755315Y82869275D01*
X51171080Y82627874D01*
X51125762Y82582635D01*
X51017926Y82750217D01*
X50720847Y82953203D01*
X50368200Y83024616D01*
X48691800Y83024616D01*
X48362356Y82962627D01*
X48059783Y82767926D01*
X48013211Y82699766D01*
X47969658Y82743395D01*
X47335069Y83006900D01*
X46647946Y83007499D01*
X46012898Y82745103D01*
X45526605Y82259658D01*
X45263100Y81625069D01*
X45262501Y80937946D01*
X45524897Y80302898D01*
X45817369Y80009915D01*
X45526605Y79719658D01*
X45263100Y79085069D01*
X45262501Y78397946D01*
X45524897Y77762898D01*
X45817369Y77469915D01*
X45526605Y77179658D01*
X45263100Y76545069D01*
X45262501Y75857946D01*
X45524897Y75222898D01*
X46010342Y74736605D01*
X46644931Y74473100D01*
X47332054Y74472501D01*
X47967102Y74734897D01*
X48453395Y75220342D01*
X48716900Y75854931D01*
X48717499Y76542054D01*
X48455103Y77177102D01*
X48162631Y77470085D01*
X48260085Y77567369D01*
X48550342Y77276605D01*
X49184931Y77013100D01*
X49872054Y77012501D01*
X50507102Y77274897D01*
X50927000Y77694063D01*
X50927000Y74705324D01*
X50509658Y75123395D01*
X49875069Y75386900D01*
X49187946Y75387499D01*
X48552898Y75125103D01*
X48066605Y74639658D01*
X47803100Y74005069D01*
X47802501Y73317946D01*
X48064897Y72682898D01*
X48550342Y72196605D01*
X49184931Y71933100D01*
X49872054Y71932501D01*
X50507102Y72194897D01*
X50927000Y72614063D01*
X50927000Y69841991D01*
X50954772Y69702371D01*
X50880657Y69671748D01*
X50509658Y70043395D01*
X49875069Y70306900D01*
X49187946Y70307499D01*
X48552898Y70045103D01*
X48259915Y69752631D01*
X47969658Y70043395D01*
X47335069Y70306900D01*
X46647946Y70307499D01*
X46012898Y70045103D01*
X45526605Y69559658D01*
X45263100Y68925069D01*
X45262501Y68237946D01*
X45524897Y67602898D01*
X45817369Y67309915D01*
X45526605Y67019658D01*
X45263100Y66385069D01*
X45262501Y65697946D01*
X45524897Y65062898D01*
X46010342Y64576605D01*
X46644931Y64313100D01*
X47332054Y64312501D01*
X47967102Y64574897D01*
X48260085Y64867369D01*
X48550342Y64576605D01*
X49184931Y64313100D01*
X49872054Y64312501D01*
X50376825Y64521068D01*
X50376825Y58748121D01*
X49919946Y58839000D01*
X49140054Y58839000D01*
X48493702Y58710433D01*
X47945751Y58344303D01*
X47579621Y57796352D01*
X47451054Y57150000D01*
X47579621Y56503648D01*
X47945751Y55955697D01*
X48059039Y55880000D01*
X47945751Y55804303D01*
X47579621Y55256352D01*
X47451054Y54610000D01*
X47579621Y53963648D01*
X47945751Y53415697D01*
X48059039Y53340000D01*
X47945751Y53264303D01*
X47579621Y52716352D01*
X47451054Y52070000D01*
X47579621Y51423648D01*
X47945751Y50875697D01*
X48059039Y50800000D01*
X47945751Y50724303D01*
X47579621Y50176352D01*
X47451054Y49530000D01*
X47579621Y48883648D01*
X47945751Y48335697D01*
X48059039Y48260000D01*
X47945751Y48184303D01*
X47579621Y47636352D01*
X47451054Y46990000D01*
X47579621Y46343648D01*
X47945751Y45795697D01*
X48059039Y45720000D01*
X47945751Y45644303D01*
X47579621Y45096352D01*
X47451054Y44450000D01*
X47579621Y43803648D01*
X47945751Y43255697D01*
X48059039Y43180000D01*
X47945751Y43104303D01*
X47579621Y42556352D01*
X47451054Y41910000D01*
X47579621Y41263648D01*
X47945751Y40715697D01*
X48302409Y40477385D01*
X48075500Y40294896D01*
X48056486Y40260155D01*
X46228000Y42088641D01*
X46228000Y49530000D01*
X46140994Y49967407D01*
X45893223Y50338223D01*
X42132946Y54098500D01*
X42718223Y54683777D01*
X42965994Y55054593D01*
X43053000Y55492000D01*
X43053000Y78266554D01*
X43207422Y78420976D01*
X43494685Y78420725D01*
X44078920Y78662126D01*
X44526303Y79108729D01*
X44768723Y79692542D01*
X44769275Y80324685D01*
X44527874Y80908920D01*
X44081271Y81356303D01*
X43497458Y81598723D01*
X42865315Y81599275D01*
X42281080Y81357874D01*
X41833697Y80911271D01*
X41591277Y80327458D01*
X41591024Y80037470D01*
X41101777Y79548223D01*
X40980116Y79366144D01*
X40835103Y79717102D01*
X40791534Y79760747D01*
X40840217Y79792074D01*
X41043203Y80089153D01*
X41114616Y80441800D01*
X41114616Y82118200D01*
X41052627Y82447644D01*
X40857926Y82750217D01*
X40560847Y82953203D01*
X40208200Y83024616D01*
X38531800Y83024616D01*
X38202356Y82962627D01*
X37973000Y82815040D01*
X37973000Y83562606D01*
X38348887Y83937837D01*
X46017443Y83937837D01*
X46116042Y83671035D01*
X46725582Y83444599D01*
X47375377Y83468659D01*
X47863958Y83671035D01*
X47962557Y83937837D01*
X48557443Y83937837D01*
X48656042Y83671035D01*
X49265582Y83444599D01*
X49915377Y83468659D01*
X50403958Y83671035D01*
X50502557Y83937837D01*
X49530000Y84910395D01*
X48557443Y83937837D01*
X47962557Y83937837D01*
X46990000Y84910395D01*
X46017443Y83937837D01*
X38348887Y83937837D01*
X38430051Y84018859D01*
X38718162Y84712708D01*
X38718721Y85354418D01*
X45344599Y85354418D01*
X45368659Y84704623D01*
X45571035Y84216042D01*
X45837837Y84117443D01*
X46810395Y85090000D01*
X47169605Y85090000D01*
X48142163Y84117443D01*
X48260000Y84160991D01*
X48377837Y84117443D01*
X49350395Y85090000D01*
X49709605Y85090000D01*
X50682163Y84117443D01*
X50948965Y84216042D01*
X51134694Y84716004D01*
X57801183Y84716004D01*
X58088082Y84021654D01*
X58618859Y83489949D01*
X59312708Y83201838D01*
X60063996Y83201183D01*
X60758346Y83488082D01*
X61290051Y84018859D01*
X61578162Y84712708D01*
X61578164Y84716004D01*
X65421183Y84716004D01*
X65708082Y84021654D01*
X66238859Y83489949D01*
X66932708Y83201838D01*
X67683996Y83201183D01*
X68378346Y83488082D01*
X68828887Y83937837D01*
X76497443Y83937837D01*
X76596042Y83671035D01*
X77205582Y83444599D01*
X77855377Y83468659D01*
X78343958Y83671035D01*
X78442557Y83937837D01*
X79037443Y83937837D01*
X79136042Y83671035D01*
X79745582Y83444599D01*
X80395377Y83468659D01*
X80883958Y83671035D01*
X80982557Y83937837D01*
X80010000Y84910395D01*
X79037443Y83937837D01*
X78442557Y83937837D01*
X77470000Y84910395D01*
X76497443Y83937837D01*
X68828887Y83937837D01*
X68910051Y84018859D01*
X69198162Y84712708D01*
X69198721Y85354418D01*
X75824599Y85354418D01*
X75848659Y84704623D01*
X76051035Y84216042D01*
X76317837Y84117443D01*
X77290395Y85090000D01*
X77649605Y85090000D01*
X78622163Y84117443D01*
X78740000Y84160991D01*
X78857837Y84117443D01*
X79830395Y85090000D01*
X80189605Y85090000D01*
X81162163Y84117443D01*
X81428965Y84216042D01*
X81614694Y84716004D01*
X88281183Y84716004D01*
X88568082Y84021654D01*
X89098859Y83489949D01*
X89792708Y83201838D01*
X90543996Y83201183D01*
X90641633Y83241526D01*
X118998494Y83241526D01*
X119442253Y82167548D01*
X120263226Y81345140D01*
X121336428Y80899508D01*
X122498474Y80898494D01*
X123572452Y81342253D01*
X124394860Y82163226D01*
X124840492Y83236428D01*
X124841506Y84398474D01*
X124397747Y85472452D01*
X123576774Y86294860D01*
X122503572Y86740492D01*
X121341526Y86741506D01*
X120267548Y86297747D01*
X119445140Y85476774D01*
X118999508Y84403572D01*
X118998494Y83241526D01*
X90641633Y83241526D01*
X91238346Y83488082D01*
X91770051Y84018859D01*
X92058162Y84712708D01*
X92058817Y85463996D01*
X91771918Y86158346D01*
X91241141Y86690051D01*
X90547292Y86978162D01*
X89796004Y86978817D01*
X89101654Y86691918D01*
X88569949Y86161141D01*
X88281838Y85467292D01*
X88281183Y84716004D01*
X81614694Y84716004D01*
X81655401Y84825582D01*
X81631341Y85475377D01*
X81428965Y85963958D01*
X81162163Y86062557D01*
X80189605Y85090000D01*
X79830395Y85090000D01*
X78857837Y86062557D01*
X78740000Y86019009D01*
X78622163Y86062557D01*
X77649605Y85090000D01*
X77290395Y85090000D01*
X76317837Y86062557D01*
X76051035Y85963958D01*
X75824599Y85354418D01*
X69198721Y85354418D01*
X69198817Y85463996D01*
X68911918Y86158346D01*
X68828248Y86242163D01*
X76497443Y86242163D01*
X77470000Y85269605D01*
X78442557Y86242163D01*
X79037443Y86242163D01*
X80010000Y85269605D01*
X80982557Y86242163D01*
X80883958Y86508965D01*
X80274418Y86735401D01*
X79624623Y86711341D01*
X79136042Y86508965D01*
X79037443Y86242163D01*
X78442557Y86242163D01*
X78343958Y86508965D01*
X77734418Y86735401D01*
X77084623Y86711341D01*
X76596042Y86508965D01*
X76497443Y86242163D01*
X68828248Y86242163D01*
X68381141Y86690051D01*
X67687292Y86978162D01*
X66936004Y86978817D01*
X66241654Y86691918D01*
X65709949Y86161141D01*
X65421838Y85467292D01*
X65421183Y84716004D01*
X61578164Y84716004D01*
X61578817Y85463996D01*
X61291918Y86158346D01*
X60761141Y86690051D01*
X60067292Y86978162D01*
X59316004Y86978817D01*
X58621654Y86691918D01*
X58089949Y86161141D01*
X57801838Y85467292D01*
X57801183Y84716004D01*
X51134694Y84716004D01*
X51175401Y84825582D01*
X51151341Y85475377D01*
X50948965Y85963958D01*
X50682163Y86062557D01*
X49709605Y85090000D01*
X49350395Y85090000D01*
X48377837Y86062557D01*
X48260000Y86019009D01*
X48142163Y86062557D01*
X47169605Y85090000D01*
X46810395Y85090000D01*
X45837837Y86062557D01*
X45571035Y85963958D01*
X45344599Y85354418D01*
X38718721Y85354418D01*
X38718817Y85463996D01*
X38431918Y86158346D01*
X38348248Y86242163D01*
X46017443Y86242163D01*
X46990000Y85269605D01*
X47962557Y86242163D01*
X48557443Y86242163D01*
X49530000Y85269605D01*
X50502557Y86242163D01*
X50403958Y86508965D01*
X49794418Y86735401D01*
X49144623Y86711341D01*
X48656042Y86508965D01*
X48557443Y86242163D01*
X47962557Y86242163D01*
X47863958Y86508965D01*
X47254418Y86735401D01*
X46604623Y86711341D01*
X46116042Y86508965D01*
X46017443Y86242163D01*
X38348248Y86242163D01*
X37901141Y86690051D01*
X37207292Y86978162D01*
X36456004Y86978817D01*
X35761654Y86691918D01*
X35229949Y86161141D01*
X34941838Y85467292D01*
X34941183Y84716004D01*
X35228082Y84021654D01*
X35687000Y83561934D01*
X35687000Y72224220D01*
X35483697Y72021271D01*
X35241277Y71437458D01*
X35240725Y70805315D01*
X35482126Y70221080D01*
X35928729Y69773697D01*
X36512542Y69531277D01*
X37144685Y69530725D01*
X37728920Y69772126D01*
X38176303Y70218729D01*
X38418723Y70802542D01*
X38419275Y71434685D01*
X38177874Y72018920D01*
X37973000Y72224152D01*
X37973000Y72614676D01*
X38390342Y72196605D01*
X39024931Y71933100D01*
X39712054Y71932501D01*
X40347102Y72194897D01*
X40767000Y72614063D01*
X40767000Y69625324D01*
X40349658Y70043395D01*
X39715069Y70306900D01*
X39027946Y70307499D01*
X38392898Y70045103D01*
X37906605Y69559658D01*
X37643100Y68925069D01*
X37642501Y68237946D01*
X37904897Y67602898D01*
X38197369Y67309915D01*
X37906605Y67019658D01*
X37643100Y66385069D01*
X37642501Y65697946D01*
X37904897Y65062898D01*
X38390342Y64576605D01*
X39024931Y64313100D01*
X39712054Y64312501D01*
X40347102Y64574897D01*
X40767000Y64994063D01*
X40767000Y58469419D01*
X40406298Y58710433D01*
X39759946Y58839000D01*
X38980054Y58839000D01*
X38333702Y58710433D01*
X37785751Y58344303D01*
X37419621Y57796352D01*
X37291054Y57150000D01*
X37419621Y56503648D01*
X37785751Y55955697D01*
X37899039Y55880000D01*
X37785751Y55804303D01*
X37419621Y55256352D01*
X37291054Y54610000D01*
X37372216Y54201970D01*
X37291777Y54148223D01*
X36903767Y53760213D01*
X36655996Y53389397D01*
X36568990Y52951990D01*
X36568990Y51188010D01*
X36655996Y50750603D01*
X36903767Y50379787D01*
X37291777Y49991777D01*
X37662593Y49744006D01*
X37707153Y49735142D01*
X37750085Y49657000D01*
X39243000Y49657000D01*
X39243000Y49677000D01*
X39497000Y49677000D01*
X39497000Y49657000D01*
X39517000Y49657000D01*
X39517000Y49403000D01*
X39497000Y49403000D01*
X39497000Y49383000D01*
X39243000Y49383000D01*
X39243000Y49403000D01*
X37750085Y49403000D01*
X37628096Y49180961D01*
X37645633Y49098181D01*
X37915500Y48605104D01*
X38142409Y48422615D01*
X37785751Y48184303D01*
X37419621Y47636352D01*
X37291054Y46990000D01*
X37419621Y46343648D01*
X37785751Y45795697D01*
X37899039Y45720000D01*
X37785751Y45644303D01*
X37419621Y45096352D01*
X37291054Y44450000D01*
X37419621Y43803648D01*
X37785751Y43255697D01*
X37899039Y43180000D01*
X37785751Y43104303D01*
X37419621Y42556352D01*
X37396909Y42442171D01*
X35872369Y40917631D01*
X35542008Y40423210D01*
X35426000Y39840000D01*
X35426000Y37860000D01*
X35542008Y37276790D01*
X35781082Y36918990D01*
X35872369Y36782369D01*
X39116000Y33538738D01*
X39116000Y33091220D01*
X39024896Y33204500D01*
X38531819Y33474367D01*
X38449039Y33491904D01*
X38227000Y33369915D01*
X38227000Y31877000D01*
X38247000Y31877000D01*
X38247000Y31623000D01*
X38227000Y31623000D01*
X38227000Y30130085D01*
X38449039Y30008096D01*
X38531819Y30025633D01*
X39024896Y30295500D01*
X39116000Y30408780D01*
X39116000Y27651262D01*
X37567829Y26103091D01*
X37453648Y26080379D01*
X36905697Y25714249D01*
X36865440Y25654000D01*
X36794560Y25654000D01*
X36754303Y25714249D01*
X36206352Y26080379D01*
X35903202Y26140679D01*
X34797241Y27246641D01*
X34444032Y27482647D01*
X34302820Y27577002D01*
X33719610Y27693010D01*
X24091313Y27693010D01*
X19644378Y32139946D01*
X21171000Y32139946D01*
X21171000Y31360054D01*
X21299567Y30713702D01*
X21665697Y30165751D01*
X22213648Y29799621D01*
X22860000Y29671054D01*
X23506352Y29799621D01*
X24054303Y30165751D01*
X24130000Y30279039D01*
X24205697Y30165751D01*
X24753648Y29799621D01*
X25400000Y29671054D01*
X26046352Y29799621D01*
X26594303Y30165751D01*
X26670000Y30279039D01*
X26745697Y30165751D01*
X27293648Y29799621D01*
X27940000Y29671054D01*
X28586352Y29799621D01*
X29134303Y30165751D01*
X29210000Y30279039D01*
X29285697Y30165751D01*
X29833648Y29799621D01*
X30480000Y29671054D01*
X31126352Y29799621D01*
X31674303Y30165751D01*
X31750000Y30279039D01*
X31825697Y30165751D01*
X32373648Y29799621D01*
X33020000Y29671054D01*
X33666352Y29799621D01*
X34214303Y30165751D01*
X34290000Y30279039D01*
X34365697Y30165751D01*
X34913648Y29799621D01*
X35560000Y29671054D01*
X36206352Y29799621D01*
X36754303Y30165751D01*
X36992615Y30522409D01*
X37175104Y30295500D01*
X37668181Y30025633D01*
X37750961Y30008096D01*
X37973000Y30130085D01*
X37973000Y31623000D01*
X37953000Y31623000D01*
X37953000Y31877000D01*
X37973000Y31877000D01*
X37973000Y33369915D01*
X37750961Y33491904D01*
X37668181Y33474367D01*
X37175104Y33204500D01*
X36992615Y32977591D01*
X36754303Y33334249D01*
X36206352Y33700379D01*
X35560000Y33828946D01*
X34913648Y33700379D01*
X34365697Y33334249D01*
X34290000Y33220961D01*
X34214303Y33334249D01*
X33666352Y33700379D01*
X33020000Y33828946D01*
X32373648Y33700379D01*
X31825697Y33334249D01*
X31750000Y33220961D01*
X31674303Y33334249D01*
X31126352Y33700379D01*
X30480000Y33828946D01*
X29833648Y33700379D01*
X29285697Y33334249D01*
X29210000Y33220961D01*
X29134303Y33334249D01*
X28586352Y33700379D01*
X27940000Y33828946D01*
X27293648Y33700379D01*
X26745697Y33334249D01*
X26670000Y33220961D01*
X26594303Y33334249D01*
X26046352Y33700379D01*
X25400000Y33828946D01*
X24753648Y33700379D01*
X24205697Y33334249D01*
X24130000Y33220961D01*
X24054303Y33334249D01*
X23506352Y33700379D01*
X22860000Y33828946D01*
X22213648Y33700379D01*
X21665697Y33334249D01*
X21299567Y32786298D01*
X21171000Y32139946D01*
X19644378Y32139946D01*
X19307213Y32477111D01*
X18812792Y32807472D01*
X18229582Y32923480D01*
X14086476Y32923480D01*
X14086476Y33149540D01*
X14024487Y33478984D01*
X13829786Y33781557D01*
X13532707Y33984543D01*
X13180060Y34055956D01*
X9679940Y34055956D01*
X9350496Y33993967D01*
X9047923Y33799266D01*
X8844937Y33502187D01*
X8773524Y33149540D01*
X8773524Y29649420D01*
X8835513Y29319976D01*
X9030214Y29017403D01*
X9327293Y28814417D01*
X9679940Y28743004D01*
X13180060Y28743004D01*
X13509504Y28804993D01*
X13743940Y28955849D01*
X13743940Y28685490D01*
X13902690Y28526740D01*
X16002000Y28526740D01*
X16002000Y28546740D01*
X16256000Y28546740D01*
X16256000Y28526740D01*
X18355310Y28526740D01*
X18514060Y28685490D01*
X18514060Y28959740D01*
X21721959Y25751842D01*
X21665697Y25714249D01*
X21299567Y25166298D01*
X21171000Y24519946D01*
X21171000Y23740054D01*
X21299567Y23093702D01*
X21665697Y22545751D01*
X22213648Y22179621D01*
X22860000Y22051054D01*
X23506352Y22179621D01*
X24054303Y22545751D01*
X24130000Y22659039D01*
X24205697Y22545751D01*
X24753648Y22179621D01*
X25400000Y22051054D01*
X26046352Y22179621D01*
X26594303Y22545751D01*
X26670000Y22659039D01*
X26745697Y22545751D01*
X27293648Y22179621D01*
X27940000Y22051054D01*
X28586352Y22179621D01*
X29134303Y22545751D01*
X29210000Y22659039D01*
X29285697Y22545751D01*
X29833648Y22179621D01*
X30480000Y22051054D01*
X31126352Y22179621D01*
X31674303Y22545751D01*
X31750000Y22659039D01*
X31825697Y22545751D01*
X32373648Y22179621D01*
X33020000Y22051054D01*
X33666352Y22179621D01*
X34214303Y22545751D01*
X34290000Y22659039D01*
X34365697Y22545751D01*
X34913648Y22179621D01*
X35560000Y22051054D01*
X36206352Y22179621D01*
X36576000Y22426612D01*
X36576000Y22020000D01*
X36692008Y21436790D01*
X36929071Y21082000D01*
X37022369Y20942369D01*
X37388322Y20576416D01*
X37360000Y20576416D01*
X37030556Y20514427D01*
X36727983Y20319726D01*
X36524997Y20022647D01*
X36453584Y19670000D01*
X36453584Y18270000D01*
X36515573Y17940556D01*
X36710274Y17637983D01*
X37007353Y17434997D01*
X37360000Y17363584D01*
X37973000Y17363584D01*
X37973000Y15302243D01*
X37722560Y15288664D01*
X37366169Y15141042D01*
X37304331Y14905275D01*
X37973000Y14236605D01*
X37973000Y13703395D01*
X37304331Y13034725D01*
X37366169Y12798958D01*
X37867122Y12622581D01*
X37973000Y12628322D01*
X37973000Y964000D01*
X964000Y964000D01*
X964000Y4501526D01*
X2158494Y4501526D01*
X2602253Y3427548D01*
X3423226Y2605140D01*
X4496428Y2159508D01*
X5658474Y2158494D01*
X6732452Y2602253D01*
X7554860Y3423226D01*
X8000492Y4496428D01*
X8001506Y5658474D01*
X7557747Y6732452D01*
X6736774Y7554860D01*
X5663572Y8000492D01*
X4501526Y8001506D01*
X3427548Y7557747D01*
X2605140Y6736774D01*
X2159508Y5663572D01*
X2158494Y4501526D01*
X964000Y4501526D01*
X964000Y14162878D01*
X36712581Y14162878D01*
X36741336Y13632560D01*
X36888958Y13276169D01*
X37124725Y13214331D01*
X37880395Y13970000D01*
X37124725Y14725669D01*
X36888958Y14663831D01*
X36712581Y14162878D01*
X964000Y14162878D01*
X964000Y25114250D01*
X9044940Y25114250D01*
X9044940Y23523631D01*
X9141613Y23290242D01*
X9320241Y23111613D01*
X9553630Y23014940D01*
X11144250Y23014940D01*
X11303000Y23173690D01*
X11303000Y25273000D01*
X11557000Y25273000D01*
X11557000Y23173690D01*
X11715750Y23014940D01*
X13306370Y23014940D01*
X13539759Y23111613D01*
X13718387Y23290242D01*
X13815060Y23523631D01*
X13815060Y25114250D01*
X13656310Y25273000D01*
X11557000Y25273000D01*
X11303000Y25273000D01*
X9203690Y25273000D01*
X9044940Y25114250D01*
X964000Y25114250D01*
X964000Y27276369D01*
X9044940Y27276369D01*
X9044940Y25685750D01*
X9203690Y25527000D01*
X11303000Y25527000D01*
X11303000Y27626310D01*
X11557000Y27626310D01*
X11557000Y25527000D01*
X13656310Y25527000D01*
X13815060Y25685750D01*
X13815060Y26351672D01*
X13840613Y26289982D01*
X14019241Y26111353D01*
X14252630Y26014680D01*
X15843250Y26014680D01*
X16002000Y26173430D01*
X16002000Y28272740D01*
X16256000Y28272740D01*
X16256000Y26173430D01*
X16414750Y26014680D01*
X18005370Y26014680D01*
X18238759Y26111353D01*
X18417387Y26289982D01*
X18514060Y26523371D01*
X18514060Y28113990D01*
X18355310Y28272740D01*
X16256000Y28272740D01*
X16002000Y28272740D01*
X13902690Y28272740D01*
X13743940Y28113990D01*
X13743940Y27448068D01*
X13718387Y27509758D01*
X13539759Y27688387D01*
X13306370Y27785060D01*
X11715750Y27785060D01*
X11557000Y27626310D01*
X11303000Y27626310D01*
X11144250Y27785060D01*
X9553630Y27785060D01*
X9320241Y27688387D01*
X9141613Y27509758D01*
X9044940Y27276369D01*
X964000Y27276369D01*
X964000Y39020961D01*
X30008096Y39020961D01*
X30025633Y38938181D01*
X30295500Y38445104D01*
X30733517Y38092834D01*
X31273000Y37935000D01*
X31623000Y37935000D01*
X31623000Y39243000D01*
X31877000Y39243000D01*
X31877000Y37935000D01*
X32227000Y37935000D01*
X32766483Y38092834D01*
X33204500Y38445104D01*
X33474367Y38938181D01*
X33491904Y39020961D01*
X33369915Y39243000D01*
X31877000Y39243000D01*
X31623000Y39243000D01*
X30130085Y39243000D01*
X30008096Y39020961D01*
X964000Y39020961D01*
X964000Y50221526D01*
X2158494Y50221526D01*
X2602253Y49147548D01*
X3423226Y48325140D01*
X4496428Y47879508D01*
X5658474Y47878494D01*
X6732452Y48322253D01*
X7554860Y49143226D01*
X8000492Y50216428D01*
X8001506Y51378474D01*
X7557747Y52452452D01*
X6736774Y53274860D01*
X5663572Y53720492D01*
X4501526Y53721506D01*
X3427548Y53277747D01*
X2605140Y52456774D01*
X2159508Y51383572D01*
X2158494Y50221526D01*
X964000Y50221526D01*
X964000Y57150000D01*
X29671054Y57150000D01*
X29799621Y56503648D01*
X30165751Y55955697D01*
X30279039Y55880000D01*
X30165751Y55804303D01*
X29799621Y55256352D01*
X29671054Y54610000D01*
X29799621Y53963648D01*
X30165751Y53415697D01*
X30279039Y53340000D01*
X30165751Y53264303D01*
X29799621Y52716352D01*
X29671054Y52070000D01*
X29799621Y51423648D01*
X30165751Y50875697D01*
X30279039Y50800000D01*
X30165751Y50724303D01*
X29799621Y50176352D01*
X29671054Y49530000D01*
X29799621Y48883648D01*
X30165751Y48335697D01*
X30279039Y48260000D01*
X30165751Y48184303D01*
X29799621Y47636352D01*
X29671054Y46990000D01*
X29799621Y46343648D01*
X30165751Y45795697D01*
X30279039Y45720000D01*
X30165751Y45644303D01*
X29799621Y45096352D01*
X29671054Y44450000D01*
X29799621Y43803648D01*
X30165751Y43255697D01*
X30279039Y43180000D01*
X30165751Y43104303D01*
X29799621Y42556352D01*
X29671054Y41910000D01*
X29799621Y41263648D01*
X30165751Y40715697D01*
X30522409Y40477385D01*
X30295500Y40294896D01*
X30025633Y39801819D01*
X30008096Y39719039D01*
X30130085Y39497000D01*
X31623000Y39497000D01*
X31623000Y39517000D01*
X31877000Y39517000D01*
X31877000Y39497000D01*
X33369915Y39497000D01*
X33491904Y39719039D01*
X33474367Y39801819D01*
X33204500Y40294896D01*
X32977591Y40477385D01*
X33334249Y40715697D01*
X33700379Y41263648D01*
X33828946Y41910000D01*
X33700379Y42556352D01*
X33334249Y43104303D01*
X33220961Y43180000D01*
X33334249Y43255697D01*
X33700379Y43803648D01*
X33828946Y44450000D01*
X33700379Y45096352D01*
X33334249Y45644303D01*
X33220961Y45720000D01*
X33334249Y45795697D01*
X33700379Y46343648D01*
X33828946Y46990000D01*
X33700379Y47636352D01*
X33334249Y48184303D01*
X33220961Y48260000D01*
X33334249Y48335697D01*
X33700379Y48883648D01*
X33828946Y49530000D01*
X33810281Y49623835D01*
X35098223Y50911777D01*
X35345994Y51282593D01*
X35433000Y51720000D01*
X35433000Y66205780D01*
X35636303Y66408729D01*
X35878723Y66992542D01*
X35879275Y67624685D01*
X35637874Y68208920D01*
X35191271Y68656303D01*
X34607458Y68898723D01*
X33975315Y68899275D01*
X33391080Y68657874D01*
X32943697Y68211271D01*
X32701277Y67627458D01*
X32700725Y66995315D01*
X32942126Y66411080D01*
X33147000Y66205848D01*
X33147000Y58469419D01*
X32786298Y58710433D01*
X32139946Y58839000D01*
X31360054Y58839000D01*
X30713702Y58710433D01*
X30165751Y58344303D01*
X29799621Y57796352D01*
X29671054Y57150000D01*
X964000Y57150000D01*
X964000Y83241526D01*
X2158494Y83241526D01*
X2602253Y82167548D01*
X3423226Y81345140D01*
X4496428Y80899508D01*
X5658474Y80898494D01*
X6732452Y81342253D01*
X7554860Y82163226D01*
X8000492Y83236428D01*
X8001506Y84398474D01*
X7557747Y85472452D01*
X6736774Y86294860D01*
X5663572Y86740492D01*
X4501526Y86741506D01*
X3427548Y86297747D01*
X2605140Y85476774D01*
X2159508Y84403572D01*
X2158494Y83241526D01*
X964000Y83241526D01*
X964000Y87936000D01*
X126036000Y87936000D01*
X126036000Y964000D01*
G36*
X75391054Y39370000D02*
X75519621Y38723648D01*
X75885751Y38175697D01*
X76433702Y37809567D01*
X77080054Y37681000D01*
X77859946Y37681000D01*
X78506298Y37809567D01*
X79054249Y38175697D01*
X79192354Y38382385D01*
X88646000Y28928739D01*
X88646000Y27498750D01*
X88634997Y27482647D01*
X88563584Y27130000D01*
X88563584Y26241001D01*
X86517209Y26241001D01*
X86488664Y26767440D01*
X86341042Y27123831D01*
X86105275Y27185669D01*
X85349605Y26430000D01*
X85363748Y26415858D01*
X85188891Y26241001D01*
X85179394Y26241001D01*
X85170000Y26250395D01*
X85160606Y26241001D01*
X85151109Y26241001D01*
X84976253Y26415858D01*
X84990395Y26430000D01*
X84234725Y27185669D01*
X83998958Y27123831D01*
X83822581Y26622878D01*
X83843287Y26241001D01*
X73598001Y26241001D01*
X73160594Y26153995D01*
X72789778Y25906224D01*
X70121808Y23238254D01*
X69476004Y23238817D01*
X68781654Y22951918D01*
X68249949Y22421141D01*
X67961838Y21727292D01*
X67961191Y20985509D01*
X63815937Y20985509D01*
X61768223Y23033223D01*
X61397407Y23280994D01*
X60960000Y23368000D01*
X57494994Y23368000D01*
X57569000Y23740054D01*
X57569000Y24519946D01*
X57532799Y24701939D01*
X57912367Y24322372D01*
X57912369Y24322369D01*
X58010201Y24257000D01*
X58406791Y23992007D01*
X58990000Y23875999D01*
X58990005Y23876000D01*
X59891250Y23876000D01*
X59907353Y23864997D01*
X60260000Y23793584D01*
X61660000Y23793584D01*
X61989444Y23855573D01*
X62292017Y24050274D01*
X62495003Y24347353D01*
X62566416Y24700000D01*
X62566416Y26100000D01*
X62504427Y26429444D01*
X62484000Y26461188D01*
X62484000Y26738738D01*
X63110537Y27365275D01*
X84414331Y27365275D01*
X85170000Y26609605D01*
X85925669Y27365275D01*
X85863831Y27601042D01*
X85362878Y27777419D01*
X84832560Y27748664D01*
X84476169Y27601042D01*
X84414331Y27365275D01*
X63110537Y27365275D01*
X63699987Y27954725D01*
X76714331Y27954725D01*
X76776169Y27718958D01*
X77277122Y27542581D01*
X77807440Y27571336D01*
X78163831Y27718958D01*
X78225669Y27954725D01*
X77470000Y28710395D01*
X76714331Y27954725D01*
X63699987Y27954725D01*
X64828140Y29082878D01*
X76122581Y29082878D01*
X76151336Y28552560D01*
X76298958Y28196169D01*
X76534725Y28134331D01*
X77290395Y28890000D01*
X77649605Y28890000D01*
X78405275Y28134331D01*
X78641042Y28196169D01*
X78817419Y28697122D01*
X78788664Y29227440D01*
X78641042Y29583831D01*
X78405275Y29645669D01*
X77649605Y28890000D01*
X77290395Y28890000D01*
X76534725Y29645669D01*
X76298958Y29583831D01*
X76122581Y29082878D01*
X64828140Y29082878D01*
X65570537Y29825275D01*
X76714331Y29825275D01*
X77470000Y29069605D01*
X78225669Y29825275D01*
X78163831Y30061042D01*
X77662878Y30237419D01*
X77132560Y30208664D01*
X76776169Y30061042D01*
X76714331Y29825275D01*
X65570537Y29825275D01*
X75459534Y39714272D01*
X75391054Y39370000D01*
X75391054Y39370000D01*
G37*
X75391054Y39370000D02*
X75519621Y38723648D01*
X75885751Y38175697D01*
X76433702Y37809567D01*
X77080054Y37681000D01*
X77859946Y37681000D01*
X78506298Y37809567D01*
X79054249Y38175697D01*
X79192354Y38382385D01*
X88646000Y28928739D01*
X88646000Y27498750D01*
X88634997Y27482647D01*
X88563584Y27130000D01*
X88563584Y26241001D01*
X86517209Y26241001D01*
X86488664Y26767440D01*
X86341042Y27123831D01*
X86105275Y27185669D01*
X85349605Y26430000D01*
X85363748Y26415858D01*
X85188891Y26241001D01*
X85179394Y26241001D01*
X85170000Y26250395D01*
X85160606Y26241001D01*
X85151109Y26241001D01*
X84976253Y26415858D01*
X84990395Y26430000D01*
X84234725Y27185669D01*
X83998958Y27123831D01*
X83822581Y26622878D01*
X83843287Y26241001D01*
X73598001Y26241001D01*
X73160594Y26153995D01*
X72789778Y25906224D01*
X70121808Y23238254D01*
X69476004Y23238817D01*
X68781654Y22951918D01*
X68249949Y22421141D01*
X67961838Y21727292D01*
X67961191Y20985509D01*
X63815937Y20985509D01*
X61768223Y23033223D01*
X61397407Y23280994D01*
X60960000Y23368000D01*
X57494994Y23368000D01*
X57569000Y23740054D01*
X57569000Y24519946D01*
X57532799Y24701939D01*
X57912367Y24322372D01*
X57912369Y24322369D01*
X58010201Y24257000D01*
X58406791Y23992007D01*
X58990000Y23875999D01*
X58990005Y23876000D01*
X59891250Y23876000D01*
X59907353Y23864997D01*
X60260000Y23793584D01*
X61660000Y23793584D01*
X61989444Y23855573D01*
X62292017Y24050274D01*
X62495003Y24347353D01*
X62566416Y24700000D01*
X62566416Y26100000D01*
X62504427Y26429444D01*
X62484000Y26461188D01*
X62484000Y26738738D01*
X63110537Y27365275D01*
X84414331Y27365275D01*
X85170000Y26609605D01*
X85925669Y27365275D01*
X85863831Y27601042D01*
X85362878Y27777419D01*
X84832560Y27748664D01*
X84476169Y27601042D01*
X84414331Y27365275D01*
X63110537Y27365275D01*
X63699987Y27954725D01*
X76714331Y27954725D01*
X76776169Y27718958D01*
X77277122Y27542581D01*
X77807440Y27571336D01*
X78163831Y27718958D01*
X78225669Y27954725D01*
X77470000Y28710395D01*
X76714331Y27954725D01*
X63699987Y27954725D01*
X64828140Y29082878D01*
X76122581Y29082878D01*
X76151336Y28552560D01*
X76298958Y28196169D01*
X76534725Y28134331D01*
X77290395Y28890000D01*
X77649605Y28890000D01*
X78405275Y28134331D01*
X78641042Y28196169D01*
X78817419Y28697122D01*
X78788664Y29227440D01*
X78641042Y29583831D01*
X78405275Y29645669D01*
X77649605Y28890000D01*
X77290395Y28890000D01*
X76534725Y29645669D01*
X76298958Y29583831D01*
X76122581Y29082878D01*
X64828140Y29082878D01*
X65570537Y29825275D01*
X76714331Y29825275D01*
X77470000Y29069605D01*
X78225669Y29825275D01*
X78163831Y30061042D01*
X77662878Y30237419D01*
X77132560Y30208664D01*
X76776169Y30061042D01*
X76714331Y29825275D01*
X65570537Y29825275D01*
X75459534Y39714272D01*
X75391054Y39370000D01*
G36*
X40767000Y24257000D02*
X40787000Y24257000D01*
X40787000Y24003000D01*
X40767000Y24003000D01*
X40767000Y23983000D01*
X40513000Y23983000D01*
X40513000Y24003000D01*
X40493000Y24003000D01*
X40493000Y24257000D01*
X40513000Y24257000D01*
X40513000Y24277000D01*
X40767000Y24277000D01*
X40767000Y24257000D01*
X40767000Y24257000D01*
G37*
X40767000Y24257000D02*
X40787000Y24257000D01*
X40787000Y24003000D01*
X40767000Y24003000D01*
X40767000Y23983000D01*
X40513000Y23983000D01*
X40513000Y24003000D01*
X40493000Y24003000D01*
X40493000Y24257000D01*
X40513000Y24257000D01*
X40513000Y24277000D01*
X40767000Y24277000D01*
X40767000Y24257000D01*
G36*
X67899621Y41263648D02*
X68265751Y40715697D01*
X68622409Y40477385D01*
X68395500Y40294896D01*
X68125633Y39801819D01*
X68108096Y39719039D01*
X68230085Y39497000D01*
X69723000Y39497000D01*
X69723000Y39517000D01*
X69977000Y39517000D01*
X69977000Y39497000D01*
X69997000Y39497000D01*
X69997000Y39243000D01*
X69977000Y39243000D01*
X69977000Y39223000D01*
X69723000Y39223000D01*
X69723000Y39243000D01*
X68230085Y39243000D01*
X68108096Y39020961D01*
X68125633Y38938181D01*
X68395500Y38445104D01*
X68833517Y38092834D01*
X69370476Y37935738D01*
X62247475Y30812737D01*
X62131042Y31093831D01*
X61895275Y31155669D01*
X61139605Y30400000D01*
X61153748Y30385858D01*
X60974142Y30206252D01*
X60960000Y30220395D01*
X60204331Y29464725D01*
X60266169Y29228958D01*
X60560180Y29125442D01*
X59882369Y28447631D01*
X59552008Y27953210D01*
X59436000Y27370000D01*
X59436000Y27109262D01*
X58917631Y27627631D01*
X58736492Y27748664D01*
X58423210Y27957992D01*
X57840000Y28074000D01*
X42164000Y28074000D01*
X42164000Y28609554D01*
X42251798Y28521756D01*
X42622614Y28273985D01*
X43060021Y28186979D01*
X47497979Y28186979D01*
X47935386Y28273985D01*
X48306202Y28521756D01*
X49068223Y29283777D01*
X49315994Y29654593D01*
X49403000Y30092000D01*
X49403000Y30131471D01*
X49454303Y30165751D01*
X49530000Y30279039D01*
X49605697Y30165751D01*
X50153648Y29799621D01*
X50800000Y29671054D01*
X51446352Y29799621D01*
X51994303Y30165751D01*
X52070000Y30279039D01*
X52145697Y30165751D01*
X52693648Y29799621D01*
X53340000Y29671054D01*
X53986352Y29799621D01*
X54534303Y30165751D01*
X54610000Y30279039D01*
X54685697Y30165751D01*
X55233648Y29799621D01*
X55880000Y29671054D01*
X56526352Y29799621D01*
X57074303Y30165751D01*
X57359700Y30592878D01*
X59612581Y30592878D01*
X59641336Y30062560D01*
X59788958Y29706169D01*
X60024725Y29644331D01*
X60780395Y30400000D01*
X60024725Y31155669D01*
X59788958Y31093831D01*
X59612581Y30592878D01*
X57359700Y30592878D01*
X57440433Y30713702D01*
X57564071Y31335275D01*
X60204331Y31335275D01*
X60960000Y30579605D01*
X61715669Y31335275D01*
X61653831Y31571042D01*
X61152878Y31747419D01*
X60622560Y31718664D01*
X60266169Y31571042D01*
X60204331Y31335275D01*
X57564071Y31335275D01*
X57569000Y31360054D01*
X57569000Y32139946D01*
X57440433Y32786298D01*
X57074303Y33334249D01*
X56526352Y33700379D01*
X55880000Y33828946D01*
X55233648Y33700379D01*
X54685697Y33334249D01*
X54610000Y33220961D01*
X54534303Y33334249D01*
X53986352Y33700379D01*
X53576014Y33782000D01*
X53975000Y33782000D01*
X54412407Y33869006D01*
X54783223Y34116777D01*
X56053223Y35386777D01*
X56300994Y35757593D01*
X56388000Y36195000D01*
X56388000Y37755006D01*
X56760054Y37681000D01*
X57539946Y37681000D01*
X58186298Y37809567D01*
X58734249Y38175697D01*
X58768529Y38227000D01*
X64135000Y38227000D01*
X64572407Y38314006D01*
X64943223Y38561777D01*
X67857392Y41475946D01*
X67899621Y41263648D01*
X67899621Y41263648D01*
G37*
X67899621Y41263648D02*
X68265751Y40715697D01*
X68622409Y40477385D01*
X68395500Y40294896D01*
X68125633Y39801819D01*
X68108096Y39719039D01*
X68230085Y39497000D01*
X69723000Y39497000D01*
X69723000Y39517000D01*
X69977000Y39517000D01*
X69977000Y39497000D01*
X69997000Y39497000D01*
X69997000Y39243000D01*
X69977000Y39243000D01*
X69977000Y39223000D01*
X69723000Y39223000D01*
X69723000Y39243000D01*
X68230085Y39243000D01*
X68108096Y39020961D01*
X68125633Y38938181D01*
X68395500Y38445104D01*
X68833517Y38092834D01*
X69370476Y37935738D01*
X62247475Y30812737D01*
X62131042Y31093831D01*
X61895275Y31155669D01*
X61139605Y30400000D01*
X61153748Y30385858D01*
X60974142Y30206252D01*
X60960000Y30220395D01*
X60204331Y29464725D01*
X60266169Y29228958D01*
X60560180Y29125442D01*
X59882369Y28447631D01*
X59552008Y27953210D01*
X59436000Y27370000D01*
X59436000Y27109262D01*
X58917631Y27627631D01*
X58736492Y27748664D01*
X58423210Y27957992D01*
X57840000Y28074000D01*
X42164000Y28074000D01*
X42164000Y28609554D01*
X42251798Y28521756D01*
X42622614Y28273985D01*
X43060021Y28186979D01*
X47497979Y28186979D01*
X47935386Y28273985D01*
X48306202Y28521756D01*
X49068223Y29283777D01*
X49315994Y29654593D01*
X49403000Y30092000D01*
X49403000Y30131471D01*
X49454303Y30165751D01*
X49530000Y30279039D01*
X49605697Y30165751D01*
X50153648Y29799621D01*
X50800000Y29671054D01*
X51446352Y29799621D01*
X51994303Y30165751D01*
X52070000Y30279039D01*
X52145697Y30165751D01*
X52693648Y29799621D01*
X53340000Y29671054D01*
X53986352Y29799621D01*
X54534303Y30165751D01*
X54610000Y30279039D01*
X54685697Y30165751D01*
X55233648Y29799621D01*
X55880000Y29671054D01*
X56526352Y29799621D01*
X57074303Y30165751D01*
X57359700Y30592878D01*
X59612581Y30592878D01*
X59641336Y30062560D01*
X59788958Y29706169D01*
X60024725Y29644331D01*
X60780395Y30400000D01*
X60024725Y31155669D01*
X59788958Y31093831D01*
X59612581Y30592878D01*
X57359700Y30592878D01*
X57440433Y30713702D01*
X57564071Y31335275D01*
X60204331Y31335275D01*
X60960000Y30579605D01*
X61715669Y31335275D01*
X61653831Y31571042D01*
X61152878Y31747419D01*
X60622560Y31718664D01*
X60266169Y31571042D01*
X60204331Y31335275D01*
X57564071Y31335275D01*
X57569000Y31360054D01*
X57569000Y32139946D01*
X57440433Y32786298D01*
X57074303Y33334249D01*
X56526352Y33700379D01*
X55880000Y33828946D01*
X55233648Y33700379D01*
X54685697Y33334249D01*
X54610000Y33220961D01*
X54534303Y33334249D01*
X53986352Y33700379D01*
X53576014Y33782000D01*
X53975000Y33782000D01*
X54412407Y33869006D01*
X54783223Y34116777D01*
X56053223Y35386777D01*
X56300994Y35757593D01*
X56388000Y36195000D01*
X56388000Y37755006D01*
X56760054Y37681000D01*
X57539946Y37681000D01*
X58186298Y37809567D01*
X58734249Y38175697D01*
X58768529Y38227000D01*
X64135000Y38227000D01*
X64572407Y38314006D01*
X64943223Y38561777D01*
X67857392Y41475946D01*
X67899621Y41263648D01*
G36*
X49657000Y39497000D02*
X49677000Y39497000D01*
X49677000Y39243000D01*
X49657000Y39243000D01*
X49657000Y39223000D01*
X49403000Y39223000D01*
X49403000Y39243000D01*
X49383000Y39243000D01*
X49383000Y39497000D01*
X49403000Y39497000D01*
X49403000Y39517000D01*
X49657000Y39517000D01*
X49657000Y39497000D01*
X49657000Y39497000D01*
G37*
X49657000Y39497000D02*
X49677000Y39497000D01*
X49677000Y39243000D01*
X49657000Y39243000D01*
X49657000Y39223000D01*
X49403000Y39223000D01*
X49403000Y39243000D01*
X49383000Y39243000D01*
X49383000Y39497000D01*
X49403000Y39497000D01*
X49403000Y39517000D01*
X49657000Y39517000D01*
X49657000Y39497000D01*
G36*
X76015500Y48605104D02*
X76242409Y48422615D01*
X75885751Y48184303D01*
X75519621Y47636352D01*
X75391054Y46990000D01*
X75519621Y46343648D01*
X75885751Y45795697D01*
X75999039Y45720000D01*
X75885751Y45644303D01*
X75519621Y45096352D01*
X75391054Y44450000D01*
X75519621Y43803648D01*
X75766612Y43434000D01*
X75500000Y43434000D01*
X74916790Y43317992D01*
X74542984Y43068223D01*
X74422369Y42987631D01*
X71454878Y40020140D01*
X71304500Y40294896D01*
X71077591Y40477385D01*
X71434249Y40715697D01*
X71800379Y41263648D01*
X71928946Y41910000D01*
X71847784Y42318030D01*
X71928223Y42371777D01*
X74468223Y44911777D01*
X74715994Y45282593D01*
X74803000Y45720000D01*
X74803000Y48136554D01*
X75752352Y49085906D01*
X76015500Y48605104D01*
X76015500Y48605104D01*
G37*
X76015500Y48605104D02*
X76242409Y48422615D01*
X75885751Y48184303D01*
X75519621Y47636352D01*
X75391054Y46990000D01*
X75519621Y46343648D01*
X75885751Y45795697D01*
X75999039Y45720000D01*
X75885751Y45644303D01*
X75519621Y45096352D01*
X75391054Y44450000D01*
X75519621Y43803648D01*
X75766612Y43434000D01*
X75500000Y43434000D01*
X74916790Y43317992D01*
X74542984Y43068223D01*
X74422369Y42987631D01*
X71454878Y40020140D01*
X71304500Y40294896D01*
X71077591Y40477385D01*
X71434249Y40715697D01*
X71800379Y41263648D01*
X71928946Y41910000D01*
X71847784Y42318030D01*
X71928223Y42371777D01*
X74468223Y44911777D01*
X74715994Y45282593D01*
X74803000Y45720000D01*
X74803000Y48136554D01*
X75752352Y49085906D01*
X76015500Y48605104D01*
G36*
X51569021Y40825662D02*
X51003514Y40260155D01*
X50984500Y40294896D01*
X50757591Y40477385D01*
X51114249Y40715697D01*
X51480379Y41263648D01*
X51569021Y41709283D01*
X51569021Y40825662D01*
X51569021Y40825662D01*
G37*
X51569021Y40825662D02*
X51003514Y40260155D01*
X50984500Y40294896D01*
X50757591Y40477385D01*
X51114249Y40715697D01*
X51480379Y41263648D01*
X51569021Y41709283D01*
X51569021Y40825662D01*
G36*
X60341838Y60067292D02*
X60341183Y59316004D01*
X60628082Y58621654D01*
X61158859Y58089949D01*
X61852708Y57801838D01*
X62603996Y57801183D01*
X63298346Y58088082D01*
X63499886Y58289270D01*
X63698859Y58089949D01*
X64392708Y57801838D01*
X65143996Y57801183D01*
X65838346Y58088082D01*
X66370051Y58618859D01*
X66658162Y59312708D01*
X66658258Y59422996D01*
X66802000Y59566738D01*
X66802000Y46005000D01*
X66889006Y45567593D01*
X67136777Y45196777D01*
X67789719Y44543835D01*
X67771054Y44450000D01*
X67801975Y44294550D01*
X67507593Y44235994D01*
X67136777Y43988223D01*
X63661554Y40513000D01*
X58768529Y40513000D01*
X58734249Y40564303D01*
X58620961Y40640000D01*
X58734249Y40715697D01*
X59100379Y41263648D01*
X59123091Y41377829D01*
X60647631Y42902369D01*
X60758451Y43068223D01*
X60977992Y43396790D01*
X61094000Y43980000D01*
X61094000Y48312716D01*
X61143162Y48263554D01*
X61257444Y48377836D01*
X61356042Y48111035D01*
X61965582Y47884599D01*
X62615377Y47908659D01*
X63103958Y48111035D01*
X63202557Y48377837D01*
X63797443Y48377837D01*
X63896042Y48111035D01*
X64505582Y47884599D01*
X65155377Y47908659D01*
X65643958Y48111035D01*
X65742557Y48377837D01*
X64770000Y49350395D01*
X63797443Y48377837D01*
X63202557Y48377837D01*
X62230000Y49350395D01*
X62215858Y49336252D01*
X62036252Y49515858D01*
X62050395Y49530000D01*
X62409605Y49530000D01*
X63382163Y48557443D01*
X63500000Y48600991D01*
X63617837Y48557443D01*
X64590395Y49530000D01*
X64949605Y49530000D01*
X65922163Y48557443D01*
X66188965Y48656042D01*
X66415401Y49265582D01*
X66391341Y49915377D01*
X66188965Y50403958D01*
X65922163Y50502557D01*
X64949605Y49530000D01*
X64590395Y49530000D01*
X63617837Y50502557D01*
X63500000Y50459009D01*
X63382163Y50502557D01*
X62409605Y49530000D01*
X62050395Y49530000D01*
X62036252Y49544142D01*
X62215858Y49723748D01*
X62230000Y49709605D01*
X63202557Y50682163D01*
X63797443Y50682163D01*
X64770000Y49709605D01*
X65742557Y50682163D01*
X65643958Y50948965D01*
X65034418Y51175401D01*
X64384623Y51151341D01*
X63896042Y50948965D01*
X63797443Y50682163D01*
X63202557Y50682163D01*
X63103958Y50948965D01*
X62494418Y51175401D01*
X61844623Y51151341D01*
X61356042Y50948965D01*
X61257444Y50682164D01*
X61143162Y50796446D01*
X61094000Y50747284D01*
X61094000Y55080000D01*
X60977992Y55663210D01*
X60647631Y56157631D01*
X59123091Y57682171D01*
X59100379Y57796352D01*
X58734249Y58344303D01*
X58674000Y58384560D01*
X58674000Y58588738D01*
X60476247Y60390985D01*
X60341838Y60067292D01*
X60341838Y60067292D01*
G37*
X60341838Y60067292D02*
X60341183Y59316004D01*
X60628082Y58621654D01*
X61158859Y58089949D01*
X61852708Y57801838D01*
X62603996Y57801183D01*
X63298346Y58088082D01*
X63499886Y58289270D01*
X63698859Y58089949D01*
X64392708Y57801838D01*
X65143996Y57801183D01*
X65838346Y58088082D01*
X66370051Y58618859D01*
X66658162Y59312708D01*
X66658258Y59422996D01*
X66802000Y59566738D01*
X66802000Y46005000D01*
X66889006Y45567593D01*
X67136777Y45196777D01*
X67789719Y44543835D01*
X67771054Y44450000D01*
X67801975Y44294550D01*
X67507593Y44235994D01*
X67136777Y43988223D01*
X63661554Y40513000D01*
X58768529Y40513000D01*
X58734249Y40564303D01*
X58620961Y40640000D01*
X58734249Y40715697D01*
X59100379Y41263648D01*
X59123091Y41377829D01*
X60647631Y42902369D01*
X60758451Y43068223D01*
X60977992Y43396790D01*
X61094000Y43980000D01*
X61094000Y48312716D01*
X61143162Y48263554D01*
X61257444Y48377836D01*
X61356042Y48111035D01*
X61965582Y47884599D01*
X62615377Y47908659D01*
X63103958Y48111035D01*
X63202557Y48377837D01*
X63797443Y48377837D01*
X63896042Y48111035D01*
X64505582Y47884599D01*
X65155377Y47908659D01*
X65643958Y48111035D01*
X65742557Y48377837D01*
X64770000Y49350395D01*
X63797443Y48377837D01*
X63202557Y48377837D01*
X62230000Y49350395D01*
X62215858Y49336252D01*
X62036252Y49515858D01*
X62050395Y49530000D01*
X62409605Y49530000D01*
X63382163Y48557443D01*
X63500000Y48600991D01*
X63617837Y48557443D01*
X64590395Y49530000D01*
X64949605Y49530000D01*
X65922163Y48557443D01*
X66188965Y48656042D01*
X66415401Y49265582D01*
X66391341Y49915377D01*
X66188965Y50403958D01*
X65922163Y50502557D01*
X64949605Y49530000D01*
X64590395Y49530000D01*
X63617837Y50502557D01*
X63500000Y50459009D01*
X63382163Y50502557D01*
X62409605Y49530000D01*
X62050395Y49530000D01*
X62036252Y49544142D01*
X62215858Y49723748D01*
X62230000Y49709605D01*
X63202557Y50682163D01*
X63797443Y50682163D01*
X64770000Y49709605D01*
X65742557Y50682163D01*
X65643958Y50948965D01*
X65034418Y51175401D01*
X64384623Y51151341D01*
X63896042Y50948965D01*
X63797443Y50682163D01*
X63202557Y50682163D01*
X63103958Y50948965D01*
X62494418Y51175401D01*
X61844623Y51151341D01*
X61356042Y50948965D01*
X61257444Y50682164D01*
X61143162Y50796446D01*
X61094000Y50747284D01*
X61094000Y55080000D01*
X60977992Y55663210D01*
X60647631Y56157631D01*
X59123091Y57682171D01*
X59100379Y57796352D01*
X58734249Y58344303D01*
X58674000Y58384560D01*
X58674000Y58588738D01*
X60476247Y60390985D01*
X60341838Y60067292D01*
G36*
X55565751Y50875697D02*
X55922409Y50637385D01*
X55695500Y50454896D01*
X55425633Y49961819D01*
X55408096Y49879039D01*
X55530085Y49657000D01*
X57023000Y49657000D01*
X57023000Y49677000D01*
X57277000Y49677000D01*
X57277000Y49657000D01*
X57297000Y49657000D01*
X57297000Y49403000D01*
X57277000Y49403000D01*
X57277000Y49383000D01*
X57023000Y49383000D01*
X57023000Y49403000D01*
X55530085Y49403000D01*
X55408096Y49180961D01*
X55425633Y49098181D01*
X55695500Y48605104D01*
X55922409Y48422615D01*
X55565751Y48184303D01*
X55199621Y47636352D01*
X55071054Y46990000D01*
X55089719Y46896165D01*
X51903798Y43710244D01*
X51656027Y43339428D01*
X51569021Y42902021D01*
X51569021Y42110717D01*
X51480379Y42556352D01*
X51114249Y43104303D01*
X51000961Y43180000D01*
X51114249Y43255697D01*
X51480379Y43803648D01*
X51608946Y44450000D01*
X51590281Y44543835D01*
X54928196Y47881750D01*
X55175967Y48252566D01*
X55262973Y48689973D01*
X55262973Y51328835D01*
X55565751Y50875697D01*
X55565751Y50875697D01*
G37*
X55565751Y50875697D02*
X55922409Y50637385D01*
X55695500Y50454896D01*
X55425633Y49961819D01*
X55408096Y49879039D01*
X55530085Y49657000D01*
X57023000Y49657000D01*
X57023000Y49677000D01*
X57277000Y49677000D01*
X57277000Y49657000D01*
X57297000Y49657000D01*
X57297000Y49403000D01*
X57277000Y49403000D01*
X57277000Y49383000D01*
X57023000Y49383000D01*
X57023000Y49403000D01*
X55530085Y49403000D01*
X55408096Y49180961D01*
X55425633Y49098181D01*
X55695500Y48605104D01*
X55922409Y48422615D01*
X55565751Y48184303D01*
X55199621Y47636352D01*
X55071054Y46990000D01*
X55089719Y46896165D01*
X51903798Y43710244D01*
X51656027Y43339428D01*
X51569021Y42902021D01*
X51569021Y42110717D01*
X51480379Y42556352D01*
X51114249Y43104303D01*
X51000961Y43180000D01*
X51114249Y43255697D01*
X51480379Y43803648D01*
X51608946Y44450000D01*
X51590281Y44543835D01*
X54928196Y47881750D01*
X55175967Y48252566D01*
X55262973Y48689973D01*
X55262973Y51328835D01*
X55565751Y50875697D01*
G36*
X77597000Y49657000D02*
X77617000Y49657000D01*
X77617000Y49403000D01*
X77597000Y49403000D01*
X77597000Y49383000D01*
X77343000Y49383000D01*
X77343000Y49403000D01*
X77323000Y49403000D01*
X77323000Y49657000D01*
X77343000Y49657000D01*
X77343000Y49677000D01*
X77597000Y49677000D01*
X77597000Y49657000D01*
X77597000Y49657000D01*
G37*
X77597000Y49657000D02*
X77617000Y49657000D01*
X77617000Y49403000D01*
X77597000Y49403000D01*
X77597000Y49383000D01*
X77343000Y49383000D01*
X77343000Y49403000D01*
X77323000Y49403000D01*
X77323000Y49657000D01*
X77343000Y49657000D01*
X77343000Y49677000D01*
X77597000Y49677000D01*
X77597000Y49657000D01*
M02*
