M48
;DRILL file {KiCad (2015-12-07 BZR 6352)-product} date Sun 07 Feb 2016 06:25:32 PM EST
;FORMAT={-:-/ absolute / metric / decimal}
FMAT,2
METRIC,TZ
T1C0.600
T2C0.800
T3C0.900
T4C1.001
T5C1.016
T6C1.200
T7C3.048
%
G90
G05
M71
T1
X34.29Y67.31
X36.83Y71.12
X41.91Y22.225
X43.18Y80.01
X44.45Y20.955
X51.52Y68.217
X52.07Y81.28
X53.34Y78.105
X67.945Y75.565
X74.93Y81.28
X82.55Y78.74
X83.82Y81.28
X83.82Y39.37
T2
X22.86Y31.75
X22.86Y24.13
X25.4Y31.75
X25.4Y24.13
X27.94Y31.75
X27.94Y24.13
X30.48Y31.75
X30.48Y24.13
X31.75Y57.15
X31.75Y54.61
X31.75Y52.07
X31.75Y49.53
X31.75Y46.99
X31.75Y44.45
X31.75Y41.91
X31.75Y39.37
X33.02Y31.75
X33.02Y24.13
X35.56Y31.75
X35.56Y24.13
X38.1Y31.75
X38.1Y24.13
X39.37Y57.15
X39.37Y54.61
X39.37Y52.07
X39.37Y49.53
X39.37Y46.99
X39.37Y44.45
X39.37Y41.91
X39.37Y39.37
X40.64Y31.75
X40.64Y24.13
X43.14Y19.05
X43.14Y11.43
X43.18Y31.75
X43.18Y24.13
X45.68Y19.05
X45.68Y11.43
X45.72Y31.75
X45.72Y24.13
X48.22Y19.05
X48.22Y11.43
X48.26Y31.75
X48.26Y24.13
X49.53Y57.15
X49.53Y54.61
X49.53Y52.07
X49.53Y49.53
X49.53Y46.99
X49.53Y44.45
X49.53Y41.91
X49.53Y39.37
X50.76Y19.05
X50.76Y11.43
X50.8Y31.75
X50.8Y24.13
X53.34Y31.75
X53.34Y24.13
X55.88Y31.75
X55.88Y24.13
X57.15Y57.15
X57.15Y54.61
X57.15Y52.07
X57.15Y49.53
X57.15Y46.99
X57.15Y44.45
X57.15Y41.91
X57.15Y39.37
X69.85Y57.15
X69.85Y54.61
X69.85Y52.07
X69.85Y49.53
X69.85Y46.99
X69.85Y44.45
X69.85Y41.91
X69.85Y39.37
X77.47Y57.15
X77.47Y54.61
X77.47Y52.07
X77.47Y49.53
X77.47Y46.99
X77.47Y44.45
X77.47Y41.91
X77.47Y39.37
X82.55Y21.35
X82.55Y18.81
X82.55Y16.27
X82.55Y13.73
X82.55Y11.19
X82.55Y8.65
X82.55Y6.11
X87.63Y57.15
X87.63Y54.61
X87.63Y52.07
X87.63Y49.53
X87.63Y46.99
X87.63Y44.45
X87.63Y41.91
X87.63Y39.37
X90.17Y21.35
X90.17Y18.81
X90.17Y16.27
X90.17Y13.73
X90.17Y11.19
X90.17Y8.65
X90.17Y6.11
X95.25Y57.15
X95.25Y54.61
X95.25Y52.07
X95.25Y49.53
X95.25Y46.99
X95.25Y44.45
X95.25Y41.91
X95.25Y39.37
X96.52Y21.59
X96.52Y16.51
X104.14Y21.59
X104.14Y16.51
X113.03Y21.59
X113.03Y16.51
X120.65Y21.59
X120.65Y16.51
T3
X38.06Y18.97
X38.06Y13.97
X60.96Y30.4
X60.96Y25.4
X77.47Y28.89
X77.47Y23.89
X77.47Y13.73
X77.47Y8.73
X85.17Y26.43
X90.17Y26.43
T4
X36.83Y85.09
X46.99Y85.09
X49.53Y85.09
X55.88Y17.78
X55.88Y7.62
X58.42Y17.78
X58.42Y7.62
X59.69Y85.09
X62.23Y78.74
X62.23Y68.58
X62.23Y59.69
X62.23Y49.53
X64.77Y78.74
X64.77Y68.58
X64.77Y59.69
X64.77Y49.53
X67.31Y85.09
X69.85Y21.35
X69.85Y16.27
X77.47Y85.09
X80.01Y85.09
X80.01Y21.35
X80.01Y16.27
X90.17Y85.09
X93.98Y11.43
X104.14Y11.43
X110.49Y11.43
X120.65Y11.43
T5
X39.37Y81.28
X39.37Y78.74
X39.37Y73.66
X39.37Y68.58
X39.37Y66.04
X43.18Y8.89
X45.72Y8.89
X46.99Y81.28
X46.99Y78.74
X46.99Y76.2
X46.99Y68.58
X46.99Y66.04
X49.53Y81.28
X49.53Y78.74
X49.53Y73.66
X49.53Y68.58
X49.53Y66.04
X57.15Y81.28
X57.15Y78.74
X57.15Y76.2
X57.15Y68.58
X57.15Y66.04
X69.85Y81.28
X69.85Y78.74
X69.85Y73.66
X69.85Y68.58
X69.85Y66.04
X77.47Y81.28
X77.47Y78.74
X77.47Y76.2
X77.47Y68.58
X77.47Y66.04
X80.01Y81.28
X80.01Y78.74
X80.01Y73.66
X80.01Y68.58
X80.01Y66.04
X87.63Y81.28
X87.63Y78.74
X87.63Y76.2
X87.63Y68.58
X87.63Y66.04
T6
X11.43Y31.399
X11.43Y25.4
X16.129Y28.4
T7
X5.08Y83.82
X5.08Y50.8
X5.08Y5.08
X121.92Y83.82
X121.92Y50.8
X121.92Y5.08
T0
M30
