G04 #@! TF.FileFunction,Copper,L2,Bot,Signal*
%FSLAX46Y46*%
G04 Gerber Fmt 4.6, Leading zero omitted, Abs format (unit mm)*
G04 Created by KiCad (PCBNEW (2015-09-10 BZR 6180)-product) date Mon 26 Oct 2015 05:23:05 PM EDT*
%MOMM*%
G01*
G04 APERTURE LIST*
%ADD10C,0.100000*%
%ADD11R,1.400000X1.400000*%
%ADD12C,1.400000*%
%ADD13O,2.300000X1.600000*%
%ADD14R,1.727200X1.727200*%
%ADD15O,1.727200X1.727200*%
%ADD16R,2.032000X1.727200*%
%ADD17O,2.032000X1.727200*%
%ADD18C,1.998980*%
%ADD19C,1.000760*%
%ADD20C,1.501140*%
%ADD21O,1.699260X3.500120*%
%ADD22R,2.032000X2.032000*%
%ADD23O,2.032000X2.032000*%
%ADD24C,4.064000*%
%ADD25C,0.381000*%
%ADD26C,0.254000*%
G04 APERTURE END LIST*
D10*
D11*
X62230000Y26670000D03*
D12*
X62230000Y31670000D03*
D11*
X60960000Y15240000D03*
D12*
X65960000Y15240000D03*
D13*
X35560000Y48260000D03*
X35560000Y45720000D03*
X35560000Y43180000D03*
X35560000Y40640000D03*
X35560000Y38100000D03*
X35560000Y35560000D03*
X35560000Y33020000D03*
X35560000Y30480000D03*
X35560000Y27940000D03*
X35560000Y25400000D03*
X35560000Y22860000D03*
X35560000Y20320000D03*
X35560000Y17780000D03*
X35560000Y15240000D03*
X43180000Y15240000D03*
X43180000Y17780000D03*
X43180000Y20320000D03*
X43180000Y22860000D03*
X43180000Y25400000D03*
X43180000Y27940000D03*
X43180000Y30480000D03*
X43180000Y33020000D03*
X43180000Y35560000D03*
X43180000Y38100000D03*
X43180000Y40640000D03*
X43180000Y43180000D03*
X43180000Y45720000D03*
X43180000Y48260000D03*
D14*
X28575000Y35560000D03*
D15*
X31115000Y35560000D03*
X28575000Y33020000D03*
X31115000Y33020000D03*
X28575000Y30480000D03*
X31115000Y30480000D03*
D16*
X74930000Y31750000D03*
D17*
X74930000Y29210000D03*
X74930000Y26670000D03*
X74930000Y24130000D03*
X74930000Y21590000D03*
X74930000Y19050000D03*
X74930000Y16510000D03*
D18*
X62230000Y24130000D03*
X72390000Y24130000D03*
X62230000Y19685000D03*
X72390000Y19685000D03*
D13*
X24130000Y53340000D03*
X24130000Y50800000D03*
X24130000Y48260000D03*
X24130000Y45720000D03*
X31750000Y45720000D03*
X31750000Y48260000D03*
X31750000Y50800000D03*
X31750000Y53340000D03*
X57150000Y15240000D03*
X57150000Y17780000D03*
X57150000Y20320000D03*
X57150000Y22860000D03*
X57150000Y25400000D03*
X57150000Y27940000D03*
X57150000Y30480000D03*
X49530000Y30480000D03*
X49530000Y27940000D03*
X49530000Y25400000D03*
X49530000Y22860000D03*
X49530000Y20320000D03*
X49530000Y17780000D03*
X49530000Y15240000D03*
D19*
X21590000Y51320700D03*
X21590000Y52819300D03*
D11*
X38100000Y53340000D03*
D12*
X43100000Y53340000D03*
D11*
X31750000Y58420000D03*
D12*
X26750000Y58420000D03*
D20*
X55880000Y43180000D03*
X55880000Y40640000D03*
X73660000Y40640000D03*
X73660000Y38100000D03*
D11*
X49530000Y35560000D03*
D12*
X54530000Y35560000D03*
D21*
X64770000Y39370000D03*
X62230000Y39370000D03*
X67310000Y39370000D03*
D22*
X60960000Y46990000D03*
D23*
X63500000Y46990000D03*
D24*
X96520000Y68580000D03*
X5080000Y68580000D03*
X5080000Y5080000D03*
X96520000Y5080000D03*
D25*
X57785000Y19050000D02*
X58420000Y19050000D01*
X45085000Y29210000D02*
X47625000Y26670000D01*
X47625000Y26670000D02*
X50800000Y26670000D01*
X50800000Y26670000D02*
X51435000Y26035000D01*
X51435000Y26035000D02*
X51435000Y24765000D01*
X51435000Y24765000D02*
X50800000Y24130000D01*
X50800000Y24130000D02*
X48260000Y24130000D01*
X48260000Y24130000D02*
X47625000Y23495000D01*
X47625000Y23495000D02*
X47625000Y22225000D01*
X47625000Y22225000D02*
X48260000Y21590000D01*
X48260000Y21590000D02*
X52070000Y21590000D01*
X52070000Y21590000D02*
X54610000Y19050000D01*
X54610000Y19050000D02*
X57785000Y19050000D01*
X45085000Y31115000D02*
X45085000Y29210000D01*
X64850000Y34290000D02*
X62230000Y31670000D01*
X75565000Y34290000D02*
X64850000Y34290000D01*
X76835000Y33020000D02*
X75565000Y34290000D01*
X76835000Y26035000D02*
X76835000Y33020000D01*
X76200000Y25400000D02*
X76835000Y26035000D01*
X73660000Y25400000D02*
X76200000Y25400000D01*
X73025000Y26035000D02*
X73660000Y25400000D01*
X67945000Y26035000D02*
X73025000Y26035000D01*
X64135000Y22225000D02*
X67945000Y26035000D01*
X60960000Y22225000D02*
X64135000Y22225000D01*
X59055000Y20320000D02*
X60960000Y22225000D01*
X59055000Y19685000D02*
X59055000Y20320000D01*
X58420000Y19050000D02*
X59055000Y19685000D01*
X65960000Y15240000D02*
X73660000Y15240000D01*
X73660000Y15240000D02*
X74930000Y16510000D01*
X58420000Y12700000D02*
X63420000Y12700000D01*
X63420000Y12700000D02*
X65960000Y15240000D01*
X35560000Y30480000D02*
X40005000Y30480000D01*
X45085000Y31115000D02*
X43180000Y33020000D01*
X45085000Y29845000D02*
X45085000Y31115000D01*
X44450000Y29210000D02*
X45085000Y29845000D01*
X41275000Y29210000D02*
X44450000Y29210000D01*
X40005000Y30480000D02*
X41275000Y29210000D01*
X24130000Y45720000D02*
X24130000Y45085000D01*
X24130000Y45085000D02*
X24765000Y44450000D01*
X34290000Y12700000D02*
X58420000Y12700000D01*
X33020000Y13970000D02*
X34290000Y12700000D01*
X33020000Y20320000D02*
X33020000Y13970000D01*
X31750000Y21590000D02*
X33020000Y20320000D01*
X31750000Y24130000D02*
X31750000Y21590000D01*
X29845000Y26035000D02*
X31750000Y24130000D01*
X26035000Y26035000D02*
X29845000Y26035000D01*
X24765000Y27305000D02*
X26035000Y26035000D01*
X24765000Y35560000D02*
X24765000Y27305000D01*
X24765000Y44450000D02*
X24765000Y35560000D01*
X43100000Y53340000D02*
X45720000Y53340000D01*
X45720000Y53340000D02*
X55880000Y43180000D01*
X31115000Y30480000D02*
X35560000Y30480000D01*
X24130000Y48260000D02*
X24765000Y48260000D01*
X24765000Y48260000D02*
X26750000Y50245000D01*
X26750000Y50245000D02*
X26750000Y58420000D01*
X24130000Y45720000D02*
X24130000Y48260000D01*
X26750000Y58420000D02*
X27305000Y58420000D01*
X74930000Y16510000D02*
X76200000Y16510000D01*
X76200000Y16510000D02*
X78740000Y19050000D01*
X78740000Y19050000D02*
X78740000Y35560000D01*
X78740000Y35560000D02*
X73660000Y40640000D01*
X54530000Y35560000D02*
X54530000Y33100000D01*
X54530000Y33100000D02*
X57150000Y30480000D01*
X54530000Y35560000D02*
X54530000Y41830000D01*
X54530000Y41830000D02*
X55880000Y43180000D01*
X64770000Y43180000D02*
X64770000Y39370000D01*
X73660000Y40640000D02*
X72390000Y40640000D01*
X72390000Y40640000D02*
X69850000Y43180000D01*
X69850000Y43180000D02*
X64770000Y43180000D01*
X63500000Y44450000D02*
X63500000Y46990000D01*
X64770000Y43180000D02*
X63500000Y44450000D01*
X55880000Y43180000D02*
X55880000Y46990000D01*
X55880000Y46990000D02*
X58420000Y49530000D01*
X58420000Y49530000D02*
X62230000Y49530000D01*
X62230000Y49530000D02*
X63500000Y48260000D01*
X63500000Y48260000D02*
X63500000Y46990000D01*
X62230000Y31670000D02*
X58340000Y31670000D01*
X58340000Y31670000D02*
X57150000Y30480000D01*
D26*
X62230000Y19685000D02*
X62230000Y16510000D01*
X62230000Y16510000D02*
X60960000Y15240000D01*
X57150000Y15240000D02*
X60960000Y15240000D01*
X28575000Y30480000D02*
X28575000Y31115000D01*
X28575000Y31115000D02*
X29845000Y32385000D01*
X33655000Y46355000D02*
X35560000Y48260000D01*
X33655000Y43815000D02*
X33655000Y46355000D01*
X29845000Y40005000D02*
X33655000Y43815000D01*
X29845000Y32385000D02*
X29845000Y40005000D01*
X46990000Y34290000D02*
X46990000Y33020000D01*
X53975000Y27940000D02*
X55245000Y26670000D01*
X53975000Y29210000D02*
X53975000Y27940000D01*
X51435000Y31750000D02*
X53975000Y29210000D01*
X48260000Y31750000D02*
X51435000Y31750000D01*
X46990000Y33020000D02*
X48260000Y31750000D01*
X74930000Y29210000D02*
X60960000Y29210000D01*
X60960000Y29210000D02*
X59690000Y27940000D01*
X59690000Y27940000D02*
X59690000Y27305000D01*
X59690000Y27305000D02*
X59055000Y26670000D01*
X59055000Y26670000D02*
X55245000Y26670000D01*
X33655000Y39370000D02*
X34925000Y40640000D01*
X33655000Y37465000D02*
X33655000Y39370000D01*
X34290000Y36830000D02*
X33655000Y37465000D01*
X45720000Y36830000D02*
X34290000Y36830000D01*
X46990000Y35560000D02*
X45720000Y36830000D01*
X46990000Y34290000D02*
X46990000Y35560000D01*
X34925000Y40640000D02*
X35560000Y40640000D01*
X55880000Y29210000D02*
X52705000Y32385000D01*
X52705000Y32385000D02*
X50800000Y32385000D01*
X74930000Y31750000D02*
X66675000Y31750000D01*
X37465000Y38100000D02*
X35560000Y38100000D01*
X50800000Y32385000D02*
X48895000Y32385000D01*
X48895000Y32385000D02*
X47625000Y33655000D01*
X47625000Y33655000D02*
X47625000Y37465000D01*
X47625000Y37465000D02*
X45720000Y39370000D01*
X45720000Y39370000D02*
X38735000Y39370000D01*
X38735000Y39370000D02*
X37465000Y38100000D01*
X59055000Y29210000D02*
X55880000Y29210000D01*
X59690000Y29845000D02*
X59055000Y29210000D01*
X64770000Y29845000D02*
X59690000Y29845000D01*
X66675000Y31750000D02*
X64770000Y29845000D01*
X46355000Y30480000D02*
X47625000Y29210000D01*
X53340000Y26035000D02*
X55245000Y24130000D01*
X53340000Y27305000D02*
X53340000Y26035000D01*
X51435000Y29210000D02*
X53340000Y27305000D01*
X50165000Y29210000D02*
X51435000Y29210000D01*
X47625000Y29210000D02*
X50165000Y29210000D01*
X35560000Y35560000D02*
X40005000Y35560000D01*
X40005000Y35560000D02*
X41275000Y34290000D01*
X62230000Y27940000D02*
X60960000Y27940000D01*
X59055000Y24130000D02*
X55245000Y24130000D01*
X60325000Y25400000D02*
X59055000Y24130000D01*
X60325000Y27305000D02*
X60325000Y25400000D01*
X60960000Y27940000D02*
X60325000Y27305000D01*
X74930000Y26670000D02*
X66040000Y26670000D01*
X64770000Y27940000D02*
X62230000Y27940000D01*
X66040000Y26670000D02*
X64770000Y27940000D01*
X44450000Y34290000D02*
X41275000Y34290000D01*
X46355000Y32385000D02*
X44450000Y34290000D01*
X46355000Y30480000D02*
X46355000Y32385000D01*
D25*
X74930000Y19050000D02*
X73660000Y17780000D01*
X69850000Y17780000D02*
X68580000Y19050000D01*
X73660000Y17780000D02*
X69850000Y17780000D01*
X68580000Y19050000D02*
X67945000Y19050000D01*
X59690000Y19685000D02*
X60960000Y20955000D01*
X51435000Y15240000D02*
X52705000Y16510000D01*
X52705000Y16510000D02*
X59055000Y16510000D01*
X59055000Y16510000D02*
X59690000Y17145000D01*
X59690000Y17145000D02*
X59690000Y19685000D01*
X49530000Y15240000D02*
X51435000Y15240000D01*
X67945000Y19050000D02*
X68580000Y19050000D01*
X60960000Y20955000D02*
X61595000Y21590000D01*
X61595000Y21590000D02*
X63500000Y21590000D01*
X63500000Y21590000D02*
X66040000Y19050000D01*
X66040000Y19050000D02*
X67945000Y19050000D01*
X45720000Y26670000D02*
X46355000Y26035000D01*
X46355000Y20320000D02*
X45085000Y19050000D01*
X46355000Y23495000D02*
X46355000Y20320000D01*
X46355000Y26035000D02*
X46355000Y23495000D01*
X43180000Y30480000D02*
X41275000Y30480000D01*
X38735000Y33020000D02*
X35560000Y33020000D01*
X41275000Y30480000D02*
X38735000Y33020000D01*
X35560000Y33020000D02*
X33655000Y33020000D01*
X33655000Y33020000D02*
X31115000Y35560000D01*
X25400000Y29210000D02*
X25400000Y27940000D01*
X33655000Y14605000D02*
X34925000Y13335000D01*
X33655000Y20955000D02*
X33655000Y14605000D01*
X32385000Y22225000D02*
X33655000Y20955000D01*
X32385000Y24765000D02*
X32385000Y22225000D01*
X30480000Y26670000D02*
X32385000Y24765000D01*
X26670000Y26670000D02*
X30480000Y26670000D01*
X25400000Y27940000D02*
X26670000Y26670000D01*
X31750000Y53340000D02*
X30480000Y53340000D01*
X34925000Y13335000D02*
X41910000Y13335000D01*
X25400000Y39370000D02*
X25400000Y29210000D01*
X27940000Y41910000D02*
X25400000Y39370000D01*
X27940000Y50800000D02*
X27940000Y41910000D01*
X30480000Y53340000D02*
X27940000Y50800000D01*
X43180000Y27940000D02*
X44450000Y27940000D01*
X41275000Y13970000D02*
X41910000Y13335000D01*
X41275000Y18415000D02*
X41275000Y13970000D01*
X41910000Y19050000D02*
X41275000Y18415000D01*
X44450000Y19050000D02*
X41910000Y19050000D01*
X44450000Y27940000D02*
X45720000Y26670000D01*
X45085000Y19050000D02*
X44450000Y19050000D01*
X49530000Y35560000D02*
X49530000Y38100000D01*
X49530000Y38100000D02*
X45402500Y42227500D01*
X31115000Y35560000D02*
X31115000Y38735000D01*
X31115000Y38735000D02*
X34290000Y41910000D01*
X34290000Y41910000D02*
X43815000Y41910000D01*
X43815000Y41910000D02*
X45085000Y41910000D01*
X45085000Y41910000D02*
X45402500Y42227500D01*
X39370000Y52070000D02*
X38100000Y53340000D01*
X44450000Y52070000D02*
X39370000Y52070000D01*
X45720000Y50800000D02*
X44450000Y52070000D01*
X45720000Y42545000D02*
X45720000Y50800000D01*
X45402500Y42227500D02*
X45720000Y42545000D01*
X34925000Y33020000D02*
X35560000Y33020000D01*
X31750000Y53340000D02*
X31750000Y58420000D01*
X38100000Y53340000D02*
X31750000Y53340000D01*
X43180000Y27940000D02*
X43815000Y27940000D01*
X47625000Y13335000D02*
X49530000Y15240000D01*
X41910000Y13335000D02*
X47625000Y13335000D01*
X73660000Y38100000D02*
X76200000Y35560000D01*
X76200000Y35560000D02*
X77470000Y34290000D01*
X77470000Y34290000D02*
X77470000Y26670000D01*
X77470000Y26670000D02*
X77470000Y20320000D01*
X77470000Y20320000D02*
X76200000Y19050000D01*
X76200000Y19050000D02*
X74930000Y19050000D01*
X67310000Y39370000D02*
X72390000Y39370000D01*
X72390000Y39370000D02*
X73660000Y38100000D01*
D26*
X49530000Y20320000D02*
X44450000Y15240000D01*
X44450000Y15240000D02*
X43180000Y15240000D01*
X49530000Y25400000D02*
X48260000Y25400000D01*
X45720000Y18415000D02*
X45085000Y17780000D01*
X46990000Y19685000D02*
X45720000Y18415000D01*
X46990000Y24130000D02*
X46990000Y19685000D01*
X48260000Y25400000D02*
X46990000Y24130000D01*
X43180000Y17780000D02*
X45085000Y17780000D01*
X29845000Y29845000D02*
X30480000Y29210000D01*
X45085000Y20320000D02*
X43180000Y20320000D01*
X45720000Y20955000D02*
X45085000Y20320000D01*
X45720000Y23495000D02*
X45720000Y20955000D01*
X45720000Y25400000D02*
X45720000Y23495000D01*
X44450000Y26670000D02*
X45720000Y25400000D01*
X41910000Y26670000D02*
X44450000Y26670000D01*
X41275000Y27305000D02*
X41910000Y26670000D01*
X39370000Y29210000D02*
X41275000Y27305000D01*
X37465000Y29210000D02*
X39370000Y29210000D01*
X36195000Y29210000D02*
X37465000Y29210000D01*
X33020000Y29210000D02*
X36195000Y29210000D01*
X30480000Y29210000D02*
X33020000Y29210000D01*
X29845000Y30480000D02*
X29845000Y31115000D01*
X29845000Y31115000D02*
X31115000Y32385000D01*
X31115000Y32385000D02*
X31115000Y33020000D01*
X29845000Y29845000D02*
X29845000Y30480000D01*
X28575000Y35560000D02*
X27305000Y35560000D01*
X41910000Y21590000D02*
X43180000Y22860000D01*
X34290000Y21590000D02*
X41910000Y21590000D01*
X33020000Y22860000D02*
X34290000Y21590000D01*
X33020000Y25400000D02*
X33020000Y22860000D01*
X31115000Y27305000D02*
X33020000Y25400000D01*
X27305000Y27305000D02*
X31115000Y27305000D01*
X26035000Y28575000D02*
X27305000Y27305000D01*
X26035000Y34290000D02*
X26035000Y28575000D01*
X27305000Y35560000D02*
X26035000Y34290000D01*
X28575000Y33020000D02*
X27305000Y33020000D01*
X38735000Y25400000D02*
X43180000Y25400000D01*
X37465000Y26670000D02*
X38735000Y25400000D01*
X33655000Y26670000D02*
X37465000Y26670000D01*
X32385000Y27940000D02*
X33655000Y26670000D01*
X27940000Y27940000D02*
X32385000Y27940000D01*
X26670000Y29210000D02*
X27940000Y27940000D01*
X26670000Y32385000D02*
X26670000Y29210000D01*
X27305000Y33020000D02*
X26670000Y32385000D01*
X31750000Y45720000D02*
X33020000Y46990000D01*
X33020000Y46990000D02*
X33655000Y47625000D01*
X31750000Y45720000D02*
X32385000Y45720000D01*
X33655000Y47625000D02*
X33655000Y48895000D01*
X41275000Y46990000D02*
X42545000Y45720000D01*
X41275000Y48260000D02*
X41275000Y46990000D01*
X39370000Y50165000D02*
X41275000Y48260000D01*
X34925000Y50165000D02*
X39370000Y50165000D01*
X33655000Y48895000D02*
X34925000Y50165000D01*
X42545000Y45720000D02*
X43180000Y45720000D01*
X31750000Y48260000D02*
X32385000Y48260000D01*
X32385000Y48260000D02*
X33020000Y48895000D01*
X33020000Y48895000D02*
X33020000Y49530000D01*
X33020000Y49530000D02*
X34290000Y50800000D01*
X34290000Y50800000D02*
X41910000Y50800000D01*
X41910000Y50800000D02*
X43180000Y49530000D01*
X43180000Y49530000D02*
X43180000Y48260000D01*
X72390000Y24130000D02*
X74930000Y24130000D01*
X72390000Y19685000D02*
X72390000Y20320000D01*
X72390000Y20320000D02*
X73660000Y21590000D01*
X73660000Y21590000D02*
X74930000Y21590000D01*
X24130000Y53340000D02*
X22110700Y53340000D01*
X22110700Y53340000D02*
X21590000Y52819300D01*
X24130000Y50800000D02*
X22110700Y50800000D01*
X22110700Y50800000D02*
X21590000Y51320700D01*
X57150000Y22860000D02*
X49530000Y22860000D01*
X57150000Y17780000D02*
X49530000Y17780000D01*
X62230000Y24130000D02*
X60960000Y24130000D01*
X60960000Y24130000D02*
X57150000Y20320000D01*
X62230000Y24130000D02*
X62230000Y26670000D01*
X62230000Y39370000D02*
X57150000Y39370000D01*
X57150000Y39370000D02*
X55880000Y40640000D01*
X60960000Y46990000D02*
X60960000Y40640000D01*
X60960000Y40640000D02*
X62230000Y39370000D01*
G36*
X88773000Y7747000D02*
X10287000Y7747000D01*
X10287000Y39370000D01*
X24320500Y39370000D01*
X24320500Y27940000D01*
X24402672Y27526893D01*
X24636678Y27176678D01*
X25906678Y25906678D01*
X26256893Y25672672D01*
X26670000Y25590500D01*
X30032856Y25590500D01*
X31305500Y24317856D01*
X31305500Y22225000D01*
X31387672Y21811893D01*
X31621678Y21461678D01*
X32575500Y20507856D01*
X32575500Y14605000D01*
X32657672Y14191893D01*
X32891678Y13841678D01*
X34161678Y12571678D01*
X34511893Y12337672D01*
X34925000Y12255500D01*
X41909995Y12255500D01*
X41910000Y12255499D01*
X41910005Y12255500D01*
X47625000Y12255500D01*
X48038107Y12337672D01*
X48388322Y12571678D01*
X49367644Y13551000D01*
X49919946Y13551000D01*
X50566298Y13679567D01*
X51114249Y14045697D01*
X51190958Y14160500D01*
X51435000Y14160500D01*
X51848107Y14242672D01*
X52198322Y14476678D01*
X53152144Y15430500D01*
X55108947Y15430500D01*
X55071054Y15240000D01*
X55199621Y14593648D01*
X55565751Y14045697D01*
X56113702Y13679567D01*
X56760054Y13551000D01*
X57539946Y13551000D01*
X58186298Y13679567D01*
X58734249Y14045697D01*
X58853388Y14224000D01*
X59413043Y14224000D01*
X59415573Y14210556D01*
X59610274Y13907983D01*
X59907353Y13704997D01*
X60260000Y13633584D01*
X61660000Y13633584D01*
X61989444Y13695573D01*
X62292017Y13890274D01*
X62495003Y14187353D01*
X62518771Y14304725D01*
X65204331Y14304725D01*
X65266169Y14068958D01*
X65767122Y13892581D01*
X66297440Y13921336D01*
X66653831Y14068958D01*
X66715669Y14304725D01*
X65960000Y15060395D01*
X65204331Y14304725D01*
X62518771Y14304725D01*
X62566416Y14540000D01*
X62566416Y15409575D01*
X62589719Y15432878D01*
X64612581Y15432878D01*
X64641336Y14902560D01*
X64788958Y14546169D01*
X65024725Y14484331D01*
X65780395Y15240000D01*
X66139605Y15240000D01*
X66895275Y14484331D01*
X67131042Y14546169D01*
X67307419Y15047122D01*
X67278664Y15577440D01*
X67131042Y15933831D01*
X66895275Y15995669D01*
X66139605Y15240000D01*
X65780395Y15240000D01*
X65024725Y15995669D01*
X64788958Y15933831D01*
X64612581Y15432878D01*
X62589719Y15432878D01*
X62948420Y15791579D01*
X63148487Y16091000D01*
X63168662Y16121194D01*
X63179419Y16175275D01*
X65204331Y16175275D01*
X65960000Y15419605D01*
X66691368Y16150974D01*
X73322642Y16150974D01*
X73325291Y16135209D01*
X73579268Y15607964D01*
X74015680Y15218046D01*
X74568087Y15024816D01*
X74803000Y15169076D01*
X74803000Y16383000D01*
X75057000Y16383000D01*
X75057000Y15169076D01*
X75291913Y15024816D01*
X75844320Y15218046D01*
X76280732Y15607964D01*
X76534709Y16135209D01*
X76537358Y16150974D01*
X76416217Y16383000D01*
X75057000Y16383000D01*
X74803000Y16383000D01*
X73443783Y16383000D01*
X73322642Y16150974D01*
X66691368Y16150974D01*
X66715669Y16175275D01*
X66653831Y16411042D01*
X66152878Y16587419D01*
X65622560Y16558664D01*
X65266169Y16411042D01*
X65204331Y16175275D01*
X63179419Y16175275D01*
X63246000Y16510000D01*
X63246000Y18061453D01*
X63298346Y18083082D01*
X63830051Y18613859D01*
X64118162Y19307708D01*
X64118282Y19445075D01*
X65276676Y18286681D01*
X65276678Y18286678D01*
X65578587Y18084949D01*
X65626893Y18052672D01*
X66040000Y17970500D01*
X68132856Y17970500D01*
X69086678Y17016678D01*
X69436893Y16782672D01*
X69850000Y16700500D01*
X73410630Y16700500D01*
X73443783Y16637000D01*
X74803000Y16637000D01*
X74803000Y16657000D01*
X75057000Y16657000D01*
X75057000Y16637000D01*
X76416217Y16637000D01*
X76537358Y16869026D01*
X76534709Y16884791D01*
X76280732Y17412036D01*
X76058918Y17610219D01*
X76358996Y17810725D01*
X76506490Y18031464D01*
X76613107Y18052672D01*
X76963322Y18286678D01*
X78233322Y19556678D01*
X78467328Y19906893D01*
X78549500Y20320000D01*
X78549500Y34290000D01*
X78467328Y34703107D01*
X78233322Y35053322D01*
X76963322Y36323322D01*
X76963319Y36323324D01*
X75299472Y37987171D01*
X75299854Y38424700D01*
X75050770Y39027528D01*
X74589954Y39489149D01*
X74421545Y39559079D01*
X74452325Y39668070D01*
X73660000Y40460395D01*
X73645858Y40446253D01*
X73466253Y40625858D01*
X73480395Y40640000D01*
X73839605Y40640000D01*
X74631930Y39847675D01*
X74872931Y39915735D01*
X75057767Y40435034D01*
X75029805Y40985538D01*
X74872931Y41364265D01*
X74631930Y41432325D01*
X73839605Y40640000D01*
X73480395Y40640000D01*
X72688070Y41432325D01*
X72447069Y41364265D01*
X72262233Y40844966D01*
X72282320Y40449500D01*
X69023295Y40449500D01*
X68916285Y40987477D01*
X68539397Y41551529D01*
X68449001Y41611930D01*
X72867675Y41611930D01*
X73660000Y40819605D01*
X74452325Y41611930D01*
X74384265Y41852931D01*
X73864966Y42037767D01*
X73314462Y42009805D01*
X72935735Y41852931D01*
X72867675Y41611930D01*
X68449001Y41611930D01*
X67975345Y41928417D01*
X67310000Y42060762D01*
X66644655Y41928417D01*
X66080603Y41551529D01*
X65869470Y41235546D01*
X65729989Y41410024D01*
X65220810Y41690649D01*
X65126832Y41711540D01*
X64897000Y41590214D01*
X64897000Y39497000D01*
X64917000Y39497000D01*
X64917000Y39243000D01*
X64897000Y39243000D01*
X64897000Y37149786D01*
X65126832Y37028460D01*
X65220810Y37049351D01*
X65729989Y37329976D01*
X65869470Y37504454D01*
X66080603Y37188471D01*
X66644655Y36811583D01*
X67310000Y36679238D01*
X67975345Y36811583D01*
X68539397Y37188471D01*
X68916285Y37752523D01*
X69023295Y38290500D01*
X71942856Y38290500D01*
X72020528Y38212828D01*
X72020146Y37775300D01*
X72269230Y37172472D01*
X72730046Y36710851D01*
X73332439Y36460715D01*
X73773026Y36460331D01*
X75436676Y34796681D01*
X75436678Y34796678D01*
X76390500Y33842856D01*
X76390500Y33385842D01*
X76298647Y33448603D01*
X75946000Y33520016D01*
X73914000Y33520016D01*
X73584556Y33458027D01*
X73281983Y33263326D01*
X73078997Y32966247D01*
X73038446Y32766000D01*
X66675000Y32766000D01*
X66350700Y32701493D01*
X66286193Y32688662D01*
X65956580Y32468421D01*
X64349160Y30861000D01*
X63218608Y30861000D01*
X63165277Y30914331D01*
X63401042Y30976169D01*
X63577419Y31477122D01*
X63548664Y32007440D01*
X63401042Y32363831D01*
X63165275Y32425669D01*
X62409605Y31670000D01*
X62423748Y31655858D01*
X62244142Y31476252D01*
X62230000Y31490395D01*
X62215858Y31476252D01*
X62036252Y31655858D01*
X62050395Y31670000D01*
X61294725Y32425669D01*
X61058958Y32363831D01*
X60882581Y31862878D01*
X60911336Y31332560D01*
X61058958Y30976169D01*
X61294723Y30914331D01*
X61241392Y30861000D01*
X59690000Y30861000D01*
X59301193Y30783662D01*
X58971580Y30563421D01*
X58935000Y30526841D01*
X58935000Y30607002D01*
X58769916Y30607002D01*
X58891904Y30829039D01*
X58874367Y30911819D01*
X58604500Y31404896D01*
X58166483Y31757166D01*
X57627000Y31915000D01*
X57277000Y31915000D01*
X57277000Y30607000D01*
X57297000Y30607000D01*
X57297000Y30353000D01*
X57277000Y30353000D01*
X57277000Y30333000D01*
X57023000Y30333000D01*
X57023000Y30353000D01*
X57003000Y30353000D01*
X57003000Y30607000D01*
X57023000Y30607000D01*
X57023000Y31915000D01*
X56673000Y31915000D01*
X56133517Y31757166D01*
X55695500Y31404896D01*
X55492623Y31034217D01*
X53921565Y32605275D01*
X61474331Y32605275D01*
X62230000Y31849605D01*
X62985669Y32605275D01*
X62923831Y32841042D01*
X62422878Y33017419D01*
X61892560Y32988664D01*
X61536169Y32841042D01*
X61474331Y32605275D01*
X53921565Y32605275D01*
X53423420Y33103420D01*
X53093807Y33323662D01*
X53029300Y33336493D01*
X52705000Y33401000D01*
X49315841Y33401000D01*
X48746308Y33970532D01*
X48830000Y33953584D01*
X50230000Y33953584D01*
X50559444Y34015573D01*
X50862017Y34210274D01*
X51065003Y34507353D01*
X51088771Y34624725D01*
X53774331Y34624725D01*
X53836169Y34388958D01*
X54337122Y34212581D01*
X54867440Y34241336D01*
X55223831Y34388958D01*
X55285669Y34624725D01*
X54530000Y35380395D01*
X53774331Y34624725D01*
X51088771Y34624725D01*
X51136416Y34860000D01*
X51136416Y35752878D01*
X53182581Y35752878D01*
X53211336Y35222560D01*
X53358958Y34866169D01*
X53594725Y34804331D01*
X54350395Y35560000D01*
X54709605Y35560000D01*
X55465275Y34804331D01*
X55701042Y34866169D01*
X55877419Y35367122D01*
X55848664Y35897440D01*
X55701042Y36253831D01*
X55465275Y36315669D01*
X54709605Y35560000D01*
X54350395Y35560000D01*
X53594725Y36315669D01*
X53358958Y36253831D01*
X53182581Y35752878D01*
X51136416Y35752878D01*
X51136416Y36260000D01*
X51092147Y36495275D01*
X53774331Y36495275D01*
X54530000Y35739605D01*
X55285669Y36495275D01*
X55223831Y36731042D01*
X54722878Y36907419D01*
X54192560Y36878664D01*
X53836169Y36731042D01*
X53774331Y36495275D01*
X51092147Y36495275D01*
X51074427Y36589444D01*
X50879726Y36892017D01*
X50609500Y37076655D01*
X50609500Y38100000D01*
X50527328Y38513107D01*
X50293322Y38863322D01*
X50293319Y38863324D01*
X48841344Y40315300D01*
X54240146Y40315300D01*
X54489230Y39712472D01*
X54950046Y39250851D01*
X55552439Y39000715D01*
X56082907Y39000252D01*
X56431579Y38651580D01*
X56498780Y38606678D01*
X56761194Y38431338D01*
X57150000Y38354000D01*
X60504074Y38354000D01*
X60623715Y37752523D01*
X61000603Y37188471D01*
X61564655Y36811583D01*
X62230000Y36679238D01*
X62895345Y36811583D01*
X63459397Y37188471D01*
X63670530Y37504454D01*
X63810011Y37329976D01*
X64319190Y37049351D01*
X64413168Y37028460D01*
X64643000Y37149786D01*
X64643000Y39243000D01*
X64623000Y39243000D01*
X64623000Y39497000D01*
X64643000Y39497000D01*
X64643000Y41590214D01*
X64413168Y41711540D01*
X64319190Y41690649D01*
X63810011Y41410024D01*
X63670530Y41235546D01*
X63459397Y41551529D01*
X62895345Y41928417D01*
X62230000Y42060762D01*
X61976000Y42010238D01*
X61976000Y45067584D01*
X62305444Y45129573D01*
X62608017Y45324274D01*
X62752123Y45535179D01*
X63117056Y45384025D01*
X63373000Y45503164D01*
X63373000Y46863000D01*
X63627000Y46863000D01*
X63627000Y45503164D01*
X63882944Y45384025D01*
X64364818Y45583615D01*
X64837188Y46021621D01*
X65105983Y46607054D01*
X64987367Y46863000D01*
X63627000Y46863000D01*
X63373000Y46863000D01*
X63353000Y46863000D01*
X63353000Y47117000D01*
X63373000Y47117000D01*
X63373000Y48476836D01*
X63627000Y48476836D01*
X63627000Y47117000D01*
X64987367Y47117000D01*
X65105983Y47372946D01*
X64837188Y47958379D01*
X64364818Y48396385D01*
X63882944Y48595975D01*
X63627000Y48476836D01*
X63373000Y48476836D01*
X63117056Y48595975D01*
X62750482Y48444142D01*
X62625726Y48638017D01*
X62328647Y48841003D01*
X61976000Y48912416D01*
X59944000Y48912416D01*
X59614556Y48850427D01*
X59311983Y48655726D01*
X59108997Y48358647D01*
X59037584Y48006000D01*
X59037584Y45974000D01*
X59099573Y45644556D01*
X59294274Y45341983D01*
X59591353Y45138997D01*
X59944000Y45067584D01*
X59944000Y40640000D01*
X59979726Y40460395D01*
X59994524Y40386000D01*
X57570841Y40386000D01*
X57519394Y40437447D01*
X57519854Y40964700D01*
X57270770Y41567528D01*
X56809954Y42029149D01*
X56641545Y42099079D01*
X56672325Y42208070D01*
X55880000Y43000395D01*
X55087675Y42208070D01*
X55118385Y42099324D01*
X54952472Y42030770D01*
X54490851Y41569954D01*
X54240715Y40967561D01*
X54240146Y40315300D01*
X48841344Y40315300D01*
X46768333Y42388311D01*
X46799500Y42545000D01*
X46799500Y43384966D01*
X54482233Y43384966D01*
X54510195Y42834462D01*
X54667069Y42455735D01*
X54908070Y42387675D01*
X55700395Y43180000D01*
X56059605Y43180000D01*
X56851930Y42387675D01*
X57092931Y42455735D01*
X57277767Y42975034D01*
X57249805Y43525538D01*
X57092931Y43904265D01*
X56851930Y43972325D01*
X56059605Y43180000D01*
X55700395Y43180000D01*
X54908070Y43972325D01*
X54667069Y43904265D01*
X54482233Y43384966D01*
X46799500Y43384966D01*
X46799500Y44151930D01*
X55087675Y44151930D01*
X55880000Y43359605D01*
X56672325Y44151930D01*
X56604265Y44392931D01*
X56084966Y44577767D01*
X55534462Y44549805D01*
X55155735Y44392931D01*
X55087675Y44151930D01*
X46799500Y44151930D01*
X46799500Y50800000D01*
X46717328Y51213107D01*
X46483322Y51563322D01*
X45213322Y52833322D01*
X44863107Y53067328D01*
X44450000Y53149500D01*
X44447290Y53149500D01*
X44418664Y53677440D01*
X44271042Y54033831D01*
X44035275Y54095669D01*
X43279605Y53340000D01*
X43293748Y53325858D01*
X43117390Y53149500D01*
X43110895Y53149500D01*
X43100000Y53160395D01*
X43089105Y53149500D01*
X43082610Y53149500D01*
X42906253Y53325858D01*
X42920395Y53340000D01*
X42164725Y54095669D01*
X41928958Y54033831D01*
X41752581Y53532878D01*
X41773369Y53149500D01*
X39817144Y53149500D01*
X39706416Y53260228D01*
X39706416Y54040000D01*
X39662147Y54275275D01*
X42344331Y54275275D01*
X43100000Y53519605D01*
X43855669Y54275275D01*
X43793831Y54511042D01*
X43292878Y54687419D01*
X42762560Y54658664D01*
X42406169Y54511042D01*
X42344331Y54275275D01*
X39662147Y54275275D01*
X39644427Y54369444D01*
X39449726Y54672017D01*
X39152647Y54875003D01*
X38800000Y54946416D01*
X37400000Y54946416D01*
X37070556Y54884427D01*
X36767983Y54689726D01*
X36583345Y54419500D01*
X33410958Y54419500D01*
X33334249Y54534303D01*
X32829500Y54871566D01*
X32829500Y56907783D01*
X33082017Y57070274D01*
X33285003Y57367353D01*
X33356416Y57720000D01*
X33356416Y59120000D01*
X33294427Y59449444D01*
X33099726Y59752017D01*
X32802647Y59955003D01*
X32450000Y60026416D01*
X31050000Y60026416D01*
X30720556Y59964427D01*
X30417983Y59769726D01*
X30214997Y59472647D01*
X30143584Y59120000D01*
X30143584Y57720000D01*
X30205573Y57390556D01*
X30400274Y57087983D01*
X30670500Y56903345D01*
X30670500Y54871566D01*
X30165751Y54534303D01*
X30007716Y54297787D01*
X29716678Y54103322D01*
X29716676Y54103319D01*
X27176678Y51563322D01*
X26942672Y51213107D01*
X26860500Y50800000D01*
X26860500Y42357143D01*
X24636678Y40133322D01*
X24402672Y39783107D01*
X24320500Y39370000D01*
X10287000Y39370000D01*
X10287000Y45370961D01*
X22388096Y45370961D01*
X22405633Y45288181D01*
X22675500Y44795104D01*
X23113517Y44442834D01*
X23653000Y44285000D01*
X24003000Y44285000D01*
X24003000Y45593000D01*
X24257000Y45593000D01*
X24257000Y44285000D01*
X24607000Y44285000D01*
X25146483Y44442834D01*
X25584500Y44795104D01*
X25854367Y45288181D01*
X25871904Y45370961D01*
X25749915Y45593000D01*
X24257000Y45593000D01*
X24003000Y45593000D01*
X22510085Y45593000D01*
X22388096Y45370961D01*
X10287000Y45370961D01*
X10287000Y47910961D01*
X22388096Y47910961D01*
X22405633Y47828181D01*
X22675500Y47335104D01*
X23104607Y46990000D01*
X22675500Y46644896D01*
X22405633Y46151819D01*
X22388096Y46069039D01*
X22510085Y45847000D01*
X24003000Y45847000D01*
X24003000Y48133000D01*
X24257000Y48133000D01*
X24257000Y45847000D01*
X25749915Y45847000D01*
X25871904Y46069039D01*
X25854367Y46151819D01*
X25584500Y46644896D01*
X25155393Y46990000D01*
X25584500Y47335104D01*
X25854367Y47828181D01*
X25871904Y47910961D01*
X25749915Y48133000D01*
X24257000Y48133000D01*
X24003000Y48133000D01*
X22510085Y48133000D01*
X22388096Y47910961D01*
X10287000Y47910961D01*
X10287000Y52544148D01*
X20200379Y52544148D01*
X20396515Y52069463D01*
X20200861Y51598277D01*
X20200379Y51045548D01*
X20411454Y50534707D01*
X20801952Y50143527D01*
X21312423Y49931561D01*
X21617195Y49931295D01*
X21721893Y49861338D01*
X21786400Y49848507D01*
X22110700Y49784000D01*
X22426612Y49784000D01*
X22545751Y49605697D01*
X22902409Y49367385D01*
X22675500Y49184896D01*
X22405633Y48691819D01*
X22388096Y48609039D01*
X22510085Y48387000D01*
X24003000Y48387000D01*
X24003000Y48407000D01*
X24257000Y48407000D01*
X24257000Y48387000D01*
X25749915Y48387000D01*
X25871904Y48609039D01*
X25854367Y48691819D01*
X25584500Y49184896D01*
X25357591Y49367385D01*
X25714249Y49605697D01*
X26080379Y50153648D01*
X26208946Y50800000D01*
X26080379Y51446352D01*
X25714249Y51994303D01*
X25600961Y52070000D01*
X25714249Y52145697D01*
X26080379Y52693648D01*
X26208946Y53340000D01*
X26080379Y53986352D01*
X25714249Y54534303D01*
X25166298Y54900433D01*
X24519946Y55029000D01*
X23740054Y55029000D01*
X23093702Y54900433D01*
X22545751Y54534303D01*
X22426612Y54356000D01*
X22110700Y54356000D01*
X21786400Y54291493D01*
X21721893Y54278662D01*
X21617124Y54208657D01*
X21314848Y54208921D01*
X20804007Y53997846D01*
X20412827Y53607348D01*
X20200861Y53096877D01*
X20200379Y52544148D01*
X10287000Y52544148D01*
X10287000Y57484725D01*
X25994331Y57484725D01*
X26056169Y57248958D01*
X26557122Y57072581D01*
X27087440Y57101336D01*
X27443831Y57248958D01*
X27505669Y57484725D01*
X26750000Y58240395D01*
X25994331Y57484725D01*
X10287000Y57484725D01*
X10287000Y58612878D01*
X25402581Y58612878D01*
X25431336Y58082560D01*
X25578958Y57726169D01*
X25814725Y57664331D01*
X26570395Y58420000D01*
X26929605Y58420000D01*
X27685275Y57664331D01*
X27921042Y57726169D01*
X28097419Y58227122D01*
X28068664Y58757440D01*
X27921042Y59113831D01*
X27685275Y59175669D01*
X26929605Y58420000D01*
X26570395Y58420000D01*
X25814725Y59175669D01*
X25578958Y59113831D01*
X25402581Y58612878D01*
X10287000Y58612878D01*
X10287000Y59355275D01*
X25994331Y59355275D01*
X26750000Y58599605D01*
X27505669Y59355275D01*
X27443831Y59591042D01*
X26942878Y59767419D01*
X26412560Y59738664D01*
X26056169Y59591042D01*
X25994331Y59355275D01*
X10287000Y59355275D01*
X10287000Y65913000D01*
X88773000Y65913000D01*
X88773000Y7747000D01*
X88773000Y7747000D01*
G37*
X88773000Y7747000D02*
X10287000Y7747000D01*
X10287000Y39370000D01*
X24320500Y39370000D01*
X24320500Y27940000D01*
X24402672Y27526893D01*
X24636678Y27176678D01*
X25906678Y25906678D01*
X26256893Y25672672D01*
X26670000Y25590500D01*
X30032856Y25590500D01*
X31305500Y24317856D01*
X31305500Y22225000D01*
X31387672Y21811893D01*
X31621678Y21461678D01*
X32575500Y20507856D01*
X32575500Y14605000D01*
X32657672Y14191893D01*
X32891678Y13841678D01*
X34161678Y12571678D01*
X34511893Y12337672D01*
X34925000Y12255500D01*
X41909995Y12255500D01*
X41910000Y12255499D01*
X41910005Y12255500D01*
X47625000Y12255500D01*
X48038107Y12337672D01*
X48388322Y12571678D01*
X49367644Y13551000D01*
X49919946Y13551000D01*
X50566298Y13679567D01*
X51114249Y14045697D01*
X51190958Y14160500D01*
X51435000Y14160500D01*
X51848107Y14242672D01*
X52198322Y14476678D01*
X53152144Y15430500D01*
X55108947Y15430500D01*
X55071054Y15240000D01*
X55199621Y14593648D01*
X55565751Y14045697D01*
X56113702Y13679567D01*
X56760054Y13551000D01*
X57539946Y13551000D01*
X58186298Y13679567D01*
X58734249Y14045697D01*
X58853388Y14224000D01*
X59413043Y14224000D01*
X59415573Y14210556D01*
X59610274Y13907983D01*
X59907353Y13704997D01*
X60260000Y13633584D01*
X61660000Y13633584D01*
X61989444Y13695573D01*
X62292017Y13890274D01*
X62495003Y14187353D01*
X62518771Y14304725D01*
X65204331Y14304725D01*
X65266169Y14068958D01*
X65767122Y13892581D01*
X66297440Y13921336D01*
X66653831Y14068958D01*
X66715669Y14304725D01*
X65960000Y15060395D01*
X65204331Y14304725D01*
X62518771Y14304725D01*
X62566416Y14540000D01*
X62566416Y15409575D01*
X62589719Y15432878D01*
X64612581Y15432878D01*
X64641336Y14902560D01*
X64788958Y14546169D01*
X65024725Y14484331D01*
X65780395Y15240000D01*
X66139605Y15240000D01*
X66895275Y14484331D01*
X67131042Y14546169D01*
X67307419Y15047122D01*
X67278664Y15577440D01*
X67131042Y15933831D01*
X66895275Y15995669D01*
X66139605Y15240000D01*
X65780395Y15240000D01*
X65024725Y15995669D01*
X64788958Y15933831D01*
X64612581Y15432878D01*
X62589719Y15432878D01*
X62948420Y15791579D01*
X63148487Y16091000D01*
X63168662Y16121194D01*
X63179419Y16175275D01*
X65204331Y16175275D01*
X65960000Y15419605D01*
X66691368Y16150974D01*
X73322642Y16150974D01*
X73325291Y16135209D01*
X73579268Y15607964D01*
X74015680Y15218046D01*
X74568087Y15024816D01*
X74803000Y15169076D01*
X74803000Y16383000D01*
X75057000Y16383000D01*
X75057000Y15169076D01*
X75291913Y15024816D01*
X75844320Y15218046D01*
X76280732Y15607964D01*
X76534709Y16135209D01*
X76537358Y16150974D01*
X76416217Y16383000D01*
X75057000Y16383000D01*
X74803000Y16383000D01*
X73443783Y16383000D01*
X73322642Y16150974D01*
X66691368Y16150974D01*
X66715669Y16175275D01*
X66653831Y16411042D01*
X66152878Y16587419D01*
X65622560Y16558664D01*
X65266169Y16411042D01*
X65204331Y16175275D01*
X63179419Y16175275D01*
X63246000Y16510000D01*
X63246000Y18061453D01*
X63298346Y18083082D01*
X63830051Y18613859D01*
X64118162Y19307708D01*
X64118282Y19445075D01*
X65276676Y18286681D01*
X65276678Y18286678D01*
X65578587Y18084949D01*
X65626893Y18052672D01*
X66040000Y17970500D01*
X68132856Y17970500D01*
X69086678Y17016678D01*
X69436893Y16782672D01*
X69850000Y16700500D01*
X73410630Y16700500D01*
X73443783Y16637000D01*
X74803000Y16637000D01*
X74803000Y16657000D01*
X75057000Y16657000D01*
X75057000Y16637000D01*
X76416217Y16637000D01*
X76537358Y16869026D01*
X76534709Y16884791D01*
X76280732Y17412036D01*
X76058918Y17610219D01*
X76358996Y17810725D01*
X76506490Y18031464D01*
X76613107Y18052672D01*
X76963322Y18286678D01*
X78233322Y19556678D01*
X78467328Y19906893D01*
X78549500Y20320000D01*
X78549500Y34290000D01*
X78467328Y34703107D01*
X78233322Y35053322D01*
X76963322Y36323322D01*
X76963319Y36323324D01*
X75299472Y37987171D01*
X75299854Y38424700D01*
X75050770Y39027528D01*
X74589954Y39489149D01*
X74421545Y39559079D01*
X74452325Y39668070D01*
X73660000Y40460395D01*
X73645858Y40446253D01*
X73466253Y40625858D01*
X73480395Y40640000D01*
X73839605Y40640000D01*
X74631930Y39847675D01*
X74872931Y39915735D01*
X75057767Y40435034D01*
X75029805Y40985538D01*
X74872931Y41364265D01*
X74631930Y41432325D01*
X73839605Y40640000D01*
X73480395Y40640000D01*
X72688070Y41432325D01*
X72447069Y41364265D01*
X72262233Y40844966D01*
X72282320Y40449500D01*
X69023295Y40449500D01*
X68916285Y40987477D01*
X68539397Y41551529D01*
X68449001Y41611930D01*
X72867675Y41611930D01*
X73660000Y40819605D01*
X74452325Y41611930D01*
X74384265Y41852931D01*
X73864966Y42037767D01*
X73314462Y42009805D01*
X72935735Y41852931D01*
X72867675Y41611930D01*
X68449001Y41611930D01*
X67975345Y41928417D01*
X67310000Y42060762D01*
X66644655Y41928417D01*
X66080603Y41551529D01*
X65869470Y41235546D01*
X65729989Y41410024D01*
X65220810Y41690649D01*
X65126832Y41711540D01*
X64897000Y41590214D01*
X64897000Y39497000D01*
X64917000Y39497000D01*
X64917000Y39243000D01*
X64897000Y39243000D01*
X64897000Y37149786D01*
X65126832Y37028460D01*
X65220810Y37049351D01*
X65729989Y37329976D01*
X65869470Y37504454D01*
X66080603Y37188471D01*
X66644655Y36811583D01*
X67310000Y36679238D01*
X67975345Y36811583D01*
X68539397Y37188471D01*
X68916285Y37752523D01*
X69023295Y38290500D01*
X71942856Y38290500D01*
X72020528Y38212828D01*
X72020146Y37775300D01*
X72269230Y37172472D01*
X72730046Y36710851D01*
X73332439Y36460715D01*
X73773026Y36460331D01*
X75436676Y34796681D01*
X75436678Y34796678D01*
X76390500Y33842856D01*
X76390500Y33385842D01*
X76298647Y33448603D01*
X75946000Y33520016D01*
X73914000Y33520016D01*
X73584556Y33458027D01*
X73281983Y33263326D01*
X73078997Y32966247D01*
X73038446Y32766000D01*
X66675000Y32766000D01*
X66350700Y32701493D01*
X66286193Y32688662D01*
X65956580Y32468421D01*
X64349160Y30861000D01*
X63218608Y30861000D01*
X63165277Y30914331D01*
X63401042Y30976169D01*
X63577419Y31477122D01*
X63548664Y32007440D01*
X63401042Y32363831D01*
X63165275Y32425669D01*
X62409605Y31670000D01*
X62423748Y31655858D01*
X62244142Y31476252D01*
X62230000Y31490395D01*
X62215858Y31476252D01*
X62036252Y31655858D01*
X62050395Y31670000D01*
X61294725Y32425669D01*
X61058958Y32363831D01*
X60882581Y31862878D01*
X60911336Y31332560D01*
X61058958Y30976169D01*
X61294723Y30914331D01*
X61241392Y30861000D01*
X59690000Y30861000D01*
X59301193Y30783662D01*
X58971580Y30563421D01*
X58935000Y30526841D01*
X58935000Y30607002D01*
X58769916Y30607002D01*
X58891904Y30829039D01*
X58874367Y30911819D01*
X58604500Y31404896D01*
X58166483Y31757166D01*
X57627000Y31915000D01*
X57277000Y31915000D01*
X57277000Y30607000D01*
X57297000Y30607000D01*
X57297000Y30353000D01*
X57277000Y30353000D01*
X57277000Y30333000D01*
X57023000Y30333000D01*
X57023000Y30353000D01*
X57003000Y30353000D01*
X57003000Y30607000D01*
X57023000Y30607000D01*
X57023000Y31915000D01*
X56673000Y31915000D01*
X56133517Y31757166D01*
X55695500Y31404896D01*
X55492623Y31034217D01*
X53921565Y32605275D01*
X61474331Y32605275D01*
X62230000Y31849605D01*
X62985669Y32605275D01*
X62923831Y32841042D01*
X62422878Y33017419D01*
X61892560Y32988664D01*
X61536169Y32841042D01*
X61474331Y32605275D01*
X53921565Y32605275D01*
X53423420Y33103420D01*
X53093807Y33323662D01*
X53029300Y33336493D01*
X52705000Y33401000D01*
X49315841Y33401000D01*
X48746308Y33970532D01*
X48830000Y33953584D01*
X50230000Y33953584D01*
X50559444Y34015573D01*
X50862017Y34210274D01*
X51065003Y34507353D01*
X51088771Y34624725D01*
X53774331Y34624725D01*
X53836169Y34388958D01*
X54337122Y34212581D01*
X54867440Y34241336D01*
X55223831Y34388958D01*
X55285669Y34624725D01*
X54530000Y35380395D01*
X53774331Y34624725D01*
X51088771Y34624725D01*
X51136416Y34860000D01*
X51136416Y35752878D01*
X53182581Y35752878D01*
X53211336Y35222560D01*
X53358958Y34866169D01*
X53594725Y34804331D01*
X54350395Y35560000D01*
X54709605Y35560000D01*
X55465275Y34804331D01*
X55701042Y34866169D01*
X55877419Y35367122D01*
X55848664Y35897440D01*
X55701042Y36253831D01*
X55465275Y36315669D01*
X54709605Y35560000D01*
X54350395Y35560000D01*
X53594725Y36315669D01*
X53358958Y36253831D01*
X53182581Y35752878D01*
X51136416Y35752878D01*
X51136416Y36260000D01*
X51092147Y36495275D01*
X53774331Y36495275D01*
X54530000Y35739605D01*
X55285669Y36495275D01*
X55223831Y36731042D01*
X54722878Y36907419D01*
X54192560Y36878664D01*
X53836169Y36731042D01*
X53774331Y36495275D01*
X51092147Y36495275D01*
X51074427Y36589444D01*
X50879726Y36892017D01*
X50609500Y37076655D01*
X50609500Y38100000D01*
X50527328Y38513107D01*
X50293322Y38863322D01*
X50293319Y38863324D01*
X48841344Y40315300D01*
X54240146Y40315300D01*
X54489230Y39712472D01*
X54950046Y39250851D01*
X55552439Y39000715D01*
X56082907Y39000252D01*
X56431579Y38651580D01*
X56498780Y38606678D01*
X56761194Y38431338D01*
X57150000Y38354000D01*
X60504074Y38354000D01*
X60623715Y37752523D01*
X61000603Y37188471D01*
X61564655Y36811583D01*
X62230000Y36679238D01*
X62895345Y36811583D01*
X63459397Y37188471D01*
X63670530Y37504454D01*
X63810011Y37329976D01*
X64319190Y37049351D01*
X64413168Y37028460D01*
X64643000Y37149786D01*
X64643000Y39243000D01*
X64623000Y39243000D01*
X64623000Y39497000D01*
X64643000Y39497000D01*
X64643000Y41590214D01*
X64413168Y41711540D01*
X64319190Y41690649D01*
X63810011Y41410024D01*
X63670530Y41235546D01*
X63459397Y41551529D01*
X62895345Y41928417D01*
X62230000Y42060762D01*
X61976000Y42010238D01*
X61976000Y45067584D01*
X62305444Y45129573D01*
X62608017Y45324274D01*
X62752123Y45535179D01*
X63117056Y45384025D01*
X63373000Y45503164D01*
X63373000Y46863000D01*
X63627000Y46863000D01*
X63627000Y45503164D01*
X63882944Y45384025D01*
X64364818Y45583615D01*
X64837188Y46021621D01*
X65105983Y46607054D01*
X64987367Y46863000D01*
X63627000Y46863000D01*
X63373000Y46863000D01*
X63353000Y46863000D01*
X63353000Y47117000D01*
X63373000Y47117000D01*
X63373000Y48476836D01*
X63627000Y48476836D01*
X63627000Y47117000D01*
X64987367Y47117000D01*
X65105983Y47372946D01*
X64837188Y47958379D01*
X64364818Y48396385D01*
X63882944Y48595975D01*
X63627000Y48476836D01*
X63373000Y48476836D01*
X63117056Y48595975D01*
X62750482Y48444142D01*
X62625726Y48638017D01*
X62328647Y48841003D01*
X61976000Y48912416D01*
X59944000Y48912416D01*
X59614556Y48850427D01*
X59311983Y48655726D01*
X59108997Y48358647D01*
X59037584Y48006000D01*
X59037584Y45974000D01*
X59099573Y45644556D01*
X59294274Y45341983D01*
X59591353Y45138997D01*
X59944000Y45067584D01*
X59944000Y40640000D01*
X59979726Y40460395D01*
X59994524Y40386000D01*
X57570841Y40386000D01*
X57519394Y40437447D01*
X57519854Y40964700D01*
X57270770Y41567528D01*
X56809954Y42029149D01*
X56641545Y42099079D01*
X56672325Y42208070D01*
X55880000Y43000395D01*
X55087675Y42208070D01*
X55118385Y42099324D01*
X54952472Y42030770D01*
X54490851Y41569954D01*
X54240715Y40967561D01*
X54240146Y40315300D01*
X48841344Y40315300D01*
X46768333Y42388311D01*
X46799500Y42545000D01*
X46799500Y43384966D01*
X54482233Y43384966D01*
X54510195Y42834462D01*
X54667069Y42455735D01*
X54908070Y42387675D01*
X55700395Y43180000D01*
X56059605Y43180000D01*
X56851930Y42387675D01*
X57092931Y42455735D01*
X57277767Y42975034D01*
X57249805Y43525538D01*
X57092931Y43904265D01*
X56851930Y43972325D01*
X56059605Y43180000D01*
X55700395Y43180000D01*
X54908070Y43972325D01*
X54667069Y43904265D01*
X54482233Y43384966D01*
X46799500Y43384966D01*
X46799500Y44151930D01*
X55087675Y44151930D01*
X55880000Y43359605D01*
X56672325Y44151930D01*
X56604265Y44392931D01*
X56084966Y44577767D01*
X55534462Y44549805D01*
X55155735Y44392931D01*
X55087675Y44151930D01*
X46799500Y44151930D01*
X46799500Y50800000D01*
X46717328Y51213107D01*
X46483322Y51563322D01*
X45213322Y52833322D01*
X44863107Y53067328D01*
X44450000Y53149500D01*
X44447290Y53149500D01*
X44418664Y53677440D01*
X44271042Y54033831D01*
X44035275Y54095669D01*
X43279605Y53340000D01*
X43293748Y53325858D01*
X43117390Y53149500D01*
X43110895Y53149500D01*
X43100000Y53160395D01*
X43089105Y53149500D01*
X43082610Y53149500D01*
X42906253Y53325858D01*
X42920395Y53340000D01*
X42164725Y54095669D01*
X41928958Y54033831D01*
X41752581Y53532878D01*
X41773369Y53149500D01*
X39817144Y53149500D01*
X39706416Y53260228D01*
X39706416Y54040000D01*
X39662147Y54275275D01*
X42344331Y54275275D01*
X43100000Y53519605D01*
X43855669Y54275275D01*
X43793831Y54511042D01*
X43292878Y54687419D01*
X42762560Y54658664D01*
X42406169Y54511042D01*
X42344331Y54275275D01*
X39662147Y54275275D01*
X39644427Y54369444D01*
X39449726Y54672017D01*
X39152647Y54875003D01*
X38800000Y54946416D01*
X37400000Y54946416D01*
X37070556Y54884427D01*
X36767983Y54689726D01*
X36583345Y54419500D01*
X33410958Y54419500D01*
X33334249Y54534303D01*
X32829500Y54871566D01*
X32829500Y56907783D01*
X33082017Y57070274D01*
X33285003Y57367353D01*
X33356416Y57720000D01*
X33356416Y59120000D01*
X33294427Y59449444D01*
X33099726Y59752017D01*
X32802647Y59955003D01*
X32450000Y60026416D01*
X31050000Y60026416D01*
X30720556Y59964427D01*
X30417983Y59769726D01*
X30214997Y59472647D01*
X30143584Y59120000D01*
X30143584Y57720000D01*
X30205573Y57390556D01*
X30400274Y57087983D01*
X30670500Y56903345D01*
X30670500Y54871566D01*
X30165751Y54534303D01*
X30007716Y54297787D01*
X29716678Y54103322D01*
X29716676Y54103319D01*
X27176678Y51563322D01*
X26942672Y51213107D01*
X26860500Y50800000D01*
X26860500Y42357143D01*
X24636678Y40133322D01*
X24402672Y39783107D01*
X24320500Y39370000D01*
X10287000Y39370000D01*
X10287000Y45370961D01*
X22388096Y45370961D01*
X22405633Y45288181D01*
X22675500Y44795104D01*
X23113517Y44442834D01*
X23653000Y44285000D01*
X24003000Y44285000D01*
X24003000Y45593000D01*
X24257000Y45593000D01*
X24257000Y44285000D01*
X24607000Y44285000D01*
X25146483Y44442834D01*
X25584500Y44795104D01*
X25854367Y45288181D01*
X25871904Y45370961D01*
X25749915Y45593000D01*
X24257000Y45593000D01*
X24003000Y45593000D01*
X22510085Y45593000D01*
X22388096Y45370961D01*
X10287000Y45370961D01*
X10287000Y47910961D01*
X22388096Y47910961D01*
X22405633Y47828181D01*
X22675500Y47335104D01*
X23104607Y46990000D01*
X22675500Y46644896D01*
X22405633Y46151819D01*
X22388096Y46069039D01*
X22510085Y45847000D01*
X24003000Y45847000D01*
X24003000Y48133000D01*
X24257000Y48133000D01*
X24257000Y45847000D01*
X25749915Y45847000D01*
X25871904Y46069039D01*
X25854367Y46151819D01*
X25584500Y46644896D01*
X25155393Y46990000D01*
X25584500Y47335104D01*
X25854367Y47828181D01*
X25871904Y47910961D01*
X25749915Y48133000D01*
X24257000Y48133000D01*
X24003000Y48133000D01*
X22510085Y48133000D01*
X22388096Y47910961D01*
X10287000Y47910961D01*
X10287000Y52544148D01*
X20200379Y52544148D01*
X20396515Y52069463D01*
X20200861Y51598277D01*
X20200379Y51045548D01*
X20411454Y50534707D01*
X20801952Y50143527D01*
X21312423Y49931561D01*
X21617195Y49931295D01*
X21721893Y49861338D01*
X21786400Y49848507D01*
X22110700Y49784000D01*
X22426612Y49784000D01*
X22545751Y49605697D01*
X22902409Y49367385D01*
X22675500Y49184896D01*
X22405633Y48691819D01*
X22388096Y48609039D01*
X22510085Y48387000D01*
X24003000Y48387000D01*
X24003000Y48407000D01*
X24257000Y48407000D01*
X24257000Y48387000D01*
X25749915Y48387000D01*
X25871904Y48609039D01*
X25854367Y48691819D01*
X25584500Y49184896D01*
X25357591Y49367385D01*
X25714249Y49605697D01*
X26080379Y50153648D01*
X26208946Y50800000D01*
X26080379Y51446352D01*
X25714249Y51994303D01*
X25600961Y52070000D01*
X25714249Y52145697D01*
X26080379Y52693648D01*
X26208946Y53340000D01*
X26080379Y53986352D01*
X25714249Y54534303D01*
X25166298Y54900433D01*
X24519946Y55029000D01*
X23740054Y55029000D01*
X23093702Y54900433D01*
X22545751Y54534303D01*
X22426612Y54356000D01*
X22110700Y54356000D01*
X21786400Y54291493D01*
X21721893Y54278662D01*
X21617124Y54208657D01*
X21314848Y54208921D01*
X20804007Y53997846D01*
X20412827Y53607348D01*
X20200861Y53096877D01*
X20200379Y52544148D01*
X10287000Y52544148D01*
X10287000Y57484725D01*
X25994331Y57484725D01*
X26056169Y57248958D01*
X26557122Y57072581D01*
X27087440Y57101336D01*
X27443831Y57248958D01*
X27505669Y57484725D01*
X26750000Y58240395D01*
X25994331Y57484725D01*
X10287000Y57484725D01*
X10287000Y58612878D01*
X25402581Y58612878D01*
X25431336Y58082560D01*
X25578958Y57726169D01*
X25814725Y57664331D01*
X26570395Y58420000D01*
X26929605Y58420000D01*
X27685275Y57664331D01*
X27921042Y57726169D01*
X28097419Y58227122D01*
X28068664Y58757440D01*
X27921042Y59113831D01*
X27685275Y59175669D01*
X26929605Y58420000D01*
X26570395Y58420000D01*
X25814725Y59175669D01*
X25578958Y59113831D01*
X25402581Y58612878D01*
X10287000Y58612878D01*
X10287000Y59355275D01*
X25994331Y59355275D01*
X26750000Y58599605D01*
X27505669Y59355275D01*
X27443831Y59591042D01*
X26942878Y59767419D01*
X26412560Y59738664D01*
X26056169Y59591042D01*
X25994331Y59355275D01*
X10287000Y59355275D01*
X10287000Y65913000D01*
X88773000Y65913000D01*
X88773000Y7747000D01*
G36*
X55565751Y21665697D02*
X55679039Y21590000D01*
X55565751Y21514303D01*
X55199621Y20966352D01*
X55071054Y20320000D01*
X55199621Y19673648D01*
X55565751Y19125697D01*
X55679039Y19050000D01*
X55565751Y18974303D01*
X55446612Y18796000D01*
X51233388Y18796000D01*
X51114249Y18974303D01*
X51000961Y19050000D01*
X51114249Y19125697D01*
X51480379Y19673648D01*
X51608946Y20320000D01*
X51480379Y20966352D01*
X51114249Y21514303D01*
X51000961Y21590000D01*
X51114249Y21665697D01*
X51233388Y21844000D01*
X55446612Y21844000D01*
X55565751Y21665697D01*
X55565751Y21665697D01*
G37*
X55565751Y21665697D02*
X55679039Y21590000D01*
X55565751Y21514303D01*
X55199621Y20966352D01*
X55071054Y20320000D01*
X55199621Y19673648D01*
X55565751Y19125697D01*
X55679039Y19050000D01*
X55565751Y18974303D01*
X55446612Y18796000D01*
X51233388Y18796000D01*
X51114249Y18974303D01*
X51000961Y19050000D01*
X51114249Y19125697D01*
X51480379Y19673648D01*
X51608946Y20320000D01*
X51480379Y20966352D01*
X51114249Y21514303D01*
X51000961Y21590000D01*
X51114249Y21665697D01*
X51233388Y21844000D01*
X55446612Y21844000D01*
X55565751Y21665697D01*
G36*
X45339000Y31964159D02*
X45339000Y30480000D01*
X45387971Y30233807D01*
X45416338Y30091193D01*
X45636580Y29761580D01*
X46906579Y28491580D01*
X46973780Y28446678D01*
X47236194Y28271338D01*
X47506275Y28217616D01*
X47451054Y27940000D01*
X47579621Y27293648D01*
X47945751Y26745697D01*
X48059039Y26670000D01*
X47945751Y26594303D01*
X47697299Y26222468D01*
X47541579Y26118420D01*
X47434500Y26011341D01*
X47434500Y26034995D01*
X47434501Y26035000D01*
X47358714Y26416000D01*
X47352328Y26448107D01*
X47118322Y26798322D01*
X47118319Y26798324D01*
X46483322Y27433322D01*
X45213322Y28703322D01*
X44922284Y28897787D01*
X44764249Y29134303D01*
X44650961Y29210000D01*
X44764249Y29285697D01*
X45130379Y29833648D01*
X45258946Y30480000D01*
X45130379Y31126352D01*
X44764249Y31674303D01*
X44407591Y31912615D01*
X44634500Y32095104D01*
X44837377Y32465783D01*
X45339000Y31964159D01*
X45339000Y31964159D01*
G37*
X45339000Y31964159D02*
X45339000Y30480000D01*
X45387971Y30233807D01*
X45416338Y30091193D01*
X45636580Y29761580D01*
X46906579Y28491580D01*
X46973780Y28446678D01*
X47236194Y28271338D01*
X47506275Y28217616D01*
X47451054Y27940000D01*
X47579621Y27293648D01*
X47945751Y26745697D01*
X48059039Y26670000D01*
X47945751Y26594303D01*
X47697299Y26222468D01*
X47541579Y26118420D01*
X47434500Y26011341D01*
X47434500Y26034995D01*
X47434501Y26035000D01*
X47358714Y26416000D01*
X47352328Y26448107D01*
X47118322Y26798322D01*
X47118319Y26798324D01*
X46483322Y27433322D01*
X45213322Y28703322D01*
X44922284Y28897787D01*
X44764249Y29134303D01*
X44650961Y29210000D01*
X44764249Y29285697D01*
X45130379Y29833648D01*
X45258946Y30480000D01*
X45130379Y31126352D01*
X44764249Y31674303D01*
X44407591Y31912615D01*
X44634500Y32095104D01*
X44837377Y32465783D01*
X45339000Y31964159D01*
G36*
X32891676Y32256681D02*
X32891678Y32256678D01*
X33133491Y32095104D01*
X33241893Y32022672D01*
X33655000Y31940500D01*
X33899042Y31940500D01*
X33975751Y31825697D01*
X34332409Y31587385D01*
X34105500Y31404896D01*
X33835633Y30911819D01*
X33818096Y30829039D01*
X33940085Y30607000D01*
X35433000Y30607000D01*
X35433000Y30627000D01*
X35687000Y30627000D01*
X35687000Y30607000D01*
X37179915Y30607000D01*
X37301904Y30829039D01*
X37284367Y30911819D01*
X37014500Y31404896D01*
X36787591Y31587385D01*
X37144249Y31825697D01*
X37220958Y31940500D01*
X38287856Y31940500D01*
X40511676Y29716681D01*
X40511678Y29716678D01*
X40861893Y29482672D01*
X41275000Y29400500D01*
X41519042Y29400500D01*
X41595751Y29285697D01*
X41709039Y29210000D01*
X41595751Y29134303D01*
X41310077Y28706763D01*
X40088420Y29928420D01*
X39758807Y30148662D01*
X39694300Y30161493D01*
X39370000Y30226000D01*
X37249689Y30226000D01*
X37179915Y30353000D01*
X35687000Y30353000D01*
X35687000Y30333000D01*
X35433000Y30333000D01*
X35433000Y30353000D01*
X33940085Y30353000D01*
X33870311Y30226000D01*
X32515124Y30226000D01*
X32448817Y30353000D01*
X31242000Y30353000D01*
X31242000Y30333000D01*
X30988000Y30333000D01*
X30988000Y30353000D01*
X30968000Y30353000D01*
X30968000Y30607000D01*
X30988000Y30607000D01*
X30988000Y30627000D01*
X31242000Y30627000D01*
X31242000Y30607000D01*
X32448817Y30607000D01*
X32569958Y30839026D01*
X32397688Y31254947D01*
X32096147Y31585308D01*
X32388610Y31780725D01*
X32768526Y32349309D01*
X32773590Y32374767D01*
X32891676Y32256681D01*
X32891676Y32256681D01*
G37*
X32891676Y32256681D02*
X32891678Y32256678D01*
X33133491Y32095104D01*
X33241893Y32022672D01*
X33655000Y31940500D01*
X33899042Y31940500D01*
X33975751Y31825697D01*
X34332409Y31587385D01*
X34105500Y31404896D01*
X33835633Y30911819D01*
X33818096Y30829039D01*
X33940085Y30607000D01*
X35433000Y30607000D01*
X35433000Y30627000D01*
X35687000Y30627000D01*
X35687000Y30607000D01*
X37179915Y30607000D01*
X37301904Y30829039D01*
X37284367Y30911819D01*
X37014500Y31404896D01*
X36787591Y31587385D01*
X37144249Y31825697D01*
X37220958Y31940500D01*
X38287856Y31940500D01*
X40511676Y29716681D01*
X40511678Y29716678D01*
X40861893Y29482672D01*
X41275000Y29400500D01*
X41519042Y29400500D01*
X41595751Y29285697D01*
X41709039Y29210000D01*
X41595751Y29134303D01*
X41310077Y28706763D01*
X40088420Y29928420D01*
X39758807Y30148662D01*
X39694300Y30161493D01*
X39370000Y30226000D01*
X37249689Y30226000D01*
X37179915Y30353000D01*
X35687000Y30353000D01*
X35687000Y30333000D01*
X35433000Y30333000D01*
X35433000Y30353000D01*
X33940085Y30353000D01*
X33870311Y30226000D01*
X32515124Y30226000D01*
X32448817Y30353000D01*
X31242000Y30353000D01*
X31242000Y30333000D01*
X30988000Y30333000D01*
X30988000Y30353000D01*
X30968000Y30353000D01*
X30968000Y30607000D01*
X30988000Y30607000D01*
X30988000Y30627000D01*
X31242000Y30627000D01*
X31242000Y30607000D01*
X32448817Y30607000D01*
X32569958Y30839026D01*
X32397688Y31254947D01*
X32096147Y31585308D01*
X32388610Y31780725D01*
X32768526Y32349309D01*
X32773590Y32374767D01*
X32891676Y32256681D01*
G36*
X40556579Y33571580D02*
X40726523Y33458027D01*
X40886194Y33351338D01*
X41275000Y33274000D01*
X41490311Y33274000D01*
X41560085Y33147000D01*
X43053000Y33147000D01*
X43053000Y33167000D01*
X43307000Y33167000D01*
X43307000Y33147000D01*
X43327000Y33147000D01*
X43327000Y32893000D01*
X43307000Y32893000D01*
X43307000Y32873000D01*
X43053000Y32873000D01*
X43053000Y32893000D01*
X41560085Y32893000D01*
X41438096Y32670961D01*
X41455633Y32588181D01*
X41725500Y32095104D01*
X41952409Y31912615D01*
X41602698Y31678945D01*
X39498322Y33783322D01*
X39148107Y34017328D01*
X38735000Y34099500D01*
X37220958Y34099500D01*
X37144249Y34214303D01*
X37030961Y34290000D01*
X37144249Y34365697D01*
X37263388Y34544000D01*
X39584160Y34544000D01*
X40556579Y33571580D01*
X40556579Y33571580D01*
G37*
X40556579Y33571580D02*
X40726523Y33458027D01*
X40886194Y33351338D01*
X41275000Y33274000D01*
X41490311Y33274000D01*
X41560085Y33147000D01*
X43053000Y33147000D01*
X43053000Y33167000D01*
X43307000Y33167000D01*
X43307000Y33147000D01*
X43327000Y33147000D01*
X43327000Y32893000D01*
X43307000Y32893000D01*
X43307000Y32873000D01*
X43053000Y32873000D01*
X43053000Y32893000D01*
X41560085Y32893000D01*
X41438096Y32670961D01*
X41455633Y32588181D01*
X41725500Y32095104D01*
X41952409Y31912615D01*
X41602698Y31678945D01*
X39498322Y33783322D01*
X39148107Y34017328D01*
X38735000Y34099500D01*
X37220958Y34099500D01*
X37144249Y34214303D01*
X37030961Y34290000D01*
X37144249Y34365697D01*
X37263388Y34544000D01*
X39584160Y34544000D01*
X40556579Y33571580D01*
M02*
