G04 #@! TF.FileFunction,Copper,L1,Top,Signal*
%FSLAX46Y46*%
G04 Gerber Fmt 4.6, Leading zero omitted, Abs format (unit mm)*
G04 Created by KiCad (PCBNEW (2015-12-07 BZR 6352)-product) date Sat 06 Feb 2016 07:57:05 PM EST*
%MOMM*%
G01*
G04 APERTURE LIST*
%ADD10C,0.100000*%
%ADD11R,3.500120X3.500120*%
%ADD12O,2.300000X1.600000*%
%ADD13R,1.400000X1.400000*%
%ADD14C,1.400000*%
%ADD15R,1.727200X1.727200*%
%ADD16O,1.727200X1.727200*%
%ADD17C,1.998980*%
%ADD18C,1.000760*%
%ADD19C,4.064000*%
%ADD20R,2.032000X1.727200*%
%ADD21O,2.032000X1.727200*%
%ADD22C,1.270000*%
%ADD23C,0.431800*%
%ADD24C,0.254000*%
G04 APERTURE END LIST*
D10*
D11*
X22509480Y45950500D03*
X16510000Y45950500D03*
X19509740Y41251500D03*
D12*
X69850000Y20270500D03*
X69850000Y17730500D03*
X69850000Y15190500D03*
X69850000Y12650500D03*
X69850000Y10110500D03*
X69850000Y7570500D03*
X69850000Y5030500D03*
X77470000Y5030500D03*
X77470000Y7570500D03*
X77470000Y10110500D03*
X77470000Y12650500D03*
X77470000Y15190500D03*
X77470000Y17730500D03*
X77470000Y20270500D03*
D13*
X64770000Y12650500D03*
D14*
X64770000Y7650500D03*
D13*
X64770000Y22810500D03*
D14*
X64770000Y27810500D03*
D13*
X62310000Y33170500D03*
D14*
X67310000Y33170500D03*
D13*
X46990000Y48450500D03*
D14*
X41990000Y48450500D03*
D13*
X11430000Y10350500D03*
D14*
X11430000Y5350500D03*
D13*
X77470000Y25350500D03*
D14*
X72470000Y25350500D03*
D12*
X39370000Y43370500D03*
X39370000Y40830500D03*
X39370000Y38290500D03*
X39370000Y35750500D03*
X39370000Y33210500D03*
X39370000Y30670500D03*
X39370000Y28130500D03*
X39370000Y25590500D03*
X39370000Y23050500D03*
X39370000Y20510500D03*
X39370000Y17970500D03*
X39370000Y15430500D03*
X39370000Y12890500D03*
X39370000Y10350500D03*
X46990000Y10350500D03*
X46990000Y12890500D03*
X46990000Y15430500D03*
X46990000Y17970500D03*
X46990000Y20510500D03*
X46990000Y23050500D03*
X46990000Y25590500D03*
X46990000Y28130500D03*
X46990000Y30670500D03*
X46990000Y33210500D03*
X46990000Y35750500D03*
X46990000Y38290500D03*
X46990000Y40830500D03*
X46990000Y43370500D03*
D15*
X26670000Y25590500D03*
D16*
X29210000Y25590500D03*
X26670000Y23050500D03*
X29210000Y23050500D03*
X26670000Y20510500D03*
X29210000Y20510500D03*
D17*
X67310000Y15190500D03*
X57150000Y15190500D03*
X67310000Y20270500D03*
X57150000Y20270500D03*
D12*
X69850000Y38250500D03*
X69850000Y40790500D03*
X69850000Y43330500D03*
X69850000Y45870500D03*
X62230000Y45870500D03*
X62230000Y43330500D03*
X62230000Y40790500D03*
X62230000Y38250500D03*
D18*
X72390000Y40309800D03*
X72390000Y38811200D03*
D19*
X94990000Y55170500D03*
X4990000Y55170500D03*
X94990000Y4990500D03*
D17*
X52070000Y43370500D03*
X52070000Y53530500D03*
X54610000Y43370500D03*
X54610000Y53530500D03*
D20*
X6350000Y23090500D03*
D21*
X6350000Y20550500D03*
X6350000Y18010500D03*
X6350000Y15470500D03*
X6350000Y12930500D03*
X6350000Y10390500D03*
X6350000Y7850500D03*
D22*
X64770000Y27810500D02*
X64770000Y30630500D01*
X64770000Y30630500D02*
X67310000Y33170500D01*
X13970000Y7810500D02*
X13930000Y7850500D01*
X13930000Y7850500D02*
X6350000Y7850500D01*
X19509740Y13350240D02*
X13970000Y7810500D01*
X19509740Y41251500D02*
X19509740Y13350240D01*
X67310000Y33170500D02*
X67310000Y37020500D01*
X22509480Y45950500D02*
X19819619Y48640361D01*
X11430000Y46062262D02*
X11430000Y10350500D01*
X46990000Y25590500D02*
X56700000Y25590500D01*
X56700000Y25590500D02*
X62310000Y31200500D01*
X62310000Y31200500D02*
X62310000Y33170500D01*
X44570000Y27660500D02*
X44570000Y25590500D01*
X44570000Y25590500D02*
X44570000Y24200500D01*
X46990000Y25590500D02*
X44570000Y25590500D01*
X44570000Y24200500D02*
X45720000Y23050500D01*
X45720000Y23050500D02*
X46990000Y23050500D01*
X44570000Y27660500D02*
X44100000Y28130500D01*
X44100000Y28130500D02*
X39370000Y28130500D01*
X46990000Y48450500D02*
X46990000Y46480500D01*
X46640000Y25590500D02*
X46990000Y25590500D01*
X46990000Y46480500D02*
X44570000Y44060500D01*
X44570000Y44060500D02*
X44570000Y27660500D01*
X26670000Y20510500D02*
X25448686Y20510500D01*
X25448686Y20510500D02*
X24866599Y21092587D01*
X24866599Y21092587D02*
X24866599Y29217099D01*
X24866599Y29217099D02*
X39020000Y43370500D01*
X39020000Y43370500D02*
X39370000Y43370500D01*
X77470000Y10110500D02*
X77120000Y10110500D01*
X77120000Y10110500D02*
X71939810Y4930310D01*
X71939810Y4930310D02*
X71939810Y4309848D01*
X70920652Y3290690D02*
X56469810Y3290690D01*
X71939810Y4309848D02*
X70920652Y3290690D01*
X56469810Y3290690D02*
X49410000Y10350500D01*
X49410000Y10350500D02*
X46990000Y10350500D01*
X57720152Y12890500D02*
X46990000Y12890500D01*
X59690000Y20822142D02*
X59690000Y14860348D01*
X59690000Y14860348D02*
X57720152Y12890500D01*
X77470000Y15190500D02*
X77820000Y15190500D01*
X77820000Y15190500D02*
X79890000Y17260500D01*
X79890000Y20660962D02*
X76840263Y23710699D01*
X79890000Y17260500D02*
X79890000Y20660962D01*
X66221841Y24450301D02*
X63318159Y24450301D01*
X76840263Y23710699D02*
X66961443Y23710699D01*
X66961443Y23710699D02*
X66221841Y24450301D01*
X63318159Y24450301D02*
X59690000Y20822142D01*
D23*
X29210000Y23050500D02*
X35559910Y16700590D01*
X35559910Y16700590D02*
X44239710Y16700590D01*
X44239710Y16700590D02*
X45509800Y15430500D01*
X45509800Y15430500D02*
X46990000Y15430500D01*
X26670000Y25590500D02*
X26670000Y26784300D01*
X26670000Y26784300D02*
X26809701Y26924001D01*
X26809701Y26924001D02*
X30810576Y26924001D01*
X30810576Y26924001D02*
X38494167Y19240410D01*
X38494167Y19240410D02*
X44239890Y19240410D01*
X44239890Y19240410D02*
X45509800Y17970500D01*
X45509800Y17970500D02*
X46990000Y17970500D01*
D22*
X62230000Y45870500D02*
X57110000Y45870500D01*
X57110000Y45870500D02*
X54610000Y43370500D01*
X69850000Y17730500D02*
X77470000Y17730500D01*
X69850000Y12650500D02*
X77470000Y12650500D01*
D24*
G36*
X72263000Y44727500D02*
X71033307Y44727500D01*
X71304500Y44945604D01*
X71574367Y45438681D01*
X71591904Y45521461D01*
X71469915Y45743500D01*
X69977000Y45743500D01*
X69977000Y45723500D01*
X69723000Y45723500D01*
X69723000Y45743500D01*
X68230085Y45743500D01*
X68108096Y45521461D01*
X68125633Y45438681D01*
X68395500Y44945604D01*
X68666693Y44727500D01*
X67310000Y44727500D01*
X67260590Y44717494D01*
X67218965Y44689053D01*
X67191685Y44646659D01*
X67183000Y44600500D01*
X67183000Y42060500D01*
X67193006Y42011090D01*
X67221447Y41969465D01*
X67263841Y41942185D01*
X67310000Y41933500D01*
X68231471Y41933500D01*
X67899621Y41436852D01*
X67771054Y40790500D01*
X67899621Y40144148D01*
X68265751Y39596197D01*
X68379039Y39520500D01*
X68265751Y39444803D01*
X67899621Y38896852D01*
X67771054Y38250500D01*
X67899621Y37604148D01*
X68265751Y37056197D01*
X68813702Y36690067D01*
X69460054Y36561500D01*
X70239946Y36561500D01*
X70886298Y36690067D01*
X71434249Y37056197D01*
X71772911Y37563039D01*
X72112423Y37422061D01*
X72665152Y37421579D01*
X73175993Y37632654D01*
X73567173Y38023152D01*
X73779139Y38533623D01*
X73779621Y39086352D01*
X73583485Y39561037D01*
X73779139Y40032223D01*
X73779621Y40584952D01*
X73568546Y41095793D01*
X73178048Y41486973D01*
X72667577Y41698939D01*
X72114848Y41699421D01*
X71730930Y41540789D01*
X71468529Y41933500D01*
X79883000Y41933500D01*
X79883000Y35837500D01*
X66167000Y35837500D01*
X66167000Y46219539D01*
X68108096Y46219539D01*
X68230085Y45997500D01*
X69723000Y45997500D01*
X69723000Y47305500D01*
X69977000Y47305500D01*
X69977000Y45997500D01*
X71469915Y45997500D01*
X71591904Y46219539D01*
X71574367Y46302319D01*
X71304500Y46795396D01*
X70866483Y47147666D01*
X70327000Y47305500D01*
X69977000Y47305500D01*
X69723000Y47305500D01*
X69373000Y47305500D01*
X68833517Y47147666D01*
X68395500Y46795396D01*
X68125633Y46302319D01*
X68108096Y46219539D01*
X66167000Y46219539D01*
X66167000Y48323500D01*
X72263000Y48323500D01*
X72263000Y44727500D01*
X72263000Y44727500D01*
G37*
X72263000Y44727500D02*
X71033307Y44727500D01*
X71304500Y44945604D01*
X71574367Y45438681D01*
X71591904Y45521461D01*
X71469915Y45743500D01*
X69977000Y45743500D01*
X69977000Y45723500D01*
X69723000Y45723500D01*
X69723000Y45743500D01*
X68230085Y45743500D01*
X68108096Y45521461D01*
X68125633Y45438681D01*
X68395500Y44945604D01*
X68666693Y44727500D01*
X67310000Y44727500D01*
X67260590Y44717494D01*
X67218965Y44689053D01*
X67191685Y44646659D01*
X67183000Y44600500D01*
X67183000Y42060500D01*
X67193006Y42011090D01*
X67221447Y41969465D01*
X67263841Y41942185D01*
X67310000Y41933500D01*
X68231471Y41933500D01*
X67899621Y41436852D01*
X67771054Y40790500D01*
X67899621Y40144148D01*
X68265751Y39596197D01*
X68379039Y39520500D01*
X68265751Y39444803D01*
X67899621Y38896852D01*
X67771054Y38250500D01*
X67899621Y37604148D01*
X68265751Y37056197D01*
X68813702Y36690067D01*
X69460054Y36561500D01*
X70239946Y36561500D01*
X70886298Y36690067D01*
X71434249Y37056197D01*
X71772911Y37563039D01*
X72112423Y37422061D01*
X72665152Y37421579D01*
X73175993Y37632654D01*
X73567173Y38023152D01*
X73779139Y38533623D01*
X73779621Y39086352D01*
X73583485Y39561037D01*
X73779139Y40032223D01*
X73779621Y40584952D01*
X73568546Y41095793D01*
X73178048Y41486973D01*
X72667577Y41698939D01*
X72114848Y41699421D01*
X71730930Y41540789D01*
X71468529Y41933500D01*
X79883000Y41933500D01*
X79883000Y35837500D01*
X66167000Y35837500D01*
X66167000Y46219539D01*
X68108096Y46219539D01*
X68230085Y45997500D01*
X69723000Y45997500D01*
X69723000Y47305500D01*
X69977000Y47305500D01*
X69977000Y45997500D01*
X71469915Y45997500D01*
X71591904Y46219539D01*
X71574367Y46302319D01*
X71304500Y46795396D01*
X70866483Y47147666D01*
X70327000Y47305500D01*
X69977000Y47305500D01*
X69723000Y47305500D01*
X69373000Y47305500D01*
X68833517Y47147666D01*
X68395500Y46795396D01*
X68125633Y46302319D01*
X68108096Y46219539D01*
X66167000Y46219539D01*
X66167000Y48323500D01*
X72263000Y48323500D01*
X72263000Y44727500D01*
G36*
X68395500Y44255396D02*
X68125633Y43762319D01*
X68108096Y43679539D01*
X68230085Y43457500D01*
X69723000Y43457500D01*
X69723000Y43477500D01*
X69977000Y43477500D01*
X69977000Y43457500D01*
X71469915Y43457500D01*
X71591904Y43679539D01*
X71574367Y43762319D01*
X71304500Y44255396D01*
X71033307Y44473500D01*
X72263000Y44473500D01*
X72263000Y42187500D01*
X71130892Y42187500D01*
X71077591Y42223115D01*
X71304500Y42405604D01*
X71574367Y42898681D01*
X71591904Y42981461D01*
X71469915Y43203500D01*
X69977000Y43203500D01*
X69977000Y43183500D01*
X69723000Y43183500D01*
X69723000Y43203500D01*
X68230085Y43203500D01*
X68108096Y42981461D01*
X68125633Y42898681D01*
X68395500Y42405604D01*
X68622409Y42223115D01*
X68569108Y42187500D01*
X67437000Y42187500D01*
X67437000Y44473500D01*
X68666693Y44473500D01*
X68395500Y44255396D01*
X68395500Y44255396D01*
G37*
X68395500Y44255396D02*
X68125633Y43762319D01*
X68108096Y43679539D01*
X68230085Y43457500D01*
X69723000Y43457500D01*
X69723000Y43477500D01*
X69977000Y43477500D01*
X69977000Y43457500D01*
X71469915Y43457500D01*
X71591904Y43679539D01*
X71574367Y43762319D01*
X71304500Y44255396D01*
X71033307Y44473500D01*
X72263000Y44473500D01*
X72263000Y42187500D01*
X71130892Y42187500D01*
X71077591Y42223115D01*
X71304500Y42405604D01*
X71574367Y42898681D01*
X71591904Y42981461D01*
X71469915Y43203500D01*
X69977000Y43203500D01*
X69977000Y43183500D01*
X69723000Y43183500D01*
X69723000Y43203500D01*
X68230085Y43203500D01*
X68108096Y42981461D01*
X68125633Y42898681D01*
X68395500Y42405604D01*
X68622409Y42223115D01*
X68569108Y42187500D01*
X67437000Y42187500D01*
X67437000Y44473500D01*
X68666693Y44473500D01*
X68395500Y44255396D01*
G36*
X64643000Y33210500D02*
X64653006Y33161090D01*
X64681447Y33119465D01*
X64723841Y33092185D01*
X64770000Y33083500D01*
X65067739Y33083500D01*
X63692369Y31708131D01*
X63362008Y31213710D01*
X63246000Y30630500D01*
X63246000Y28283829D01*
X63181277Y28127958D01*
X63180725Y27495815D01*
X63422126Y26911580D01*
X63868729Y26464197D01*
X64452542Y26221777D01*
X65084685Y26221225D01*
X65668920Y26462626D01*
X66116303Y26909229D01*
X66358723Y27493042D01*
X66359275Y28125185D01*
X66294000Y28283163D01*
X66294000Y29999238D01*
X68052936Y31758175D01*
X68208920Y31822626D01*
X68656303Y32269229D01*
X68898723Y32853042D01*
X68898924Y33083500D01*
X84963000Y33083500D01*
X84963000Y934500D01*
X1397000Y934500D01*
X1397000Y7850500D01*
X4407679Y7850500D01*
X4541088Y7179809D01*
X4921004Y6611225D01*
X5489588Y6231309D01*
X6160279Y6097900D01*
X6539721Y6097900D01*
X7210412Y6231309D01*
X7352875Y6326500D01*
X10158557Y6326500D01*
X10083697Y6251771D01*
X9841277Y5667958D01*
X9840725Y5035815D01*
X10082126Y4451580D01*
X10528729Y4004197D01*
X11112542Y3761777D01*
X11744685Y3761225D01*
X12328920Y4002626D01*
X12776303Y4449229D01*
X13018723Y5033042D01*
X13019275Y5665185D01*
X12777874Y6249420D01*
X12700928Y6326500D01*
X13768902Y6326500D01*
X13970000Y6286499D01*
X14553209Y6402507D01*
X15047631Y6732869D01*
X20587368Y12272607D01*
X20587371Y12272609D01*
X20917732Y12767030D01*
X21033740Y13350240D01*
X21033740Y29217099D01*
X23342599Y29217099D01*
X23342599Y21092587D01*
X23458607Y20509377D01*
X23784467Y20021692D01*
X23788968Y20014956D01*
X24371055Y19432869D01*
X24865476Y19102508D01*
X25448686Y18986500D01*
X25822511Y18986500D01*
X25964974Y18891309D01*
X26635665Y18757900D01*
X26704335Y18757900D01*
X27375026Y18891309D01*
X27940000Y19268813D01*
X28504974Y18891309D01*
X29175665Y18757900D01*
X29244335Y18757900D01*
X29915026Y18891309D01*
X30483610Y19271225D01*
X30861363Y19836573D01*
X34778628Y15919308D01*
X35137083Y15679796D01*
X35559910Y15595690D01*
X37323912Y15595690D01*
X37291054Y15430500D01*
X37419621Y14784148D01*
X37785751Y14236197D01*
X37899039Y14160500D01*
X37785751Y14084803D01*
X37419621Y13536852D01*
X37291054Y12890500D01*
X37419621Y12244148D01*
X37785751Y11696197D01*
X37899039Y11620500D01*
X37785751Y11544803D01*
X37419621Y10996852D01*
X37291054Y10350500D01*
X37419621Y9704148D01*
X37785751Y9156197D01*
X38333702Y8790067D01*
X38980054Y8661500D01*
X39759946Y8661500D01*
X40406298Y8790067D01*
X40954249Y9156197D01*
X41320379Y9704148D01*
X41448946Y10350500D01*
X41320379Y10996852D01*
X40954249Y11544803D01*
X40840961Y11620500D01*
X40954249Y11696197D01*
X41320379Y12244148D01*
X41448946Y12890500D01*
X41320379Y13536852D01*
X40954249Y14084803D01*
X40840961Y14160500D01*
X40954249Y14236197D01*
X41320379Y14784148D01*
X41448946Y15430500D01*
X41416088Y15595690D01*
X43782046Y15595690D01*
X44728518Y14649217D01*
X45086974Y14409705D01*
X45320908Y14363173D01*
X45405751Y14236197D01*
X45519039Y14160500D01*
X45405751Y14084803D01*
X45039621Y13536852D01*
X44911054Y12890500D01*
X45039621Y12244148D01*
X45405751Y11696197D01*
X45519039Y11620500D01*
X45405751Y11544803D01*
X45039621Y10996852D01*
X44911054Y10350500D01*
X45039621Y9704148D01*
X45405751Y9156197D01*
X45953702Y8790067D01*
X46600054Y8661500D01*
X47379946Y8661500D01*
X48026298Y8790067D01*
X48080824Y8826500D01*
X48778738Y8826500D01*
X55392179Y2213059D01*
X55886600Y1882698D01*
X56469810Y1766690D01*
X70920652Y1766690D01*
X71503862Y1882698D01*
X71998283Y2213059D01*
X73017441Y3232217D01*
X73211280Y3522318D01*
X73347802Y3726638D01*
X73461128Y4296366D01*
X75747647Y6582885D01*
X75885751Y6376197D01*
X75999039Y6300500D01*
X75885751Y6224803D01*
X75519621Y5676852D01*
X75391054Y5030500D01*
X75519621Y4384148D01*
X75885751Y3836197D01*
X76433702Y3470067D01*
X77080054Y3341500D01*
X77859946Y3341500D01*
X78506298Y3470067D01*
X79054249Y3836197D01*
X79420379Y4384148D01*
X79548946Y5030500D01*
X79420379Y5676852D01*
X79054249Y6224803D01*
X78940961Y6300500D01*
X79054249Y6376197D01*
X79420379Y6924148D01*
X79548946Y7570500D01*
X79420379Y8216852D01*
X79054249Y8764803D01*
X78940961Y8840500D01*
X79054249Y8916197D01*
X79420379Y9464148D01*
X79548946Y10110500D01*
X79420379Y10756852D01*
X79054249Y11304803D01*
X78940961Y11380500D01*
X79054249Y11456197D01*
X79420379Y12004148D01*
X79548946Y12650500D01*
X79420379Y13296852D01*
X79054249Y13844803D01*
X78940961Y13920500D01*
X79054249Y13996197D01*
X79420379Y14544148D01*
X79443091Y14658329D01*
X80967631Y16182869D01*
X81033534Y16281500D01*
X81297992Y16677290D01*
X81414000Y17260500D01*
X81414000Y20660962D01*
X81297992Y21244172D01*
X80967631Y21738593D01*
X80967628Y21738595D01*
X78561874Y24144349D01*
X78708327Y24290801D01*
X78805000Y24524190D01*
X78805000Y25064750D01*
X78646250Y25223500D01*
X77597000Y25223500D01*
X77597000Y25203500D01*
X77343000Y25203500D01*
X77343000Y25223500D01*
X76896564Y25223500D01*
X76840263Y25234699D01*
X74058899Y25234699D01*
X74059275Y25665185D01*
X73847876Y26176810D01*
X76135000Y26176810D01*
X76135000Y25636250D01*
X76293750Y25477500D01*
X77343000Y25477500D01*
X77343000Y26526750D01*
X77597000Y26526750D01*
X77597000Y25477500D01*
X78646250Y25477500D01*
X78805000Y25636250D01*
X78805000Y26176810D01*
X78708327Y26410199D01*
X78529698Y26588827D01*
X78296309Y26685500D01*
X77755750Y26685500D01*
X77597000Y26526750D01*
X77343000Y26526750D01*
X77184250Y26685500D01*
X76643691Y26685500D01*
X76410302Y26588827D01*
X76231673Y26410199D01*
X76135000Y26176810D01*
X73847876Y26176810D01*
X73817874Y26249420D01*
X73371271Y26696803D01*
X72787458Y26939223D01*
X72155315Y26939775D01*
X71571080Y26698374D01*
X71123697Y26251771D01*
X70881277Y25667958D01*
X70880899Y25234699D01*
X67592705Y25234699D01*
X67299472Y25527932D01*
X67089908Y25667958D01*
X66805051Y25858293D01*
X66221841Y25974301D01*
X63318164Y25974301D01*
X63318159Y25974302D01*
X62734950Y25858294D01*
X62734948Y25858293D01*
X62734949Y25858293D01*
X62240528Y25527932D01*
X62240526Y25527929D01*
X58612369Y21899773D01*
X58443805Y21647498D01*
X58221141Y21870551D01*
X57527292Y22158662D01*
X56776004Y22159317D01*
X56081654Y21872418D01*
X55549949Y21341641D01*
X55261838Y20647792D01*
X55261183Y19896504D01*
X55548082Y19202154D01*
X56078859Y18670449D01*
X56772708Y18382338D01*
X57523996Y18381683D01*
X58166000Y18646953D01*
X58166000Y16813448D01*
X57527292Y17078662D01*
X56776004Y17079317D01*
X56081654Y16792418D01*
X55549949Y16261641D01*
X55261838Y15567792D01*
X55261183Y14816504D01*
X55427287Y14414500D01*
X48693388Y14414500D01*
X48940379Y14784148D01*
X49068946Y15430500D01*
X48940379Y16076852D01*
X48574249Y16624803D01*
X48460961Y16700500D01*
X48574249Y16776197D01*
X48940379Y17324148D01*
X49068946Y17970500D01*
X48940379Y18616852D01*
X48574249Y19164803D01*
X48460961Y19240500D01*
X48574249Y19316197D01*
X48940379Y19864148D01*
X49068946Y20510500D01*
X48940379Y21156852D01*
X48574249Y21704803D01*
X48217591Y21943115D01*
X48444500Y22125604D01*
X48714367Y22618681D01*
X48731904Y22701461D01*
X48609915Y22923500D01*
X47117000Y22923500D01*
X47117000Y22903500D01*
X46863000Y22903500D01*
X46863000Y22923500D01*
X45370085Y22923500D01*
X45248096Y22701461D01*
X45265633Y22618681D01*
X45535500Y22125604D01*
X45762409Y21943115D01*
X45405751Y21704803D01*
X45039621Y21156852D01*
X44911054Y20510500D01*
X45006308Y20031624D01*
X44662717Y20261204D01*
X44239890Y20345310D01*
X41416088Y20345310D01*
X41448946Y20510500D01*
X41320379Y21156852D01*
X40954249Y21704803D01*
X40840961Y21780500D01*
X40954249Y21856197D01*
X41320379Y22404148D01*
X41448946Y23050500D01*
X41320379Y23696852D01*
X40954249Y24244803D01*
X40840961Y24320500D01*
X40954249Y24396197D01*
X41320379Y24944148D01*
X41379518Y25241461D01*
X45248096Y25241461D01*
X45265633Y25158681D01*
X45535500Y24665604D01*
X45964607Y24320500D01*
X45535500Y23975396D01*
X45265633Y23482319D01*
X45248096Y23399539D01*
X45370085Y23177500D01*
X46863000Y23177500D01*
X46863000Y25463500D01*
X47117000Y25463500D01*
X47117000Y23177500D01*
X48609915Y23177500D01*
X48731904Y23399539D01*
X48714367Y23482319D01*
X48444500Y23975396D01*
X48015393Y24320500D01*
X48444500Y24665604D01*
X48714367Y25158681D01*
X48731904Y25241461D01*
X48609915Y25463500D01*
X47117000Y25463500D01*
X46863000Y25463500D01*
X45370085Y25463500D01*
X45248096Y25241461D01*
X41379518Y25241461D01*
X41448946Y25590500D01*
X41320379Y26236852D01*
X40954249Y26784803D01*
X40597591Y27023115D01*
X40824500Y27205604D01*
X41094367Y27698681D01*
X41111904Y27781461D01*
X40989915Y28003500D01*
X39497000Y28003500D01*
X39497000Y27983500D01*
X39243000Y27983500D01*
X39243000Y28003500D01*
X37750085Y28003500D01*
X37628096Y27781461D01*
X37645633Y27698681D01*
X37915500Y27205604D01*
X38142409Y27023115D01*
X37785751Y26784803D01*
X37419621Y26236852D01*
X37291054Y25590500D01*
X37419621Y24944148D01*
X37785751Y24396197D01*
X37899039Y24320500D01*
X37785751Y24244803D01*
X37419621Y23696852D01*
X37291054Y23050500D01*
X37419621Y22404148D01*
X37785751Y21856197D01*
X37899039Y21780500D01*
X37785751Y21704803D01*
X37708281Y21588861D01*
X31591858Y27705283D01*
X31233403Y27944795D01*
X30810576Y28028901D01*
X26809701Y28028901D01*
X26390599Y27945536D01*
X26390599Y28585837D01*
X37647646Y39842885D01*
X37785751Y39636197D01*
X37899039Y39560500D01*
X37785751Y39484803D01*
X37419621Y38936852D01*
X37291054Y38290500D01*
X37419621Y37644148D01*
X37785751Y37096197D01*
X37899039Y37020500D01*
X37785751Y36944803D01*
X37419621Y36396852D01*
X37291054Y35750500D01*
X37419621Y35104148D01*
X37785751Y34556197D01*
X37899039Y34480500D01*
X37785751Y34404803D01*
X37419621Y33856852D01*
X37291054Y33210500D01*
X37419621Y32564148D01*
X37785751Y32016197D01*
X37899039Y31940500D01*
X37785751Y31864803D01*
X37419621Y31316852D01*
X37291054Y30670500D01*
X37419621Y30024148D01*
X37785751Y29476197D01*
X38142409Y29237885D01*
X37915500Y29055396D01*
X37645633Y28562319D01*
X37628096Y28479539D01*
X37750085Y28257500D01*
X39243000Y28257500D01*
X39243000Y28277500D01*
X39497000Y28277500D01*
X39497000Y28257500D01*
X40989915Y28257500D01*
X41111904Y28479539D01*
X41094367Y28562319D01*
X40824500Y29055396D01*
X40597591Y29237885D01*
X40954249Y29476197D01*
X41320379Y30024148D01*
X41448946Y30670500D01*
X41320379Y31316852D01*
X40954249Y31864803D01*
X40840961Y31940500D01*
X40954249Y32016197D01*
X41320379Y32564148D01*
X41448946Y33210500D01*
X41320379Y33856852D01*
X40954249Y34404803D01*
X40840961Y34480500D01*
X40954249Y34556197D01*
X41320379Y35104148D01*
X41448946Y35750500D01*
X41320379Y36396852D01*
X40954249Y36944803D01*
X40840961Y37020500D01*
X40954249Y37096197D01*
X41320379Y37644148D01*
X41448946Y38290500D01*
X41320379Y38936852D01*
X40954249Y39484803D01*
X40840961Y39560500D01*
X40954249Y39636197D01*
X41320379Y40184148D01*
X41448946Y40830500D01*
X41320379Y41476852D01*
X40954249Y42024803D01*
X40840961Y42100500D01*
X40954249Y42176197D01*
X41320379Y42724148D01*
X41448946Y43370500D01*
X44911054Y43370500D01*
X45039621Y42724148D01*
X45405751Y42176197D01*
X45519039Y42100500D01*
X45405751Y42024803D01*
X45039621Y41476852D01*
X44911054Y40830500D01*
X45039621Y40184148D01*
X45405751Y39636197D01*
X45519039Y39560500D01*
X45405751Y39484803D01*
X45039621Y38936852D01*
X44911054Y38290500D01*
X45039621Y37644148D01*
X45405751Y37096197D01*
X45519039Y37020500D01*
X45405751Y36944803D01*
X45039621Y36396852D01*
X44911054Y35750500D01*
X45039621Y35104148D01*
X45405751Y34556197D01*
X45519039Y34480500D01*
X45405751Y34404803D01*
X45039621Y33856852D01*
X44911054Y33210500D01*
X45039621Y32564148D01*
X45405751Y32016197D01*
X45519039Y31940500D01*
X45405751Y31864803D01*
X45039621Y31316852D01*
X44911054Y30670500D01*
X45039621Y30024148D01*
X45405751Y29476197D01*
X45519039Y29400500D01*
X45405751Y29324803D01*
X45039621Y28776852D01*
X44911054Y28130500D01*
X45039621Y27484148D01*
X45405751Y26936197D01*
X45762409Y26697885D01*
X45535500Y26515396D01*
X45265633Y26022319D01*
X45248096Y25939539D01*
X45370085Y25717500D01*
X46863000Y25717500D01*
X46863000Y25737500D01*
X47117000Y25737500D01*
X47117000Y25717500D01*
X48609915Y25717500D01*
X48731904Y25939539D01*
X48714367Y26022319D01*
X48444500Y26515396D01*
X48217591Y26697885D01*
X48574249Y26936197D01*
X48940379Y27484148D01*
X49068946Y28130500D01*
X48940379Y28776852D01*
X48574249Y29324803D01*
X48460961Y29400500D01*
X48574249Y29476197D01*
X48940379Y30024148D01*
X49068946Y30670500D01*
X48940379Y31316852D01*
X48574249Y31864803D01*
X48460961Y31940500D01*
X48574249Y32016197D01*
X48940379Y32564148D01*
X49004150Y32884750D01*
X60975000Y32884750D01*
X60975000Y32344190D01*
X61071673Y32110801D01*
X61250302Y31932173D01*
X61483691Y31835500D01*
X62024250Y31835500D01*
X62183000Y31994250D01*
X62183000Y33043500D01*
X62437000Y33043500D01*
X62437000Y31994250D01*
X62595750Y31835500D01*
X63136309Y31835500D01*
X63369698Y31932173D01*
X63548327Y32110801D01*
X63645000Y32344190D01*
X63645000Y32884750D01*
X63486250Y33043500D01*
X62437000Y33043500D01*
X62183000Y33043500D01*
X61133750Y33043500D01*
X60975000Y32884750D01*
X49004150Y32884750D01*
X49068946Y33210500D01*
X48940379Y33856852D01*
X48846862Y33996810D01*
X60975000Y33996810D01*
X60975000Y33456250D01*
X61133750Y33297500D01*
X62183000Y33297500D01*
X62183000Y34346750D01*
X62437000Y34346750D01*
X62437000Y33297500D01*
X63486250Y33297500D01*
X63645000Y33456250D01*
X63645000Y33996810D01*
X63548327Y34230199D01*
X63369698Y34408827D01*
X63136309Y34505500D01*
X62595750Y34505500D01*
X62437000Y34346750D01*
X62183000Y34346750D01*
X62024250Y34505500D01*
X61483691Y34505500D01*
X61250302Y34408827D01*
X61071673Y34230199D01*
X60975000Y33996810D01*
X48846862Y33996810D01*
X48574249Y34404803D01*
X48460961Y34480500D01*
X48574249Y34556197D01*
X48940379Y35104148D01*
X49068946Y35750500D01*
X48940379Y36396852D01*
X48574249Y36944803D01*
X48460961Y37020500D01*
X48574249Y37096197D01*
X48940379Y37644148D01*
X48991561Y37901461D01*
X60488096Y37901461D01*
X60505633Y37818681D01*
X60775500Y37325604D01*
X61213517Y36973334D01*
X61753000Y36815500D01*
X62103000Y36815500D01*
X62103000Y38123500D01*
X62357000Y38123500D01*
X62357000Y36815500D01*
X62707000Y36815500D01*
X63246483Y36973334D01*
X63684500Y37325604D01*
X63954367Y37818681D01*
X63971904Y37901461D01*
X63849915Y38123500D01*
X62357000Y38123500D01*
X62103000Y38123500D01*
X60610085Y38123500D01*
X60488096Y37901461D01*
X48991561Y37901461D01*
X49068946Y38290500D01*
X48940379Y38936852D01*
X48574249Y39484803D01*
X48460961Y39560500D01*
X48574249Y39636197D01*
X48940379Y40184148D01*
X49068946Y40830500D01*
X48940379Y41476852D01*
X48574249Y42024803D01*
X48460961Y42100500D01*
X48574249Y42176197D01*
X48940379Y42724148D01*
X48994553Y42996504D01*
X50181183Y42996504D01*
X50468082Y42302154D01*
X50998859Y41770449D01*
X51692708Y41482338D01*
X52443996Y41481683D01*
X53138346Y41768582D01*
X53339886Y41969770D01*
X53538859Y41770449D01*
X54232708Y41482338D01*
X54983996Y41481683D01*
X55678346Y41768582D01*
X56210051Y42299359D01*
X56498162Y42993208D01*
X56498258Y43103496D01*
X57741262Y44346500D01*
X60526612Y44346500D01*
X60279621Y43976852D01*
X60151054Y43330500D01*
X60279621Y42684148D01*
X60645751Y42136197D01*
X60759039Y42060500D01*
X60645751Y41984803D01*
X60279621Y41436852D01*
X60151054Y40790500D01*
X60279621Y40144148D01*
X60645751Y39596197D01*
X61002409Y39357885D01*
X60775500Y39175396D01*
X60505633Y38682319D01*
X60488096Y38599539D01*
X60610085Y38377500D01*
X62103000Y38377500D01*
X62103000Y38397500D01*
X62357000Y38397500D01*
X62357000Y38377500D01*
X63849915Y38377500D01*
X63971904Y38599539D01*
X63954367Y38682319D01*
X63684500Y39175396D01*
X63457591Y39357885D01*
X63814249Y39596197D01*
X64180379Y40144148D01*
X64308946Y40790500D01*
X64180379Y41436852D01*
X63814249Y41984803D01*
X63700961Y42060500D01*
X63814249Y42136197D01*
X64180379Y42684148D01*
X64308946Y43330500D01*
X64180379Y43976852D01*
X63814249Y44524803D01*
X63700961Y44600500D01*
X63814249Y44676197D01*
X64180379Y45224148D01*
X64308946Y45870500D01*
X64180379Y46516852D01*
X63814249Y47064803D01*
X63266298Y47430933D01*
X62619946Y47559500D01*
X61840054Y47559500D01*
X61193702Y47430933D01*
X61139176Y47394500D01*
X57110000Y47394500D01*
X56526791Y47278493D01*
X56032369Y46948131D01*
X54343461Y45259223D01*
X54236004Y45259317D01*
X53541654Y44972418D01*
X53340114Y44771230D01*
X53141141Y44970551D01*
X52447292Y45258662D01*
X51696004Y45259317D01*
X51001654Y44972418D01*
X50469949Y44441641D01*
X50181838Y43747792D01*
X50181183Y42996504D01*
X48994553Y42996504D01*
X49068946Y43370500D01*
X48940379Y44016852D01*
X48574249Y44564803D01*
X48026298Y44930933D01*
X47379946Y45059500D01*
X46600054Y45059500D01*
X45953702Y44930933D01*
X45405751Y44564803D01*
X45039621Y44016852D01*
X44911054Y43370500D01*
X41448946Y43370500D01*
X41320379Y44016852D01*
X40954249Y44564803D01*
X40406298Y44930933D01*
X39759946Y45059500D01*
X38980054Y45059500D01*
X38333702Y44930933D01*
X37785751Y44564803D01*
X37419621Y44016852D01*
X37396909Y43902670D01*
X23788968Y30294730D01*
X23458607Y29800309D01*
X23342599Y29217099D01*
X21033740Y29217099D01*
X21033740Y38595024D01*
X21259800Y38595024D01*
X21589244Y38657013D01*
X21891817Y38851714D01*
X22094803Y39148793D01*
X22166216Y39501440D01*
X22166216Y43001560D01*
X22104227Y43331004D01*
X21953371Y43565440D01*
X22223730Y43565440D01*
X22382480Y43724190D01*
X22382480Y45823500D01*
X22636480Y45823500D01*
X22636480Y43724190D01*
X22795230Y43565440D01*
X24385849Y43565440D01*
X24619238Y43662113D01*
X24797867Y43840741D01*
X24894540Y44074130D01*
X24894540Y45664750D01*
X24735790Y45823500D01*
X22636480Y45823500D01*
X22382480Y45823500D01*
X20283170Y45823500D01*
X20124420Y45664750D01*
X20124420Y44074130D01*
X20193243Y43907976D01*
X19107250Y43907976D01*
X19166476Y44200440D01*
X19166476Y47700560D01*
X19142710Y47826870D01*
X20124420Y47826870D01*
X20124420Y46236250D01*
X20283170Y46077500D01*
X22382480Y46077500D01*
X22382480Y48176810D01*
X22636480Y48176810D01*
X22636480Y46077500D01*
X24735790Y46077500D01*
X24894540Y46236250D01*
X24894540Y47826870D01*
X24797867Y48060259D01*
X24722311Y48135815D01*
X40400725Y48135815D01*
X40642126Y47551580D01*
X41088729Y47104197D01*
X41672542Y46861777D01*
X42304685Y46861225D01*
X42888920Y47102626D01*
X43336303Y47549229D01*
X43578723Y48133042D01*
X43578750Y48164750D01*
X45655000Y48164750D01*
X45655000Y47624190D01*
X45751673Y47390801D01*
X45930302Y47212173D01*
X46163691Y47115500D01*
X46704250Y47115500D01*
X46863000Y47274250D01*
X46863000Y48323500D01*
X47117000Y48323500D01*
X47117000Y47274250D01*
X47275750Y47115500D01*
X47816309Y47115500D01*
X48049698Y47212173D01*
X48228327Y47390801D01*
X48325000Y47624190D01*
X48325000Y48164750D01*
X48166250Y48323500D01*
X47117000Y48323500D01*
X46863000Y48323500D01*
X45813750Y48323500D01*
X45655000Y48164750D01*
X43578750Y48164750D01*
X43579275Y48765185D01*
X43367876Y49276810D01*
X45655000Y49276810D01*
X45655000Y48736250D01*
X45813750Y48577500D01*
X46863000Y48577500D01*
X46863000Y49626750D01*
X47117000Y49626750D01*
X47117000Y48577500D01*
X48166250Y48577500D01*
X48325000Y48736250D01*
X48325000Y49276810D01*
X48228327Y49510199D01*
X48049698Y49688827D01*
X47816309Y49785500D01*
X47275750Y49785500D01*
X47117000Y49626750D01*
X46863000Y49626750D01*
X46704250Y49785500D01*
X46163691Y49785500D01*
X45930302Y49688827D01*
X45751673Y49510199D01*
X45655000Y49276810D01*
X43367876Y49276810D01*
X43337874Y49349420D01*
X42891271Y49796803D01*
X42307458Y50039223D01*
X41675315Y50039775D01*
X41091080Y49798374D01*
X40643697Y49351771D01*
X40401277Y48767958D01*
X40400725Y48135815D01*
X24722311Y48135815D01*
X24619238Y48238887D01*
X24385849Y48335560D01*
X22795230Y48335560D01*
X22636480Y48176810D01*
X22382480Y48176810D01*
X22223730Y48335560D01*
X20633111Y48335560D01*
X20399722Y48238887D01*
X20221093Y48060259D01*
X20124420Y47826870D01*
X19142710Y47826870D01*
X19104487Y48030004D01*
X18909786Y48332577D01*
X18612707Y48535563D01*
X18260060Y48606976D01*
X14759940Y48606976D01*
X14430496Y48544987D01*
X14127923Y48350286D01*
X13924937Y48053207D01*
X13853524Y47700560D01*
X13853524Y44200440D01*
X13915513Y43870996D01*
X14110214Y43568423D01*
X14407293Y43365437D01*
X14759940Y43294024D01*
X16912490Y43294024D01*
X16853264Y43001560D01*
X16853264Y39501440D01*
X16915253Y39171996D01*
X17109954Y38869423D01*
X17407033Y38666437D01*
X17759680Y38595024D01*
X17985740Y38595024D01*
X17985740Y13981501D01*
X13378738Y9374500D01*
X12702996Y9374500D01*
X12765000Y9524191D01*
X12765000Y10064750D01*
X12606250Y10223500D01*
X11557000Y10223500D01*
X11557000Y10203500D01*
X11303000Y10203500D01*
X11303000Y10223500D01*
X10253750Y10223500D01*
X10095000Y10064750D01*
X10095000Y9524191D01*
X10157004Y9374500D01*
X7573179Y9374500D01*
X7700732Y9488464D01*
X7954709Y10015709D01*
X7957358Y10031474D01*
X7836217Y10263500D01*
X6477000Y10263500D01*
X6477000Y10243500D01*
X6223000Y10243500D01*
X6223000Y10263500D01*
X4863783Y10263500D01*
X4742642Y10031474D01*
X4745291Y10015709D01*
X4999268Y9488464D01*
X5221082Y9290281D01*
X4921004Y9089775D01*
X4541088Y8521191D01*
X4407679Y7850500D01*
X1397000Y7850500D01*
X1397000Y20550500D01*
X4407679Y20550500D01*
X4541088Y19879809D01*
X4921004Y19311225D01*
X4966987Y19280500D01*
X4921004Y19249775D01*
X4541088Y18681191D01*
X4407679Y18010500D01*
X4541088Y17339809D01*
X4921004Y16771225D01*
X4966987Y16740500D01*
X4921004Y16709775D01*
X4541088Y16141191D01*
X4407679Y15470500D01*
X4541088Y14799809D01*
X4921004Y14231225D01*
X4966987Y14200500D01*
X4921004Y14169775D01*
X4541088Y13601191D01*
X4407679Y12930500D01*
X4541088Y12259809D01*
X4921004Y11691225D01*
X5221082Y11490719D01*
X4999268Y11292536D01*
X4745291Y10765291D01*
X4742642Y10749526D01*
X4863783Y10517500D01*
X6223000Y10517500D01*
X6223000Y10537500D01*
X6477000Y10537500D01*
X6477000Y10517500D01*
X7836217Y10517500D01*
X7957358Y10749526D01*
X7954709Y10765291D01*
X7756479Y11176809D01*
X10095000Y11176809D01*
X10095000Y10636250D01*
X10253750Y10477500D01*
X11303000Y10477500D01*
X11303000Y11526750D01*
X11557000Y11526750D01*
X11557000Y10477500D01*
X12606250Y10477500D01*
X12765000Y10636250D01*
X12765000Y11176809D01*
X12668327Y11410198D01*
X12489699Y11588827D01*
X12256310Y11685500D01*
X11715750Y11685500D01*
X11557000Y11526750D01*
X11303000Y11526750D01*
X11144250Y11685500D01*
X10603690Y11685500D01*
X10370301Y11588827D01*
X10191673Y11410198D01*
X10095000Y11176809D01*
X7756479Y11176809D01*
X7700732Y11292536D01*
X7478918Y11490719D01*
X7778996Y11691225D01*
X8158912Y12259809D01*
X8292321Y12930500D01*
X8158912Y13601191D01*
X7778996Y14169775D01*
X7733013Y14200500D01*
X7778996Y14231225D01*
X8158912Y14799809D01*
X8292321Y15470500D01*
X8158912Y16141191D01*
X7778996Y16709775D01*
X7733013Y16740500D01*
X7778996Y16771225D01*
X8158912Y17339809D01*
X8292321Y18010500D01*
X8158912Y18681191D01*
X7778996Y19249775D01*
X7733013Y19280500D01*
X7778996Y19311225D01*
X8158912Y19879809D01*
X8292321Y20550500D01*
X8158912Y21221191D01*
X7944194Y21542539D01*
X7998017Y21577174D01*
X8201003Y21874253D01*
X8272416Y22226900D01*
X8272416Y23954100D01*
X8210427Y24283544D01*
X8015726Y24586117D01*
X7718647Y24789103D01*
X7366000Y24860516D01*
X5334000Y24860516D01*
X5004556Y24798527D01*
X4701983Y24603826D01*
X4498997Y24306747D01*
X4427584Y23954100D01*
X4427584Y22226900D01*
X4489573Y21897456D01*
X4684274Y21594883D01*
X4757397Y21544920D01*
X4541088Y21221191D01*
X4407679Y20550500D01*
X1397000Y20550500D01*
X1397000Y54592026D01*
X2068494Y54592026D01*
X2512253Y53518048D01*
X3333226Y52695640D01*
X4406428Y52250008D01*
X5568474Y52248994D01*
X5881507Y52378337D01*
X51097443Y52378337D01*
X51196042Y52111535D01*
X51805582Y51885099D01*
X52455377Y51909159D01*
X52943958Y52111535D01*
X53042557Y52378337D01*
X53637443Y52378337D01*
X53736042Y52111535D01*
X54345582Y51885099D01*
X54995377Y51909159D01*
X55483958Y52111535D01*
X55582557Y52378337D01*
X54610000Y53350895D01*
X53637443Y52378337D01*
X53042557Y52378337D01*
X52070000Y53350895D01*
X51097443Y52378337D01*
X5881507Y52378337D01*
X6642452Y52692753D01*
X7464860Y53513726D01*
X7581621Y53794918D01*
X50424599Y53794918D01*
X50448659Y53145123D01*
X50651035Y52656542D01*
X50917837Y52557943D01*
X51890395Y53530500D01*
X52249605Y53530500D01*
X53222163Y52557943D01*
X53340000Y52601491D01*
X53457837Y52557943D01*
X54430395Y53530500D01*
X54789605Y53530500D01*
X55762163Y52557943D01*
X56028965Y52656542D01*
X56255401Y53266082D01*
X56231341Y53915877D01*
X56028965Y54404458D01*
X55762163Y54503057D01*
X54789605Y53530500D01*
X54430395Y53530500D01*
X53457837Y54503057D01*
X53340000Y54459509D01*
X53222163Y54503057D01*
X52249605Y53530500D01*
X51890395Y53530500D01*
X50917837Y54503057D01*
X50651035Y54404458D01*
X50424599Y53794918D01*
X7581621Y53794918D01*
X7910492Y54586928D01*
X7910575Y54682663D01*
X51097443Y54682663D01*
X52070000Y53710105D01*
X53042557Y54682663D01*
X53637443Y54682663D01*
X54610000Y53710105D01*
X55582557Y54682663D01*
X55483958Y54949465D01*
X54874418Y55175901D01*
X54224623Y55151841D01*
X53736042Y54949465D01*
X53637443Y54682663D01*
X53042557Y54682663D01*
X52943958Y54949465D01*
X52334418Y55175901D01*
X51684623Y55151841D01*
X51196042Y54949465D01*
X51097443Y54682663D01*
X7910575Y54682663D01*
X7911506Y55748974D01*
X7467747Y56822952D01*
X6646774Y57645360D01*
X5573572Y58090992D01*
X4411526Y58092006D01*
X3337548Y57648247D01*
X2515140Y56827274D01*
X2069508Y55754072D01*
X2068494Y54592026D01*
X1397000Y54592026D01*
X1397000Y58483500D01*
X64643000Y58483500D01*
X64643000Y33210500D01*
X64643000Y33210500D01*
G37*
X64643000Y33210500D02*
X64653006Y33161090D01*
X64681447Y33119465D01*
X64723841Y33092185D01*
X64770000Y33083500D01*
X65067739Y33083500D01*
X63692369Y31708131D01*
X63362008Y31213710D01*
X63246000Y30630500D01*
X63246000Y28283829D01*
X63181277Y28127958D01*
X63180725Y27495815D01*
X63422126Y26911580D01*
X63868729Y26464197D01*
X64452542Y26221777D01*
X65084685Y26221225D01*
X65668920Y26462626D01*
X66116303Y26909229D01*
X66358723Y27493042D01*
X66359275Y28125185D01*
X66294000Y28283163D01*
X66294000Y29999238D01*
X68052936Y31758175D01*
X68208920Y31822626D01*
X68656303Y32269229D01*
X68898723Y32853042D01*
X68898924Y33083500D01*
X84963000Y33083500D01*
X84963000Y934500D01*
X1397000Y934500D01*
X1397000Y7850500D01*
X4407679Y7850500D01*
X4541088Y7179809D01*
X4921004Y6611225D01*
X5489588Y6231309D01*
X6160279Y6097900D01*
X6539721Y6097900D01*
X7210412Y6231309D01*
X7352875Y6326500D01*
X10158557Y6326500D01*
X10083697Y6251771D01*
X9841277Y5667958D01*
X9840725Y5035815D01*
X10082126Y4451580D01*
X10528729Y4004197D01*
X11112542Y3761777D01*
X11744685Y3761225D01*
X12328920Y4002626D01*
X12776303Y4449229D01*
X13018723Y5033042D01*
X13019275Y5665185D01*
X12777874Y6249420D01*
X12700928Y6326500D01*
X13768902Y6326500D01*
X13970000Y6286499D01*
X14553209Y6402507D01*
X15047631Y6732869D01*
X20587368Y12272607D01*
X20587371Y12272609D01*
X20917732Y12767030D01*
X21033740Y13350240D01*
X21033740Y29217099D01*
X23342599Y29217099D01*
X23342599Y21092587D01*
X23458607Y20509377D01*
X23784467Y20021692D01*
X23788968Y20014956D01*
X24371055Y19432869D01*
X24865476Y19102508D01*
X25448686Y18986500D01*
X25822511Y18986500D01*
X25964974Y18891309D01*
X26635665Y18757900D01*
X26704335Y18757900D01*
X27375026Y18891309D01*
X27940000Y19268813D01*
X28504974Y18891309D01*
X29175665Y18757900D01*
X29244335Y18757900D01*
X29915026Y18891309D01*
X30483610Y19271225D01*
X30861363Y19836573D01*
X34778628Y15919308D01*
X35137083Y15679796D01*
X35559910Y15595690D01*
X37323912Y15595690D01*
X37291054Y15430500D01*
X37419621Y14784148D01*
X37785751Y14236197D01*
X37899039Y14160500D01*
X37785751Y14084803D01*
X37419621Y13536852D01*
X37291054Y12890500D01*
X37419621Y12244148D01*
X37785751Y11696197D01*
X37899039Y11620500D01*
X37785751Y11544803D01*
X37419621Y10996852D01*
X37291054Y10350500D01*
X37419621Y9704148D01*
X37785751Y9156197D01*
X38333702Y8790067D01*
X38980054Y8661500D01*
X39759946Y8661500D01*
X40406298Y8790067D01*
X40954249Y9156197D01*
X41320379Y9704148D01*
X41448946Y10350500D01*
X41320379Y10996852D01*
X40954249Y11544803D01*
X40840961Y11620500D01*
X40954249Y11696197D01*
X41320379Y12244148D01*
X41448946Y12890500D01*
X41320379Y13536852D01*
X40954249Y14084803D01*
X40840961Y14160500D01*
X40954249Y14236197D01*
X41320379Y14784148D01*
X41448946Y15430500D01*
X41416088Y15595690D01*
X43782046Y15595690D01*
X44728518Y14649217D01*
X45086974Y14409705D01*
X45320908Y14363173D01*
X45405751Y14236197D01*
X45519039Y14160500D01*
X45405751Y14084803D01*
X45039621Y13536852D01*
X44911054Y12890500D01*
X45039621Y12244148D01*
X45405751Y11696197D01*
X45519039Y11620500D01*
X45405751Y11544803D01*
X45039621Y10996852D01*
X44911054Y10350500D01*
X45039621Y9704148D01*
X45405751Y9156197D01*
X45953702Y8790067D01*
X46600054Y8661500D01*
X47379946Y8661500D01*
X48026298Y8790067D01*
X48080824Y8826500D01*
X48778738Y8826500D01*
X55392179Y2213059D01*
X55886600Y1882698D01*
X56469810Y1766690D01*
X70920652Y1766690D01*
X71503862Y1882698D01*
X71998283Y2213059D01*
X73017441Y3232217D01*
X73211280Y3522318D01*
X73347802Y3726638D01*
X73461128Y4296366D01*
X75747647Y6582885D01*
X75885751Y6376197D01*
X75999039Y6300500D01*
X75885751Y6224803D01*
X75519621Y5676852D01*
X75391054Y5030500D01*
X75519621Y4384148D01*
X75885751Y3836197D01*
X76433702Y3470067D01*
X77080054Y3341500D01*
X77859946Y3341500D01*
X78506298Y3470067D01*
X79054249Y3836197D01*
X79420379Y4384148D01*
X79548946Y5030500D01*
X79420379Y5676852D01*
X79054249Y6224803D01*
X78940961Y6300500D01*
X79054249Y6376197D01*
X79420379Y6924148D01*
X79548946Y7570500D01*
X79420379Y8216852D01*
X79054249Y8764803D01*
X78940961Y8840500D01*
X79054249Y8916197D01*
X79420379Y9464148D01*
X79548946Y10110500D01*
X79420379Y10756852D01*
X79054249Y11304803D01*
X78940961Y11380500D01*
X79054249Y11456197D01*
X79420379Y12004148D01*
X79548946Y12650500D01*
X79420379Y13296852D01*
X79054249Y13844803D01*
X78940961Y13920500D01*
X79054249Y13996197D01*
X79420379Y14544148D01*
X79443091Y14658329D01*
X80967631Y16182869D01*
X81033534Y16281500D01*
X81297992Y16677290D01*
X81414000Y17260500D01*
X81414000Y20660962D01*
X81297992Y21244172D01*
X80967631Y21738593D01*
X80967628Y21738595D01*
X78561874Y24144349D01*
X78708327Y24290801D01*
X78805000Y24524190D01*
X78805000Y25064750D01*
X78646250Y25223500D01*
X77597000Y25223500D01*
X77597000Y25203500D01*
X77343000Y25203500D01*
X77343000Y25223500D01*
X76896564Y25223500D01*
X76840263Y25234699D01*
X74058899Y25234699D01*
X74059275Y25665185D01*
X73847876Y26176810D01*
X76135000Y26176810D01*
X76135000Y25636250D01*
X76293750Y25477500D01*
X77343000Y25477500D01*
X77343000Y26526750D01*
X77597000Y26526750D01*
X77597000Y25477500D01*
X78646250Y25477500D01*
X78805000Y25636250D01*
X78805000Y26176810D01*
X78708327Y26410199D01*
X78529698Y26588827D01*
X78296309Y26685500D01*
X77755750Y26685500D01*
X77597000Y26526750D01*
X77343000Y26526750D01*
X77184250Y26685500D01*
X76643691Y26685500D01*
X76410302Y26588827D01*
X76231673Y26410199D01*
X76135000Y26176810D01*
X73847876Y26176810D01*
X73817874Y26249420D01*
X73371271Y26696803D01*
X72787458Y26939223D01*
X72155315Y26939775D01*
X71571080Y26698374D01*
X71123697Y26251771D01*
X70881277Y25667958D01*
X70880899Y25234699D01*
X67592705Y25234699D01*
X67299472Y25527932D01*
X67089908Y25667958D01*
X66805051Y25858293D01*
X66221841Y25974301D01*
X63318164Y25974301D01*
X63318159Y25974302D01*
X62734950Y25858294D01*
X62734948Y25858293D01*
X62734949Y25858293D01*
X62240528Y25527932D01*
X62240526Y25527929D01*
X58612369Y21899773D01*
X58443805Y21647498D01*
X58221141Y21870551D01*
X57527292Y22158662D01*
X56776004Y22159317D01*
X56081654Y21872418D01*
X55549949Y21341641D01*
X55261838Y20647792D01*
X55261183Y19896504D01*
X55548082Y19202154D01*
X56078859Y18670449D01*
X56772708Y18382338D01*
X57523996Y18381683D01*
X58166000Y18646953D01*
X58166000Y16813448D01*
X57527292Y17078662D01*
X56776004Y17079317D01*
X56081654Y16792418D01*
X55549949Y16261641D01*
X55261838Y15567792D01*
X55261183Y14816504D01*
X55427287Y14414500D01*
X48693388Y14414500D01*
X48940379Y14784148D01*
X49068946Y15430500D01*
X48940379Y16076852D01*
X48574249Y16624803D01*
X48460961Y16700500D01*
X48574249Y16776197D01*
X48940379Y17324148D01*
X49068946Y17970500D01*
X48940379Y18616852D01*
X48574249Y19164803D01*
X48460961Y19240500D01*
X48574249Y19316197D01*
X48940379Y19864148D01*
X49068946Y20510500D01*
X48940379Y21156852D01*
X48574249Y21704803D01*
X48217591Y21943115D01*
X48444500Y22125604D01*
X48714367Y22618681D01*
X48731904Y22701461D01*
X48609915Y22923500D01*
X47117000Y22923500D01*
X47117000Y22903500D01*
X46863000Y22903500D01*
X46863000Y22923500D01*
X45370085Y22923500D01*
X45248096Y22701461D01*
X45265633Y22618681D01*
X45535500Y22125604D01*
X45762409Y21943115D01*
X45405751Y21704803D01*
X45039621Y21156852D01*
X44911054Y20510500D01*
X45006308Y20031624D01*
X44662717Y20261204D01*
X44239890Y20345310D01*
X41416088Y20345310D01*
X41448946Y20510500D01*
X41320379Y21156852D01*
X40954249Y21704803D01*
X40840961Y21780500D01*
X40954249Y21856197D01*
X41320379Y22404148D01*
X41448946Y23050500D01*
X41320379Y23696852D01*
X40954249Y24244803D01*
X40840961Y24320500D01*
X40954249Y24396197D01*
X41320379Y24944148D01*
X41379518Y25241461D01*
X45248096Y25241461D01*
X45265633Y25158681D01*
X45535500Y24665604D01*
X45964607Y24320500D01*
X45535500Y23975396D01*
X45265633Y23482319D01*
X45248096Y23399539D01*
X45370085Y23177500D01*
X46863000Y23177500D01*
X46863000Y25463500D01*
X47117000Y25463500D01*
X47117000Y23177500D01*
X48609915Y23177500D01*
X48731904Y23399539D01*
X48714367Y23482319D01*
X48444500Y23975396D01*
X48015393Y24320500D01*
X48444500Y24665604D01*
X48714367Y25158681D01*
X48731904Y25241461D01*
X48609915Y25463500D01*
X47117000Y25463500D01*
X46863000Y25463500D01*
X45370085Y25463500D01*
X45248096Y25241461D01*
X41379518Y25241461D01*
X41448946Y25590500D01*
X41320379Y26236852D01*
X40954249Y26784803D01*
X40597591Y27023115D01*
X40824500Y27205604D01*
X41094367Y27698681D01*
X41111904Y27781461D01*
X40989915Y28003500D01*
X39497000Y28003500D01*
X39497000Y27983500D01*
X39243000Y27983500D01*
X39243000Y28003500D01*
X37750085Y28003500D01*
X37628096Y27781461D01*
X37645633Y27698681D01*
X37915500Y27205604D01*
X38142409Y27023115D01*
X37785751Y26784803D01*
X37419621Y26236852D01*
X37291054Y25590500D01*
X37419621Y24944148D01*
X37785751Y24396197D01*
X37899039Y24320500D01*
X37785751Y24244803D01*
X37419621Y23696852D01*
X37291054Y23050500D01*
X37419621Y22404148D01*
X37785751Y21856197D01*
X37899039Y21780500D01*
X37785751Y21704803D01*
X37708281Y21588861D01*
X31591858Y27705283D01*
X31233403Y27944795D01*
X30810576Y28028901D01*
X26809701Y28028901D01*
X26390599Y27945536D01*
X26390599Y28585837D01*
X37647646Y39842885D01*
X37785751Y39636197D01*
X37899039Y39560500D01*
X37785751Y39484803D01*
X37419621Y38936852D01*
X37291054Y38290500D01*
X37419621Y37644148D01*
X37785751Y37096197D01*
X37899039Y37020500D01*
X37785751Y36944803D01*
X37419621Y36396852D01*
X37291054Y35750500D01*
X37419621Y35104148D01*
X37785751Y34556197D01*
X37899039Y34480500D01*
X37785751Y34404803D01*
X37419621Y33856852D01*
X37291054Y33210500D01*
X37419621Y32564148D01*
X37785751Y32016197D01*
X37899039Y31940500D01*
X37785751Y31864803D01*
X37419621Y31316852D01*
X37291054Y30670500D01*
X37419621Y30024148D01*
X37785751Y29476197D01*
X38142409Y29237885D01*
X37915500Y29055396D01*
X37645633Y28562319D01*
X37628096Y28479539D01*
X37750085Y28257500D01*
X39243000Y28257500D01*
X39243000Y28277500D01*
X39497000Y28277500D01*
X39497000Y28257500D01*
X40989915Y28257500D01*
X41111904Y28479539D01*
X41094367Y28562319D01*
X40824500Y29055396D01*
X40597591Y29237885D01*
X40954249Y29476197D01*
X41320379Y30024148D01*
X41448946Y30670500D01*
X41320379Y31316852D01*
X40954249Y31864803D01*
X40840961Y31940500D01*
X40954249Y32016197D01*
X41320379Y32564148D01*
X41448946Y33210500D01*
X41320379Y33856852D01*
X40954249Y34404803D01*
X40840961Y34480500D01*
X40954249Y34556197D01*
X41320379Y35104148D01*
X41448946Y35750500D01*
X41320379Y36396852D01*
X40954249Y36944803D01*
X40840961Y37020500D01*
X40954249Y37096197D01*
X41320379Y37644148D01*
X41448946Y38290500D01*
X41320379Y38936852D01*
X40954249Y39484803D01*
X40840961Y39560500D01*
X40954249Y39636197D01*
X41320379Y40184148D01*
X41448946Y40830500D01*
X41320379Y41476852D01*
X40954249Y42024803D01*
X40840961Y42100500D01*
X40954249Y42176197D01*
X41320379Y42724148D01*
X41448946Y43370500D01*
X44911054Y43370500D01*
X45039621Y42724148D01*
X45405751Y42176197D01*
X45519039Y42100500D01*
X45405751Y42024803D01*
X45039621Y41476852D01*
X44911054Y40830500D01*
X45039621Y40184148D01*
X45405751Y39636197D01*
X45519039Y39560500D01*
X45405751Y39484803D01*
X45039621Y38936852D01*
X44911054Y38290500D01*
X45039621Y37644148D01*
X45405751Y37096197D01*
X45519039Y37020500D01*
X45405751Y36944803D01*
X45039621Y36396852D01*
X44911054Y35750500D01*
X45039621Y35104148D01*
X45405751Y34556197D01*
X45519039Y34480500D01*
X45405751Y34404803D01*
X45039621Y33856852D01*
X44911054Y33210500D01*
X45039621Y32564148D01*
X45405751Y32016197D01*
X45519039Y31940500D01*
X45405751Y31864803D01*
X45039621Y31316852D01*
X44911054Y30670500D01*
X45039621Y30024148D01*
X45405751Y29476197D01*
X45519039Y29400500D01*
X45405751Y29324803D01*
X45039621Y28776852D01*
X44911054Y28130500D01*
X45039621Y27484148D01*
X45405751Y26936197D01*
X45762409Y26697885D01*
X45535500Y26515396D01*
X45265633Y26022319D01*
X45248096Y25939539D01*
X45370085Y25717500D01*
X46863000Y25717500D01*
X46863000Y25737500D01*
X47117000Y25737500D01*
X47117000Y25717500D01*
X48609915Y25717500D01*
X48731904Y25939539D01*
X48714367Y26022319D01*
X48444500Y26515396D01*
X48217591Y26697885D01*
X48574249Y26936197D01*
X48940379Y27484148D01*
X49068946Y28130500D01*
X48940379Y28776852D01*
X48574249Y29324803D01*
X48460961Y29400500D01*
X48574249Y29476197D01*
X48940379Y30024148D01*
X49068946Y30670500D01*
X48940379Y31316852D01*
X48574249Y31864803D01*
X48460961Y31940500D01*
X48574249Y32016197D01*
X48940379Y32564148D01*
X49004150Y32884750D01*
X60975000Y32884750D01*
X60975000Y32344190D01*
X61071673Y32110801D01*
X61250302Y31932173D01*
X61483691Y31835500D01*
X62024250Y31835500D01*
X62183000Y31994250D01*
X62183000Y33043500D01*
X62437000Y33043500D01*
X62437000Y31994250D01*
X62595750Y31835500D01*
X63136309Y31835500D01*
X63369698Y31932173D01*
X63548327Y32110801D01*
X63645000Y32344190D01*
X63645000Y32884750D01*
X63486250Y33043500D01*
X62437000Y33043500D01*
X62183000Y33043500D01*
X61133750Y33043500D01*
X60975000Y32884750D01*
X49004150Y32884750D01*
X49068946Y33210500D01*
X48940379Y33856852D01*
X48846862Y33996810D01*
X60975000Y33996810D01*
X60975000Y33456250D01*
X61133750Y33297500D01*
X62183000Y33297500D01*
X62183000Y34346750D01*
X62437000Y34346750D01*
X62437000Y33297500D01*
X63486250Y33297500D01*
X63645000Y33456250D01*
X63645000Y33996810D01*
X63548327Y34230199D01*
X63369698Y34408827D01*
X63136309Y34505500D01*
X62595750Y34505500D01*
X62437000Y34346750D01*
X62183000Y34346750D01*
X62024250Y34505500D01*
X61483691Y34505500D01*
X61250302Y34408827D01*
X61071673Y34230199D01*
X60975000Y33996810D01*
X48846862Y33996810D01*
X48574249Y34404803D01*
X48460961Y34480500D01*
X48574249Y34556197D01*
X48940379Y35104148D01*
X49068946Y35750500D01*
X48940379Y36396852D01*
X48574249Y36944803D01*
X48460961Y37020500D01*
X48574249Y37096197D01*
X48940379Y37644148D01*
X48991561Y37901461D01*
X60488096Y37901461D01*
X60505633Y37818681D01*
X60775500Y37325604D01*
X61213517Y36973334D01*
X61753000Y36815500D01*
X62103000Y36815500D01*
X62103000Y38123500D01*
X62357000Y38123500D01*
X62357000Y36815500D01*
X62707000Y36815500D01*
X63246483Y36973334D01*
X63684500Y37325604D01*
X63954367Y37818681D01*
X63971904Y37901461D01*
X63849915Y38123500D01*
X62357000Y38123500D01*
X62103000Y38123500D01*
X60610085Y38123500D01*
X60488096Y37901461D01*
X48991561Y37901461D01*
X49068946Y38290500D01*
X48940379Y38936852D01*
X48574249Y39484803D01*
X48460961Y39560500D01*
X48574249Y39636197D01*
X48940379Y40184148D01*
X49068946Y40830500D01*
X48940379Y41476852D01*
X48574249Y42024803D01*
X48460961Y42100500D01*
X48574249Y42176197D01*
X48940379Y42724148D01*
X48994553Y42996504D01*
X50181183Y42996504D01*
X50468082Y42302154D01*
X50998859Y41770449D01*
X51692708Y41482338D01*
X52443996Y41481683D01*
X53138346Y41768582D01*
X53339886Y41969770D01*
X53538859Y41770449D01*
X54232708Y41482338D01*
X54983996Y41481683D01*
X55678346Y41768582D01*
X56210051Y42299359D01*
X56498162Y42993208D01*
X56498258Y43103496D01*
X57741262Y44346500D01*
X60526612Y44346500D01*
X60279621Y43976852D01*
X60151054Y43330500D01*
X60279621Y42684148D01*
X60645751Y42136197D01*
X60759039Y42060500D01*
X60645751Y41984803D01*
X60279621Y41436852D01*
X60151054Y40790500D01*
X60279621Y40144148D01*
X60645751Y39596197D01*
X61002409Y39357885D01*
X60775500Y39175396D01*
X60505633Y38682319D01*
X60488096Y38599539D01*
X60610085Y38377500D01*
X62103000Y38377500D01*
X62103000Y38397500D01*
X62357000Y38397500D01*
X62357000Y38377500D01*
X63849915Y38377500D01*
X63971904Y38599539D01*
X63954367Y38682319D01*
X63684500Y39175396D01*
X63457591Y39357885D01*
X63814249Y39596197D01*
X64180379Y40144148D01*
X64308946Y40790500D01*
X64180379Y41436852D01*
X63814249Y41984803D01*
X63700961Y42060500D01*
X63814249Y42136197D01*
X64180379Y42684148D01*
X64308946Y43330500D01*
X64180379Y43976852D01*
X63814249Y44524803D01*
X63700961Y44600500D01*
X63814249Y44676197D01*
X64180379Y45224148D01*
X64308946Y45870500D01*
X64180379Y46516852D01*
X63814249Y47064803D01*
X63266298Y47430933D01*
X62619946Y47559500D01*
X61840054Y47559500D01*
X61193702Y47430933D01*
X61139176Y47394500D01*
X57110000Y47394500D01*
X56526791Y47278493D01*
X56032369Y46948131D01*
X54343461Y45259223D01*
X54236004Y45259317D01*
X53541654Y44972418D01*
X53340114Y44771230D01*
X53141141Y44970551D01*
X52447292Y45258662D01*
X51696004Y45259317D01*
X51001654Y44972418D01*
X50469949Y44441641D01*
X50181838Y43747792D01*
X50181183Y42996504D01*
X48994553Y42996504D01*
X49068946Y43370500D01*
X48940379Y44016852D01*
X48574249Y44564803D01*
X48026298Y44930933D01*
X47379946Y45059500D01*
X46600054Y45059500D01*
X45953702Y44930933D01*
X45405751Y44564803D01*
X45039621Y44016852D01*
X44911054Y43370500D01*
X41448946Y43370500D01*
X41320379Y44016852D01*
X40954249Y44564803D01*
X40406298Y44930933D01*
X39759946Y45059500D01*
X38980054Y45059500D01*
X38333702Y44930933D01*
X37785751Y44564803D01*
X37419621Y44016852D01*
X37396909Y43902670D01*
X23788968Y30294730D01*
X23458607Y29800309D01*
X23342599Y29217099D01*
X21033740Y29217099D01*
X21033740Y38595024D01*
X21259800Y38595024D01*
X21589244Y38657013D01*
X21891817Y38851714D01*
X22094803Y39148793D01*
X22166216Y39501440D01*
X22166216Y43001560D01*
X22104227Y43331004D01*
X21953371Y43565440D01*
X22223730Y43565440D01*
X22382480Y43724190D01*
X22382480Y45823500D01*
X22636480Y45823500D01*
X22636480Y43724190D01*
X22795230Y43565440D01*
X24385849Y43565440D01*
X24619238Y43662113D01*
X24797867Y43840741D01*
X24894540Y44074130D01*
X24894540Y45664750D01*
X24735790Y45823500D01*
X22636480Y45823500D01*
X22382480Y45823500D01*
X20283170Y45823500D01*
X20124420Y45664750D01*
X20124420Y44074130D01*
X20193243Y43907976D01*
X19107250Y43907976D01*
X19166476Y44200440D01*
X19166476Y47700560D01*
X19142710Y47826870D01*
X20124420Y47826870D01*
X20124420Y46236250D01*
X20283170Y46077500D01*
X22382480Y46077500D01*
X22382480Y48176810D01*
X22636480Y48176810D01*
X22636480Y46077500D01*
X24735790Y46077500D01*
X24894540Y46236250D01*
X24894540Y47826870D01*
X24797867Y48060259D01*
X24722311Y48135815D01*
X40400725Y48135815D01*
X40642126Y47551580D01*
X41088729Y47104197D01*
X41672542Y46861777D01*
X42304685Y46861225D01*
X42888920Y47102626D01*
X43336303Y47549229D01*
X43578723Y48133042D01*
X43578750Y48164750D01*
X45655000Y48164750D01*
X45655000Y47624190D01*
X45751673Y47390801D01*
X45930302Y47212173D01*
X46163691Y47115500D01*
X46704250Y47115500D01*
X46863000Y47274250D01*
X46863000Y48323500D01*
X47117000Y48323500D01*
X47117000Y47274250D01*
X47275750Y47115500D01*
X47816309Y47115500D01*
X48049698Y47212173D01*
X48228327Y47390801D01*
X48325000Y47624190D01*
X48325000Y48164750D01*
X48166250Y48323500D01*
X47117000Y48323500D01*
X46863000Y48323500D01*
X45813750Y48323500D01*
X45655000Y48164750D01*
X43578750Y48164750D01*
X43579275Y48765185D01*
X43367876Y49276810D01*
X45655000Y49276810D01*
X45655000Y48736250D01*
X45813750Y48577500D01*
X46863000Y48577500D01*
X46863000Y49626750D01*
X47117000Y49626750D01*
X47117000Y48577500D01*
X48166250Y48577500D01*
X48325000Y48736250D01*
X48325000Y49276810D01*
X48228327Y49510199D01*
X48049698Y49688827D01*
X47816309Y49785500D01*
X47275750Y49785500D01*
X47117000Y49626750D01*
X46863000Y49626750D01*
X46704250Y49785500D01*
X46163691Y49785500D01*
X45930302Y49688827D01*
X45751673Y49510199D01*
X45655000Y49276810D01*
X43367876Y49276810D01*
X43337874Y49349420D01*
X42891271Y49796803D01*
X42307458Y50039223D01*
X41675315Y50039775D01*
X41091080Y49798374D01*
X40643697Y49351771D01*
X40401277Y48767958D01*
X40400725Y48135815D01*
X24722311Y48135815D01*
X24619238Y48238887D01*
X24385849Y48335560D01*
X22795230Y48335560D01*
X22636480Y48176810D01*
X22382480Y48176810D01*
X22223730Y48335560D01*
X20633111Y48335560D01*
X20399722Y48238887D01*
X20221093Y48060259D01*
X20124420Y47826870D01*
X19142710Y47826870D01*
X19104487Y48030004D01*
X18909786Y48332577D01*
X18612707Y48535563D01*
X18260060Y48606976D01*
X14759940Y48606976D01*
X14430496Y48544987D01*
X14127923Y48350286D01*
X13924937Y48053207D01*
X13853524Y47700560D01*
X13853524Y44200440D01*
X13915513Y43870996D01*
X14110214Y43568423D01*
X14407293Y43365437D01*
X14759940Y43294024D01*
X16912490Y43294024D01*
X16853264Y43001560D01*
X16853264Y39501440D01*
X16915253Y39171996D01*
X17109954Y38869423D01*
X17407033Y38666437D01*
X17759680Y38595024D01*
X17985740Y38595024D01*
X17985740Y13981501D01*
X13378738Y9374500D01*
X12702996Y9374500D01*
X12765000Y9524191D01*
X12765000Y10064750D01*
X12606250Y10223500D01*
X11557000Y10223500D01*
X11557000Y10203500D01*
X11303000Y10203500D01*
X11303000Y10223500D01*
X10253750Y10223500D01*
X10095000Y10064750D01*
X10095000Y9524191D01*
X10157004Y9374500D01*
X7573179Y9374500D01*
X7700732Y9488464D01*
X7954709Y10015709D01*
X7957358Y10031474D01*
X7836217Y10263500D01*
X6477000Y10263500D01*
X6477000Y10243500D01*
X6223000Y10243500D01*
X6223000Y10263500D01*
X4863783Y10263500D01*
X4742642Y10031474D01*
X4745291Y10015709D01*
X4999268Y9488464D01*
X5221082Y9290281D01*
X4921004Y9089775D01*
X4541088Y8521191D01*
X4407679Y7850500D01*
X1397000Y7850500D01*
X1397000Y20550500D01*
X4407679Y20550500D01*
X4541088Y19879809D01*
X4921004Y19311225D01*
X4966987Y19280500D01*
X4921004Y19249775D01*
X4541088Y18681191D01*
X4407679Y18010500D01*
X4541088Y17339809D01*
X4921004Y16771225D01*
X4966987Y16740500D01*
X4921004Y16709775D01*
X4541088Y16141191D01*
X4407679Y15470500D01*
X4541088Y14799809D01*
X4921004Y14231225D01*
X4966987Y14200500D01*
X4921004Y14169775D01*
X4541088Y13601191D01*
X4407679Y12930500D01*
X4541088Y12259809D01*
X4921004Y11691225D01*
X5221082Y11490719D01*
X4999268Y11292536D01*
X4745291Y10765291D01*
X4742642Y10749526D01*
X4863783Y10517500D01*
X6223000Y10517500D01*
X6223000Y10537500D01*
X6477000Y10537500D01*
X6477000Y10517500D01*
X7836217Y10517500D01*
X7957358Y10749526D01*
X7954709Y10765291D01*
X7756479Y11176809D01*
X10095000Y11176809D01*
X10095000Y10636250D01*
X10253750Y10477500D01*
X11303000Y10477500D01*
X11303000Y11526750D01*
X11557000Y11526750D01*
X11557000Y10477500D01*
X12606250Y10477500D01*
X12765000Y10636250D01*
X12765000Y11176809D01*
X12668327Y11410198D01*
X12489699Y11588827D01*
X12256310Y11685500D01*
X11715750Y11685500D01*
X11557000Y11526750D01*
X11303000Y11526750D01*
X11144250Y11685500D01*
X10603690Y11685500D01*
X10370301Y11588827D01*
X10191673Y11410198D01*
X10095000Y11176809D01*
X7756479Y11176809D01*
X7700732Y11292536D01*
X7478918Y11490719D01*
X7778996Y11691225D01*
X8158912Y12259809D01*
X8292321Y12930500D01*
X8158912Y13601191D01*
X7778996Y14169775D01*
X7733013Y14200500D01*
X7778996Y14231225D01*
X8158912Y14799809D01*
X8292321Y15470500D01*
X8158912Y16141191D01*
X7778996Y16709775D01*
X7733013Y16740500D01*
X7778996Y16771225D01*
X8158912Y17339809D01*
X8292321Y18010500D01*
X8158912Y18681191D01*
X7778996Y19249775D01*
X7733013Y19280500D01*
X7778996Y19311225D01*
X8158912Y19879809D01*
X8292321Y20550500D01*
X8158912Y21221191D01*
X7944194Y21542539D01*
X7998017Y21577174D01*
X8201003Y21874253D01*
X8272416Y22226900D01*
X8272416Y23954100D01*
X8210427Y24283544D01*
X8015726Y24586117D01*
X7718647Y24789103D01*
X7366000Y24860516D01*
X5334000Y24860516D01*
X5004556Y24798527D01*
X4701983Y24603826D01*
X4498997Y24306747D01*
X4427584Y23954100D01*
X4427584Y22226900D01*
X4489573Y21897456D01*
X4684274Y21594883D01*
X4757397Y21544920D01*
X4541088Y21221191D01*
X4407679Y20550500D01*
X1397000Y20550500D01*
X1397000Y54592026D01*
X2068494Y54592026D01*
X2512253Y53518048D01*
X3333226Y52695640D01*
X4406428Y52250008D01*
X5568474Y52248994D01*
X5881507Y52378337D01*
X51097443Y52378337D01*
X51196042Y52111535D01*
X51805582Y51885099D01*
X52455377Y51909159D01*
X52943958Y52111535D01*
X53042557Y52378337D01*
X53637443Y52378337D01*
X53736042Y52111535D01*
X54345582Y51885099D01*
X54995377Y51909159D01*
X55483958Y52111535D01*
X55582557Y52378337D01*
X54610000Y53350895D01*
X53637443Y52378337D01*
X53042557Y52378337D01*
X52070000Y53350895D01*
X51097443Y52378337D01*
X5881507Y52378337D01*
X6642452Y52692753D01*
X7464860Y53513726D01*
X7581621Y53794918D01*
X50424599Y53794918D01*
X50448659Y53145123D01*
X50651035Y52656542D01*
X50917837Y52557943D01*
X51890395Y53530500D01*
X52249605Y53530500D01*
X53222163Y52557943D01*
X53340000Y52601491D01*
X53457837Y52557943D01*
X54430395Y53530500D01*
X54789605Y53530500D01*
X55762163Y52557943D01*
X56028965Y52656542D01*
X56255401Y53266082D01*
X56231341Y53915877D01*
X56028965Y54404458D01*
X55762163Y54503057D01*
X54789605Y53530500D01*
X54430395Y53530500D01*
X53457837Y54503057D01*
X53340000Y54459509D01*
X53222163Y54503057D01*
X52249605Y53530500D01*
X51890395Y53530500D01*
X50917837Y54503057D01*
X50651035Y54404458D01*
X50424599Y53794918D01*
X7581621Y53794918D01*
X7910492Y54586928D01*
X7910575Y54682663D01*
X51097443Y54682663D01*
X52070000Y53710105D01*
X53042557Y54682663D01*
X53637443Y54682663D01*
X54610000Y53710105D01*
X55582557Y54682663D01*
X55483958Y54949465D01*
X54874418Y55175901D01*
X54224623Y55151841D01*
X53736042Y54949465D01*
X53637443Y54682663D01*
X53042557Y54682663D01*
X52943958Y54949465D01*
X52334418Y55175901D01*
X51684623Y55151841D01*
X51196042Y54949465D01*
X51097443Y54682663D01*
X7910575Y54682663D01*
X7911506Y55748974D01*
X7467747Y56822952D01*
X6646774Y57645360D01*
X5573572Y58090992D01*
X4411526Y58092006D01*
X3337548Y57648247D01*
X2515140Y56827274D01*
X2069508Y55754072D01*
X2068494Y54592026D01*
X1397000Y54592026D01*
X1397000Y58483500D01*
X64643000Y58483500D01*
X64643000Y33210500D01*
G36*
X66378233Y22302707D02*
X66961443Y22186699D01*
X76209001Y22186699D01*
X76758737Y21636963D01*
X76453517Y21547666D01*
X76015500Y21195396D01*
X75745633Y20702319D01*
X75728096Y20619539D01*
X75850085Y20397500D01*
X77343000Y20397500D01*
X77343000Y20417500D01*
X77597000Y20417500D01*
X77597000Y20397500D01*
X77617000Y20397500D01*
X77617000Y20143500D01*
X77597000Y20143500D01*
X77597000Y20123500D01*
X77343000Y20123500D01*
X77343000Y20143500D01*
X75850085Y20143500D01*
X75728096Y19921461D01*
X75745633Y19838681D01*
X76015500Y19345604D01*
X76128780Y19254500D01*
X71553388Y19254500D01*
X71800379Y19624148D01*
X71928946Y20270500D01*
X71800379Y20916852D01*
X71434249Y21464803D01*
X70886298Y21830933D01*
X70239946Y21959500D01*
X69460054Y21959500D01*
X68813702Y21830933D01*
X68577944Y21673404D01*
X68381141Y21870551D01*
X67687292Y22158662D01*
X66936004Y22159317D01*
X66336106Y21911445D01*
X66376416Y22110500D01*
X66376416Y22303921D01*
X66378233Y22302707D01*
X66378233Y22302707D01*
G37*
X66378233Y22302707D02*
X66961443Y22186699D01*
X76209001Y22186699D01*
X76758737Y21636963D01*
X76453517Y21547666D01*
X76015500Y21195396D01*
X75745633Y20702319D01*
X75728096Y20619539D01*
X75850085Y20397500D01*
X77343000Y20397500D01*
X77343000Y20417500D01*
X77597000Y20417500D01*
X77597000Y20397500D01*
X77617000Y20397500D01*
X77617000Y20143500D01*
X77597000Y20143500D01*
X77597000Y20123500D01*
X77343000Y20123500D01*
X77343000Y20143500D01*
X75850085Y20143500D01*
X75728096Y19921461D01*
X75745633Y19838681D01*
X76015500Y19345604D01*
X76128780Y19254500D01*
X71553388Y19254500D01*
X71800379Y19624148D01*
X71928946Y20270500D01*
X71800379Y20916852D01*
X71434249Y21464803D01*
X70886298Y21830933D01*
X70239946Y21959500D01*
X69460054Y21959500D01*
X68813702Y21830933D01*
X68577944Y21673404D01*
X68381141Y21870551D01*
X67687292Y22158662D01*
X66936004Y22159317D01*
X66336106Y21911445D01*
X66376416Y22110500D01*
X66376416Y22303921D01*
X66378233Y22302707D01*
G36*
X29337000Y25717500D02*
X29357000Y25717500D01*
X29357000Y25463500D01*
X29337000Y25463500D01*
X29337000Y25443500D01*
X29083000Y25443500D01*
X29083000Y25463500D01*
X29063000Y25463500D01*
X29063000Y25717500D01*
X29083000Y25717500D01*
X29083000Y25737500D01*
X29337000Y25737500D01*
X29337000Y25717500D01*
X29337000Y25717500D01*
G37*
X29337000Y25717500D02*
X29357000Y25717500D01*
X29357000Y25463500D01*
X29337000Y25463500D01*
X29337000Y25443500D01*
X29083000Y25443500D01*
X29083000Y25463500D01*
X29063000Y25463500D01*
X29063000Y25717500D01*
X29083000Y25717500D01*
X29083000Y25737500D01*
X29337000Y25737500D01*
X29337000Y25717500D01*
M02*
