M48
;DRILL file {KiCad (2015-09-10 BZR 6180)-product} date Mon 26 Oct 2015 05:23:03 PM EDT
;FORMAT={-:-/ absolute / inch / decimal}
FMAT,2
INCH,TZ
T1C0.024
T2C0.031
T3C0.032
T4C0.035
T5C0.039
T6C0.040
T7C0.120
%
G90
G05
M72
T1
X0.85Y2.0795
X0.85Y2.0205
T2
X0.95Y2.1
X0.95Y2.
X0.95Y1.9
X0.95Y1.8
X1.25Y2.1
X1.25Y2.
X1.25Y1.9
X1.25Y1.8
X1.4Y1.9
X1.4Y1.8
X1.4Y1.7
X1.4Y1.6
X1.4Y1.5
X1.4Y1.4
X1.4Y1.3
X1.4Y1.2
X1.4Y1.1
X1.4Y1.
X1.4Y0.9
X1.4Y0.8
X1.4Y0.7
X1.4Y0.6
X1.7Y1.9
X1.7Y1.8
X1.7Y1.7
X1.7Y1.6
X1.7Y1.5
X1.7Y1.4
X1.7Y1.3
X1.7Y1.2
X1.7Y1.1
X1.7Y1.
X1.7Y0.9
X1.7Y0.8
X1.7Y0.7
X1.7Y0.6
X1.95Y1.2
X1.95Y1.1
X1.95Y1.
X1.95Y0.9
X1.95Y0.8
X1.95Y0.7
X1.95Y0.6
X2.25Y1.2
X2.25Y1.1
X2.25Y1.
X2.25Y0.9
X2.25Y0.8
X2.25Y0.7
X2.25Y0.6
T3
X2.2Y1.7
X2.2Y1.6
X2.9Y1.6
X2.9Y1.5
T4
X1.0531Y2.3
X1.25Y2.3
X1.5Y2.1
X1.6969Y2.1
X1.95Y1.4
X2.1469Y1.4
X2.4Y0.6
X2.45Y1.2469
X2.45Y1.05
X2.5969Y0.6
T5
X2.45Y1.55
X2.45Y0.95
X2.45Y0.775
X2.55Y1.55
X2.65Y1.55
X2.85Y0.95
X2.85Y0.775
T6
X1.125Y1.4
X1.125Y1.3
X1.125Y1.2
X1.225Y1.4
X1.225Y1.3
X1.225Y1.2
X2.4Y1.85
X2.5Y1.85
X2.95Y1.25
X2.95Y1.15
X2.95Y1.05
X2.95Y0.95
X2.95Y0.85
X2.95Y0.75
X2.95Y0.65
T7
X0.2Y2.7
X0.2Y0.2
X3.8Y2.7
X3.8Y0.2
T0
M30
