M48
;DRILL file {KiCad (2015-12-07 BZR 6352)-product} date Sat 06 Feb 2016 04:10:26 PM EST
;FORMAT={-:-/ absolute / metric / decimal}
FMAT,2
METRIC,TZ
T1C0.600
T2C0.800
T3C1.001
T4C1.016
T5C3.048
%
G90
G05
M71
T1
X13.97Y24.13
X13.97Y21.59
X13.97Y15.24
X14.035Y19.05
X15.12Y29.21
X15.24Y33.02
X16.51Y45.72
X19.05Y31.75
X21.59Y21.59
X27.94Y44.45
X30.48Y54.61
X30.48Y17.78
X36.83Y44.45
X39.265Y39.37
X39.37Y54.61
X39.37Y52.07
X41.91Y54.61
X41.962Y39.372
X46.99Y52.07
X54.61Y52.07
X59.69Y54.61
X59.933Y41.929
X60.96Y39.37
X66.014Y37.943
X66.231Y56.959
X68.58Y49.53
X70.254Y34.738
X72.39Y54.61
X72.39Y45.72
X93.928Y41.91
X95.25Y44.45
T2
X12.7Y54.61
X12.7Y52.07
X12.7Y49.53
X12.7Y46.99
X12.7Y44.45
X12.7Y41.91
X12.7Y39.37
X12.7Y36.83
X20.32Y54.61
X20.32Y52.07
X20.32Y49.53
X20.32Y46.99
X20.32Y44.45
X20.32Y41.91
X20.32Y39.37
X20.32Y36.83
X26.67Y29.21
X26.67Y21.59
X26.67Y13.97
X26.67Y8.89
X29.21Y29.21
X29.21Y21.59
X31.75Y29.21
X31.75Y21.59
X34.29Y29.21
X34.29Y21.59
X34.29Y13.97
X34.29Y8.89
X36.83Y29.21
X36.83Y21.59
X39.37Y29.21
X39.37Y21.59
X41.91Y29.21
X41.91Y21.59
X44.45Y29.21
X44.45Y21.59
X57.15Y29.21
X57.15Y21.59
X59.69Y29.21
X59.69Y21.59
X62.23Y29.21
X62.23Y21.59
X64.77Y29.21
X64.77Y21.59
X64.77Y13.97
X64.77Y8.89
X67.31Y29.21
X67.31Y21.59
X69.85Y29.21
X69.85Y21.59
X72.39Y29.21
X72.39Y21.59
X72.39Y13.97
X72.39Y8.89
X74.93Y29.21
X74.93Y21.59
X81.28Y54.61
X81.28Y52.07
X81.28Y49.53
X81.28Y46.99
X81.28Y44.45
X81.28Y41.91
X81.28Y39.37
X81.28Y36.83
X88.9Y54.61
X88.9Y52.07
X88.9Y49.53
X88.9Y46.99
X88.9Y44.45
X88.9Y41.91
X88.9Y39.37
X88.9Y36.83
T3
X24.13Y34.29
X24.13Y3.81
X34.29Y34.29
X34.29Y3.81
X36.83Y34.29
X46.99Y34.29
X49.53Y52.07
X49.53Y44.45
X49.53Y39.37
X49.53Y29.21
X52.07Y52.07
X52.07Y44.45
X52.07Y39.37
X52.07Y29.21
X54.61Y34.29
X62.23Y3.81
X64.77Y34.29
X67.31Y34.29
X72.39Y3.81
X77.47Y34.29
T4
X6.35Y22.86
X6.35Y20.32
X6.35Y17.78
X6.35Y15.24
X6.35Y12.7
X6.35Y10.16
X6.35Y7.62
X25.4Y54.61
X25.4Y52.07
X25.4Y46.99
X25.4Y41.91
X25.4Y39.37
X33.02Y54.61
X33.02Y52.07
X33.02Y49.53
X33.02Y41.91
X33.02Y39.37
X36.83Y54.61
X36.83Y52.07
X36.83Y46.99
X36.83Y41.91
X36.83Y39.37
X44.45Y54.61
X44.45Y52.07
X44.45Y49.53
X44.45Y41.91
X44.45Y39.37
X57.15Y54.61
X57.15Y52.07
X57.15Y46.99
X57.15Y41.91
X57.15Y39.37
X64.77Y54.61
X64.77Y52.07
X64.77Y49.53
X64.77Y41.91
X64.77Y39.37
X68.58Y54.61
X68.58Y52.07
X68.58Y46.99
X68.58Y41.91
X68.58Y39.37
X76.2Y54.61
X76.2Y52.07
X76.2Y49.53
X76.2Y41.91
X76.2Y39.37
T5
X4.99Y54.93
X94.99Y54.93
X94.99Y4.93
T0
M30
