M48
;DRILL file {KiCad (2015-12-07 BZR 6352)-product} date Tue 16 Feb 2016 10:07:41 PM EST
;FORMAT={-:-/ absolute / metric / decimal}
FMAT,2
METRIC,TZ
T1C0.600
T2C0.813
T3C1.001
T4C1.200
T5C3.048
%
G90
G05
M71
T1
X98.9Y37.738
X98.9Y25.038
X98.9Y12.338
X111.6Y40.278
X111.6Y25.038
X111.6Y9.798
T2
X19.84Y35.038
X22.38Y35.038
X24.92Y35.038
T3
X40.8Y35.198
X40.8Y25.038
X40.8Y14.878
X45.88Y47.898
X45.88Y2.178
X60.8Y35.198
X60.8Y25.038
X60.8Y14.878
X65.88Y47.898
X65.88Y2.178
X66.2Y35.198
X66.2Y25.038
X66.2Y14.878
X71.28Y47.898
X71.28Y2.178
X86.2Y35.198
X86.2Y25.038
X86.2Y14.878
X91.28Y47.898
X91.28Y40.278
X91.28Y30.118
X91.28Y19.958
X91.28Y9.798
X91.28Y2.178
X93.82Y40.278
X93.82Y30.118
X93.82Y19.958
X93.82Y9.798
X96.68Y47.898
X96.68Y2.178
X103.98Y40.278
X103.98Y30.118
X103.98Y19.958
X103.98Y9.798
X106.52Y40.278
X106.52Y30.118
X106.52Y19.958
X106.52Y9.798
X116.68Y47.898
X116.68Y40.278
X116.68Y30.118
X116.68Y19.958
X116.68Y9.798
X116.68Y2.178
X119.22Y40.278
X119.22Y30.118
X119.22Y19.958
X119.22Y9.798
T4
X18.921Y15.038
X21.92Y10.339
X24.92Y15.038
T5
X4.92Y25.038
X34.92Y30.038
X34.92Y20.038
T0
M30
