G04 #@! TF.FileFunction,Copper,L1,Top,Signal*
%FSLAX46Y46*%
G04 Gerber Fmt 4.6, Leading zero omitted, Abs format (unit mm)*
G04 Created by KiCad (PCBNEW (2015-12-07 BZR 6352)-product) date Tue 16 Feb 2016 10:07:43 PM EST*
%MOMM*%
G01*
G04 APERTURE LIST*
%ADD10C,0.100000*%
%ADD11R,3.500120X3.500120*%
%ADD12R,1.397000X1.397000*%
%ADD13C,1.397000*%
%ADD14R,1.900000X2.000000*%
%ADD15C,1.900000*%
%ADD16C,4.064000*%
%ADD17C,1.998980*%
%ADD18C,2.000000*%
%ADD19C,1.270000*%
G04 APERTURE END LIST*
D10*
D11*
X24920000Y15038000D03*
X18920520Y15038000D03*
X21920260Y10339000D03*
D12*
X19840000Y35038000D03*
D13*
X22380000Y35038000D03*
X24920000Y35038000D03*
D14*
X116680000Y40278000D03*
D15*
X119220000Y40278000D03*
D14*
X116680000Y30118000D03*
D15*
X119220000Y30118000D03*
D14*
X116680000Y19958000D03*
D15*
X119220000Y19958000D03*
D14*
X116680000Y9798000D03*
D15*
X119220000Y9798000D03*
D14*
X103980000Y40278000D03*
D15*
X106520000Y40278000D03*
D14*
X103980000Y30118000D03*
D15*
X106520000Y30118000D03*
D14*
X103980000Y19958000D03*
D15*
X106520000Y19958000D03*
D14*
X103980000Y9798000D03*
D15*
X106520000Y9798000D03*
D14*
X91280000Y40278000D03*
D15*
X93820000Y40278000D03*
D14*
X91280000Y30118000D03*
D15*
X93820000Y30118000D03*
D14*
X91280000Y19958000D03*
D15*
X93820000Y19958000D03*
D14*
X91280000Y9798000D03*
D15*
X93820000Y9798000D03*
D16*
X4920000Y25038000D03*
X34920000Y30038000D03*
X34920000Y20038000D03*
D17*
X116680000Y47898000D03*
X96680000Y47898000D03*
X86200000Y35198000D03*
X66200000Y35198000D03*
X86200000Y14878000D03*
X66200000Y14878000D03*
X116680000Y2178000D03*
X96680000Y2178000D03*
X91280000Y47898000D03*
X71280000Y47898000D03*
X60800000Y35198000D03*
X40800000Y35198000D03*
X60800000Y14878000D03*
X40800000Y14878000D03*
X91280000Y2178000D03*
X71280000Y2178000D03*
X65880000Y47898000D03*
X45880000Y47898000D03*
X86200000Y25038000D03*
X66200000Y25038000D03*
X60800000Y25038000D03*
X40800000Y25038000D03*
X65880000Y2178000D03*
X45880000Y2178000D03*
D18*
X98900000Y25038000D03*
X98900000Y12338000D03*
X98900000Y37738000D03*
X111600000Y25038000D03*
X111600000Y9798000D03*
X111600000Y40278000D03*
D19*
X116680000Y47898000D02*
X116680000Y40278000D01*
X93820000Y25038000D02*
X98900000Y25038000D01*
X25240000Y40278000D02*
X22380000Y37418000D01*
X22380000Y37418000D02*
X22380000Y35038000D01*
X43020000Y40278000D02*
X25240000Y40278000D01*
X53180000Y30118000D02*
X43020000Y40278000D01*
X78137072Y30118000D02*
X53180000Y30118000D01*
X93820000Y25038000D02*
X89182928Y25038000D01*
X89182928Y25038000D02*
X87167437Y23022509D01*
X87167437Y23022509D02*
X85232563Y23022509D01*
X85232563Y23022509D02*
X78137072Y30118000D01*
X93820000Y9798000D02*
X96360000Y9798000D01*
X96360000Y9798000D02*
X98900000Y12338000D01*
X93820000Y40278000D02*
X96360000Y40278000D01*
X96360000Y40278000D02*
X98900000Y37738000D01*
X93820000Y30118000D02*
X93820000Y25038000D01*
X93820000Y25038000D02*
X93820000Y19958000D01*
X106520000Y25038000D02*
X93820000Y25038000D01*
X106520000Y25038000D02*
X106520000Y19958000D01*
X106520000Y30118000D02*
X106520000Y25038000D01*
X106520000Y25038000D02*
X111600000Y25038000D01*
X119220000Y25038000D02*
X119220000Y19958000D01*
X119220000Y30118000D02*
X119220000Y25038000D01*
X119220000Y25038000D02*
X111600000Y25038000D01*
X106520000Y9798000D02*
X111600000Y9798000D01*
X106520000Y40278000D02*
X111600000Y40278000D01*
X119220000Y19958000D02*
X119220000Y9798000D01*
X119220000Y40278000D02*
X119220000Y30118000D01*
X86200000Y35198000D02*
X111650000Y35198000D01*
X111650000Y35198000D02*
X116680000Y30168000D01*
X116680000Y30168000D02*
X116680000Y30118000D01*
X86200000Y14878000D02*
X111650000Y14878000D01*
X111650000Y14878000D02*
X116680000Y19908000D01*
X116680000Y19908000D02*
X116680000Y19958000D01*
X116680000Y2178000D02*
X116680000Y9798000D01*
X91280000Y47898000D02*
X98900000Y40278000D01*
X98900000Y40278000D02*
X103980000Y40278000D01*
X60800000Y35198000D02*
X62815491Y33182509D01*
X62815491Y33182509D02*
X98695491Y33182509D01*
X98695491Y33182509D02*
X101760000Y30118000D01*
X101760000Y30118000D02*
X103980000Y30118000D01*
X60800000Y14878000D02*
X63340000Y17418000D01*
X63340000Y17418000D02*
X99220000Y17418000D01*
X99220000Y17418000D02*
X101760000Y19958000D01*
X101760000Y19958000D02*
X103980000Y19958000D01*
X91280000Y2178000D02*
X98900000Y9798000D01*
X98900000Y9798000D02*
X103980000Y9798000D01*
X65880000Y47898000D02*
X73500000Y40278000D01*
X73500000Y40278000D02*
X91280000Y40278000D01*
X86200000Y25038000D02*
X91280000Y30118000D01*
X60800000Y25038000D02*
X65880000Y19958000D01*
X65880000Y19958000D02*
X91280000Y19958000D01*
X65880000Y2178000D02*
X73500000Y9798000D01*
X73500000Y9798000D02*
X91280000Y9798000D01*
M02*
