M48
;DRILL file {KiCad (2015-12-07 BZR 6352)-product} date Fri 05 Feb 2016 11:09:01 PM EST
;FORMAT={-:-/ absolute / metric / decimal}
FMAT,2
METRIC,TZ
T1C0.800
T2C0.813
T3C1.001
T4C1.016
T5C2.301
%
G90
G05
M71
T1
X3.81Y12.7
X8.81Y12.7
X30.48Y27.86
X30.48Y22.86
X49.53Y12.7
X54.53Y12.7
T2
X12.7Y24.13
X12.7Y22.131
X15.24Y24.13
X15.24Y22.131
T3
X35.56Y27.94
X35.56Y25.4
X35.56Y22.86
T4
X5.08Y8.89
X5.08Y6.35
X5.08Y3.81
X7.62Y8.89
X7.62Y6.35
X7.62Y3.81
X50.8Y8.89
X50.8Y6.35
X50.8Y3.81
X53.34Y8.89
X53.34Y6.35
X53.34Y3.81
T5
X7.971Y26.83
X19.969Y26.83
T0
M30
