G04 #@! TF.FileFunction,Copper,L2,Bot,Signal*
%FSLAX46Y46*%
G04 Gerber Fmt 4.6, Leading zero omitted, Abs format (unit mm)*
G04 Created by KiCad (PCBNEW (2015-12-07 BZR 6352)-product) date Fri 05 Feb 2016 11:09:04 PM EST*
%MOMM*%
G01*
G04 APERTURE LIST*
%ADD10C,0.100000*%
%ADD11R,1.300000X1.300000*%
%ADD12C,1.300000*%
%ADD13C,1.524000*%
%ADD14C,2.700020*%
%ADD15R,2.032000X1.727200*%
%ADD16O,2.032000X1.727200*%
%ADD17O,3.500120X1.699260*%
%ADD18C,1.270000*%
%ADD19C,0.254000*%
G04 APERTURE END LIST*
D10*
D11*
X3810000Y12700000D03*
D12*
X8810000Y12700000D03*
D11*
X49530000Y12700000D03*
D12*
X54530000Y12700000D03*
D11*
X30480000Y22860000D03*
D12*
X30480000Y27860000D03*
D13*
X15240000Y22131020D03*
X12700000Y22131020D03*
X12700000Y24130000D03*
X15240000Y24130000D03*
D14*
X19969480Y26830020D03*
X7970520Y26830020D03*
D15*
X5080000Y8890000D03*
D16*
X5080000Y6350000D03*
X5080000Y3810000D03*
D15*
X50800000Y8890000D03*
D16*
X50800000Y6350000D03*
X50800000Y3810000D03*
D15*
X53340000Y8890000D03*
D16*
X53340000Y6350000D03*
X53340000Y3810000D03*
D15*
X7620000Y8890000D03*
D16*
X7620000Y6350000D03*
X7620000Y3810000D03*
D17*
X35560000Y25400000D03*
X35560000Y27940000D03*
X35560000Y22860000D03*
D18*
X3810000Y15240000D02*
X3810000Y12700000D01*
X34290000Y17780000D02*
X6350000Y17780000D01*
X3810000Y15240000D02*
X6350000Y17780000D01*
X39000430Y22860000D02*
X39000430Y22490430D01*
X39000430Y22490430D02*
X34290000Y17780000D01*
X44450000Y22860000D02*
X49530000Y17780000D01*
X49530000Y17780000D02*
X49530000Y12700000D01*
X39000430Y22860000D02*
X44450000Y22860000D01*
X36460430Y25400000D02*
X39000430Y22860000D01*
X35560000Y25400000D02*
X36460430Y25400000D01*
X50800000Y8890000D02*
X50800000Y11430000D01*
X50800000Y11430000D02*
X49530000Y12700000D01*
X50800000Y6350000D02*
X50800000Y8890000D01*
X50800000Y3810000D02*
X50800000Y6350000D01*
X5080000Y8890000D02*
X5080000Y11430000D01*
X5080000Y11430000D02*
X3810000Y12700000D01*
X5080000Y6350000D02*
X5080000Y8890000D01*
X5080000Y3810000D02*
X5080000Y6350000D01*
X54530000Y13619238D02*
X54530000Y12700000D01*
X35560000Y27940000D02*
X41525277Y27940000D01*
X54530000Y14935277D02*
X54530000Y13619238D01*
X24130000Y29210000D02*
X17780000Y29210000D01*
X17780000Y29210000D02*
X12700000Y24130000D01*
X25480000Y27860000D02*
X24130000Y29210000D01*
X30480000Y27860000D02*
X25480000Y27860000D01*
X36460430Y27940000D02*
X35560000Y27940000D01*
X30480000Y27860000D02*
X35480000Y27860000D01*
X35480000Y27860000D02*
X35560000Y27940000D01*
X53340000Y8890000D02*
X53340000Y11510000D01*
X53340000Y11510000D02*
X54530000Y12700000D01*
X53340000Y6350000D02*
X53340000Y8890000D01*
X53340000Y3810000D02*
X53340000Y6350000D01*
X7620000Y8890000D02*
X7620000Y11510000D01*
X7620000Y11510000D02*
X8810000Y12700000D01*
X7620000Y6350000D02*
X7620000Y8890000D01*
X7620000Y3810000D02*
X7620000Y6350000D01*
X12700000Y22131020D02*
X14351001Y20480019D01*
X14351001Y20480019D02*
X26180019Y20480019D01*
X26180019Y20480019D02*
X28560000Y22860000D01*
X28560000Y22860000D02*
X30480000Y22860000D01*
X30480000Y22860000D02*
X35560000Y22860000D01*
D19*
G36*
X57710000Y710000D02*
X46430000Y710000D01*
X46430000Y16510000D01*
X46375954Y16781705D01*
X46222046Y17012046D01*
X45991705Y17165954D01*
X45720000Y17220000D01*
X35526052Y17220000D01*
X39896052Y21590000D01*
X43923948Y21590000D01*
X48260000Y17253948D01*
X48260000Y13485503D01*
X48232560Y13350000D01*
X48232560Y12050000D01*
X48276838Y11814683D01*
X48415910Y11598559D01*
X48628110Y11453569D01*
X48880000Y11402560D01*
X49031388Y11402560D01*
X49530000Y10903949D01*
X49530000Y10344740D01*
X49332559Y10217690D01*
X49187569Y10005490D01*
X49136560Y9753600D01*
X49136560Y8026400D01*
X49180838Y7791083D01*
X49319910Y7574959D01*
X49530000Y7431411D01*
X49530000Y7371379D01*
X49230729Y6923489D01*
X49116655Y6350000D01*
X49230729Y5776511D01*
X49530000Y5328621D01*
X49530000Y4831379D01*
X49230729Y4383489D01*
X49116655Y3810000D01*
X49230729Y3236511D01*
X49555585Y2750330D01*
X50041766Y2425474D01*
X50615255Y2311400D01*
X50984745Y2311400D01*
X51558234Y2425474D01*
X52044415Y2750330D01*
X52089754Y2818184D01*
X52425680Y2518046D01*
X52978087Y2324816D01*
X53213000Y2469076D01*
X53213000Y3683000D01*
X53467000Y3683000D01*
X53467000Y2469076D01*
X53701913Y2324816D01*
X54254320Y2518046D01*
X54690732Y2907964D01*
X54944709Y3435209D01*
X54947358Y3450974D01*
X54826217Y3683000D01*
X53467000Y3683000D01*
X53213000Y3683000D01*
X53193000Y3683000D01*
X53193000Y3937000D01*
X53213000Y3937000D01*
X53213000Y6223000D01*
X53467000Y6223000D01*
X53467000Y3937000D01*
X54826217Y3937000D01*
X54947358Y4169026D01*
X54944709Y4184791D01*
X54690732Y4712036D01*
X54278892Y5080000D01*
X54690732Y5447964D01*
X54944709Y5975209D01*
X54947358Y5990974D01*
X54826217Y6223000D01*
X53467000Y6223000D01*
X53213000Y6223000D01*
X53193000Y6223000D01*
X53193000Y6477000D01*
X53213000Y6477000D01*
X53213000Y8763000D01*
X53467000Y8763000D01*
X53467000Y6477000D01*
X54826217Y6477000D01*
X54947358Y6709026D01*
X54944709Y6724791D01*
X54690732Y7252036D01*
X54518139Y7406241D01*
X54715698Y7488073D01*
X54894327Y7666701D01*
X54991000Y7900090D01*
X54991000Y8604250D01*
X54832250Y8763000D01*
X53467000Y8763000D01*
X53213000Y8763000D01*
X53193000Y8763000D01*
X53193000Y9017000D01*
X53213000Y9017000D01*
X53213000Y10229850D01*
X53467000Y10229850D01*
X53467000Y9017000D01*
X54832250Y9017000D01*
X54991000Y9175750D01*
X54991000Y9879910D01*
X54894327Y10113299D01*
X54715698Y10291927D01*
X54482309Y10388600D01*
X53625750Y10388600D01*
X53467000Y10229850D01*
X53213000Y10229850D01*
X53054250Y10388600D01*
X52197691Y10388600D01*
X52081737Y10340570D01*
X52070000Y10348589D01*
X52070000Y11430000D01*
X51996207Y11800984D01*
X53810590Y11800984D01*
X53866271Y11570389D01*
X54349078Y11402378D01*
X54859428Y11431917D01*
X55193729Y11570389D01*
X55249410Y11800984D01*
X54530000Y12520395D01*
X53810590Y11800984D01*
X51996207Y11800984D01*
X51973327Y11916008D01*
X51698026Y12328026D01*
X51698023Y12328028D01*
X51145130Y12880922D01*
X53232378Y12880922D01*
X53261917Y12370572D01*
X53400389Y12036271D01*
X53630984Y11980590D01*
X54350395Y12700000D01*
X54709605Y12700000D01*
X55429016Y11980590D01*
X55659611Y12036271D01*
X55827622Y12519078D01*
X55798083Y13029428D01*
X55659611Y13363729D01*
X55429016Y13419410D01*
X54709605Y12700000D01*
X54350395Y12700000D01*
X53630984Y13419410D01*
X53400389Y13363729D01*
X53232378Y12880922D01*
X51145130Y12880922D01*
X50827440Y13198612D01*
X50827440Y13350000D01*
X50800000Y13495831D01*
X50800000Y13599016D01*
X53810590Y13599016D01*
X54530000Y12879605D01*
X55249410Y13599016D01*
X55193729Y13829611D01*
X54710922Y13997622D01*
X54200572Y13968083D01*
X53866271Y13829611D01*
X53810590Y13599016D01*
X50800000Y13599016D01*
X50800000Y17779995D01*
X50800001Y17780000D01*
X50703327Y18266008D01*
X50428026Y18678026D01*
X45348026Y23758026D01*
X44936008Y24033327D01*
X44450000Y24130001D01*
X44449995Y24130000D01*
X39526481Y24130000D01*
X37926061Y25730421D01*
X37878775Y25968143D01*
X37556948Y26449792D01*
X37219127Y26675516D01*
X37600024Y26980011D01*
X37880649Y27489190D01*
X37901540Y27583168D01*
X37780214Y27813000D01*
X35687000Y27813000D01*
X35687000Y27793000D01*
X35433000Y27793000D01*
X35433000Y27813000D01*
X33339786Y27813000D01*
X33218460Y27583168D01*
X33239351Y27489190D01*
X33519976Y26980011D01*
X33900873Y26675516D01*
X33563052Y26449792D01*
X33241225Y25968143D01*
X33128214Y25400000D01*
X33241225Y24831857D01*
X33563052Y24350208D01*
X33892617Y24130000D01*
X31265503Y24130000D01*
X31130000Y24157440D01*
X29830000Y24157440D01*
X29684169Y24130000D01*
X28560000Y24130000D01*
X28073992Y24033327D01*
X27661974Y23758026D01*
X27661972Y23758023D01*
X25653967Y21750019D01*
X16594444Y21750019D01*
X16636757Y21851920D01*
X16637242Y22407681D01*
X16425010Y22921323D01*
X16216168Y23130530D01*
X16423629Y23337630D01*
X16636757Y23850900D01*
X16637242Y24406661D01*
X16425010Y24920303D01*
X16032370Y25313629D01*
X15765558Y25424419D01*
X18743484Y25424419D01*
X18884952Y25121230D01*
X19621432Y24836273D01*
X20410900Y24854846D01*
X21054008Y25121230D01*
X21195476Y25424419D01*
X19969480Y26650415D01*
X18743484Y25424419D01*
X15765558Y25424419D01*
X15519100Y25526757D01*
X14963339Y25527242D01*
X14449697Y25315010D01*
X14056371Y24922370D01*
X13976605Y24730273D01*
X13922397Y24861143D01*
X13680213Y24930608D01*
X12879605Y24130000D01*
X13680213Y23329392D01*
X13922397Y23398857D01*
X13972509Y23539318D01*
X14054990Y23339697D01*
X14263832Y23130490D01*
X14056371Y22923390D01*
X13970051Y22715508D01*
X13885010Y22921323D01*
X13492370Y23314649D01*
X13224529Y23425866D01*
X12700000Y23950395D01*
X12175436Y23425831D01*
X11909697Y23316030D01*
X11516371Y22923390D01*
X11303243Y22410120D01*
X11302758Y21854359D01*
X11514990Y21340717D01*
X11907630Y20947391D01*
X12215356Y20819612D01*
X13452975Y19581993D01*
X13864993Y19306692D01*
X14351001Y19210018D01*
X14351006Y19210019D01*
X26180014Y19210019D01*
X26180019Y19210018D01*
X26666027Y19306692D01*
X27078045Y19581993D01*
X29086051Y21590000D01*
X29694497Y21590000D01*
X29830000Y21562560D01*
X31130000Y21562560D01*
X31275831Y21590000D01*
X33892617Y21590000D01*
X34044701Y21488381D01*
X34612844Y21375370D01*
X36089318Y21375370D01*
X33763948Y19050000D01*
X6350000Y19050000D01*
X5863992Y18953327D01*
X5451974Y18678026D01*
X5451972Y18678023D01*
X2911974Y16138026D01*
X2636673Y15726008D01*
X2539999Y15240000D01*
X2540000Y15239995D01*
X2540000Y13485503D01*
X2512560Y13350000D01*
X2512560Y12050000D01*
X2556838Y11814683D01*
X2695910Y11598559D01*
X2908110Y11453569D01*
X3160000Y11402560D01*
X3311388Y11402560D01*
X3810000Y10903949D01*
X3810000Y10344740D01*
X3612559Y10217690D01*
X3467569Y10005490D01*
X3416560Y9753600D01*
X3416560Y8026400D01*
X3460838Y7791083D01*
X3599910Y7574959D01*
X3810000Y7431411D01*
X3810000Y7371379D01*
X3510729Y6923489D01*
X3396655Y6350000D01*
X3510729Y5776511D01*
X3810000Y5328621D01*
X3810000Y4831379D01*
X3510729Y4383489D01*
X3396655Y3810000D01*
X3510729Y3236511D01*
X3835585Y2750330D01*
X4321766Y2425474D01*
X4895255Y2311400D01*
X5264745Y2311400D01*
X5838234Y2425474D01*
X6324415Y2750330D01*
X6369754Y2818184D01*
X6705680Y2518046D01*
X7258087Y2324816D01*
X7493000Y2469076D01*
X7493000Y3683000D01*
X7747000Y3683000D01*
X7747000Y2469076D01*
X7981913Y2324816D01*
X8534320Y2518046D01*
X8970732Y2907964D01*
X9224709Y3435209D01*
X9227358Y3450974D01*
X9106217Y3683000D01*
X7747000Y3683000D01*
X7493000Y3683000D01*
X7473000Y3683000D01*
X7473000Y3937000D01*
X7493000Y3937000D01*
X7493000Y6223000D01*
X7747000Y6223000D01*
X7747000Y3937000D01*
X9106217Y3937000D01*
X9227358Y4169026D01*
X9224709Y4184791D01*
X8970732Y4712036D01*
X8558892Y5080000D01*
X8970732Y5447964D01*
X9224709Y5975209D01*
X9227358Y5990974D01*
X9106217Y6223000D01*
X7747000Y6223000D01*
X7493000Y6223000D01*
X7473000Y6223000D01*
X7473000Y6477000D01*
X7493000Y6477000D01*
X7493000Y8763000D01*
X7747000Y8763000D01*
X7747000Y6477000D01*
X9106217Y6477000D01*
X9227358Y6709026D01*
X9224709Y6724791D01*
X8970732Y7252036D01*
X8798139Y7406241D01*
X8995698Y7488073D01*
X9174327Y7666701D01*
X9271000Y7900090D01*
X9271000Y8604250D01*
X9112250Y8763000D01*
X7747000Y8763000D01*
X7493000Y8763000D01*
X7473000Y8763000D01*
X7473000Y9017000D01*
X7493000Y9017000D01*
X7493000Y10229850D01*
X7747000Y10229850D01*
X7747000Y9017000D01*
X9112250Y9017000D01*
X9271000Y9175750D01*
X9271000Y9879910D01*
X9174327Y10113299D01*
X8995698Y10291927D01*
X8762309Y10388600D01*
X7905750Y10388600D01*
X7747000Y10229850D01*
X7493000Y10229850D01*
X7334250Y10388600D01*
X6477691Y10388600D01*
X6361737Y10340570D01*
X6350000Y10348589D01*
X6350000Y11430000D01*
X6276207Y11800984D01*
X8090590Y11800984D01*
X8146271Y11570389D01*
X8629078Y11402378D01*
X9139428Y11431917D01*
X9473729Y11570389D01*
X9529410Y11800984D01*
X8810000Y12520395D01*
X8090590Y11800984D01*
X6276207Y11800984D01*
X6253327Y11916008D01*
X5978026Y12328026D01*
X5978023Y12328028D01*
X5425130Y12880922D01*
X7512378Y12880922D01*
X7541917Y12370572D01*
X7680389Y12036271D01*
X7910984Y11980590D01*
X8630395Y12700000D01*
X8989605Y12700000D01*
X9709016Y11980590D01*
X9939611Y12036271D01*
X10107622Y12519078D01*
X10078083Y13029428D01*
X9939611Y13363729D01*
X9709016Y13419410D01*
X8989605Y12700000D01*
X8630395Y12700000D01*
X7910984Y13419410D01*
X7680389Y13363729D01*
X7512378Y12880922D01*
X5425130Y12880922D01*
X5107440Y13198612D01*
X5107440Y13350000D01*
X5080000Y13495831D01*
X5080000Y13599016D01*
X8090590Y13599016D01*
X8810000Y12879605D01*
X9529410Y13599016D01*
X9473729Y13829611D01*
X8990922Y13997622D01*
X8480572Y13968083D01*
X8146271Y13829611D01*
X8090590Y13599016D01*
X5080000Y13599016D01*
X5080000Y14713948D01*
X6876051Y16510000D01*
X11990000Y16510000D01*
X11990000Y710000D01*
X710000Y710000D01*
X710000Y24337698D01*
X11290856Y24337698D01*
X11318638Y23782632D01*
X11477603Y23398857D01*
X11719787Y23329392D01*
X12520395Y24130000D01*
X11719787Y24930608D01*
X11477603Y24861143D01*
X11290856Y24337698D01*
X710000Y24337698D01*
X710000Y25424419D01*
X6744524Y25424419D01*
X6885992Y25121230D01*
X7622472Y24836273D01*
X8411940Y24854846D01*
X9028450Y25110213D01*
X11899392Y25110213D01*
X12700000Y24309605D01*
X13500608Y25110213D01*
X13431143Y25352397D01*
X12907698Y25539144D01*
X12352632Y25511362D01*
X11968857Y25352397D01*
X11899392Y25110213D01*
X9028450Y25110213D01*
X9055048Y25121230D01*
X9196516Y25424419D01*
X7970520Y26650415D01*
X6744524Y25424419D01*
X710000Y25424419D01*
X710000Y27178068D01*
X5976773Y27178068D01*
X5995346Y26388600D01*
X6261730Y25745492D01*
X6564919Y25604024D01*
X7790915Y26830020D01*
X8150125Y26830020D01*
X9376121Y25604024D01*
X9679310Y25745492D01*
X9964267Y26481972D01*
X9947891Y27178068D01*
X17975733Y27178068D01*
X17994306Y26388600D01*
X18260690Y25745492D01*
X18563879Y25604024D01*
X19789875Y26830020D01*
X20149085Y26830020D01*
X21375081Y25604024D01*
X21678270Y25745492D01*
X21963227Y26481972D01*
X21951958Y26960984D01*
X29760590Y26960984D01*
X29816271Y26730389D01*
X30299078Y26562378D01*
X30809428Y26591917D01*
X31143729Y26730389D01*
X31199410Y26960984D01*
X30480000Y27680395D01*
X29760590Y26960984D01*
X21951958Y26960984D01*
X21944654Y27271440D01*
X21678270Y27914548D01*
X21407430Y28040922D01*
X29182378Y28040922D01*
X29211917Y27530572D01*
X29350389Y27196271D01*
X29580984Y27140590D01*
X30300395Y27860000D01*
X30659605Y27860000D01*
X31379016Y27140590D01*
X31609611Y27196271D01*
X31777622Y27679078D01*
X31748083Y28189428D01*
X31703595Y28296832D01*
X33218460Y28296832D01*
X33339786Y28067000D01*
X35433000Y28067000D01*
X35433000Y29424630D01*
X35687000Y29424630D01*
X35687000Y28067000D01*
X37780214Y28067000D01*
X37901540Y28296832D01*
X37880649Y28390810D01*
X37600024Y28899989D01*
X37145906Y29263018D01*
X36587430Y29424630D01*
X35687000Y29424630D01*
X35433000Y29424630D01*
X34532570Y29424630D01*
X33974094Y29263018D01*
X33519976Y28899989D01*
X33239351Y28390810D01*
X33218460Y28296832D01*
X31703595Y28296832D01*
X31609611Y28523729D01*
X31379016Y28579410D01*
X30659605Y27860000D01*
X30300395Y27860000D01*
X29580984Y28579410D01*
X29350389Y28523729D01*
X29182378Y28040922D01*
X21407430Y28040922D01*
X21375081Y28056016D01*
X20149085Y26830020D01*
X19789875Y26830020D01*
X18563879Y28056016D01*
X18260690Y27914548D01*
X17975733Y27178068D01*
X9947891Y27178068D01*
X9945694Y27271440D01*
X9679310Y27914548D01*
X9376121Y28056016D01*
X8150125Y26830020D01*
X7790915Y26830020D01*
X6564919Y28056016D01*
X6261730Y27914548D01*
X5976773Y27178068D01*
X710000Y27178068D01*
X710000Y28235621D01*
X6744524Y28235621D01*
X7970520Y27009625D01*
X9196516Y28235621D01*
X18743484Y28235621D01*
X19969480Y27009625D01*
X21195476Y28235621D01*
X21054008Y28538810D01*
X20484879Y28759016D01*
X29760590Y28759016D01*
X30480000Y28039605D01*
X31199410Y28759016D01*
X31143729Y28989611D01*
X30660922Y29157622D01*
X30150572Y29128083D01*
X29816271Y28989611D01*
X29760590Y28759016D01*
X20484879Y28759016D01*
X20317528Y28823767D01*
X19528060Y28805194D01*
X18884952Y28538810D01*
X18743484Y28235621D01*
X9196516Y28235621D01*
X9055048Y28538810D01*
X8318568Y28823767D01*
X7529100Y28805194D01*
X6885992Y28538810D01*
X6744524Y28235621D01*
X710000Y28235621D01*
X710000Y31040000D01*
X57710000Y31040000D01*
X57710000Y710000D01*
X57710000Y710000D01*
G37*
X57710000Y710000D02*
X46430000Y710000D01*
X46430000Y16510000D01*
X46375954Y16781705D01*
X46222046Y17012046D01*
X45991705Y17165954D01*
X45720000Y17220000D01*
X35526052Y17220000D01*
X39896052Y21590000D01*
X43923948Y21590000D01*
X48260000Y17253948D01*
X48260000Y13485503D01*
X48232560Y13350000D01*
X48232560Y12050000D01*
X48276838Y11814683D01*
X48415910Y11598559D01*
X48628110Y11453569D01*
X48880000Y11402560D01*
X49031388Y11402560D01*
X49530000Y10903949D01*
X49530000Y10344740D01*
X49332559Y10217690D01*
X49187569Y10005490D01*
X49136560Y9753600D01*
X49136560Y8026400D01*
X49180838Y7791083D01*
X49319910Y7574959D01*
X49530000Y7431411D01*
X49530000Y7371379D01*
X49230729Y6923489D01*
X49116655Y6350000D01*
X49230729Y5776511D01*
X49530000Y5328621D01*
X49530000Y4831379D01*
X49230729Y4383489D01*
X49116655Y3810000D01*
X49230729Y3236511D01*
X49555585Y2750330D01*
X50041766Y2425474D01*
X50615255Y2311400D01*
X50984745Y2311400D01*
X51558234Y2425474D01*
X52044415Y2750330D01*
X52089754Y2818184D01*
X52425680Y2518046D01*
X52978087Y2324816D01*
X53213000Y2469076D01*
X53213000Y3683000D01*
X53467000Y3683000D01*
X53467000Y2469076D01*
X53701913Y2324816D01*
X54254320Y2518046D01*
X54690732Y2907964D01*
X54944709Y3435209D01*
X54947358Y3450974D01*
X54826217Y3683000D01*
X53467000Y3683000D01*
X53213000Y3683000D01*
X53193000Y3683000D01*
X53193000Y3937000D01*
X53213000Y3937000D01*
X53213000Y6223000D01*
X53467000Y6223000D01*
X53467000Y3937000D01*
X54826217Y3937000D01*
X54947358Y4169026D01*
X54944709Y4184791D01*
X54690732Y4712036D01*
X54278892Y5080000D01*
X54690732Y5447964D01*
X54944709Y5975209D01*
X54947358Y5990974D01*
X54826217Y6223000D01*
X53467000Y6223000D01*
X53213000Y6223000D01*
X53193000Y6223000D01*
X53193000Y6477000D01*
X53213000Y6477000D01*
X53213000Y8763000D01*
X53467000Y8763000D01*
X53467000Y6477000D01*
X54826217Y6477000D01*
X54947358Y6709026D01*
X54944709Y6724791D01*
X54690732Y7252036D01*
X54518139Y7406241D01*
X54715698Y7488073D01*
X54894327Y7666701D01*
X54991000Y7900090D01*
X54991000Y8604250D01*
X54832250Y8763000D01*
X53467000Y8763000D01*
X53213000Y8763000D01*
X53193000Y8763000D01*
X53193000Y9017000D01*
X53213000Y9017000D01*
X53213000Y10229850D01*
X53467000Y10229850D01*
X53467000Y9017000D01*
X54832250Y9017000D01*
X54991000Y9175750D01*
X54991000Y9879910D01*
X54894327Y10113299D01*
X54715698Y10291927D01*
X54482309Y10388600D01*
X53625750Y10388600D01*
X53467000Y10229850D01*
X53213000Y10229850D01*
X53054250Y10388600D01*
X52197691Y10388600D01*
X52081737Y10340570D01*
X52070000Y10348589D01*
X52070000Y11430000D01*
X51996207Y11800984D01*
X53810590Y11800984D01*
X53866271Y11570389D01*
X54349078Y11402378D01*
X54859428Y11431917D01*
X55193729Y11570389D01*
X55249410Y11800984D01*
X54530000Y12520395D01*
X53810590Y11800984D01*
X51996207Y11800984D01*
X51973327Y11916008D01*
X51698026Y12328026D01*
X51698023Y12328028D01*
X51145130Y12880922D01*
X53232378Y12880922D01*
X53261917Y12370572D01*
X53400389Y12036271D01*
X53630984Y11980590D01*
X54350395Y12700000D01*
X54709605Y12700000D01*
X55429016Y11980590D01*
X55659611Y12036271D01*
X55827622Y12519078D01*
X55798083Y13029428D01*
X55659611Y13363729D01*
X55429016Y13419410D01*
X54709605Y12700000D01*
X54350395Y12700000D01*
X53630984Y13419410D01*
X53400389Y13363729D01*
X53232378Y12880922D01*
X51145130Y12880922D01*
X50827440Y13198612D01*
X50827440Y13350000D01*
X50800000Y13495831D01*
X50800000Y13599016D01*
X53810590Y13599016D01*
X54530000Y12879605D01*
X55249410Y13599016D01*
X55193729Y13829611D01*
X54710922Y13997622D01*
X54200572Y13968083D01*
X53866271Y13829611D01*
X53810590Y13599016D01*
X50800000Y13599016D01*
X50800000Y17779995D01*
X50800001Y17780000D01*
X50703327Y18266008D01*
X50428026Y18678026D01*
X45348026Y23758026D01*
X44936008Y24033327D01*
X44450000Y24130001D01*
X44449995Y24130000D01*
X39526481Y24130000D01*
X37926061Y25730421D01*
X37878775Y25968143D01*
X37556948Y26449792D01*
X37219127Y26675516D01*
X37600024Y26980011D01*
X37880649Y27489190D01*
X37901540Y27583168D01*
X37780214Y27813000D01*
X35687000Y27813000D01*
X35687000Y27793000D01*
X35433000Y27793000D01*
X35433000Y27813000D01*
X33339786Y27813000D01*
X33218460Y27583168D01*
X33239351Y27489190D01*
X33519976Y26980011D01*
X33900873Y26675516D01*
X33563052Y26449792D01*
X33241225Y25968143D01*
X33128214Y25400000D01*
X33241225Y24831857D01*
X33563052Y24350208D01*
X33892617Y24130000D01*
X31265503Y24130000D01*
X31130000Y24157440D01*
X29830000Y24157440D01*
X29684169Y24130000D01*
X28560000Y24130000D01*
X28073992Y24033327D01*
X27661974Y23758026D01*
X27661972Y23758023D01*
X25653967Y21750019D01*
X16594444Y21750019D01*
X16636757Y21851920D01*
X16637242Y22407681D01*
X16425010Y22921323D01*
X16216168Y23130530D01*
X16423629Y23337630D01*
X16636757Y23850900D01*
X16637242Y24406661D01*
X16425010Y24920303D01*
X16032370Y25313629D01*
X15765558Y25424419D01*
X18743484Y25424419D01*
X18884952Y25121230D01*
X19621432Y24836273D01*
X20410900Y24854846D01*
X21054008Y25121230D01*
X21195476Y25424419D01*
X19969480Y26650415D01*
X18743484Y25424419D01*
X15765558Y25424419D01*
X15519100Y25526757D01*
X14963339Y25527242D01*
X14449697Y25315010D01*
X14056371Y24922370D01*
X13976605Y24730273D01*
X13922397Y24861143D01*
X13680213Y24930608D01*
X12879605Y24130000D01*
X13680213Y23329392D01*
X13922397Y23398857D01*
X13972509Y23539318D01*
X14054990Y23339697D01*
X14263832Y23130490D01*
X14056371Y22923390D01*
X13970051Y22715508D01*
X13885010Y22921323D01*
X13492370Y23314649D01*
X13224529Y23425866D01*
X12700000Y23950395D01*
X12175436Y23425831D01*
X11909697Y23316030D01*
X11516371Y22923390D01*
X11303243Y22410120D01*
X11302758Y21854359D01*
X11514990Y21340717D01*
X11907630Y20947391D01*
X12215356Y20819612D01*
X13452975Y19581993D01*
X13864993Y19306692D01*
X14351001Y19210018D01*
X14351006Y19210019D01*
X26180014Y19210019D01*
X26180019Y19210018D01*
X26666027Y19306692D01*
X27078045Y19581993D01*
X29086051Y21590000D01*
X29694497Y21590000D01*
X29830000Y21562560D01*
X31130000Y21562560D01*
X31275831Y21590000D01*
X33892617Y21590000D01*
X34044701Y21488381D01*
X34612844Y21375370D01*
X36089318Y21375370D01*
X33763948Y19050000D01*
X6350000Y19050000D01*
X5863992Y18953327D01*
X5451974Y18678026D01*
X5451972Y18678023D01*
X2911974Y16138026D01*
X2636673Y15726008D01*
X2539999Y15240000D01*
X2540000Y15239995D01*
X2540000Y13485503D01*
X2512560Y13350000D01*
X2512560Y12050000D01*
X2556838Y11814683D01*
X2695910Y11598559D01*
X2908110Y11453569D01*
X3160000Y11402560D01*
X3311388Y11402560D01*
X3810000Y10903949D01*
X3810000Y10344740D01*
X3612559Y10217690D01*
X3467569Y10005490D01*
X3416560Y9753600D01*
X3416560Y8026400D01*
X3460838Y7791083D01*
X3599910Y7574959D01*
X3810000Y7431411D01*
X3810000Y7371379D01*
X3510729Y6923489D01*
X3396655Y6350000D01*
X3510729Y5776511D01*
X3810000Y5328621D01*
X3810000Y4831379D01*
X3510729Y4383489D01*
X3396655Y3810000D01*
X3510729Y3236511D01*
X3835585Y2750330D01*
X4321766Y2425474D01*
X4895255Y2311400D01*
X5264745Y2311400D01*
X5838234Y2425474D01*
X6324415Y2750330D01*
X6369754Y2818184D01*
X6705680Y2518046D01*
X7258087Y2324816D01*
X7493000Y2469076D01*
X7493000Y3683000D01*
X7747000Y3683000D01*
X7747000Y2469076D01*
X7981913Y2324816D01*
X8534320Y2518046D01*
X8970732Y2907964D01*
X9224709Y3435209D01*
X9227358Y3450974D01*
X9106217Y3683000D01*
X7747000Y3683000D01*
X7493000Y3683000D01*
X7473000Y3683000D01*
X7473000Y3937000D01*
X7493000Y3937000D01*
X7493000Y6223000D01*
X7747000Y6223000D01*
X7747000Y3937000D01*
X9106217Y3937000D01*
X9227358Y4169026D01*
X9224709Y4184791D01*
X8970732Y4712036D01*
X8558892Y5080000D01*
X8970732Y5447964D01*
X9224709Y5975209D01*
X9227358Y5990974D01*
X9106217Y6223000D01*
X7747000Y6223000D01*
X7493000Y6223000D01*
X7473000Y6223000D01*
X7473000Y6477000D01*
X7493000Y6477000D01*
X7493000Y8763000D01*
X7747000Y8763000D01*
X7747000Y6477000D01*
X9106217Y6477000D01*
X9227358Y6709026D01*
X9224709Y6724791D01*
X8970732Y7252036D01*
X8798139Y7406241D01*
X8995698Y7488073D01*
X9174327Y7666701D01*
X9271000Y7900090D01*
X9271000Y8604250D01*
X9112250Y8763000D01*
X7747000Y8763000D01*
X7493000Y8763000D01*
X7473000Y8763000D01*
X7473000Y9017000D01*
X7493000Y9017000D01*
X7493000Y10229850D01*
X7747000Y10229850D01*
X7747000Y9017000D01*
X9112250Y9017000D01*
X9271000Y9175750D01*
X9271000Y9879910D01*
X9174327Y10113299D01*
X8995698Y10291927D01*
X8762309Y10388600D01*
X7905750Y10388600D01*
X7747000Y10229850D01*
X7493000Y10229850D01*
X7334250Y10388600D01*
X6477691Y10388600D01*
X6361737Y10340570D01*
X6350000Y10348589D01*
X6350000Y11430000D01*
X6276207Y11800984D01*
X8090590Y11800984D01*
X8146271Y11570389D01*
X8629078Y11402378D01*
X9139428Y11431917D01*
X9473729Y11570389D01*
X9529410Y11800984D01*
X8810000Y12520395D01*
X8090590Y11800984D01*
X6276207Y11800984D01*
X6253327Y11916008D01*
X5978026Y12328026D01*
X5978023Y12328028D01*
X5425130Y12880922D01*
X7512378Y12880922D01*
X7541917Y12370572D01*
X7680389Y12036271D01*
X7910984Y11980590D01*
X8630395Y12700000D01*
X8989605Y12700000D01*
X9709016Y11980590D01*
X9939611Y12036271D01*
X10107622Y12519078D01*
X10078083Y13029428D01*
X9939611Y13363729D01*
X9709016Y13419410D01*
X8989605Y12700000D01*
X8630395Y12700000D01*
X7910984Y13419410D01*
X7680389Y13363729D01*
X7512378Y12880922D01*
X5425130Y12880922D01*
X5107440Y13198612D01*
X5107440Y13350000D01*
X5080000Y13495831D01*
X5080000Y13599016D01*
X8090590Y13599016D01*
X8810000Y12879605D01*
X9529410Y13599016D01*
X9473729Y13829611D01*
X8990922Y13997622D01*
X8480572Y13968083D01*
X8146271Y13829611D01*
X8090590Y13599016D01*
X5080000Y13599016D01*
X5080000Y14713948D01*
X6876051Y16510000D01*
X11990000Y16510000D01*
X11990000Y710000D01*
X710000Y710000D01*
X710000Y24337698D01*
X11290856Y24337698D01*
X11318638Y23782632D01*
X11477603Y23398857D01*
X11719787Y23329392D01*
X12520395Y24130000D01*
X11719787Y24930608D01*
X11477603Y24861143D01*
X11290856Y24337698D01*
X710000Y24337698D01*
X710000Y25424419D01*
X6744524Y25424419D01*
X6885992Y25121230D01*
X7622472Y24836273D01*
X8411940Y24854846D01*
X9028450Y25110213D01*
X11899392Y25110213D01*
X12700000Y24309605D01*
X13500608Y25110213D01*
X13431143Y25352397D01*
X12907698Y25539144D01*
X12352632Y25511362D01*
X11968857Y25352397D01*
X11899392Y25110213D01*
X9028450Y25110213D01*
X9055048Y25121230D01*
X9196516Y25424419D01*
X7970520Y26650415D01*
X6744524Y25424419D01*
X710000Y25424419D01*
X710000Y27178068D01*
X5976773Y27178068D01*
X5995346Y26388600D01*
X6261730Y25745492D01*
X6564919Y25604024D01*
X7790915Y26830020D01*
X8150125Y26830020D01*
X9376121Y25604024D01*
X9679310Y25745492D01*
X9964267Y26481972D01*
X9947891Y27178068D01*
X17975733Y27178068D01*
X17994306Y26388600D01*
X18260690Y25745492D01*
X18563879Y25604024D01*
X19789875Y26830020D01*
X20149085Y26830020D01*
X21375081Y25604024D01*
X21678270Y25745492D01*
X21963227Y26481972D01*
X21951958Y26960984D01*
X29760590Y26960984D01*
X29816271Y26730389D01*
X30299078Y26562378D01*
X30809428Y26591917D01*
X31143729Y26730389D01*
X31199410Y26960984D01*
X30480000Y27680395D01*
X29760590Y26960984D01*
X21951958Y26960984D01*
X21944654Y27271440D01*
X21678270Y27914548D01*
X21407430Y28040922D01*
X29182378Y28040922D01*
X29211917Y27530572D01*
X29350389Y27196271D01*
X29580984Y27140590D01*
X30300395Y27860000D01*
X30659605Y27860000D01*
X31379016Y27140590D01*
X31609611Y27196271D01*
X31777622Y27679078D01*
X31748083Y28189428D01*
X31703595Y28296832D01*
X33218460Y28296832D01*
X33339786Y28067000D01*
X35433000Y28067000D01*
X35433000Y29424630D01*
X35687000Y29424630D01*
X35687000Y28067000D01*
X37780214Y28067000D01*
X37901540Y28296832D01*
X37880649Y28390810D01*
X37600024Y28899989D01*
X37145906Y29263018D01*
X36587430Y29424630D01*
X35687000Y29424630D01*
X35433000Y29424630D01*
X34532570Y29424630D01*
X33974094Y29263018D01*
X33519976Y28899989D01*
X33239351Y28390810D01*
X33218460Y28296832D01*
X31703595Y28296832D01*
X31609611Y28523729D01*
X31379016Y28579410D01*
X30659605Y27860000D01*
X30300395Y27860000D01*
X29580984Y28579410D01*
X29350389Y28523729D01*
X29182378Y28040922D01*
X21407430Y28040922D01*
X21375081Y28056016D01*
X20149085Y26830020D01*
X19789875Y26830020D01*
X18563879Y28056016D01*
X18260690Y27914548D01*
X17975733Y27178068D01*
X9947891Y27178068D01*
X9945694Y27271440D01*
X9679310Y27914548D01*
X9376121Y28056016D01*
X8150125Y26830020D01*
X7790915Y26830020D01*
X6564919Y28056016D01*
X6261730Y27914548D01*
X5976773Y27178068D01*
X710000Y27178068D01*
X710000Y28235621D01*
X6744524Y28235621D01*
X7970520Y27009625D01*
X9196516Y28235621D01*
X18743484Y28235621D01*
X19969480Y27009625D01*
X21195476Y28235621D01*
X21054008Y28538810D01*
X20484879Y28759016D01*
X29760590Y28759016D01*
X30480000Y28039605D01*
X31199410Y28759016D01*
X31143729Y28989611D01*
X30660922Y29157622D01*
X30150572Y29128083D01*
X29816271Y28989611D01*
X29760590Y28759016D01*
X20484879Y28759016D01*
X20317528Y28823767D01*
X19528060Y28805194D01*
X18884952Y28538810D01*
X18743484Y28235621D01*
X9196516Y28235621D01*
X9055048Y28538810D01*
X8318568Y28823767D01*
X7529100Y28805194D01*
X6885992Y28538810D01*
X6744524Y28235621D01*
X710000Y28235621D01*
X710000Y31040000D01*
X57710000Y31040000D01*
X57710000Y710000D01*
M02*
