M48
;DRILL file {KiCad (2015-12-07 BZR 6352)-product} date Fri 05 Feb 2016 10:23:53 PM EST
;FORMAT={-:-/ absolute / metric / decimal}
FMAT,2
METRIC,TZ
T1C0.800
T2C1.001
T3C1.016
T4C3.000
%
G90
G05
M71
T1
X11.51Y45.72
X15.24Y39.29
X15.24Y34.29
X16.51Y45.72
X19.05Y45.72
X20.32Y40.64
X20.32Y33.02
X22.86Y40.64
X22.86Y33.02
X24.05Y45.72
X25.4Y40.64
X25.4Y33.02
X27.94Y54.53
X27.94Y49.53
X27.94Y40.64
X27.94Y33.02
X30.48Y40.64
X30.48Y33.02
X33.02Y40.64
X33.02Y33.02
X35.56Y40.64
X35.56Y33.02
X38.1Y40.64
X38.1Y33.02
X40.64Y40.64
X40.64Y33.02
X43.18Y40.64
X43.18Y33.02
X45.72Y40.64
X45.72Y33.02
X48.26Y40.64
X48.26Y33.02
X50.8Y40.64
X50.8Y33.02
X53.34Y40.64
X53.34Y33.02
T2
X5.08Y26.43
X5.08Y11.43
X5.08Y6.35
X5.08Y3.81
X12.7Y26.43
X12.7Y11.43
X12.7Y6.35
X12.7Y3.81
X15.24Y50.8
X17.78Y50.8
X20.32Y50.8
X20.32Y26.43
X20.32Y11.43
X20.32Y6.35
X20.32Y3.81
X27.94Y26.43
X27.94Y11.43
X27.94Y6.35
X27.94Y3.81
X35.56Y26.43
X35.56Y11.43
X35.56Y6.35
X35.56Y3.81
X43.18Y26.43
X43.18Y11.43
X43.18Y6.35
X43.18Y3.81
X50.8Y26.43
X50.8Y11.43
X50.8Y6.35
X50.8Y3.81
X58.42Y26.43
X58.42Y11.43
X58.42Y6.35
X58.42Y3.81
T3
X31.75Y53.34
X31.75Y50.8
X34.29Y53.34
X34.29Y50.8
X36.83Y53.34
X36.83Y50.8
X39.37Y53.34
X39.37Y50.8
T4
X2.741Y38.1
X5.74Y33.401
X8.74Y38.1
T0
M30
