G04 #@! TF.FileFunction,Copper,L1,Top,Signal*
%FSLAX46Y46*%
G04 Gerber Fmt 4.6, Leading zero omitted, Abs format (unit mm)*
G04 Created by KiCad (PCBNEW (2015-12-07 BZR 6352)-product) date Fri 05 Feb 2016 10:23:55 PM EST*
%MOMM*%
G01*
G04 APERTURE LIST*
%ADD10C,0.100000*%
%ADD11R,1.300000X1.300000*%
%ADD12C,1.300000*%
%ADD13R,3.500120X3.500120*%
%ADD14R,2.000000X1.900000*%
%ADD15C,1.900000*%
%ADD16O,1.600000X2.300000*%
%ADD17C,1.998980*%
%ADD18O,1.501140X2.499360*%
%ADD19R,1.727200X1.727200*%
%ADD20O,1.727200X1.727200*%
%ADD21C,1.270000*%
%ADD22C,0.254000*%
G04 APERTURE END LIST*
D10*
D11*
X19050000Y45720000D03*
D12*
X24050000Y45720000D03*
D11*
X16510000Y45720000D03*
D12*
X11510000Y45720000D03*
D13*
X8740140Y38100000D03*
X2740660Y38100000D03*
X5740400Y33401000D03*
D14*
X5080000Y3810000D03*
D15*
X5080000Y6350000D03*
D14*
X12700000Y3810000D03*
D15*
X12700000Y6350000D03*
D14*
X20320000Y3810000D03*
D15*
X20320000Y6350000D03*
D14*
X27940000Y3810000D03*
D15*
X27940000Y6350000D03*
D14*
X35560000Y3810000D03*
D15*
X35560000Y6350000D03*
D14*
X43180000Y3810000D03*
D15*
X43180000Y6350000D03*
D14*
X50800000Y3810000D03*
D15*
X50800000Y6350000D03*
D14*
X58420000Y3810000D03*
D15*
X58420000Y6350000D03*
D16*
X20320000Y33020000D03*
X22860000Y33020000D03*
X25400000Y33020000D03*
X27940000Y33020000D03*
X30480000Y33020000D03*
X33020000Y33020000D03*
X35560000Y33020000D03*
X38100000Y33020000D03*
X40640000Y33020000D03*
X43180000Y33020000D03*
X45720000Y33020000D03*
X48260000Y33020000D03*
X50800000Y33020000D03*
X53340000Y33020000D03*
X53340000Y40640000D03*
X50800000Y40640000D03*
X48260000Y40640000D03*
X45720000Y40640000D03*
X43180000Y40640000D03*
X40640000Y40640000D03*
X38100000Y40640000D03*
X35560000Y40640000D03*
X33020000Y40640000D03*
X30480000Y40640000D03*
X27940000Y40640000D03*
X25400000Y40640000D03*
X22860000Y40640000D03*
X20320000Y40640000D03*
D17*
X5080000Y26430000D03*
X5080000Y11430000D03*
X12700000Y26430000D03*
X12700000Y11430000D03*
X20320000Y26430000D03*
X20320000Y11430000D03*
X27940000Y26430000D03*
X27940000Y11430000D03*
X35560000Y26430000D03*
X35560000Y11430000D03*
X43180000Y26430000D03*
X43180000Y11430000D03*
X50800000Y26430000D03*
X50800000Y11430000D03*
X58420000Y26430000D03*
X58420000Y11430000D03*
D18*
X17780000Y50800000D03*
X20320000Y50800000D03*
X15240000Y50800000D03*
D19*
X31750000Y50800000D03*
D20*
X31750000Y53340000D03*
X34290000Y50800000D03*
X34290000Y53340000D03*
X36830000Y50800000D03*
X36830000Y53340000D03*
X39370000Y50800000D03*
X39370000Y53340000D03*
D11*
X15240000Y34290000D03*
D12*
X15240000Y39290000D03*
D11*
X27940000Y49530000D03*
D12*
X27940000Y54530000D03*
D21*
X19050000Y45720000D02*
X19050000Y46490890D01*
X15240000Y50300890D02*
X15240000Y50800000D01*
X19050000Y46490890D02*
X15240000Y50300890D01*
X38100000Y40640000D02*
X40640000Y40640000D01*
X33490000Y35440000D02*
X33490000Y35680000D01*
X33490000Y35680000D02*
X38100000Y40290000D01*
X38100000Y40290000D02*
X38100000Y40640000D01*
X15240000Y34290000D02*
X17160000Y34290000D01*
X17160000Y34290000D02*
X18310000Y35440000D01*
X18310000Y35440000D02*
X33490000Y35440000D01*
X33490000Y35440000D02*
X35560000Y33370000D01*
X35560000Y33370000D02*
X35560000Y33020000D01*
X5740400Y33401000D02*
X9779000Y33401000D01*
X5080000Y30480000D02*
X5740400Y31140400D01*
X5740400Y33401000D02*
X5740400Y31140400D01*
X2540000Y33220660D02*
X2720340Y33401000D01*
X5740400Y33401000D02*
X2720340Y33401000D01*
X2740660Y38100000D02*
X5080000Y38100000D01*
X2540000Y35560000D02*
X2740660Y35760660D01*
X2740660Y38100000D02*
X2740660Y35760660D01*
X2740660Y38100000D02*
X2740660Y40640000D01*
X2740660Y42979340D02*
X2740660Y40640000D01*
X12700000Y26430000D02*
X5080000Y26430000D01*
X20320000Y26430000D02*
X12700000Y26430000D01*
X27940000Y26430000D02*
X20320000Y26430000D01*
X35560000Y26430000D02*
X27940000Y26430000D01*
X17780000Y50800000D02*
X17780000Y50300890D01*
X19470380Y48610510D02*
X25100510Y48610510D01*
X17780000Y50300890D02*
X19470380Y48610510D01*
X25100510Y48610510D02*
X26020000Y49530000D01*
X26020000Y49530000D02*
X27940000Y49530000D01*
X17780000Y50800000D02*
X17780000Y51299110D01*
X17780000Y51299110D02*
X16089620Y52989490D01*
X16089620Y52989490D02*
X14539822Y52989490D01*
X14539822Y52989490D02*
X13549620Y51999288D01*
X16510000Y45720000D02*
X14590000Y45720000D01*
X14590000Y45720000D02*
X13549620Y46760380D01*
X13549620Y46760380D02*
X13549620Y51999288D01*
X44450000Y3810000D02*
X43180000Y3810000D01*
X45720000Y33020000D02*
X45720000Y5080000D01*
X44450000Y3810000D02*
X45720000Y5080000D01*
X48260000Y5080000D02*
X48260000Y33020000D01*
X49530000Y3810000D02*
X48260000Y5080000D01*
X49530000Y3810000D02*
X50800000Y3810000D01*
X58420000Y3810000D02*
X57150000Y3810000D01*
X57150000Y3810000D02*
X56480709Y4479291D01*
X56480709Y4479291D02*
X56480709Y24919291D01*
X56480709Y24919291D02*
X50800000Y30600000D01*
X50800000Y30600000D02*
X50800000Y33020000D01*
D22*
G36*
X62790000Y710000D02*
X710000Y710000D01*
X710000Y4760000D01*
X3432560Y4760000D01*
X3432560Y2860000D01*
X3476838Y2624683D01*
X3615910Y2408559D01*
X3828110Y2263569D01*
X4080000Y2212560D01*
X6080000Y2212560D01*
X6315317Y2256838D01*
X6531441Y2395910D01*
X6676431Y2608110D01*
X6727440Y2860000D01*
X6727440Y4760000D01*
X11052560Y4760000D01*
X11052560Y2860000D01*
X11096838Y2624683D01*
X11235910Y2408559D01*
X11448110Y2263569D01*
X11700000Y2212560D01*
X13700000Y2212560D01*
X13935317Y2256838D01*
X14151441Y2395910D01*
X14296431Y2608110D01*
X14347440Y2860000D01*
X14347440Y4760000D01*
X18672560Y4760000D01*
X18672560Y2860000D01*
X18716838Y2624683D01*
X18855910Y2408559D01*
X19068110Y2263569D01*
X19320000Y2212560D01*
X21320000Y2212560D01*
X21555317Y2256838D01*
X21771441Y2395910D01*
X21916431Y2608110D01*
X21967440Y2860000D01*
X21967440Y4760000D01*
X26292560Y4760000D01*
X26292560Y2860000D01*
X26336838Y2624683D01*
X26475910Y2408559D01*
X26688110Y2263569D01*
X26940000Y2212560D01*
X28940000Y2212560D01*
X29175317Y2256838D01*
X29391441Y2395910D01*
X29536431Y2608110D01*
X29587440Y2860000D01*
X29587440Y4760000D01*
X33912560Y4760000D01*
X33912560Y2860000D01*
X33956838Y2624683D01*
X34095910Y2408559D01*
X34308110Y2263569D01*
X34560000Y2212560D01*
X36560000Y2212560D01*
X36795317Y2256838D01*
X37011441Y2395910D01*
X37156431Y2608110D01*
X37207440Y2860000D01*
X37207440Y4760000D01*
X37163162Y4995317D01*
X37024090Y5211441D01*
X36811890Y5356431D01*
X36808808Y5357055D01*
X36902914Y5450997D01*
X37144724Y6033341D01*
X37145275Y6663893D01*
X36904481Y7246657D01*
X36459003Y7692914D01*
X35876659Y7934724D01*
X35246107Y7935275D01*
X34663343Y7694481D01*
X34217086Y7249003D01*
X33975276Y6666659D01*
X33974725Y6036107D01*
X34215519Y5453343D01*
X34313029Y5355663D01*
X34108559Y5224090D01*
X33963569Y5011890D01*
X33912560Y4760000D01*
X29587440Y4760000D01*
X29543162Y4995317D01*
X29404090Y5211441D01*
X29191890Y5356431D01*
X29188808Y5357055D01*
X29282914Y5450997D01*
X29524724Y6033341D01*
X29525275Y6663893D01*
X29284481Y7246657D01*
X28839003Y7692914D01*
X28256659Y7934724D01*
X27626107Y7935275D01*
X27043343Y7694481D01*
X26597086Y7249003D01*
X26355276Y6666659D01*
X26354725Y6036107D01*
X26595519Y5453343D01*
X26693029Y5355663D01*
X26488559Y5224090D01*
X26343569Y5011890D01*
X26292560Y4760000D01*
X21967440Y4760000D01*
X21923162Y4995317D01*
X21784090Y5211441D01*
X21571890Y5356431D01*
X21568808Y5357055D01*
X21662914Y5450997D01*
X21904724Y6033341D01*
X21905275Y6663893D01*
X21664481Y7246657D01*
X21219003Y7692914D01*
X20636659Y7934724D01*
X20006107Y7935275D01*
X19423343Y7694481D01*
X18977086Y7249003D01*
X18735276Y6666659D01*
X18734725Y6036107D01*
X18975519Y5453343D01*
X19073029Y5355663D01*
X18868559Y5224090D01*
X18723569Y5011890D01*
X18672560Y4760000D01*
X14347440Y4760000D01*
X14303162Y4995317D01*
X14164090Y5211441D01*
X13951890Y5356431D01*
X13948808Y5357055D01*
X14042914Y5450997D01*
X14284724Y6033341D01*
X14285275Y6663893D01*
X14044481Y7246657D01*
X13599003Y7692914D01*
X13016659Y7934724D01*
X12386107Y7935275D01*
X11803343Y7694481D01*
X11357086Y7249003D01*
X11115276Y6666659D01*
X11114725Y6036107D01*
X11355519Y5453343D01*
X11453029Y5355663D01*
X11248559Y5224090D01*
X11103569Y5011890D01*
X11052560Y4760000D01*
X6727440Y4760000D01*
X6683162Y4995317D01*
X6544090Y5211441D01*
X6331890Y5356431D01*
X6328808Y5357055D01*
X6422914Y5450997D01*
X6664724Y6033341D01*
X6665275Y6663893D01*
X6424481Y7246657D01*
X5979003Y7692914D01*
X5396659Y7934724D01*
X4766107Y7935275D01*
X4183343Y7694481D01*
X3737086Y7249003D01*
X3495276Y6666659D01*
X3494725Y6036107D01*
X3735519Y5453343D01*
X3833029Y5355663D01*
X3628559Y5224090D01*
X3483569Y5011890D01*
X3432560Y4760000D01*
X710000Y4760000D01*
X710000Y11106306D01*
X3445226Y11106306D01*
X3693538Y10505345D01*
X4152927Y10045154D01*
X4753453Y9795794D01*
X5403694Y9795226D01*
X6004655Y10043538D01*
X6464846Y10502927D01*
X6714206Y11103453D01*
X6714208Y11106306D01*
X11065226Y11106306D01*
X11313538Y10505345D01*
X11772927Y10045154D01*
X12373453Y9795794D01*
X13023694Y9795226D01*
X13624655Y10043538D01*
X14084846Y10502927D01*
X14334206Y11103453D01*
X14334208Y11106306D01*
X18685226Y11106306D01*
X18933538Y10505345D01*
X19392927Y10045154D01*
X19993453Y9795794D01*
X20643694Y9795226D01*
X21244655Y10043538D01*
X21704846Y10502927D01*
X21954206Y11103453D01*
X21954208Y11106306D01*
X26305226Y11106306D01*
X26553538Y10505345D01*
X27012927Y10045154D01*
X27613453Y9795794D01*
X28263694Y9795226D01*
X28864655Y10043538D01*
X29324846Y10502927D01*
X29574206Y11103453D01*
X29574208Y11106306D01*
X33925226Y11106306D01*
X34173538Y10505345D01*
X34632927Y10045154D01*
X35233453Y9795794D01*
X35883694Y9795226D01*
X36484655Y10043538D01*
X36944846Y10502927D01*
X37194206Y11103453D01*
X37194774Y11753694D01*
X36946462Y12354655D01*
X36487073Y12814846D01*
X35886547Y13064206D01*
X35236306Y13064774D01*
X34635345Y12816462D01*
X34175154Y12357073D01*
X33925794Y11756547D01*
X33925226Y11106306D01*
X29574208Y11106306D01*
X29574774Y11753694D01*
X29326462Y12354655D01*
X28867073Y12814846D01*
X28266547Y13064206D01*
X27616306Y13064774D01*
X27015345Y12816462D01*
X26555154Y12357073D01*
X26305794Y11756547D01*
X26305226Y11106306D01*
X21954208Y11106306D01*
X21954774Y11753694D01*
X21706462Y12354655D01*
X21247073Y12814846D01*
X20646547Y13064206D01*
X19996306Y13064774D01*
X19395345Y12816462D01*
X18935154Y12357073D01*
X18685794Y11756547D01*
X18685226Y11106306D01*
X14334208Y11106306D01*
X14334774Y11753694D01*
X14086462Y12354655D01*
X13627073Y12814846D01*
X13026547Y13064206D01*
X12376306Y13064774D01*
X11775345Y12816462D01*
X11315154Y12357073D01*
X11065794Y11756547D01*
X11065226Y11106306D01*
X6714208Y11106306D01*
X6714774Y11753694D01*
X6466462Y12354655D01*
X6007073Y12814846D01*
X5406547Y13064206D01*
X4756306Y13064774D01*
X4155345Y12816462D01*
X3695154Y12357073D01*
X3445794Y11756547D01*
X3445226Y11106306D01*
X710000Y11106306D01*
X710000Y25277837D01*
X4107443Y25277837D01*
X4206042Y25011035D01*
X4815582Y24784599D01*
X5465377Y24808659D01*
X5953958Y25011035D01*
X6052557Y25277837D01*
X11727443Y25277837D01*
X11826042Y25011035D01*
X12435582Y24784599D01*
X13085377Y24808659D01*
X13573958Y25011035D01*
X13672557Y25277837D01*
X19347443Y25277837D01*
X19446042Y25011035D01*
X20055582Y24784599D01*
X20705377Y24808659D01*
X21193958Y25011035D01*
X21292557Y25277837D01*
X26967443Y25277837D01*
X27066042Y25011035D01*
X27675582Y24784599D01*
X28325377Y24808659D01*
X28813958Y25011035D01*
X28912557Y25277837D01*
X34587443Y25277837D01*
X34686042Y25011035D01*
X35295582Y24784599D01*
X35945377Y24808659D01*
X36433958Y25011035D01*
X36532557Y25277837D01*
X42207443Y25277837D01*
X42306042Y25011035D01*
X42915582Y24784599D01*
X43565377Y24808659D01*
X44053958Y25011035D01*
X44152557Y25277837D01*
X43180000Y26250395D01*
X42207443Y25277837D01*
X36532557Y25277837D01*
X35560000Y26250395D01*
X34587443Y25277837D01*
X28912557Y25277837D01*
X27940000Y26250395D01*
X26967443Y25277837D01*
X21292557Y25277837D01*
X20320000Y26250395D01*
X19347443Y25277837D01*
X13672557Y25277837D01*
X12700000Y26250395D01*
X11727443Y25277837D01*
X6052557Y25277837D01*
X5080000Y26250395D01*
X4107443Y25277837D01*
X710000Y25277837D01*
X710000Y26694418D01*
X3434599Y26694418D01*
X3458659Y26044623D01*
X3661035Y25556042D01*
X3927837Y25457443D01*
X4900395Y26430000D01*
X5259605Y26430000D01*
X6232163Y25457443D01*
X6498965Y25556042D01*
X6725401Y26165582D01*
X6705820Y26694418D01*
X11054599Y26694418D01*
X11078659Y26044623D01*
X11281035Y25556042D01*
X11547837Y25457443D01*
X12520395Y26430000D01*
X12879605Y26430000D01*
X13852163Y25457443D01*
X14118965Y25556042D01*
X14345401Y26165582D01*
X14325820Y26694418D01*
X18674599Y26694418D01*
X18698659Y26044623D01*
X18901035Y25556042D01*
X19167837Y25457443D01*
X20140395Y26430000D01*
X20499605Y26430000D01*
X21472163Y25457443D01*
X21738965Y25556042D01*
X21965401Y26165582D01*
X21945820Y26694418D01*
X26294599Y26694418D01*
X26318659Y26044623D01*
X26521035Y25556042D01*
X26787837Y25457443D01*
X27760395Y26430000D01*
X28119605Y26430000D01*
X29092163Y25457443D01*
X29358965Y25556042D01*
X29585401Y26165582D01*
X29565820Y26694418D01*
X33914599Y26694418D01*
X33938659Y26044623D01*
X34141035Y25556042D01*
X34407837Y25457443D01*
X35380395Y26430000D01*
X35739605Y26430000D01*
X36712163Y25457443D01*
X36978965Y25556042D01*
X37205401Y26165582D01*
X37185820Y26694418D01*
X41534599Y26694418D01*
X41558659Y26044623D01*
X41761035Y25556042D01*
X42027837Y25457443D01*
X43000395Y26430000D01*
X42027837Y27402557D01*
X41761035Y27303958D01*
X41534599Y26694418D01*
X37185820Y26694418D01*
X37181341Y26815377D01*
X36978965Y27303958D01*
X36712163Y27402557D01*
X35739605Y26430000D01*
X35380395Y26430000D01*
X34407837Y27402557D01*
X34141035Y27303958D01*
X33914599Y26694418D01*
X29565820Y26694418D01*
X29561341Y26815377D01*
X29358965Y27303958D01*
X29092163Y27402557D01*
X28119605Y26430000D01*
X27760395Y26430000D01*
X26787837Y27402557D01*
X26521035Y27303958D01*
X26294599Y26694418D01*
X21945820Y26694418D01*
X21941341Y26815377D01*
X21738965Y27303958D01*
X21472163Y27402557D01*
X20499605Y26430000D01*
X20140395Y26430000D01*
X19167837Y27402557D01*
X18901035Y27303958D01*
X18674599Y26694418D01*
X14325820Y26694418D01*
X14321341Y26815377D01*
X14118965Y27303958D01*
X13852163Y27402557D01*
X12879605Y26430000D01*
X12520395Y26430000D01*
X11547837Y27402557D01*
X11281035Y27303958D01*
X11054599Y26694418D01*
X6705820Y26694418D01*
X6701341Y26815377D01*
X6498965Y27303958D01*
X6232163Y27402557D01*
X5259605Y26430000D01*
X4900395Y26430000D01*
X3927837Y27402557D01*
X3661035Y27303958D01*
X3434599Y26694418D01*
X710000Y26694418D01*
X710000Y27582163D01*
X4107443Y27582163D01*
X5080000Y26609605D01*
X6052557Y27582163D01*
X11727443Y27582163D01*
X12700000Y26609605D01*
X13672557Y27582163D01*
X19347443Y27582163D01*
X20320000Y26609605D01*
X21292557Y27582163D01*
X26967443Y27582163D01*
X27940000Y26609605D01*
X28912557Y27582163D01*
X34587443Y27582163D01*
X35560000Y26609605D01*
X36532557Y27582163D01*
X42207443Y27582163D01*
X43180000Y26609605D01*
X44152557Y27582163D01*
X44053958Y27848965D01*
X43444418Y28075401D01*
X42794623Y28051341D01*
X42306042Y27848965D01*
X42207443Y27582163D01*
X36532557Y27582163D01*
X36433958Y27848965D01*
X35824418Y28075401D01*
X35174623Y28051341D01*
X34686042Y27848965D01*
X34587443Y27582163D01*
X28912557Y27582163D01*
X28813958Y27848965D01*
X28204418Y28075401D01*
X27554623Y28051341D01*
X27066042Y27848965D01*
X26967443Y27582163D01*
X21292557Y27582163D01*
X21193958Y27848965D01*
X20584418Y28075401D01*
X19934623Y28051341D01*
X19446042Y27848965D01*
X19347443Y27582163D01*
X13672557Y27582163D01*
X13573958Y27848965D01*
X12964418Y28075401D01*
X12314623Y28051341D01*
X11826042Y27848965D01*
X11727443Y27582163D01*
X6052557Y27582163D01*
X5953958Y27848965D01*
X5344418Y28075401D01*
X4694623Y28051341D01*
X4206042Y27848965D01*
X4107443Y27582163D01*
X710000Y27582163D01*
X710000Y33115250D01*
X3355340Y33115250D01*
X3355340Y31524630D01*
X3452013Y31291241D01*
X3630642Y31112613D01*
X3864031Y31015940D01*
X5454650Y31015940D01*
X5613400Y31174690D01*
X5613400Y33274000D01*
X5867400Y33274000D01*
X5867400Y31174690D01*
X6026150Y31015940D01*
X7616769Y31015940D01*
X7850158Y31112613D01*
X8028787Y31291241D01*
X8125460Y31524630D01*
X8125460Y33115250D01*
X7966710Y33274000D01*
X5867400Y33274000D01*
X5613400Y33274000D01*
X3514090Y33274000D01*
X3355340Y33115250D01*
X710000Y33115250D01*
X710000Y35778849D01*
X864291Y35714940D01*
X2454910Y35714940D01*
X2613660Y35873690D01*
X2613660Y37973000D01*
X2867660Y37973000D01*
X2867660Y35873690D01*
X3026410Y35714940D01*
X3692332Y35714940D01*
X3630642Y35689387D01*
X3452013Y35510759D01*
X3355340Y35277370D01*
X3355340Y33686750D01*
X3514090Y33528000D01*
X5613400Y33528000D01*
X5613400Y35627310D01*
X5867400Y35627310D01*
X5867400Y33528000D01*
X7966710Y33528000D01*
X8125460Y33686750D01*
X8125460Y34940000D01*
X13942560Y34940000D01*
X13942560Y33640000D01*
X13986838Y33404683D01*
X14125910Y33188559D01*
X14338110Y33043569D01*
X14590000Y32992560D01*
X15890000Y32992560D01*
X16035831Y33020000D01*
X17159995Y33020000D01*
X17160000Y33019999D01*
X17646008Y33116673D01*
X18058026Y33391974D01*
X18836051Y34170000D01*
X19138479Y34170000D01*
X18994233Y33954121D01*
X18885000Y33404970D01*
X18885000Y32635030D01*
X18994233Y32085879D01*
X19305302Y31620332D01*
X19770849Y31309263D01*
X20320000Y31200030D01*
X20869151Y31309263D01*
X21334698Y31620332D01*
X21590000Y32002418D01*
X21845302Y31620332D01*
X22310849Y31309263D01*
X22860000Y31200030D01*
X23409151Y31309263D01*
X23874698Y31620332D01*
X24130000Y32002418D01*
X24385302Y31620332D01*
X24850849Y31309263D01*
X25400000Y31200030D01*
X25949151Y31309263D01*
X26414698Y31620332D01*
X26670000Y32002418D01*
X26925302Y31620332D01*
X27390849Y31309263D01*
X27940000Y31200030D01*
X28489151Y31309263D01*
X28954698Y31620332D01*
X29210000Y32002418D01*
X29465302Y31620332D01*
X29930849Y31309263D01*
X30480000Y31200030D01*
X31029151Y31309263D01*
X31494698Y31620332D01*
X31750000Y32002418D01*
X32005302Y31620332D01*
X32470849Y31309263D01*
X33020000Y31200030D01*
X33569151Y31309263D01*
X34034698Y31620332D01*
X34290000Y32002418D01*
X34545302Y31620332D01*
X35010849Y31309263D01*
X35560000Y31200030D01*
X36109151Y31309263D01*
X36574698Y31620332D01*
X36827149Y31998151D01*
X37175104Y31565500D01*
X37668181Y31295633D01*
X37750961Y31278096D01*
X37973000Y31400085D01*
X37973000Y32893000D01*
X37953000Y32893000D01*
X37953000Y33147000D01*
X37973000Y33147000D01*
X37973000Y34639915D01*
X38227000Y34639915D01*
X38227000Y33147000D01*
X38247000Y33147000D01*
X38247000Y32893000D01*
X38227000Y32893000D01*
X38227000Y31400085D01*
X38449039Y31278096D01*
X38531819Y31295633D01*
X39024896Y31565500D01*
X39372851Y31998151D01*
X39625302Y31620332D01*
X40090849Y31309263D01*
X40640000Y31200030D01*
X41189151Y31309263D01*
X41654698Y31620332D01*
X41910000Y32002418D01*
X42165302Y31620332D01*
X42630849Y31309263D01*
X43180000Y31200030D01*
X43729151Y31309263D01*
X44194698Y31620332D01*
X44450000Y32002418D01*
X44450000Y27359009D01*
X44332163Y27402557D01*
X43359605Y26430000D01*
X44332163Y25457443D01*
X44450000Y25500991D01*
X44450000Y12471320D01*
X44107073Y12814846D01*
X43506547Y13064206D01*
X42856306Y13064774D01*
X42255345Y12816462D01*
X41795154Y12357073D01*
X41545794Y11756547D01*
X41545226Y11106306D01*
X41793538Y10505345D01*
X42252927Y10045154D01*
X42853453Y9795794D01*
X43503694Y9795226D01*
X44104655Y10043538D01*
X44450000Y10388281D01*
X44450000Y7321268D01*
X44079003Y7692914D01*
X43496659Y7934724D01*
X42866107Y7935275D01*
X42283343Y7694481D01*
X41837086Y7249003D01*
X41595276Y6666659D01*
X41594725Y6036107D01*
X41835519Y5453343D01*
X41933029Y5355663D01*
X41728559Y5224090D01*
X41583569Y5011890D01*
X41532560Y4760000D01*
X41532560Y2860000D01*
X41576838Y2624683D01*
X41715910Y2408559D01*
X41928110Y2263569D01*
X42180000Y2212560D01*
X44180000Y2212560D01*
X44415317Y2256838D01*
X44631441Y2395910D01*
X44773917Y2604431D01*
X44936008Y2636673D01*
X45348026Y2911974D01*
X46618023Y4181972D01*
X46618026Y4181974D01*
X46893327Y4593992D01*
X46990000Y5079997D01*
X47086673Y4593992D01*
X47361974Y4181974D01*
X48631972Y2911977D01*
X48631974Y2911974D01*
X49043992Y2636673D01*
X49210426Y2603567D01*
X49335910Y2408559D01*
X49548110Y2263569D01*
X49800000Y2212560D01*
X51800000Y2212560D01*
X52035317Y2256838D01*
X52251441Y2395910D01*
X52396431Y2608110D01*
X52447440Y2860000D01*
X52447440Y4760000D01*
X52403162Y4995317D01*
X52264090Y5211441D01*
X52051890Y5356431D01*
X52048808Y5357055D01*
X52142914Y5450997D01*
X52384724Y6033341D01*
X52385275Y6663893D01*
X52144481Y7246657D01*
X51699003Y7692914D01*
X51116659Y7934724D01*
X50486107Y7935275D01*
X49903343Y7694481D01*
X49530000Y7321790D01*
X49530000Y10388680D01*
X49872927Y10045154D01*
X50473453Y9795794D01*
X51123694Y9795226D01*
X51724655Y10043538D01*
X52184846Y10502927D01*
X52434206Y11103453D01*
X52434774Y11753694D01*
X52186462Y12354655D01*
X51727073Y12814846D01*
X51126547Y13064206D01*
X50476306Y13064774D01*
X49875345Y12816462D01*
X49530000Y12471719D01*
X49530000Y25277837D01*
X49827443Y25277837D01*
X49926042Y25011035D01*
X50535582Y24784599D01*
X51185377Y24808659D01*
X51673958Y25011035D01*
X51772557Y25277837D01*
X50800000Y26250395D01*
X49827443Y25277837D01*
X49530000Y25277837D01*
X49530000Y25500991D01*
X49647837Y25457443D01*
X50620395Y26430000D01*
X50979605Y26430000D01*
X51952163Y25457443D01*
X52218965Y25556042D01*
X52445401Y26165582D01*
X52421341Y26815377D01*
X52218965Y27303958D01*
X51952163Y27402557D01*
X50979605Y26430000D01*
X50620395Y26430000D01*
X49647837Y27402557D01*
X49530000Y27359009D01*
X49530000Y27582163D01*
X49827443Y27582163D01*
X50800000Y26609605D01*
X51772557Y27582163D01*
X51673958Y27848965D01*
X51064418Y28075401D01*
X50414623Y28051341D01*
X49926042Y27848965D01*
X49827443Y27582163D01*
X49530000Y27582163D01*
X49530000Y30599995D01*
X49626673Y30113992D01*
X49901974Y29701974D01*
X55210709Y24393240D01*
X55210709Y4479296D01*
X55210708Y4479291D01*
X55307382Y3993283D01*
X55582683Y3581265D01*
X56251972Y2911977D01*
X56251974Y2911974D01*
X56663992Y2636673D01*
X56830426Y2603567D01*
X56955910Y2408559D01*
X57168110Y2263569D01*
X57420000Y2212560D01*
X59420000Y2212560D01*
X59655317Y2256838D01*
X59871441Y2395910D01*
X60016431Y2608110D01*
X60067440Y2860000D01*
X60067440Y4760000D01*
X60023162Y4995317D01*
X59884090Y5211441D01*
X59671890Y5356431D01*
X59668808Y5357055D01*
X59762914Y5450997D01*
X60004724Y6033341D01*
X60005275Y6663893D01*
X59764481Y7246657D01*
X59319003Y7692914D01*
X58736659Y7934724D01*
X58106107Y7935275D01*
X57750709Y7788427D01*
X57750709Y9938114D01*
X58093453Y9795794D01*
X58743694Y9795226D01*
X59344655Y10043538D01*
X59804846Y10502927D01*
X60054206Y11103453D01*
X60054774Y11753694D01*
X59806462Y12354655D01*
X59347073Y12814846D01*
X58746547Y13064206D01*
X58096306Y13064774D01*
X57750709Y12921976D01*
X57750709Y24919286D01*
X57750710Y24919291D01*
X57747335Y24936257D01*
X58155582Y24784599D01*
X58805377Y24808659D01*
X59293958Y25011035D01*
X59392557Y25277837D01*
X58420000Y26250395D01*
X58405858Y26236252D01*
X58226252Y26415858D01*
X58240395Y26430000D01*
X58599605Y26430000D01*
X59572163Y25457443D01*
X59838965Y25556042D01*
X60065401Y26165582D01*
X60041341Y26815377D01*
X59838965Y27303958D01*
X59572163Y27402557D01*
X58599605Y26430000D01*
X58240395Y26430000D01*
X57267837Y27402557D01*
X57001035Y27303958D01*
X56774599Y26694418D01*
X56785095Y26410956D01*
X55613889Y27582163D01*
X57447443Y27582163D01*
X58420000Y26609605D01*
X59392557Y27582163D01*
X59293958Y27848965D01*
X58684418Y28075401D01*
X58034623Y28051341D01*
X57546042Y27848965D01*
X57447443Y27582163D01*
X55613889Y27582163D01*
X52070000Y31126052D01*
X52070000Y32002418D01*
X52325302Y31620332D01*
X52790849Y31309263D01*
X53340000Y31200030D01*
X53889151Y31309263D01*
X54354698Y31620332D01*
X54665767Y32085879D01*
X54775000Y32635030D01*
X54775000Y33404970D01*
X54665767Y33954121D01*
X54354698Y34419668D01*
X53889151Y34730737D01*
X53340000Y34839970D01*
X52790849Y34730737D01*
X52325302Y34419668D01*
X52070000Y34037582D01*
X51814698Y34419668D01*
X51349151Y34730737D01*
X50800000Y34839970D01*
X50250849Y34730737D01*
X49785302Y34419668D01*
X49530000Y34037582D01*
X49274698Y34419668D01*
X48809151Y34730737D01*
X48260000Y34839970D01*
X47710849Y34730737D01*
X47245302Y34419668D01*
X46990000Y34037582D01*
X46734698Y34419668D01*
X46269151Y34730737D01*
X45720000Y34839970D01*
X45170849Y34730737D01*
X44705302Y34419668D01*
X44450000Y34037582D01*
X44194698Y34419668D01*
X43729151Y34730737D01*
X43180000Y34839970D01*
X42630849Y34730737D01*
X42165302Y34419668D01*
X41910000Y34037582D01*
X41654698Y34419668D01*
X41189151Y34730737D01*
X40640000Y34839970D01*
X40090849Y34730737D01*
X39625302Y34419668D01*
X39372851Y34041849D01*
X39024896Y34474500D01*
X38531819Y34744367D01*
X38449039Y34761904D01*
X38227000Y34639915D01*
X37973000Y34639915D01*
X37750961Y34761904D01*
X37668181Y34744367D01*
X37175104Y34474500D01*
X36827149Y34041849D01*
X36574698Y34419668D01*
X36109151Y34730737D01*
X35967049Y34759003D01*
X35166052Y35560000D01*
X38507048Y38900997D01*
X38649151Y38929263D01*
X39114698Y39240332D01*
X39201340Y39370000D01*
X39538660Y39370000D01*
X39625302Y39240332D01*
X40090849Y38929263D01*
X40640000Y38820030D01*
X41189151Y38929263D01*
X41654698Y39240332D01*
X41910000Y39622418D01*
X42165302Y39240332D01*
X42630849Y38929263D01*
X43180000Y38820030D01*
X43729151Y38929263D01*
X44194698Y39240332D01*
X44450000Y39622418D01*
X44705302Y39240332D01*
X45170849Y38929263D01*
X45720000Y38820030D01*
X46269151Y38929263D01*
X46734698Y39240332D01*
X46990000Y39622418D01*
X47245302Y39240332D01*
X47710849Y38929263D01*
X48260000Y38820030D01*
X48809151Y38929263D01*
X49274698Y39240332D01*
X49530000Y39622418D01*
X49785302Y39240332D01*
X50250849Y38929263D01*
X50800000Y38820030D01*
X51349151Y38929263D01*
X51814698Y39240332D01*
X52070000Y39622418D01*
X52325302Y39240332D01*
X52790849Y38929263D01*
X53340000Y38820030D01*
X53889151Y38929263D01*
X54354698Y39240332D01*
X54665767Y39705879D01*
X54775000Y40255030D01*
X54775000Y41024970D01*
X54665767Y41574121D01*
X54354698Y42039668D01*
X53889151Y42350737D01*
X53340000Y42459970D01*
X52790849Y42350737D01*
X52325302Y42039668D01*
X52070000Y41657582D01*
X51814698Y42039668D01*
X51349151Y42350737D01*
X50800000Y42459970D01*
X50250849Y42350737D01*
X49785302Y42039668D01*
X49530000Y41657582D01*
X49274698Y42039668D01*
X48809151Y42350737D01*
X48260000Y42459970D01*
X47710849Y42350737D01*
X47245302Y42039668D01*
X46990000Y41657582D01*
X46734698Y42039668D01*
X46269151Y42350737D01*
X45720000Y42459970D01*
X45170849Y42350737D01*
X44705302Y42039668D01*
X44450000Y41657582D01*
X44194698Y42039668D01*
X43729151Y42350737D01*
X43180000Y42459970D01*
X42630849Y42350737D01*
X42165302Y42039668D01*
X41910000Y41657582D01*
X41654698Y42039668D01*
X41189151Y42350737D01*
X40640000Y42459970D01*
X40090849Y42350737D01*
X39625302Y42039668D01*
X39538660Y41910000D01*
X39201340Y41910000D01*
X39114698Y42039668D01*
X38649151Y42350737D01*
X38100000Y42459970D01*
X37550849Y42350737D01*
X37085302Y42039668D01*
X36832851Y41661849D01*
X36484896Y42094500D01*
X35991819Y42364367D01*
X35909039Y42381904D01*
X35687000Y42259915D01*
X35687000Y40767000D01*
X35707000Y40767000D01*
X35707000Y40513000D01*
X35687000Y40513000D01*
X35687000Y40493000D01*
X35433000Y40493000D01*
X35433000Y40513000D01*
X35413000Y40513000D01*
X35413000Y40767000D01*
X35433000Y40767000D01*
X35433000Y42259915D01*
X35210961Y42381904D01*
X35128181Y42364367D01*
X34635104Y42094500D01*
X34287149Y41661849D01*
X34034698Y42039668D01*
X33569151Y42350737D01*
X33020000Y42459970D01*
X32470849Y42350737D01*
X32005302Y42039668D01*
X31750000Y41657582D01*
X31494698Y42039668D01*
X31029151Y42350737D01*
X30480000Y42459970D01*
X29930849Y42350737D01*
X29465302Y42039668D01*
X29210000Y41657582D01*
X28954698Y42039668D01*
X28489151Y42350737D01*
X27940000Y42459970D01*
X27390849Y42350737D01*
X26925302Y42039668D01*
X26670000Y41657582D01*
X26414698Y42039668D01*
X25949151Y42350737D01*
X25400000Y42459970D01*
X24850849Y42350737D01*
X24385302Y42039668D01*
X24130000Y41657582D01*
X23874698Y42039668D01*
X23409151Y42350737D01*
X22860000Y42459970D01*
X22310849Y42350737D01*
X21845302Y42039668D01*
X21590000Y41657582D01*
X21334698Y42039668D01*
X20869151Y42350737D01*
X20320000Y42459970D01*
X19770849Y42350737D01*
X19305302Y42039668D01*
X18994233Y41574121D01*
X18885000Y41024970D01*
X18885000Y40255030D01*
X18994233Y39705879D01*
X19305302Y39240332D01*
X19770849Y38929263D01*
X20320000Y38820030D01*
X20869151Y38929263D01*
X21334698Y39240332D01*
X21590000Y39622418D01*
X21845302Y39240332D01*
X22310849Y38929263D01*
X22860000Y38820030D01*
X23409151Y38929263D01*
X23874698Y39240332D01*
X24130000Y39622418D01*
X24385302Y39240332D01*
X24850849Y38929263D01*
X25400000Y38820030D01*
X25949151Y38929263D01*
X26414698Y39240332D01*
X26670000Y39622418D01*
X26925302Y39240332D01*
X27390849Y38929263D01*
X27940000Y38820030D01*
X28489151Y38929263D01*
X28954698Y39240332D01*
X29210000Y39622418D01*
X29465302Y39240332D01*
X29930849Y38929263D01*
X30480000Y38820030D01*
X31029151Y38929263D01*
X31494698Y39240332D01*
X31750000Y39622418D01*
X32005302Y39240332D01*
X32470849Y38929263D01*
X33020000Y38820030D01*
X33569151Y38929263D01*
X34034698Y39240332D01*
X34287149Y39618151D01*
X34635104Y39185500D01*
X34999830Y38985881D01*
X32723948Y36710000D01*
X18310005Y36710000D01*
X18310000Y36710001D01*
X17823992Y36613327D01*
X17411974Y36338026D01*
X17411972Y36338023D01*
X16633948Y35560000D01*
X16025503Y35560000D01*
X15890000Y35587440D01*
X14590000Y35587440D01*
X14354683Y35543162D01*
X14138559Y35404090D01*
X13993569Y35191890D01*
X13942560Y34940000D01*
X8125460Y34940000D01*
X8125460Y35277370D01*
X8028787Y35510759D01*
X7850158Y35689387D01*
X7818500Y35702500D01*
X10490200Y35702500D01*
X10725517Y35746778D01*
X10941641Y35885850D01*
X11086631Y36098050D01*
X11137640Y36349940D01*
X11137640Y38390984D01*
X14520590Y38390984D01*
X14576271Y38160389D01*
X15059078Y37992378D01*
X15569428Y38021917D01*
X15903729Y38160389D01*
X15959410Y38390984D01*
X15240000Y39110395D01*
X14520590Y38390984D01*
X11137640Y38390984D01*
X11137640Y39470922D01*
X13942378Y39470922D01*
X13971917Y38960572D01*
X14110389Y38626271D01*
X14340984Y38570590D01*
X15060395Y39290000D01*
X15419605Y39290000D01*
X16139016Y38570590D01*
X16369611Y38626271D01*
X16537622Y39109078D01*
X16508083Y39619428D01*
X16369611Y39953729D01*
X16139016Y40009410D01*
X15419605Y39290000D01*
X15060395Y39290000D01*
X14340984Y40009410D01*
X14110389Y39953729D01*
X13942378Y39470922D01*
X11137640Y39470922D01*
X11137640Y39850060D01*
X11093362Y40085377D01*
X11026673Y40189016D01*
X14520590Y40189016D01*
X15240000Y39469605D01*
X15959410Y40189016D01*
X15903729Y40419611D01*
X15420922Y40587622D01*
X14910572Y40558083D01*
X14576271Y40419611D01*
X14520590Y40189016D01*
X11026673Y40189016D01*
X10954290Y40301501D01*
X10742090Y40446491D01*
X10490200Y40497500D01*
X6990080Y40497500D01*
X6754763Y40453222D01*
X6538639Y40314150D01*
X6393649Y40101950D01*
X6342640Y39850060D01*
X6342640Y36349940D01*
X6386918Y36114623D01*
X6525990Y35898499D01*
X6690550Y35786060D01*
X6026150Y35786060D01*
X5867400Y35627310D01*
X5613400Y35627310D01*
X5454650Y35786060D01*
X4788728Y35786060D01*
X4850418Y35811613D01*
X5029047Y35990241D01*
X5125720Y36223630D01*
X5125720Y37814250D01*
X4966970Y37973000D01*
X2867660Y37973000D01*
X2613660Y37973000D01*
X2593660Y37973000D01*
X2593660Y38227000D01*
X2613660Y38227000D01*
X2613660Y40326310D01*
X2867660Y40326310D01*
X2867660Y38227000D01*
X4966970Y38227000D01*
X5125720Y38385750D01*
X5125720Y39976370D01*
X5029047Y40209759D01*
X4850418Y40388387D01*
X4617029Y40485060D01*
X3026410Y40485060D01*
X2867660Y40326310D01*
X2613660Y40326310D01*
X2454910Y40485060D01*
X864291Y40485060D01*
X710000Y40421151D01*
X710000Y44820984D01*
X10790590Y44820984D01*
X10846271Y44590389D01*
X11329078Y44422378D01*
X11839428Y44451917D01*
X12173729Y44590389D01*
X12229410Y44820984D01*
X11510000Y45540395D01*
X10790590Y44820984D01*
X710000Y44820984D01*
X710000Y45900922D01*
X10212378Y45900922D01*
X10241917Y45390572D01*
X10380389Y45056271D01*
X10610984Y45000590D01*
X11330395Y45720000D01*
X10610984Y46439410D01*
X10380389Y46383729D01*
X10212378Y45900922D01*
X710000Y45900922D01*
X710000Y46619016D01*
X10790590Y46619016D01*
X11510000Y45899605D01*
X11524142Y45913748D01*
X11703748Y45734142D01*
X11689605Y45720000D01*
X12409016Y45000590D01*
X12639611Y45056271D01*
X12807622Y45539078D01*
X12797347Y45716601D01*
X13691972Y44821977D01*
X13691974Y44821974D01*
X14038566Y44590389D01*
X14103992Y44546673D01*
X14590000Y44449999D01*
X14590005Y44450000D01*
X15724497Y44450000D01*
X15860000Y44422560D01*
X17160000Y44422560D01*
X17395317Y44466838D01*
X17611441Y44605910D01*
X17756431Y44818110D01*
X17778993Y44929523D01*
X17796838Y44834683D01*
X17935910Y44618559D01*
X18148110Y44473569D01*
X18400000Y44422560D01*
X19700000Y44422560D01*
X19935317Y44466838D01*
X20151441Y44605910D01*
X20296431Y44818110D01*
X20297012Y44820984D01*
X23330590Y44820984D01*
X23386271Y44590389D01*
X23869078Y44422378D01*
X24379428Y44451917D01*
X24713729Y44590389D01*
X24769410Y44820984D01*
X24050000Y45540395D01*
X23330590Y44820984D01*
X20297012Y44820984D01*
X20347440Y45070000D01*
X20347440Y45900922D01*
X22752378Y45900922D01*
X22781917Y45390572D01*
X22920389Y45056271D01*
X23150984Y45000590D01*
X23870395Y45720000D01*
X24229605Y45720000D01*
X24949016Y45000590D01*
X25179611Y45056271D01*
X25347622Y45539078D01*
X25318083Y46049428D01*
X25179611Y46383729D01*
X24949016Y46439410D01*
X24229605Y45720000D01*
X23870395Y45720000D01*
X23150984Y46439410D01*
X22920389Y46383729D01*
X22752378Y45900922D01*
X20347440Y45900922D01*
X20347440Y46370000D01*
X20303162Y46605317D01*
X20294590Y46618638D01*
X20294515Y46619016D01*
X23330590Y46619016D01*
X24050000Y45899605D01*
X24769410Y46619016D01*
X24713729Y46849611D01*
X24230922Y47017622D01*
X23720572Y46988083D01*
X23386271Y46849611D01*
X23330590Y46619016D01*
X20294515Y46619016D01*
X20223327Y46976898D01*
X19980370Y47340509D01*
X19980370Y47340510D01*
X25100505Y47340510D01*
X25100510Y47340509D01*
X25586518Y47437183D01*
X25998536Y47712484D01*
X26546051Y48260000D01*
X27154497Y48260000D01*
X27290000Y48232560D01*
X28590000Y48232560D01*
X28825317Y48276838D01*
X29041441Y48415910D01*
X29186431Y48628110D01*
X29237440Y48880000D01*
X29237440Y50180000D01*
X29193162Y50415317D01*
X29054090Y50631441D01*
X28841890Y50776431D01*
X28590000Y50827440D01*
X27290000Y50827440D01*
X27144169Y50800000D01*
X26020000Y50800000D01*
X25533992Y50703327D01*
X25121974Y50428026D01*
X25121972Y50428023D01*
X24574458Y49880510D01*
X21618739Y49880510D01*
X21705570Y50173890D01*
X21705570Y50673000D01*
X20447000Y50673000D01*
X20447000Y50653000D01*
X20193000Y50653000D01*
X20193000Y50673000D01*
X20173000Y50673000D01*
X20173000Y50927000D01*
X20193000Y50927000D01*
X20193000Y52519339D01*
X20447000Y52519339D01*
X20447000Y50927000D01*
X21705570Y50927000D01*
X21705570Y51426110D01*
X21635281Y51663600D01*
X30238960Y51663600D01*
X30238960Y49936400D01*
X30283238Y49701083D01*
X30422310Y49484959D01*
X30634510Y49339969D01*
X30886400Y49288960D01*
X32613600Y49288960D01*
X32848917Y49333238D01*
X33065041Y49472310D01*
X33210031Y49684510D01*
X33218864Y49728131D01*
X33230330Y49710971D01*
X33716511Y49386115D01*
X34290000Y49272041D01*
X34863489Y49386115D01*
X35349670Y49710971D01*
X35560000Y50025752D01*
X35770330Y49710971D01*
X36256511Y49386115D01*
X36830000Y49272041D01*
X37403489Y49386115D01*
X37889670Y49710971D01*
X38100000Y50025752D01*
X38310330Y49710971D01*
X38796511Y49386115D01*
X39370000Y49272041D01*
X39943489Y49386115D01*
X40429670Y49710971D01*
X40754526Y50197152D01*
X40868600Y50770641D01*
X40868600Y50829359D01*
X40754526Y51402848D01*
X40429670Y51889029D01*
X40158828Y52070000D01*
X40429670Y52250971D01*
X40754526Y52737152D01*
X40868600Y53310641D01*
X40868600Y53369359D01*
X40754526Y53942848D01*
X40429670Y54429029D01*
X39943489Y54753885D01*
X39370000Y54867959D01*
X38796511Y54753885D01*
X38310330Y54429029D01*
X38100000Y54114248D01*
X37889670Y54429029D01*
X37403489Y54753885D01*
X36830000Y54867959D01*
X36256511Y54753885D01*
X35770330Y54429029D01*
X35560000Y54114248D01*
X35349670Y54429029D01*
X34863489Y54753885D01*
X34290000Y54867959D01*
X33716511Y54753885D01*
X33230330Y54429029D01*
X33014336Y54105772D01*
X32956821Y54228490D01*
X32524947Y54622688D01*
X32109026Y54794958D01*
X31877000Y54673817D01*
X31877000Y53467000D01*
X31897000Y53467000D01*
X31897000Y53213000D01*
X31877000Y53213000D01*
X31877000Y53193000D01*
X31623000Y53193000D01*
X31623000Y53213000D01*
X30415531Y53213000D01*
X30295032Y52980973D01*
X30543179Y52451510D01*
X30729433Y52281505D01*
X30651083Y52266762D01*
X30434959Y52127690D01*
X30289969Y51915490D01*
X30238960Y51663600D01*
X21635281Y51663600D01*
X21551499Y51946677D01*
X21209944Y52368658D01*
X20732903Y52627810D01*
X20661275Y52641993D01*
X20447000Y52519339D01*
X20193000Y52519339D01*
X19978725Y52641993D01*
X19907097Y52627810D01*
X19430056Y52368658D01*
X19088501Y51946677D01*
X19061950Y51856968D01*
X19060100Y51866268D01*
X18759746Y52315779D01*
X18310235Y52616133D01*
X18246314Y52628848D01*
X17244178Y53630984D01*
X27220590Y53630984D01*
X27276271Y53400389D01*
X27759078Y53232378D01*
X28269428Y53261917D01*
X28603729Y53400389D01*
X28659410Y53630984D01*
X28591368Y53699027D01*
X30295032Y53699027D01*
X30415531Y53467000D01*
X31623000Y53467000D01*
X31623000Y54673817D01*
X31390974Y54794958D01*
X30975053Y54622688D01*
X30543179Y54228490D01*
X30295032Y53699027D01*
X28591368Y53699027D01*
X27940000Y54350395D01*
X27220590Y53630984D01*
X17244178Y53630984D01*
X16987646Y53887516D01*
X16575628Y54162817D01*
X16089620Y54259491D01*
X16089615Y54259490D01*
X14539822Y54259490D01*
X14053814Y54162817D01*
X13641796Y53887516D01*
X12651594Y52897314D01*
X12376293Y52485296D01*
X12279619Y51999288D01*
X12279620Y51999283D01*
X12279620Y46760385D01*
X12279619Y46760380D01*
X12294742Y46684350D01*
X12229410Y46619018D01*
X12173729Y46849611D01*
X11690922Y47017622D01*
X11180572Y46988083D01*
X10846271Y46849611D01*
X10790590Y46619016D01*
X710000Y46619016D01*
X710000Y54710922D01*
X26642378Y54710922D01*
X26671917Y54200572D01*
X26810389Y53866271D01*
X27040984Y53810590D01*
X27760395Y54530000D01*
X28119605Y54530000D01*
X28839016Y53810590D01*
X29069611Y53866271D01*
X29237622Y54349078D01*
X29208083Y54859428D01*
X29069611Y55193729D01*
X28839016Y55249410D01*
X28119605Y54530000D01*
X27760395Y54530000D01*
X27040984Y55249410D01*
X26810389Y55193729D01*
X26642378Y54710922D01*
X710000Y54710922D01*
X710000Y55429016D01*
X27220590Y55429016D01*
X27940000Y54709605D01*
X28659410Y55429016D01*
X28603729Y55659611D01*
X28120922Y55827622D01*
X27610572Y55798083D01*
X27276271Y55659611D01*
X27220590Y55429016D01*
X710000Y55429016D01*
X710000Y60250000D01*
X62790000Y60250000D01*
X62790000Y710000D01*
X62790000Y710000D01*
G37*
X62790000Y710000D02*
X710000Y710000D01*
X710000Y4760000D01*
X3432560Y4760000D01*
X3432560Y2860000D01*
X3476838Y2624683D01*
X3615910Y2408559D01*
X3828110Y2263569D01*
X4080000Y2212560D01*
X6080000Y2212560D01*
X6315317Y2256838D01*
X6531441Y2395910D01*
X6676431Y2608110D01*
X6727440Y2860000D01*
X6727440Y4760000D01*
X11052560Y4760000D01*
X11052560Y2860000D01*
X11096838Y2624683D01*
X11235910Y2408559D01*
X11448110Y2263569D01*
X11700000Y2212560D01*
X13700000Y2212560D01*
X13935317Y2256838D01*
X14151441Y2395910D01*
X14296431Y2608110D01*
X14347440Y2860000D01*
X14347440Y4760000D01*
X18672560Y4760000D01*
X18672560Y2860000D01*
X18716838Y2624683D01*
X18855910Y2408559D01*
X19068110Y2263569D01*
X19320000Y2212560D01*
X21320000Y2212560D01*
X21555317Y2256838D01*
X21771441Y2395910D01*
X21916431Y2608110D01*
X21967440Y2860000D01*
X21967440Y4760000D01*
X26292560Y4760000D01*
X26292560Y2860000D01*
X26336838Y2624683D01*
X26475910Y2408559D01*
X26688110Y2263569D01*
X26940000Y2212560D01*
X28940000Y2212560D01*
X29175317Y2256838D01*
X29391441Y2395910D01*
X29536431Y2608110D01*
X29587440Y2860000D01*
X29587440Y4760000D01*
X33912560Y4760000D01*
X33912560Y2860000D01*
X33956838Y2624683D01*
X34095910Y2408559D01*
X34308110Y2263569D01*
X34560000Y2212560D01*
X36560000Y2212560D01*
X36795317Y2256838D01*
X37011441Y2395910D01*
X37156431Y2608110D01*
X37207440Y2860000D01*
X37207440Y4760000D01*
X37163162Y4995317D01*
X37024090Y5211441D01*
X36811890Y5356431D01*
X36808808Y5357055D01*
X36902914Y5450997D01*
X37144724Y6033341D01*
X37145275Y6663893D01*
X36904481Y7246657D01*
X36459003Y7692914D01*
X35876659Y7934724D01*
X35246107Y7935275D01*
X34663343Y7694481D01*
X34217086Y7249003D01*
X33975276Y6666659D01*
X33974725Y6036107D01*
X34215519Y5453343D01*
X34313029Y5355663D01*
X34108559Y5224090D01*
X33963569Y5011890D01*
X33912560Y4760000D01*
X29587440Y4760000D01*
X29543162Y4995317D01*
X29404090Y5211441D01*
X29191890Y5356431D01*
X29188808Y5357055D01*
X29282914Y5450997D01*
X29524724Y6033341D01*
X29525275Y6663893D01*
X29284481Y7246657D01*
X28839003Y7692914D01*
X28256659Y7934724D01*
X27626107Y7935275D01*
X27043343Y7694481D01*
X26597086Y7249003D01*
X26355276Y6666659D01*
X26354725Y6036107D01*
X26595519Y5453343D01*
X26693029Y5355663D01*
X26488559Y5224090D01*
X26343569Y5011890D01*
X26292560Y4760000D01*
X21967440Y4760000D01*
X21923162Y4995317D01*
X21784090Y5211441D01*
X21571890Y5356431D01*
X21568808Y5357055D01*
X21662914Y5450997D01*
X21904724Y6033341D01*
X21905275Y6663893D01*
X21664481Y7246657D01*
X21219003Y7692914D01*
X20636659Y7934724D01*
X20006107Y7935275D01*
X19423343Y7694481D01*
X18977086Y7249003D01*
X18735276Y6666659D01*
X18734725Y6036107D01*
X18975519Y5453343D01*
X19073029Y5355663D01*
X18868559Y5224090D01*
X18723569Y5011890D01*
X18672560Y4760000D01*
X14347440Y4760000D01*
X14303162Y4995317D01*
X14164090Y5211441D01*
X13951890Y5356431D01*
X13948808Y5357055D01*
X14042914Y5450997D01*
X14284724Y6033341D01*
X14285275Y6663893D01*
X14044481Y7246657D01*
X13599003Y7692914D01*
X13016659Y7934724D01*
X12386107Y7935275D01*
X11803343Y7694481D01*
X11357086Y7249003D01*
X11115276Y6666659D01*
X11114725Y6036107D01*
X11355519Y5453343D01*
X11453029Y5355663D01*
X11248559Y5224090D01*
X11103569Y5011890D01*
X11052560Y4760000D01*
X6727440Y4760000D01*
X6683162Y4995317D01*
X6544090Y5211441D01*
X6331890Y5356431D01*
X6328808Y5357055D01*
X6422914Y5450997D01*
X6664724Y6033341D01*
X6665275Y6663893D01*
X6424481Y7246657D01*
X5979003Y7692914D01*
X5396659Y7934724D01*
X4766107Y7935275D01*
X4183343Y7694481D01*
X3737086Y7249003D01*
X3495276Y6666659D01*
X3494725Y6036107D01*
X3735519Y5453343D01*
X3833029Y5355663D01*
X3628559Y5224090D01*
X3483569Y5011890D01*
X3432560Y4760000D01*
X710000Y4760000D01*
X710000Y11106306D01*
X3445226Y11106306D01*
X3693538Y10505345D01*
X4152927Y10045154D01*
X4753453Y9795794D01*
X5403694Y9795226D01*
X6004655Y10043538D01*
X6464846Y10502927D01*
X6714206Y11103453D01*
X6714208Y11106306D01*
X11065226Y11106306D01*
X11313538Y10505345D01*
X11772927Y10045154D01*
X12373453Y9795794D01*
X13023694Y9795226D01*
X13624655Y10043538D01*
X14084846Y10502927D01*
X14334206Y11103453D01*
X14334208Y11106306D01*
X18685226Y11106306D01*
X18933538Y10505345D01*
X19392927Y10045154D01*
X19993453Y9795794D01*
X20643694Y9795226D01*
X21244655Y10043538D01*
X21704846Y10502927D01*
X21954206Y11103453D01*
X21954208Y11106306D01*
X26305226Y11106306D01*
X26553538Y10505345D01*
X27012927Y10045154D01*
X27613453Y9795794D01*
X28263694Y9795226D01*
X28864655Y10043538D01*
X29324846Y10502927D01*
X29574206Y11103453D01*
X29574208Y11106306D01*
X33925226Y11106306D01*
X34173538Y10505345D01*
X34632927Y10045154D01*
X35233453Y9795794D01*
X35883694Y9795226D01*
X36484655Y10043538D01*
X36944846Y10502927D01*
X37194206Y11103453D01*
X37194774Y11753694D01*
X36946462Y12354655D01*
X36487073Y12814846D01*
X35886547Y13064206D01*
X35236306Y13064774D01*
X34635345Y12816462D01*
X34175154Y12357073D01*
X33925794Y11756547D01*
X33925226Y11106306D01*
X29574208Y11106306D01*
X29574774Y11753694D01*
X29326462Y12354655D01*
X28867073Y12814846D01*
X28266547Y13064206D01*
X27616306Y13064774D01*
X27015345Y12816462D01*
X26555154Y12357073D01*
X26305794Y11756547D01*
X26305226Y11106306D01*
X21954208Y11106306D01*
X21954774Y11753694D01*
X21706462Y12354655D01*
X21247073Y12814846D01*
X20646547Y13064206D01*
X19996306Y13064774D01*
X19395345Y12816462D01*
X18935154Y12357073D01*
X18685794Y11756547D01*
X18685226Y11106306D01*
X14334208Y11106306D01*
X14334774Y11753694D01*
X14086462Y12354655D01*
X13627073Y12814846D01*
X13026547Y13064206D01*
X12376306Y13064774D01*
X11775345Y12816462D01*
X11315154Y12357073D01*
X11065794Y11756547D01*
X11065226Y11106306D01*
X6714208Y11106306D01*
X6714774Y11753694D01*
X6466462Y12354655D01*
X6007073Y12814846D01*
X5406547Y13064206D01*
X4756306Y13064774D01*
X4155345Y12816462D01*
X3695154Y12357073D01*
X3445794Y11756547D01*
X3445226Y11106306D01*
X710000Y11106306D01*
X710000Y25277837D01*
X4107443Y25277837D01*
X4206042Y25011035D01*
X4815582Y24784599D01*
X5465377Y24808659D01*
X5953958Y25011035D01*
X6052557Y25277837D01*
X11727443Y25277837D01*
X11826042Y25011035D01*
X12435582Y24784599D01*
X13085377Y24808659D01*
X13573958Y25011035D01*
X13672557Y25277837D01*
X19347443Y25277837D01*
X19446042Y25011035D01*
X20055582Y24784599D01*
X20705377Y24808659D01*
X21193958Y25011035D01*
X21292557Y25277837D01*
X26967443Y25277837D01*
X27066042Y25011035D01*
X27675582Y24784599D01*
X28325377Y24808659D01*
X28813958Y25011035D01*
X28912557Y25277837D01*
X34587443Y25277837D01*
X34686042Y25011035D01*
X35295582Y24784599D01*
X35945377Y24808659D01*
X36433958Y25011035D01*
X36532557Y25277837D01*
X42207443Y25277837D01*
X42306042Y25011035D01*
X42915582Y24784599D01*
X43565377Y24808659D01*
X44053958Y25011035D01*
X44152557Y25277837D01*
X43180000Y26250395D01*
X42207443Y25277837D01*
X36532557Y25277837D01*
X35560000Y26250395D01*
X34587443Y25277837D01*
X28912557Y25277837D01*
X27940000Y26250395D01*
X26967443Y25277837D01*
X21292557Y25277837D01*
X20320000Y26250395D01*
X19347443Y25277837D01*
X13672557Y25277837D01*
X12700000Y26250395D01*
X11727443Y25277837D01*
X6052557Y25277837D01*
X5080000Y26250395D01*
X4107443Y25277837D01*
X710000Y25277837D01*
X710000Y26694418D01*
X3434599Y26694418D01*
X3458659Y26044623D01*
X3661035Y25556042D01*
X3927837Y25457443D01*
X4900395Y26430000D01*
X5259605Y26430000D01*
X6232163Y25457443D01*
X6498965Y25556042D01*
X6725401Y26165582D01*
X6705820Y26694418D01*
X11054599Y26694418D01*
X11078659Y26044623D01*
X11281035Y25556042D01*
X11547837Y25457443D01*
X12520395Y26430000D01*
X12879605Y26430000D01*
X13852163Y25457443D01*
X14118965Y25556042D01*
X14345401Y26165582D01*
X14325820Y26694418D01*
X18674599Y26694418D01*
X18698659Y26044623D01*
X18901035Y25556042D01*
X19167837Y25457443D01*
X20140395Y26430000D01*
X20499605Y26430000D01*
X21472163Y25457443D01*
X21738965Y25556042D01*
X21965401Y26165582D01*
X21945820Y26694418D01*
X26294599Y26694418D01*
X26318659Y26044623D01*
X26521035Y25556042D01*
X26787837Y25457443D01*
X27760395Y26430000D01*
X28119605Y26430000D01*
X29092163Y25457443D01*
X29358965Y25556042D01*
X29585401Y26165582D01*
X29565820Y26694418D01*
X33914599Y26694418D01*
X33938659Y26044623D01*
X34141035Y25556042D01*
X34407837Y25457443D01*
X35380395Y26430000D01*
X35739605Y26430000D01*
X36712163Y25457443D01*
X36978965Y25556042D01*
X37205401Y26165582D01*
X37185820Y26694418D01*
X41534599Y26694418D01*
X41558659Y26044623D01*
X41761035Y25556042D01*
X42027837Y25457443D01*
X43000395Y26430000D01*
X42027837Y27402557D01*
X41761035Y27303958D01*
X41534599Y26694418D01*
X37185820Y26694418D01*
X37181341Y26815377D01*
X36978965Y27303958D01*
X36712163Y27402557D01*
X35739605Y26430000D01*
X35380395Y26430000D01*
X34407837Y27402557D01*
X34141035Y27303958D01*
X33914599Y26694418D01*
X29565820Y26694418D01*
X29561341Y26815377D01*
X29358965Y27303958D01*
X29092163Y27402557D01*
X28119605Y26430000D01*
X27760395Y26430000D01*
X26787837Y27402557D01*
X26521035Y27303958D01*
X26294599Y26694418D01*
X21945820Y26694418D01*
X21941341Y26815377D01*
X21738965Y27303958D01*
X21472163Y27402557D01*
X20499605Y26430000D01*
X20140395Y26430000D01*
X19167837Y27402557D01*
X18901035Y27303958D01*
X18674599Y26694418D01*
X14325820Y26694418D01*
X14321341Y26815377D01*
X14118965Y27303958D01*
X13852163Y27402557D01*
X12879605Y26430000D01*
X12520395Y26430000D01*
X11547837Y27402557D01*
X11281035Y27303958D01*
X11054599Y26694418D01*
X6705820Y26694418D01*
X6701341Y26815377D01*
X6498965Y27303958D01*
X6232163Y27402557D01*
X5259605Y26430000D01*
X4900395Y26430000D01*
X3927837Y27402557D01*
X3661035Y27303958D01*
X3434599Y26694418D01*
X710000Y26694418D01*
X710000Y27582163D01*
X4107443Y27582163D01*
X5080000Y26609605D01*
X6052557Y27582163D01*
X11727443Y27582163D01*
X12700000Y26609605D01*
X13672557Y27582163D01*
X19347443Y27582163D01*
X20320000Y26609605D01*
X21292557Y27582163D01*
X26967443Y27582163D01*
X27940000Y26609605D01*
X28912557Y27582163D01*
X34587443Y27582163D01*
X35560000Y26609605D01*
X36532557Y27582163D01*
X42207443Y27582163D01*
X43180000Y26609605D01*
X44152557Y27582163D01*
X44053958Y27848965D01*
X43444418Y28075401D01*
X42794623Y28051341D01*
X42306042Y27848965D01*
X42207443Y27582163D01*
X36532557Y27582163D01*
X36433958Y27848965D01*
X35824418Y28075401D01*
X35174623Y28051341D01*
X34686042Y27848965D01*
X34587443Y27582163D01*
X28912557Y27582163D01*
X28813958Y27848965D01*
X28204418Y28075401D01*
X27554623Y28051341D01*
X27066042Y27848965D01*
X26967443Y27582163D01*
X21292557Y27582163D01*
X21193958Y27848965D01*
X20584418Y28075401D01*
X19934623Y28051341D01*
X19446042Y27848965D01*
X19347443Y27582163D01*
X13672557Y27582163D01*
X13573958Y27848965D01*
X12964418Y28075401D01*
X12314623Y28051341D01*
X11826042Y27848965D01*
X11727443Y27582163D01*
X6052557Y27582163D01*
X5953958Y27848965D01*
X5344418Y28075401D01*
X4694623Y28051341D01*
X4206042Y27848965D01*
X4107443Y27582163D01*
X710000Y27582163D01*
X710000Y33115250D01*
X3355340Y33115250D01*
X3355340Y31524630D01*
X3452013Y31291241D01*
X3630642Y31112613D01*
X3864031Y31015940D01*
X5454650Y31015940D01*
X5613400Y31174690D01*
X5613400Y33274000D01*
X5867400Y33274000D01*
X5867400Y31174690D01*
X6026150Y31015940D01*
X7616769Y31015940D01*
X7850158Y31112613D01*
X8028787Y31291241D01*
X8125460Y31524630D01*
X8125460Y33115250D01*
X7966710Y33274000D01*
X5867400Y33274000D01*
X5613400Y33274000D01*
X3514090Y33274000D01*
X3355340Y33115250D01*
X710000Y33115250D01*
X710000Y35778849D01*
X864291Y35714940D01*
X2454910Y35714940D01*
X2613660Y35873690D01*
X2613660Y37973000D01*
X2867660Y37973000D01*
X2867660Y35873690D01*
X3026410Y35714940D01*
X3692332Y35714940D01*
X3630642Y35689387D01*
X3452013Y35510759D01*
X3355340Y35277370D01*
X3355340Y33686750D01*
X3514090Y33528000D01*
X5613400Y33528000D01*
X5613400Y35627310D01*
X5867400Y35627310D01*
X5867400Y33528000D01*
X7966710Y33528000D01*
X8125460Y33686750D01*
X8125460Y34940000D01*
X13942560Y34940000D01*
X13942560Y33640000D01*
X13986838Y33404683D01*
X14125910Y33188559D01*
X14338110Y33043569D01*
X14590000Y32992560D01*
X15890000Y32992560D01*
X16035831Y33020000D01*
X17159995Y33020000D01*
X17160000Y33019999D01*
X17646008Y33116673D01*
X18058026Y33391974D01*
X18836051Y34170000D01*
X19138479Y34170000D01*
X18994233Y33954121D01*
X18885000Y33404970D01*
X18885000Y32635030D01*
X18994233Y32085879D01*
X19305302Y31620332D01*
X19770849Y31309263D01*
X20320000Y31200030D01*
X20869151Y31309263D01*
X21334698Y31620332D01*
X21590000Y32002418D01*
X21845302Y31620332D01*
X22310849Y31309263D01*
X22860000Y31200030D01*
X23409151Y31309263D01*
X23874698Y31620332D01*
X24130000Y32002418D01*
X24385302Y31620332D01*
X24850849Y31309263D01*
X25400000Y31200030D01*
X25949151Y31309263D01*
X26414698Y31620332D01*
X26670000Y32002418D01*
X26925302Y31620332D01*
X27390849Y31309263D01*
X27940000Y31200030D01*
X28489151Y31309263D01*
X28954698Y31620332D01*
X29210000Y32002418D01*
X29465302Y31620332D01*
X29930849Y31309263D01*
X30480000Y31200030D01*
X31029151Y31309263D01*
X31494698Y31620332D01*
X31750000Y32002418D01*
X32005302Y31620332D01*
X32470849Y31309263D01*
X33020000Y31200030D01*
X33569151Y31309263D01*
X34034698Y31620332D01*
X34290000Y32002418D01*
X34545302Y31620332D01*
X35010849Y31309263D01*
X35560000Y31200030D01*
X36109151Y31309263D01*
X36574698Y31620332D01*
X36827149Y31998151D01*
X37175104Y31565500D01*
X37668181Y31295633D01*
X37750961Y31278096D01*
X37973000Y31400085D01*
X37973000Y32893000D01*
X37953000Y32893000D01*
X37953000Y33147000D01*
X37973000Y33147000D01*
X37973000Y34639915D01*
X38227000Y34639915D01*
X38227000Y33147000D01*
X38247000Y33147000D01*
X38247000Y32893000D01*
X38227000Y32893000D01*
X38227000Y31400085D01*
X38449039Y31278096D01*
X38531819Y31295633D01*
X39024896Y31565500D01*
X39372851Y31998151D01*
X39625302Y31620332D01*
X40090849Y31309263D01*
X40640000Y31200030D01*
X41189151Y31309263D01*
X41654698Y31620332D01*
X41910000Y32002418D01*
X42165302Y31620332D01*
X42630849Y31309263D01*
X43180000Y31200030D01*
X43729151Y31309263D01*
X44194698Y31620332D01*
X44450000Y32002418D01*
X44450000Y27359009D01*
X44332163Y27402557D01*
X43359605Y26430000D01*
X44332163Y25457443D01*
X44450000Y25500991D01*
X44450000Y12471320D01*
X44107073Y12814846D01*
X43506547Y13064206D01*
X42856306Y13064774D01*
X42255345Y12816462D01*
X41795154Y12357073D01*
X41545794Y11756547D01*
X41545226Y11106306D01*
X41793538Y10505345D01*
X42252927Y10045154D01*
X42853453Y9795794D01*
X43503694Y9795226D01*
X44104655Y10043538D01*
X44450000Y10388281D01*
X44450000Y7321268D01*
X44079003Y7692914D01*
X43496659Y7934724D01*
X42866107Y7935275D01*
X42283343Y7694481D01*
X41837086Y7249003D01*
X41595276Y6666659D01*
X41594725Y6036107D01*
X41835519Y5453343D01*
X41933029Y5355663D01*
X41728559Y5224090D01*
X41583569Y5011890D01*
X41532560Y4760000D01*
X41532560Y2860000D01*
X41576838Y2624683D01*
X41715910Y2408559D01*
X41928110Y2263569D01*
X42180000Y2212560D01*
X44180000Y2212560D01*
X44415317Y2256838D01*
X44631441Y2395910D01*
X44773917Y2604431D01*
X44936008Y2636673D01*
X45348026Y2911974D01*
X46618023Y4181972D01*
X46618026Y4181974D01*
X46893327Y4593992D01*
X46990000Y5079997D01*
X47086673Y4593992D01*
X47361974Y4181974D01*
X48631972Y2911977D01*
X48631974Y2911974D01*
X49043992Y2636673D01*
X49210426Y2603567D01*
X49335910Y2408559D01*
X49548110Y2263569D01*
X49800000Y2212560D01*
X51800000Y2212560D01*
X52035317Y2256838D01*
X52251441Y2395910D01*
X52396431Y2608110D01*
X52447440Y2860000D01*
X52447440Y4760000D01*
X52403162Y4995317D01*
X52264090Y5211441D01*
X52051890Y5356431D01*
X52048808Y5357055D01*
X52142914Y5450997D01*
X52384724Y6033341D01*
X52385275Y6663893D01*
X52144481Y7246657D01*
X51699003Y7692914D01*
X51116659Y7934724D01*
X50486107Y7935275D01*
X49903343Y7694481D01*
X49530000Y7321790D01*
X49530000Y10388680D01*
X49872927Y10045154D01*
X50473453Y9795794D01*
X51123694Y9795226D01*
X51724655Y10043538D01*
X52184846Y10502927D01*
X52434206Y11103453D01*
X52434774Y11753694D01*
X52186462Y12354655D01*
X51727073Y12814846D01*
X51126547Y13064206D01*
X50476306Y13064774D01*
X49875345Y12816462D01*
X49530000Y12471719D01*
X49530000Y25277837D01*
X49827443Y25277837D01*
X49926042Y25011035D01*
X50535582Y24784599D01*
X51185377Y24808659D01*
X51673958Y25011035D01*
X51772557Y25277837D01*
X50800000Y26250395D01*
X49827443Y25277837D01*
X49530000Y25277837D01*
X49530000Y25500991D01*
X49647837Y25457443D01*
X50620395Y26430000D01*
X50979605Y26430000D01*
X51952163Y25457443D01*
X52218965Y25556042D01*
X52445401Y26165582D01*
X52421341Y26815377D01*
X52218965Y27303958D01*
X51952163Y27402557D01*
X50979605Y26430000D01*
X50620395Y26430000D01*
X49647837Y27402557D01*
X49530000Y27359009D01*
X49530000Y27582163D01*
X49827443Y27582163D01*
X50800000Y26609605D01*
X51772557Y27582163D01*
X51673958Y27848965D01*
X51064418Y28075401D01*
X50414623Y28051341D01*
X49926042Y27848965D01*
X49827443Y27582163D01*
X49530000Y27582163D01*
X49530000Y30599995D01*
X49626673Y30113992D01*
X49901974Y29701974D01*
X55210709Y24393240D01*
X55210709Y4479296D01*
X55210708Y4479291D01*
X55307382Y3993283D01*
X55582683Y3581265D01*
X56251972Y2911977D01*
X56251974Y2911974D01*
X56663992Y2636673D01*
X56830426Y2603567D01*
X56955910Y2408559D01*
X57168110Y2263569D01*
X57420000Y2212560D01*
X59420000Y2212560D01*
X59655317Y2256838D01*
X59871441Y2395910D01*
X60016431Y2608110D01*
X60067440Y2860000D01*
X60067440Y4760000D01*
X60023162Y4995317D01*
X59884090Y5211441D01*
X59671890Y5356431D01*
X59668808Y5357055D01*
X59762914Y5450997D01*
X60004724Y6033341D01*
X60005275Y6663893D01*
X59764481Y7246657D01*
X59319003Y7692914D01*
X58736659Y7934724D01*
X58106107Y7935275D01*
X57750709Y7788427D01*
X57750709Y9938114D01*
X58093453Y9795794D01*
X58743694Y9795226D01*
X59344655Y10043538D01*
X59804846Y10502927D01*
X60054206Y11103453D01*
X60054774Y11753694D01*
X59806462Y12354655D01*
X59347073Y12814846D01*
X58746547Y13064206D01*
X58096306Y13064774D01*
X57750709Y12921976D01*
X57750709Y24919286D01*
X57750710Y24919291D01*
X57747335Y24936257D01*
X58155582Y24784599D01*
X58805377Y24808659D01*
X59293958Y25011035D01*
X59392557Y25277837D01*
X58420000Y26250395D01*
X58405858Y26236252D01*
X58226252Y26415858D01*
X58240395Y26430000D01*
X58599605Y26430000D01*
X59572163Y25457443D01*
X59838965Y25556042D01*
X60065401Y26165582D01*
X60041341Y26815377D01*
X59838965Y27303958D01*
X59572163Y27402557D01*
X58599605Y26430000D01*
X58240395Y26430000D01*
X57267837Y27402557D01*
X57001035Y27303958D01*
X56774599Y26694418D01*
X56785095Y26410956D01*
X55613889Y27582163D01*
X57447443Y27582163D01*
X58420000Y26609605D01*
X59392557Y27582163D01*
X59293958Y27848965D01*
X58684418Y28075401D01*
X58034623Y28051341D01*
X57546042Y27848965D01*
X57447443Y27582163D01*
X55613889Y27582163D01*
X52070000Y31126052D01*
X52070000Y32002418D01*
X52325302Y31620332D01*
X52790849Y31309263D01*
X53340000Y31200030D01*
X53889151Y31309263D01*
X54354698Y31620332D01*
X54665767Y32085879D01*
X54775000Y32635030D01*
X54775000Y33404970D01*
X54665767Y33954121D01*
X54354698Y34419668D01*
X53889151Y34730737D01*
X53340000Y34839970D01*
X52790849Y34730737D01*
X52325302Y34419668D01*
X52070000Y34037582D01*
X51814698Y34419668D01*
X51349151Y34730737D01*
X50800000Y34839970D01*
X50250849Y34730737D01*
X49785302Y34419668D01*
X49530000Y34037582D01*
X49274698Y34419668D01*
X48809151Y34730737D01*
X48260000Y34839970D01*
X47710849Y34730737D01*
X47245302Y34419668D01*
X46990000Y34037582D01*
X46734698Y34419668D01*
X46269151Y34730737D01*
X45720000Y34839970D01*
X45170849Y34730737D01*
X44705302Y34419668D01*
X44450000Y34037582D01*
X44194698Y34419668D01*
X43729151Y34730737D01*
X43180000Y34839970D01*
X42630849Y34730737D01*
X42165302Y34419668D01*
X41910000Y34037582D01*
X41654698Y34419668D01*
X41189151Y34730737D01*
X40640000Y34839970D01*
X40090849Y34730737D01*
X39625302Y34419668D01*
X39372851Y34041849D01*
X39024896Y34474500D01*
X38531819Y34744367D01*
X38449039Y34761904D01*
X38227000Y34639915D01*
X37973000Y34639915D01*
X37750961Y34761904D01*
X37668181Y34744367D01*
X37175104Y34474500D01*
X36827149Y34041849D01*
X36574698Y34419668D01*
X36109151Y34730737D01*
X35967049Y34759003D01*
X35166052Y35560000D01*
X38507048Y38900997D01*
X38649151Y38929263D01*
X39114698Y39240332D01*
X39201340Y39370000D01*
X39538660Y39370000D01*
X39625302Y39240332D01*
X40090849Y38929263D01*
X40640000Y38820030D01*
X41189151Y38929263D01*
X41654698Y39240332D01*
X41910000Y39622418D01*
X42165302Y39240332D01*
X42630849Y38929263D01*
X43180000Y38820030D01*
X43729151Y38929263D01*
X44194698Y39240332D01*
X44450000Y39622418D01*
X44705302Y39240332D01*
X45170849Y38929263D01*
X45720000Y38820030D01*
X46269151Y38929263D01*
X46734698Y39240332D01*
X46990000Y39622418D01*
X47245302Y39240332D01*
X47710849Y38929263D01*
X48260000Y38820030D01*
X48809151Y38929263D01*
X49274698Y39240332D01*
X49530000Y39622418D01*
X49785302Y39240332D01*
X50250849Y38929263D01*
X50800000Y38820030D01*
X51349151Y38929263D01*
X51814698Y39240332D01*
X52070000Y39622418D01*
X52325302Y39240332D01*
X52790849Y38929263D01*
X53340000Y38820030D01*
X53889151Y38929263D01*
X54354698Y39240332D01*
X54665767Y39705879D01*
X54775000Y40255030D01*
X54775000Y41024970D01*
X54665767Y41574121D01*
X54354698Y42039668D01*
X53889151Y42350737D01*
X53340000Y42459970D01*
X52790849Y42350737D01*
X52325302Y42039668D01*
X52070000Y41657582D01*
X51814698Y42039668D01*
X51349151Y42350737D01*
X50800000Y42459970D01*
X50250849Y42350737D01*
X49785302Y42039668D01*
X49530000Y41657582D01*
X49274698Y42039668D01*
X48809151Y42350737D01*
X48260000Y42459970D01*
X47710849Y42350737D01*
X47245302Y42039668D01*
X46990000Y41657582D01*
X46734698Y42039668D01*
X46269151Y42350737D01*
X45720000Y42459970D01*
X45170849Y42350737D01*
X44705302Y42039668D01*
X44450000Y41657582D01*
X44194698Y42039668D01*
X43729151Y42350737D01*
X43180000Y42459970D01*
X42630849Y42350737D01*
X42165302Y42039668D01*
X41910000Y41657582D01*
X41654698Y42039668D01*
X41189151Y42350737D01*
X40640000Y42459970D01*
X40090849Y42350737D01*
X39625302Y42039668D01*
X39538660Y41910000D01*
X39201340Y41910000D01*
X39114698Y42039668D01*
X38649151Y42350737D01*
X38100000Y42459970D01*
X37550849Y42350737D01*
X37085302Y42039668D01*
X36832851Y41661849D01*
X36484896Y42094500D01*
X35991819Y42364367D01*
X35909039Y42381904D01*
X35687000Y42259915D01*
X35687000Y40767000D01*
X35707000Y40767000D01*
X35707000Y40513000D01*
X35687000Y40513000D01*
X35687000Y40493000D01*
X35433000Y40493000D01*
X35433000Y40513000D01*
X35413000Y40513000D01*
X35413000Y40767000D01*
X35433000Y40767000D01*
X35433000Y42259915D01*
X35210961Y42381904D01*
X35128181Y42364367D01*
X34635104Y42094500D01*
X34287149Y41661849D01*
X34034698Y42039668D01*
X33569151Y42350737D01*
X33020000Y42459970D01*
X32470849Y42350737D01*
X32005302Y42039668D01*
X31750000Y41657582D01*
X31494698Y42039668D01*
X31029151Y42350737D01*
X30480000Y42459970D01*
X29930849Y42350737D01*
X29465302Y42039668D01*
X29210000Y41657582D01*
X28954698Y42039668D01*
X28489151Y42350737D01*
X27940000Y42459970D01*
X27390849Y42350737D01*
X26925302Y42039668D01*
X26670000Y41657582D01*
X26414698Y42039668D01*
X25949151Y42350737D01*
X25400000Y42459970D01*
X24850849Y42350737D01*
X24385302Y42039668D01*
X24130000Y41657582D01*
X23874698Y42039668D01*
X23409151Y42350737D01*
X22860000Y42459970D01*
X22310849Y42350737D01*
X21845302Y42039668D01*
X21590000Y41657582D01*
X21334698Y42039668D01*
X20869151Y42350737D01*
X20320000Y42459970D01*
X19770849Y42350737D01*
X19305302Y42039668D01*
X18994233Y41574121D01*
X18885000Y41024970D01*
X18885000Y40255030D01*
X18994233Y39705879D01*
X19305302Y39240332D01*
X19770849Y38929263D01*
X20320000Y38820030D01*
X20869151Y38929263D01*
X21334698Y39240332D01*
X21590000Y39622418D01*
X21845302Y39240332D01*
X22310849Y38929263D01*
X22860000Y38820030D01*
X23409151Y38929263D01*
X23874698Y39240332D01*
X24130000Y39622418D01*
X24385302Y39240332D01*
X24850849Y38929263D01*
X25400000Y38820030D01*
X25949151Y38929263D01*
X26414698Y39240332D01*
X26670000Y39622418D01*
X26925302Y39240332D01*
X27390849Y38929263D01*
X27940000Y38820030D01*
X28489151Y38929263D01*
X28954698Y39240332D01*
X29210000Y39622418D01*
X29465302Y39240332D01*
X29930849Y38929263D01*
X30480000Y38820030D01*
X31029151Y38929263D01*
X31494698Y39240332D01*
X31750000Y39622418D01*
X32005302Y39240332D01*
X32470849Y38929263D01*
X33020000Y38820030D01*
X33569151Y38929263D01*
X34034698Y39240332D01*
X34287149Y39618151D01*
X34635104Y39185500D01*
X34999830Y38985881D01*
X32723948Y36710000D01*
X18310005Y36710000D01*
X18310000Y36710001D01*
X17823992Y36613327D01*
X17411974Y36338026D01*
X17411972Y36338023D01*
X16633948Y35560000D01*
X16025503Y35560000D01*
X15890000Y35587440D01*
X14590000Y35587440D01*
X14354683Y35543162D01*
X14138559Y35404090D01*
X13993569Y35191890D01*
X13942560Y34940000D01*
X8125460Y34940000D01*
X8125460Y35277370D01*
X8028787Y35510759D01*
X7850158Y35689387D01*
X7818500Y35702500D01*
X10490200Y35702500D01*
X10725517Y35746778D01*
X10941641Y35885850D01*
X11086631Y36098050D01*
X11137640Y36349940D01*
X11137640Y38390984D01*
X14520590Y38390984D01*
X14576271Y38160389D01*
X15059078Y37992378D01*
X15569428Y38021917D01*
X15903729Y38160389D01*
X15959410Y38390984D01*
X15240000Y39110395D01*
X14520590Y38390984D01*
X11137640Y38390984D01*
X11137640Y39470922D01*
X13942378Y39470922D01*
X13971917Y38960572D01*
X14110389Y38626271D01*
X14340984Y38570590D01*
X15060395Y39290000D01*
X15419605Y39290000D01*
X16139016Y38570590D01*
X16369611Y38626271D01*
X16537622Y39109078D01*
X16508083Y39619428D01*
X16369611Y39953729D01*
X16139016Y40009410D01*
X15419605Y39290000D01*
X15060395Y39290000D01*
X14340984Y40009410D01*
X14110389Y39953729D01*
X13942378Y39470922D01*
X11137640Y39470922D01*
X11137640Y39850060D01*
X11093362Y40085377D01*
X11026673Y40189016D01*
X14520590Y40189016D01*
X15240000Y39469605D01*
X15959410Y40189016D01*
X15903729Y40419611D01*
X15420922Y40587622D01*
X14910572Y40558083D01*
X14576271Y40419611D01*
X14520590Y40189016D01*
X11026673Y40189016D01*
X10954290Y40301501D01*
X10742090Y40446491D01*
X10490200Y40497500D01*
X6990080Y40497500D01*
X6754763Y40453222D01*
X6538639Y40314150D01*
X6393649Y40101950D01*
X6342640Y39850060D01*
X6342640Y36349940D01*
X6386918Y36114623D01*
X6525990Y35898499D01*
X6690550Y35786060D01*
X6026150Y35786060D01*
X5867400Y35627310D01*
X5613400Y35627310D01*
X5454650Y35786060D01*
X4788728Y35786060D01*
X4850418Y35811613D01*
X5029047Y35990241D01*
X5125720Y36223630D01*
X5125720Y37814250D01*
X4966970Y37973000D01*
X2867660Y37973000D01*
X2613660Y37973000D01*
X2593660Y37973000D01*
X2593660Y38227000D01*
X2613660Y38227000D01*
X2613660Y40326310D01*
X2867660Y40326310D01*
X2867660Y38227000D01*
X4966970Y38227000D01*
X5125720Y38385750D01*
X5125720Y39976370D01*
X5029047Y40209759D01*
X4850418Y40388387D01*
X4617029Y40485060D01*
X3026410Y40485060D01*
X2867660Y40326310D01*
X2613660Y40326310D01*
X2454910Y40485060D01*
X864291Y40485060D01*
X710000Y40421151D01*
X710000Y44820984D01*
X10790590Y44820984D01*
X10846271Y44590389D01*
X11329078Y44422378D01*
X11839428Y44451917D01*
X12173729Y44590389D01*
X12229410Y44820984D01*
X11510000Y45540395D01*
X10790590Y44820984D01*
X710000Y44820984D01*
X710000Y45900922D01*
X10212378Y45900922D01*
X10241917Y45390572D01*
X10380389Y45056271D01*
X10610984Y45000590D01*
X11330395Y45720000D01*
X10610984Y46439410D01*
X10380389Y46383729D01*
X10212378Y45900922D01*
X710000Y45900922D01*
X710000Y46619016D01*
X10790590Y46619016D01*
X11510000Y45899605D01*
X11524142Y45913748D01*
X11703748Y45734142D01*
X11689605Y45720000D01*
X12409016Y45000590D01*
X12639611Y45056271D01*
X12807622Y45539078D01*
X12797347Y45716601D01*
X13691972Y44821977D01*
X13691974Y44821974D01*
X14038566Y44590389D01*
X14103992Y44546673D01*
X14590000Y44449999D01*
X14590005Y44450000D01*
X15724497Y44450000D01*
X15860000Y44422560D01*
X17160000Y44422560D01*
X17395317Y44466838D01*
X17611441Y44605910D01*
X17756431Y44818110D01*
X17778993Y44929523D01*
X17796838Y44834683D01*
X17935910Y44618559D01*
X18148110Y44473569D01*
X18400000Y44422560D01*
X19700000Y44422560D01*
X19935317Y44466838D01*
X20151441Y44605910D01*
X20296431Y44818110D01*
X20297012Y44820984D01*
X23330590Y44820984D01*
X23386271Y44590389D01*
X23869078Y44422378D01*
X24379428Y44451917D01*
X24713729Y44590389D01*
X24769410Y44820984D01*
X24050000Y45540395D01*
X23330590Y44820984D01*
X20297012Y44820984D01*
X20347440Y45070000D01*
X20347440Y45900922D01*
X22752378Y45900922D01*
X22781917Y45390572D01*
X22920389Y45056271D01*
X23150984Y45000590D01*
X23870395Y45720000D01*
X24229605Y45720000D01*
X24949016Y45000590D01*
X25179611Y45056271D01*
X25347622Y45539078D01*
X25318083Y46049428D01*
X25179611Y46383729D01*
X24949016Y46439410D01*
X24229605Y45720000D01*
X23870395Y45720000D01*
X23150984Y46439410D01*
X22920389Y46383729D01*
X22752378Y45900922D01*
X20347440Y45900922D01*
X20347440Y46370000D01*
X20303162Y46605317D01*
X20294590Y46618638D01*
X20294515Y46619016D01*
X23330590Y46619016D01*
X24050000Y45899605D01*
X24769410Y46619016D01*
X24713729Y46849611D01*
X24230922Y47017622D01*
X23720572Y46988083D01*
X23386271Y46849611D01*
X23330590Y46619016D01*
X20294515Y46619016D01*
X20223327Y46976898D01*
X19980370Y47340509D01*
X19980370Y47340510D01*
X25100505Y47340510D01*
X25100510Y47340509D01*
X25586518Y47437183D01*
X25998536Y47712484D01*
X26546051Y48260000D01*
X27154497Y48260000D01*
X27290000Y48232560D01*
X28590000Y48232560D01*
X28825317Y48276838D01*
X29041441Y48415910D01*
X29186431Y48628110D01*
X29237440Y48880000D01*
X29237440Y50180000D01*
X29193162Y50415317D01*
X29054090Y50631441D01*
X28841890Y50776431D01*
X28590000Y50827440D01*
X27290000Y50827440D01*
X27144169Y50800000D01*
X26020000Y50800000D01*
X25533992Y50703327D01*
X25121974Y50428026D01*
X25121972Y50428023D01*
X24574458Y49880510D01*
X21618739Y49880510D01*
X21705570Y50173890D01*
X21705570Y50673000D01*
X20447000Y50673000D01*
X20447000Y50653000D01*
X20193000Y50653000D01*
X20193000Y50673000D01*
X20173000Y50673000D01*
X20173000Y50927000D01*
X20193000Y50927000D01*
X20193000Y52519339D01*
X20447000Y52519339D01*
X20447000Y50927000D01*
X21705570Y50927000D01*
X21705570Y51426110D01*
X21635281Y51663600D01*
X30238960Y51663600D01*
X30238960Y49936400D01*
X30283238Y49701083D01*
X30422310Y49484959D01*
X30634510Y49339969D01*
X30886400Y49288960D01*
X32613600Y49288960D01*
X32848917Y49333238D01*
X33065041Y49472310D01*
X33210031Y49684510D01*
X33218864Y49728131D01*
X33230330Y49710971D01*
X33716511Y49386115D01*
X34290000Y49272041D01*
X34863489Y49386115D01*
X35349670Y49710971D01*
X35560000Y50025752D01*
X35770330Y49710971D01*
X36256511Y49386115D01*
X36830000Y49272041D01*
X37403489Y49386115D01*
X37889670Y49710971D01*
X38100000Y50025752D01*
X38310330Y49710971D01*
X38796511Y49386115D01*
X39370000Y49272041D01*
X39943489Y49386115D01*
X40429670Y49710971D01*
X40754526Y50197152D01*
X40868600Y50770641D01*
X40868600Y50829359D01*
X40754526Y51402848D01*
X40429670Y51889029D01*
X40158828Y52070000D01*
X40429670Y52250971D01*
X40754526Y52737152D01*
X40868600Y53310641D01*
X40868600Y53369359D01*
X40754526Y53942848D01*
X40429670Y54429029D01*
X39943489Y54753885D01*
X39370000Y54867959D01*
X38796511Y54753885D01*
X38310330Y54429029D01*
X38100000Y54114248D01*
X37889670Y54429029D01*
X37403489Y54753885D01*
X36830000Y54867959D01*
X36256511Y54753885D01*
X35770330Y54429029D01*
X35560000Y54114248D01*
X35349670Y54429029D01*
X34863489Y54753885D01*
X34290000Y54867959D01*
X33716511Y54753885D01*
X33230330Y54429029D01*
X33014336Y54105772D01*
X32956821Y54228490D01*
X32524947Y54622688D01*
X32109026Y54794958D01*
X31877000Y54673817D01*
X31877000Y53467000D01*
X31897000Y53467000D01*
X31897000Y53213000D01*
X31877000Y53213000D01*
X31877000Y53193000D01*
X31623000Y53193000D01*
X31623000Y53213000D01*
X30415531Y53213000D01*
X30295032Y52980973D01*
X30543179Y52451510D01*
X30729433Y52281505D01*
X30651083Y52266762D01*
X30434959Y52127690D01*
X30289969Y51915490D01*
X30238960Y51663600D01*
X21635281Y51663600D01*
X21551499Y51946677D01*
X21209944Y52368658D01*
X20732903Y52627810D01*
X20661275Y52641993D01*
X20447000Y52519339D01*
X20193000Y52519339D01*
X19978725Y52641993D01*
X19907097Y52627810D01*
X19430056Y52368658D01*
X19088501Y51946677D01*
X19061950Y51856968D01*
X19060100Y51866268D01*
X18759746Y52315779D01*
X18310235Y52616133D01*
X18246314Y52628848D01*
X17244178Y53630984D01*
X27220590Y53630984D01*
X27276271Y53400389D01*
X27759078Y53232378D01*
X28269428Y53261917D01*
X28603729Y53400389D01*
X28659410Y53630984D01*
X28591368Y53699027D01*
X30295032Y53699027D01*
X30415531Y53467000D01*
X31623000Y53467000D01*
X31623000Y54673817D01*
X31390974Y54794958D01*
X30975053Y54622688D01*
X30543179Y54228490D01*
X30295032Y53699027D01*
X28591368Y53699027D01*
X27940000Y54350395D01*
X27220590Y53630984D01*
X17244178Y53630984D01*
X16987646Y53887516D01*
X16575628Y54162817D01*
X16089620Y54259491D01*
X16089615Y54259490D01*
X14539822Y54259490D01*
X14053814Y54162817D01*
X13641796Y53887516D01*
X12651594Y52897314D01*
X12376293Y52485296D01*
X12279619Y51999288D01*
X12279620Y51999283D01*
X12279620Y46760385D01*
X12279619Y46760380D01*
X12294742Y46684350D01*
X12229410Y46619018D01*
X12173729Y46849611D01*
X11690922Y47017622D01*
X11180572Y46988083D01*
X10846271Y46849611D01*
X10790590Y46619016D01*
X710000Y46619016D01*
X710000Y54710922D01*
X26642378Y54710922D01*
X26671917Y54200572D01*
X26810389Y53866271D01*
X27040984Y53810590D01*
X27760395Y54530000D01*
X28119605Y54530000D01*
X28839016Y53810590D01*
X29069611Y53866271D01*
X29237622Y54349078D01*
X29208083Y54859428D01*
X29069611Y55193729D01*
X28839016Y55249410D01*
X28119605Y54530000D01*
X27760395Y54530000D01*
X27040984Y55249410D01*
X26810389Y55193729D01*
X26642378Y54710922D01*
X710000Y54710922D01*
X710000Y55429016D01*
X27220590Y55429016D01*
X27940000Y54709605D01*
X28659410Y55429016D01*
X28603729Y55659611D01*
X28120922Y55827622D01*
X27610572Y55798083D01*
X27276271Y55659611D01*
X27220590Y55429016D01*
X710000Y55429016D01*
X710000Y60250000D01*
X62790000Y60250000D01*
X62790000Y710000D01*
M02*
