M48
;DRILL file {KiCad (2015-09-10 BZR 6180)-product} date Tue 24 Nov 2015 01:24:32 PM EST
;FORMAT={-:-/ absolute / metric / decimal}
FMAT,2
METRIC,TZ
T1C0.762
T2C0.800
T3C1.001
T4C1.016
T5C3.048
%
G90
G05
M71
T1
X7.62Y29.845
X7.62Y24.765
X10.16Y27.305
T2
X10.795Y37.465
X10.795Y34.925
X10.795Y32.385
X12.065Y21.59
X12.065Y19.05
X12.065Y16.51
X12.065Y13.97
X15.875Y35.56
X15.875Y33.02
X15.875Y30.48
X19.685Y21.59
X19.685Y19.05
X19.685Y16.51
X19.685Y13.97
X23.495Y28.575
X24.765Y29.845
X25.4Y38.02
X25.4Y33.02
X25.4Y12.62
X25.4Y7.62
X26.035Y28.575
X31.75Y26.67
X31.75Y21.67
T3
X7.62Y21.59
X7.62Y11.43
X10.795Y9.525
X17.78Y45.519
X17.78Y39.52
X20.32Y35.56
X20.32Y25.4
X20.955Y9.525
X23.495Y25.4
X23.495Y15.24
X26.67Y25.4
X26.67Y15.24
X29.21Y43.18
X29.21Y33.02
X29.845Y18.415
X29.845Y8.255
T4
X6.35Y39.37
X6.35Y36.83
X6.35Y34.29
X29.845Y29.845
X32.385Y29.845
T5
X5.08Y45.72
X33.02Y45.72
T3
X13.081Y42.52G85X13.081Y42.52
G05
T0
M30
