M48
;DRILL file {KiCad (2015-12-07 BZR 6352)-product} date Sat 20 Feb 2016 08:48:35 AM EST
;FORMAT={-:-/ absolute / metric / decimal}
FMAT,2
METRIC,TZ
T1C0.600
T2C0.800
T3C0.813
T4C1.000
T5C1.016
T6C1.200
T7C3.048
%
G90
G05
M71
T1
X13.97Y34.925
X15.609Y53.4
X19.05Y64.77
X24.13Y38.735
X27.94Y48.26
X29.395Y49.386
X29.975Y29.169
X30.027Y31.594
X31.426Y49.43
X31.805Y35.109
X32.481Y31.486
X34.516Y33.232
X35.923Y34.129
X39.261Y47.754
X39.37Y46.104
X39.37Y44.45
X40.005Y36.195
X41.912Y40.005
X43.901Y58.41
X45.72Y35.622
X46.978Y58.914
X48.322Y55.88
X49.53Y68.58
X49.53Y50.8
X50.8Y63.5
X50.8Y40.64
X57.785Y49.53
X62.23Y39.37
X63.5Y27.94
T2
X53.34Y30.48
X53.34Y22.86
X53.34Y20.32
X53.34Y12.7
X58.42Y30.48
X58.42Y22.86
X58.42Y20.32
X58.42Y12.7
T3
X15.24Y33.02
X17.78Y33.02
T4
X25.4Y53.34
X27.94Y68.58
X27.94Y53.34
X30.48Y68.58
X30.48Y53.34
X33.02Y68.58
X33.02Y53.34
X35.56Y68.58
X35.56Y53.34
X38.1Y68.58
X38.1Y53.34
X40.64Y53.34
T5
X44.45Y43.18
X44.45Y40.64
X44.45Y38.1
X46.99Y43.18
X46.99Y40.64
X46.99Y38.1
T6
X36.83Y23.779
X36.83Y17.78
X41.529Y20.78
T7
X2.54Y66.04
X2.54Y12.7
X12.7Y5.08
X53.34Y5.08
X63.5Y66.04
X63.5Y12.7
T0
M30
